<svg width="927" height="650" viewBox="0 0 927 650" fill="none" xmlns="http://www.w3.org/2000/svg">
<g clip-path="url(#clip0_38_3)">
<g filter="url(#filter0_d_38_3)">
<circle cx="300" cy="300" r="300" fill="#AE654A"/>
</g>
<g filter="url(#filter1_d_38_3)">
<circle cx="300" cy="300" r="275" fill="#CEA392"/>
</g>
<circle cx="300" cy="300" r="173.5" stroke="#683D2C" stroke-width="3" stroke-dasharray="10 10"/>
<g filter="url(#filter2_d_38_3)">
<circle cx="300" cy="300" r="125" fill="#F7F0ED"/>
</g>
<path d="M300 480V595" stroke="#683D2C" stroke-width="3" stroke-linecap="square"/>
<line x1="294" y1="477.5" x2="306" y2="477.5" stroke="#683D2C" stroke-width="3"/>
<line x1="294" y1="477.5" x2="306" y2="477.5" stroke="#683D2C" stroke-width="3"/>
<line x1="294" y1="477.5" x2="306" y2="477.5" stroke="#683D2C" stroke-width="3"/>
<line x1="294" y1="595.5" x2="306" y2="595.5" stroke="#683D2C" stroke-width="3"/>
<line x1="294" y1="595.5" x2="306" y2="595.5" stroke="#683D2C" stroke-width="3"/>
<line x1="294" y1="595.5" x2="306" y2="595.5" stroke="#683D2C" stroke-width="3"/>
</g>
<g filter="url(#filter3_d_38_3)">
<path d="M550.246 479.703C549.53 480.12 549.287 481.038 549.703 481.754L556.493 493.423C556.909 494.139 557.827 494.382 558.543 493.965C559.259 493.549 559.502 492.63 559.086 491.914L553.051 481.542L563.423 475.507C564.139 475.091 564.382 474.173 563.965 473.457C563.549 472.741 562.63 472.498 561.914 472.914L550.246 479.703ZM638.383 502.55L551.383 479.55L550.617 482.45L637.617 505.45L638.383 502.55Z" fill="#AE654A"/>
</g>
<path d="M646.32 501.92C646.32 499.147 646.92 496.68 648.12 494.52C649.32 492.333 650.987 490.64 653.12 489.44C655.28 488.213 657.72 487.6 660.44 487.6C663.773 487.6 666.627 488.48 669 490.24C671.373 492 672.96 494.4 673.76 497.44H666.24C665.68 496.267 664.88 495.373 663.84 494.76C662.827 494.147 661.667 493.84 660.36 493.84C658.253 493.84 656.547 494.573 655.24 496.04C653.933 497.507 653.28 499.467 653.28 501.92C653.28 504.373 653.933 506.333 655.24 507.8C656.547 509.267 658.253 510 660.36 510C661.667 510 662.827 509.693 663.84 509.08C664.88 508.467 665.68 507.573 666.24 506.4H673.76C672.96 509.44 671.373 511.84 669 513.6C666.627 515.333 663.773 516.2 660.44 516.2C657.72 516.2 655.28 515.6 653.12 514.4C650.987 513.173 649.32 511.48 648.12 509.32C646.92 507.16 646.32 504.693 646.32 501.92ZM704.269 516L698.429 505.4H696.789V516H689.949V487.92H701.429C703.642 487.92 705.522 488.307 707.069 489.08C708.642 489.853 709.815 490.92 710.589 492.28C711.362 493.613 711.749 495.107 711.749 496.76C711.749 498.627 711.215 500.293 710.149 501.76C709.109 503.227 707.562 504.267 705.509 504.88L711.989 516H704.269ZM696.789 500.56H701.029C702.282 500.56 703.215 500.253 703.829 499.64C704.469 499.027 704.789 498.16 704.789 497.04C704.789 495.973 704.469 495.133 703.829 494.52C703.215 493.907 702.282 493.6 701.029 493.6H696.789V500.56ZM734.763 487.92V504.72C734.763 506.4 735.176 507.693 736.003 508.6C736.829 509.507 738.043 509.96 739.643 509.96C741.243 509.96 742.469 509.507 743.323 508.6C744.176 507.693 744.603 506.4 744.603 504.72V487.92H751.443V504.68C751.443 507.187 750.909 509.307 749.843 511.04C748.776 512.773 747.336 514.08 745.523 514.96C743.736 515.84 741.736 516.28 739.523 516.28C737.309 516.28 735.323 515.853 733.563 515C731.829 514.12 730.456 512.813 729.443 511.08C728.429 509.32 727.923 507.187 727.923 504.68V487.92H734.763ZM778.406 516.28C776.352 516.28 774.512 515.947 772.886 515.28C771.259 514.613 769.952 513.627 768.966 512.32C768.006 511.013 767.499 509.44 767.446 507.6H774.726C774.832 508.64 775.192 509.44 775.806 510C776.419 510.533 777.219 510.8 778.206 510.8C779.219 510.8 780.019 510.573 780.606 510.12C781.192 509.64 781.486 508.987 781.486 508.16C781.486 507.467 781.246 506.893 780.766 506.44C780.312 505.987 779.739 505.613 779.046 505.32C778.379 505.027 777.419 504.693 776.166 504.32C774.352 503.76 772.872 503.2 771.726 502.64C770.579 502.08 769.592 501.253 768.766 500.16C767.939 499.067 767.526 497.64 767.526 495.88C767.526 493.267 768.472 491.227 770.366 489.76C772.259 488.267 774.726 487.52 777.766 487.52C780.859 487.52 783.352 488.267 785.246 489.76C787.139 491.227 788.152 493.28 788.286 495.92H780.886C780.832 495.013 780.499 494.307 779.886 493.8C779.272 493.267 778.486 493 777.526 493C776.699 493 776.032 493.227 775.526 493.68C775.019 494.107 774.766 494.733 774.766 495.56C774.766 496.467 775.192 497.173 776.046 497.68C776.899 498.187 778.232 498.733 780.046 499.32C781.859 499.933 783.326 500.52 784.446 501.08C785.592 501.64 786.579 502.453 787.406 503.52C788.232 504.587 788.646 505.96 788.646 507.64C788.646 509.24 788.232 510.693 787.406 512C786.606 513.307 785.432 514.347 783.886 515.12C782.339 515.893 780.512 516.28 778.406 516.28ZM825.055 487.92V493.4H817.615V516H810.775V493.4H803.335V487.92H825.055Z" fill="#AE654A"/>
<path d="M601.496 85.92C601.496 83.1467 602.096 80.68 603.296 78.52C604.496 76.3333 606.162 74.64 608.296 73.44C610.456 72.2133 612.896 71.6 615.616 71.6C618.949 71.6 621.802 72.48 624.176 74.24C626.549 76 628.136 78.4 628.936 81.44H621.416C620.856 80.2667 620.056 79.3733 619.016 78.76C618.002 78.1467 616.842 77.84 615.536 77.84C613.429 77.84 611.722 78.5733 610.416 80.04C609.109 81.5067 608.456 83.4667 608.456 85.92C608.456 88.3733 609.109 90.3333 610.416 91.8C611.722 93.2667 613.429 94 615.536 94C616.842 94 618.002 93.6933 619.016 93.08C620.056 92.4667 620.856 91.5733 621.416 90.4H628.936C628.136 93.44 626.549 95.84 624.176 97.6C621.802 99.3333 618.949 100.2 615.616 100.2C612.896 100.2 610.456 99.6 608.296 98.4C606.162 97.1733 604.496 95.48 603.296 93.32C602.096 91.16 601.496 88.6933 601.496 85.92ZM658.405 100.28C655.765 100.28 653.338 99.6667 651.125 98.44C648.938 97.2133 647.191 95.5067 645.885 93.32C644.605 91.1067 643.965 88.6267 643.965 85.88C643.965 83.1333 644.605 80.6667 645.885 78.48C647.191 76.2933 648.938 74.5867 651.125 73.36C653.338 72.1333 655.765 71.52 658.405 71.52C661.045 71.52 663.458 72.1333 665.645 73.36C667.858 74.5867 669.591 76.2933 670.845 78.48C672.125 80.6667 672.765 83.1333 672.765 85.88C672.765 88.6267 672.125 91.1067 670.845 93.32C669.565 95.5067 667.831 97.2133 665.645 98.44C663.458 99.6667 661.045 100.28 658.405 100.28ZM658.405 94.04C660.645 94.04 662.431 93.2933 663.765 91.8C665.125 90.3067 665.805 88.3333 665.805 85.88C665.805 83.4 665.125 81.4267 663.765 79.96C662.431 78.4667 660.645 77.72 658.405 77.72C656.138 77.72 654.325 78.4533 652.965 79.92C651.631 81.3867 650.965 83.3733 650.965 85.88C650.965 88.36 651.631 90.3467 652.965 91.84C654.325 93.3067 656.138 94.04 658.405 94.04ZM702.89 100L697.05 89.4H695.41V100H688.57V71.92H700.05C702.263 71.92 704.143 72.3067 705.69 73.08C707.263 73.8533 708.437 74.92 709.21 76.28C709.983 77.6133 710.37 79.1067 710.37 80.76C710.37 82.6267 709.837 84.2933 708.77 85.76C707.73 87.2267 706.183 88.2667 704.13 88.88L710.61 100H702.89ZM695.41 84.56H699.65C700.903 84.56 701.837 84.2533 702.45 83.64C703.09 83.0267 703.41 82.16 703.41 81.04C703.41 79.9733 703.09 79.1333 702.45 78.52C701.837 77.9067 700.903 77.6 699.65 77.6H695.41V84.56ZM733.504 77.4V83.08H742.664V88.36H733.504V94.52H743.864V100H726.664V71.92H743.864V77.4H733.504Z" fill="#F7F0ED"/>
<g filter="url(#filter4_d_38_3)">
<path d="M395.557 188.592C395.331 189.389 395.795 190.218 396.592 190.443L409.583 194.117C410.38 194.342 411.209 193.879 411.434 193.081C411.659 192.284 411.196 191.455 410.399 191.23L398.852 187.965L402.117 176.417C402.342 175.62 401.879 174.791 401.081 174.566C400.284 174.341 399.455 174.804 399.23 175.601L395.557 188.592ZM582.268 83.6908L396.268 187.691L397.732 190.309L583.732 86.3092L582.268 83.6908Z" fill="#F7F0ED"/>
</g>
<path d="M716.468 286.92V315H709.628V298.16L703.348 315H697.828L691.508 298.12V315H684.668V286.92H692.747L700.628 306.36L708.428 286.92H716.468ZM750.866 310.04H740.386L738.706 315H731.546L741.706 286.92H749.626L759.786 315H752.546L750.866 310.04ZM749.106 304.76L745.626 294.48L742.186 304.76H749.106ZM799.998 315H793.158L781.718 297.68V315H774.878V286.92H781.718L793.158 304.32V286.92H799.998V315ZM837.157 286.92V292.4H829.717V315H822.877V292.4H815.437V286.92H837.157ZM859.429 292.4V298.08H868.589V303.36H859.429V309.52H869.789V315H852.589V286.92H869.789V292.4H859.429ZM893.07 309.72H902.03V315H886.23V286.92H893.07V309.72Z" fill="#CEA392"/>
<g filter="url(#filter5_d_38_3)">
<path d="M581.939 299.939C581.354 300.525 581.354 301.475 581.939 302.061L591.485 311.607C592.071 312.192 593.021 312.192 593.607 311.607C594.192 311.021 594.192 310.071 593.607 309.485L585.121 301L593.607 292.515C594.192 291.929 594.192 290.979 593.607 290.393C593.021 289.808 592.071 289.808 591.485 290.393L581.939 299.939ZM673 299.5L583 299.5L583 302.5L673 302.5L673 299.5Z" fill="#CEA392"/>
</g>
<defs>
<filter id="filter0_d_38_3" x="-4" y="0" width="608" height="614" filterUnits="userSpaceOnUse" color-interpolation-filters="sRGB">
<feFlood flood-opacity="0" result="BackgroundImageFix"/>
<feColorMatrix in="SourceAlpha" type="matrix" values="0 0 0 0 0 0 0 0 0 0 0 0 0 0 0 0 0 0 127 0" result="hardAlpha"/>
<feOffset dy="10"/>
<feGaussianBlur stdDeviation="2"/>
<feComposite in2="hardAlpha" operator="out"/>
<feColorMatrix type="matrix" values="0 0 0 0 0 0 0 0 0 0 0 0 0 0 0 0 0 0 0.25 0"/>
<feBlend mode="normal" in2="BackgroundImageFix" result="effect1_dropShadow_38_3"/>
<feBlend mode="normal" in="SourceGraphic" in2="effect1_dropShadow_38_3" result="shape"/>
</filter>
<filter id="filter1_d_38_3" x="21" y="25" width="558" height="564" filterUnits="userSpaceOnUse" color-interpolation-filters="sRGB">
<feFlood flood-opacity="0" result="BackgroundImageFix"/>
<feColorMatrix in="SourceAlpha" type="matrix" values="0 0 0 0 0 0 0 0 0 0 0 0 0 0 0 0 0 0 127 0" result="hardAlpha"/>
<feOffset dy="10"/>
<feGaussianBlur stdDeviation="2"/>
<feComposite in2="hardAlpha" operator="out"/>
<feColorMatrix type="matrix" values="0 0 0 0 0 0 0 0 0 0 0 0 0 0 0 0 0 0 0.25 0"/>
<feBlend mode="normal" in2="BackgroundImageFix" result="effect1_dropShadow_38_3"/>
<feBlend mode="normal" in="SourceGraphic" in2="effect1_dropShadow_38_3" result="shape"/>
</filter>
<filter id="filter2_d_38_3" x="171" y="175" width="258" height="264" filterUnits="userSpaceOnUse" color-interpolation-filters="sRGB">
<feFlood flood-opacity="0" result="BackgroundImageFix"/>
<feColorMatrix in="SourceAlpha" type="matrix" values="0 0 0 0 0 0 0 0 0 0 0 0 0 0 0 0 0 0 127 0" result="hardAlpha"/>
<feOffset dy="10"/>
<feGaussianBlur stdDeviation="2"/>
<feComposite in2="hardAlpha" operator="out"/>
<feColorMatrix type="matrix" values="0 0 0 0 0 0 0 0 0 0 0 0 0 0 0 0 0 0 0.25 0"/>
<feBlend mode="normal" in2="BackgroundImageFix" result="effect1_dropShadow_38_3"/>
<feBlend mode="normal" in="SourceGraphic" in2="effect1_dropShadow_38_3" result="shape"/>
</filter>
<filter id="filter3_d_38_3" x="545.5" y="472.711" width="96.8837" height="40.7395" filterUnits="userSpaceOnUse" color-interpolation-filters="sRGB">
<feFlood flood-opacity="0" result="BackgroundImageFix"/>
<feColorMatrix in="SourceAlpha" type="matrix" values="0 0 0 0 0 0 0 0 0 0 0 0 0 0 0 0 0 0 127 0" result="hardAlpha"/>
<feOffset dy="4"/>
<feGaussianBlur stdDeviation="2"/>
<feComposite in2="hardAlpha" operator="out"/>
<feColorMatrix type="matrix" values="0 0 0 0 0 0 0 0 0 0 0 0 0 0 0 0 0 0 0.25 0"/>
<feBlend mode="normal" in2="BackgroundImageFix" result="effect1_dropShadow_38_3"/>
<feBlend mode="normal" in="SourceGraphic" in2="effect1_dropShadow_38_3" result="shape"/>
</filter>
<filter id="filter4_d_38_3" x="391.5" y="83.6908" width="196.232" height="118.483" filterUnits="userSpaceOnUse" color-interpolation-filters="sRGB">
<feFlood flood-opacity="0" result="BackgroundImageFix"/>
<feColorMatrix in="SourceAlpha" type="matrix" values="0 0 0 0 0 0 0 0 0 0 0 0 0 0 0 0 0 0 127 0" result="hardAlpha"/>
<feOffset dy="4"/>
<feGaussianBlur stdDeviation="2"/>
<feComposite in2="hardAlpha" operator="out"/>
<feColorMatrix type="matrix" values="0 0 0 0 0 0 0 0 0 0 0 0 0 0 0 0 0 0 0.25 0"/>
<feBlend mode="normal" in2="BackgroundImageFix" result="effect1_dropShadow_38_3"/>
<feBlend mode="normal" in="SourceGraphic" in2="effect1_dropShadow_38_3" result="shape"/>
</filter>
<filter id="filter5_d_38_3" x="577.5" y="289.954" width="99.5" height="30.0919" filterUnits="userSpaceOnUse" color-interpolation-filters="sRGB">
<feFlood flood-opacity="0" result="BackgroundImageFix"/>
<feColorMatrix in="SourceAlpha" type="matrix" values="0 0 0 0 0 0 0 0 0 0 0 0 0 0 0 0 0 0 127 0" result="hardAlpha"/>
<feOffset dy="4"/>
<feGaussianBlur stdDeviation="2"/>
<feComposite in2="hardAlpha" operator="out"/>
<feColorMatrix type="matrix" values="0 0 0 0 0 0 0 0 0 0 0 0 0 0 0 0 0 0 0.25 0"/>
<feBlend mode="normal" in2="BackgroundImageFix" result="effect1_dropShadow_38_3"/>
<feBlend mode="normal" in="SourceGraphic" in2="effect1_dropShadow_38_3" result="shape"/>
</filter>
<clipPath id="clip0_38_3">
<rect width="600" height="600" fill="white"/>
</clipPath>
</defs>
</svg>
