<svg width="922" height="616" viewBox="0 0 922 616" fill="none" xmlns="http://www.w3.org/2000/svg">
<g clip-path="url(#clip0_5_114)">
<circle cx="300" cy="300" r="300" fill="#F7F0ED"/>
<circle cx="300" cy="300" r="275" fill="#AE654A"/>
<circle cx="300" cy="300" r="173.5" stroke="#683D2C" stroke-width="3" stroke-dasharray="10 10"/>
<circle cx="300" cy="300" r="125" fill="#CEA392"/>
<path d="M300 480V595" stroke="#683D2C" stroke-width="3" stroke-linecap="square"/>
<line x1="294" y1="477.5" x2="306" y2="477.5" stroke="#683D2C" stroke-width="3"/>
<line x1="294" y1="477.5" x2="306" y2="477.5" stroke="#683D2C" stroke-width="3"/>
<line x1="294" y1="477.5" x2="306" y2="477.5" stroke="#683D2C" stroke-width="3"/>
<line x1="294" y1="595.5" x2="306" y2="595.5" stroke="#683D2C" stroke-width="3"/>
<line x1="294" y1="595.5" x2="306" y2="595.5" stroke="#683D2C" stroke-width="3"/>
<line x1="294" y1="595.5" x2="306" y2="595.5" stroke="#683D2C" stroke-width="3"/>
</g>
<path d="M653.32 163.92C653.32 161.147 653.92 158.68 655.12 156.52C656.32 154.333 657.987 152.64 660.12 151.44C662.28 150.213 664.72 149.6 667.44 149.6C670.773 149.6 673.627 150.48 676 152.24C678.373 154 679.96 156.4 680.76 159.44H673.24C672.68 158.267 671.88 157.373 670.84 156.76C669.827 156.147 668.667 155.84 667.36 155.84C665.253 155.84 663.547 156.573 662.24 158.04C660.933 159.507 660.28 161.467 660.28 163.92C660.28 166.373 660.933 168.333 662.24 169.8C663.547 171.267 665.253 172 667.36 172C668.667 172 669.827 171.693 670.84 171.08C671.88 170.467 672.68 169.573 673.24 168.4H680.76C679.96 171.44 678.373 173.84 676 175.6C673.627 177.333 670.773 178.2 667.44 178.2C664.72 178.2 662.28 177.6 660.12 176.4C657.987 175.173 656.32 173.48 655.12 171.32C653.92 169.16 653.32 166.693 653.32 163.92ZM711.269 178L705.429 167.4H703.789V178H696.949V149.92H708.429C710.642 149.92 712.522 150.307 714.069 151.08C715.642 151.853 716.815 152.92 717.589 154.28C718.362 155.613 718.749 157.107 718.749 158.76C718.749 160.627 718.215 162.293 717.149 163.76C716.109 165.227 714.562 166.267 712.509 166.88L718.989 178H711.269ZM703.789 162.56H708.029C709.282 162.56 710.215 162.253 710.829 161.64C711.469 161.027 711.789 160.16 711.789 159.04C711.789 157.973 711.469 157.133 710.829 156.52C710.215 155.907 709.282 155.6 708.029 155.6H703.789V162.56ZM741.763 149.92V166.72C741.763 168.4 742.176 169.693 743.003 170.6C743.829 171.507 745.043 171.96 746.643 171.96C748.243 171.96 749.469 171.507 750.323 170.6C751.176 169.693 751.603 168.4 751.603 166.72V149.92H758.443V166.68C758.443 169.187 757.909 171.307 756.843 173.04C755.776 174.773 754.336 176.08 752.523 176.96C750.736 177.84 748.736 178.28 746.523 178.28C744.309 178.28 742.323 177.853 740.563 177C738.829 176.12 737.456 174.813 736.443 173.08C735.429 171.32 734.923 169.187 734.923 166.68V149.92H741.763ZM785.406 178.28C783.352 178.28 781.512 177.947 779.886 177.28C778.259 176.613 776.952 175.627 775.966 174.32C775.006 173.013 774.499 171.44 774.446 169.6H781.726C781.832 170.64 782.192 171.44 782.806 172C783.419 172.533 784.219 172.8 785.206 172.8C786.219 172.8 787.019 172.573 787.606 172.12C788.192 171.64 788.486 170.987 788.486 170.16C788.486 169.467 788.246 168.893 787.766 168.44C787.312 167.987 786.739 167.613 786.046 167.32C785.379 167.027 784.419 166.693 783.166 166.32C781.352 165.76 779.872 165.2 778.726 164.64C777.579 164.08 776.592 163.253 775.766 162.16C774.939 161.067 774.526 159.64 774.526 157.88C774.526 155.267 775.472 153.227 777.366 151.76C779.259 150.267 781.726 149.52 784.766 149.52C787.859 149.52 790.352 150.267 792.246 151.76C794.139 153.227 795.152 155.28 795.286 157.92H787.886C787.832 157.013 787.499 156.307 786.886 155.8C786.272 155.267 785.486 155 784.526 155C783.699 155 783.032 155.227 782.526 155.68C782.019 156.107 781.766 156.733 781.766 157.56C781.766 158.467 782.192 159.173 783.046 159.68C783.899 160.187 785.232 160.733 787.046 161.32C788.859 161.933 790.326 162.52 791.446 163.08C792.592 163.64 793.579 164.453 794.406 165.52C795.232 166.587 795.646 167.96 795.646 169.64C795.646 171.24 795.232 172.693 794.406 174C793.606 175.307 792.432 176.347 790.886 177.12C789.339 177.893 787.512 178.28 785.406 178.28ZM832.055 149.92V155.4H824.615V178H817.775V155.4H810.335V149.92H832.055Z" fill="#F7F0ED"/>
<path d="M584.216 187.097C583.717 188.082 584.111 189.286 585.097 189.784L601.157 197.913C602.142 198.412 603.345 198.018 603.844 197.032C604.343 196.047 603.949 194.843 602.963 194.345L588.688 187.119L595.913 172.843C596.412 171.858 596.018 170.655 595.032 170.156C594.047 169.657 592.843 170.051 592.345 171.037L584.216 187.097ZM646.377 166.1L585.377 186.1L586.623 189.9L647.623 169.9L646.377 166.1Z" fill="#F7F0ED"/>
<path d="M353.621 565.72H362.581V571H346.781V542.92H353.621V565.72ZM384.683 542.92V571H377.843V542.92H384.683ZM421.84 542.92V548.4H414.4V571H407.56V548.4H400.12V542.92H421.84ZM461.593 542.92V571H454.753V559.44H444.113V571H437.273V542.92H444.113V553.92H454.753V542.92H461.593ZM491.811 571.28C489.171 571.28 486.744 570.667 484.531 569.44C482.344 568.213 480.597 566.507 479.291 564.32C478.011 562.107 477.371 559.627 477.371 556.88C477.371 554.133 478.011 551.667 479.291 549.48C480.597 547.293 482.344 545.587 484.531 544.36C486.744 543.133 489.171 542.52 491.811 542.52C494.451 542.52 496.864 543.133 499.051 544.36C501.264 545.587 502.997 547.293 504.251 549.48C505.531 551.667 506.171 554.133 506.171 556.88C506.171 559.627 505.531 562.107 504.251 564.32C502.971 566.507 501.237 568.213 499.051 569.44C496.864 570.667 494.451 571.28 491.811 571.28ZM491.811 565.04C494.051 565.04 495.837 564.293 497.171 562.8C498.531 561.307 499.211 559.333 499.211 556.88C499.211 554.4 498.531 552.427 497.171 550.96C495.837 549.467 494.051 548.72 491.811 548.72C489.544 548.72 487.731 549.453 486.371 550.92C485.037 552.387 484.371 554.373 484.371 556.88C484.371 559.36 485.037 561.347 486.371 562.84C487.731 564.307 489.544 565.04 491.811 565.04ZM532.136 571.28C530.083 571.28 528.243 570.947 526.616 570.28C524.989 569.613 523.683 568.627 522.696 567.32C521.736 566.013 521.229 564.44 521.176 562.6H528.456C528.563 563.64 528.923 564.44 529.536 565C530.149 565.533 530.949 565.8 531.936 565.8C532.949 565.8 533.749 565.573 534.336 565.12C534.923 564.64 535.216 563.987 535.216 563.16C535.216 562.467 534.976 561.893 534.496 561.44C534.043 560.987 533.469 560.613 532.776 560.32C532.109 560.027 531.149 559.693 529.896 559.32C528.083 558.76 526.603 558.2 525.456 557.64C524.309 557.08 523.323 556.253 522.496 555.16C521.669 554.067 521.256 552.64 521.256 550.88C521.256 548.267 522.203 546.227 524.096 544.76C525.989 543.267 528.456 542.52 531.496 542.52C534.589 542.52 537.083 543.267 538.976 544.76C540.869 546.227 541.883 548.28 542.016 550.92H534.616C534.563 550.013 534.229 549.307 533.616 548.8C533.003 548.267 532.216 548 531.256 548C530.429 548 529.763 548.227 529.256 548.68C528.749 549.107 528.496 549.733 528.496 550.56C528.496 551.467 528.923 552.173 529.776 552.68C530.629 553.187 531.963 553.733 533.776 554.32C535.589 554.933 537.056 555.52 538.176 556.08C539.323 556.64 540.309 557.453 541.136 558.52C541.963 559.587 542.376 560.96 542.376 562.64C542.376 564.24 541.963 565.693 541.136 567C540.336 568.307 539.163 569.347 537.616 570.12C536.069 570.893 534.243 571.28 532.136 571.28ZM579.985 551.96C579.985 553.587 579.612 555.08 578.865 556.44C578.119 557.773 576.972 558.853 575.425 559.68C573.879 560.507 571.959 560.92 569.665 560.92H565.425V571H558.585V542.92H569.665C571.905 542.92 573.799 543.307 575.345 544.08C576.892 544.853 578.052 545.92 578.825 547.28C579.599 548.64 579.985 550.2 579.985 551.96ZM569.145 555.48C570.452 555.48 571.425 555.173 572.065 554.56C572.705 553.947 573.025 553.08 573.025 551.96C573.025 550.84 572.705 549.973 572.065 549.36C571.425 548.747 570.452 548.44 569.145 548.44H565.425V555.48H569.145ZM619.866 542.92V571H613.026V559.44H602.386V571H595.546V542.92H602.386V553.92H613.026V542.92H619.866ZM643.644 548.4V554.08H652.804V559.36H643.644V565.52H654.004V571H636.804V542.92H654.004V548.4H643.644ZM684.765 571L678.925 560.4H677.285V571H670.445V542.92H681.925C684.138 542.92 686.018 543.307 687.565 544.08C689.138 544.853 690.312 545.92 691.085 547.28C691.858 548.613 692.245 550.107 692.245 551.76C692.245 553.627 691.712 555.293 690.645 556.76C689.605 558.227 688.058 559.267 686.005 559.88L692.485 571H684.765ZM677.285 555.56H681.525C682.778 555.56 683.712 555.253 684.325 554.64C684.965 554.027 685.285 553.16 685.285 552.04C685.285 550.973 684.965 550.133 684.325 549.52C683.712 548.907 682.778 548.6 681.525 548.6H677.285V555.56ZM715.379 548.4V554.08H724.539V559.36H715.379V565.52H725.739V571H708.539V542.92H725.739V548.4H715.379Z" fill="#683D2C"/>
<mask id="path-11-outside-1_5_114" maskUnits="userSpaceOnUse" x="619" y="396" width="145" height="32" fill="black">
<rect fill="white" x="619" y="396" width="145" height="32"/>
<path d="M620.496 411.92C620.496 409.147 621.096 406.68 622.296 404.52C623.496 402.333 625.162 400.64 627.296 399.44C629.456 398.213 631.896 397.6 634.616 397.6C637.949 397.6 640.802 398.48 643.176 400.24C645.549 402 647.136 404.4 647.936 407.44H640.416C639.856 406.267 639.056 405.373 638.016 404.76C637.002 404.147 635.842 403.84 634.536 403.84C632.429 403.84 630.722 404.573 629.416 406.04C628.109 407.507 627.456 409.467 627.456 411.92C627.456 414.373 628.109 416.333 629.416 417.8C630.722 419.267 632.429 420 634.536 420C635.842 420 637.002 419.693 638.016 419.08C639.056 418.467 639.856 417.573 640.416 416.4H647.936C647.136 419.44 645.549 421.84 643.176 423.6C640.802 425.333 637.949 426.2 634.616 426.2C631.896 426.2 629.456 425.6 627.296 424.4C625.162 423.173 623.496 421.48 622.296 419.32C621.096 417.16 620.496 414.693 620.496 411.92ZM677.405 426.28C674.765 426.28 672.338 425.667 670.125 424.44C667.938 423.213 666.191 421.507 664.885 419.32C663.605 417.107 662.965 414.627 662.965 411.88C662.965 409.133 663.605 406.667 664.885 404.48C666.191 402.293 667.938 400.587 670.125 399.36C672.338 398.133 674.765 397.52 677.405 397.52C680.045 397.52 682.458 398.133 684.645 399.36C686.858 400.587 688.591 402.293 689.845 404.48C691.125 406.667 691.765 409.133 691.765 411.88C691.765 414.627 691.125 417.107 689.845 419.32C688.565 421.507 686.831 423.213 684.645 424.44C682.458 425.667 680.045 426.28 677.405 426.28ZM677.405 420.04C679.645 420.04 681.431 419.293 682.765 417.8C684.125 416.307 684.805 414.333 684.805 411.88C684.805 409.4 684.125 407.427 682.765 405.96C681.431 404.467 679.645 403.72 677.405 403.72C675.138 403.72 673.325 404.453 671.965 405.92C670.631 407.387 669.965 409.373 669.965 411.88C669.965 414.36 670.631 416.347 671.965 417.84C673.325 419.307 675.138 420.04 677.405 420.04ZM721.89 426L716.05 415.4H714.41V426H707.57V397.92H719.05C721.263 397.92 723.143 398.307 724.69 399.08C726.263 399.853 727.437 400.92 728.21 402.28C728.983 403.613 729.37 405.107 729.37 406.76C729.37 408.627 728.837 410.293 727.77 411.76C726.73 413.227 725.183 414.267 723.13 414.88L729.61 426H721.89ZM714.41 410.56H718.65C719.903 410.56 720.837 410.253 721.45 409.64C722.09 409.027 722.41 408.16 722.41 407.04C722.41 405.973 722.09 405.133 721.45 404.52C720.837 403.907 719.903 403.6 718.65 403.6H714.41V410.56ZM752.504 403.4V409.08H761.664V414.36H752.504V420.52H762.864V426H745.664V397.92H762.864V403.4H752.504Z"/>
</mask>
<path d="M620.496 411.92C620.496 409.147 621.096 406.68 622.296 404.52C623.496 402.333 625.162 400.64 627.296 399.44C629.456 398.213 631.896 397.6 634.616 397.6C637.949 397.6 640.802 398.48 643.176 400.24C645.549 402 647.136 404.4 647.936 407.44H640.416C639.856 406.267 639.056 405.373 638.016 404.76C637.002 404.147 635.842 403.84 634.536 403.84C632.429 403.84 630.722 404.573 629.416 406.04C628.109 407.507 627.456 409.467 627.456 411.92C627.456 414.373 628.109 416.333 629.416 417.8C630.722 419.267 632.429 420 634.536 420C635.842 420 637.002 419.693 638.016 419.08C639.056 418.467 639.856 417.573 640.416 416.4H647.936C647.136 419.44 645.549 421.84 643.176 423.6C640.802 425.333 637.949 426.2 634.616 426.2C631.896 426.2 629.456 425.6 627.296 424.4C625.162 423.173 623.496 421.48 622.296 419.32C621.096 417.16 620.496 414.693 620.496 411.92ZM677.405 426.28C674.765 426.28 672.338 425.667 670.125 424.44C667.938 423.213 666.191 421.507 664.885 419.32C663.605 417.107 662.965 414.627 662.965 411.88C662.965 409.133 663.605 406.667 664.885 404.48C666.191 402.293 667.938 400.587 670.125 399.36C672.338 398.133 674.765 397.52 677.405 397.52C680.045 397.52 682.458 398.133 684.645 399.36C686.858 400.587 688.591 402.293 689.845 404.48C691.125 406.667 691.765 409.133 691.765 411.88C691.765 414.627 691.125 417.107 689.845 419.32C688.565 421.507 686.831 423.213 684.645 424.44C682.458 425.667 680.045 426.28 677.405 426.28ZM677.405 420.04C679.645 420.04 681.431 419.293 682.765 417.8C684.125 416.307 684.805 414.333 684.805 411.88C684.805 409.4 684.125 407.427 682.765 405.96C681.431 404.467 679.645 403.72 677.405 403.72C675.138 403.72 673.325 404.453 671.965 405.92C670.631 407.387 669.965 409.373 669.965 411.88C669.965 414.36 670.631 416.347 671.965 417.84C673.325 419.307 675.138 420.04 677.405 420.04ZM721.89 426L716.05 415.4H714.41V426H707.57V397.92H719.05C721.263 397.92 723.143 398.307 724.69 399.08C726.263 399.853 727.437 400.92 728.21 402.28C728.983 403.613 729.37 405.107 729.37 406.76C729.37 408.627 728.837 410.293 727.77 411.76C726.73 413.227 725.183 414.267 723.13 414.88L729.61 426H721.89ZM714.41 410.56H718.65C719.903 410.56 720.837 410.253 721.45 409.64C722.09 409.027 722.41 408.16 722.41 407.04C722.41 405.973 722.09 405.133 721.45 404.52C720.837 403.907 719.903 403.6 718.65 403.6H714.41V410.56ZM752.504 403.4V409.08H761.664V414.36H752.504V420.52H762.864V426H745.664V397.92H762.864V403.4H752.504Z" fill="#CEA392"/>
<path d="M622.296 404.52L623.17 405.006L623.172 405.001L622.296 404.52ZM627.296 399.44L627.786 400.312L627.79 400.31L627.296 399.44ZM643.176 400.24L643.771 399.437L643.771 399.437L643.176 400.24ZM647.936 407.44V408.44H649.233L648.903 407.186L647.936 407.44ZM640.416 407.44L639.513 407.871L639.785 408.44H640.416V407.44ZM638.016 404.76L637.498 405.616L637.508 405.621L638.016 404.76ZM629.416 406.04L630.162 406.705L630.162 406.705L629.416 406.04ZM629.416 417.8L628.669 418.465L629.416 417.8ZM638.016 419.08L637.508 418.219L637.498 418.224L638.016 419.08ZM640.416 416.4V415.4H639.785L639.513 415.969L640.416 416.4ZM647.936 416.4L648.903 416.654L649.233 415.4H647.936V416.4ZM643.176 423.6L643.766 424.408L643.771 424.403L643.176 423.6ZM627.296 424.4L626.797 425.267L626.804 425.271L626.81 425.274L627.296 424.4ZM622.296 419.32L623.17 418.834L623.17 418.834L622.296 419.32ZM621.496 411.92C621.496 409.295 622.062 407 623.17 405.006L621.422 404.034C620.129 406.36 619.496 408.998 619.496 411.92H621.496ZM623.172 405.001C624.284 402.975 625.819 401.418 627.786 400.312L626.806 398.568C624.506 399.862 622.707 401.692 621.419 404.039L623.172 405.001ZM627.79 400.31C629.785 399.176 632.052 398.6 634.616 398.6V396.6C631.74 396.6 629.127 397.25 626.802 398.57L627.79 400.31ZM634.616 398.6C637.763 398.6 640.401 399.427 642.58 401.043L643.771 399.437C641.204 397.533 638.135 396.6 634.616 396.6V398.6ZM642.58 401.043C644.759 402.659 646.223 404.859 646.969 407.694L648.903 407.186C648.049 403.941 646.339 401.341 643.771 399.437L642.58 401.043ZM647.936 406.44H640.416V408.44H647.936V406.44ZM641.318 407.009C640.679 405.671 639.748 404.621 638.524 403.899L637.508 405.621C638.363 406.126 639.032 406.863 639.513 407.871L641.318 407.009ZM638.534 403.904C637.348 403.187 636.006 402.84 634.536 402.84V404.84C635.679 404.84 636.657 405.106 637.498 405.615L638.534 403.904ZM634.536 402.84C632.167 402.84 630.181 403.678 628.669 405.375L630.162 406.705C631.264 405.468 632.691 404.84 634.536 404.84V402.84ZM628.669 405.375C627.162 407.067 626.456 409.285 626.456 411.92H628.456C628.456 409.649 629.057 407.946 630.162 406.705L628.669 405.375ZM626.456 411.92C626.456 414.555 627.162 416.773 628.669 418.465L630.162 417.135C629.057 415.894 628.456 414.191 628.456 411.92H626.456ZM628.669 418.465C630.181 420.162 632.167 421 634.536 421V419C632.691 419 631.264 418.372 630.162 417.135L628.669 418.465ZM634.536 421C636.006 421 637.348 420.653 638.534 419.935L637.498 418.224C636.657 418.734 635.679 419 634.536 419V421ZM638.524 419.941C639.748 419.219 640.679 418.169 641.318 416.831L639.513 415.969C639.032 416.977 638.363 417.714 637.508 418.219L638.524 419.941ZM640.416 417.4H647.936V415.4H640.416V417.4ZM646.969 416.146C646.223 418.981 644.759 421.181 642.58 422.797L643.771 424.403C646.339 422.499 648.049 419.899 648.903 416.654L646.969 416.146ZM642.586 422.792C640.406 424.384 637.767 425.2 634.616 425.2V427.2C638.131 427.2 641.199 426.282 643.766 424.408L642.586 422.792ZM634.616 425.2C632.048 425.2 629.778 424.635 627.781 423.526L626.81 425.274C629.133 426.565 631.743 427.2 634.616 427.2V425.2ZM627.794 423.533C625.819 422.397 624.282 420.836 623.17 418.834L621.422 419.806C622.709 422.124 624.506 423.949 626.797 425.267L627.794 423.533ZM623.17 418.834C622.062 416.84 621.496 414.545 621.496 411.92H619.496C619.496 414.842 620.129 417.48 621.422 419.806L623.17 418.834ZM670.125 424.44L669.635 425.312L669.64 425.315L670.125 424.44ZM664.885 419.32L664.019 419.821L664.022 419.827L664.026 419.833L664.885 419.32ZM664.885 404.48L664.026 403.967L664.022 403.975L664.885 404.48ZM670.125 399.36L669.64 398.485L669.635 398.488L670.125 399.36ZM684.645 399.36L684.155 400.232L684.16 400.235L684.645 399.36ZM689.845 404.48L688.977 404.977L688.982 404.985L689.845 404.48ZM689.845 419.32L690.708 419.825L690.71 419.821L689.845 419.32ZM684.645 424.44L685.134 425.312L685.134 425.312L684.645 424.44ZM682.765 417.8L682.025 417.127L682.019 417.134L682.765 417.8ZM682.765 405.96L682.019 406.626L682.025 406.633L682.031 406.64L682.765 405.96ZM671.965 405.92L671.231 405.24L671.225 405.247L671.965 405.92ZM671.965 417.84L671.219 418.506L671.225 418.513L671.231 418.52L671.965 417.84ZM677.405 425.28C674.927 425.28 672.668 424.706 670.609 423.565L669.64 425.315C672.008 426.627 674.603 427.28 677.405 427.28V425.28ZM670.614 423.568C668.582 422.428 666.962 420.846 665.743 418.807L664.026 419.833C665.421 422.167 667.294 423.999 669.635 425.312L670.614 423.568ZM665.75 418.819C664.565 416.769 663.965 414.464 663.965 411.88H661.965C661.965 414.789 662.644 417.444 664.019 419.821L665.75 418.819ZM663.965 411.88C663.965 409.295 664.565 407.006 665.748 404.985L664.022 403.975C662.644 406.328 661.965 408.971 661.965 411.88H663.965ZM665.743 404.993C666.962 402.954 668.582 401.372 670.614 400.232L669.635 398.488C667.294 399.801 665.421 401.633 664.026 403.967L665.743 404.993ZM670.609 400.235C672.668 399.094 674.927 398.52 677.405 398.52V396.52C674.603 396.52 672.008 397.173 669.64 398.485L670.609 400.235ZM677.405 398.52C679.883 398.52 682.126 399.094 684.155 400.232L685.134 398.488C682.79 397.173 680.206 396.52 677.405 396.52V398.52ZM684.16 400.235C686.214 401.373 687.815 402.95 688.977 404.977L690.712 403.983C689.368 401.637 687.502 399.8 685.129 398.485L684.16 400.235ZM688.982 404.985C690.164 407.006 690.765 409.295 690.765 411.88H692.765C692.765 408.971 692.085 406.328 690.708 403.975L688.982 404.985ZM690.765 411.88C690.765 414.464 690.164 416.769 688.979 418.819L690.71 419.821C692.085 417.444 692.765 414.789 692.765 411.88H690.765ZM688.982 418.815C687.79 420.85 686.185 422.429 684.155 423.568L685.134 425.312C687.477 423.998 689.339 422.163 690.708 419.825L688.982 418.815ZM684.155 423.568C682.126 424.706 679.883 425.28 677.405 425.28V427.28C680.206 427.28 682.79 426.627 685.134 425.312L684.155 423.568ZM677.405 421.04C679.892 421.04 681.964 420.198 683.51 418.466L682.019 417.134C680.899 418.388 679.397 419.04 677.405 419.04V421.04ZM683.504 418.473C685.066 416.758 685.805 414.526 685.805 411.88H683.805C683.805 414.14 683.183 415.855 682.025 417.127L683.504 418.473ZM685.805 411.88C685.805 409.211 685.068 406.973 683.498 405.28L682.031 406.64C683.181 407.88 683.805 409.589 683.805 411.88H685.805ZM683.51 405.294C681.964 403.562 679.892 402.72 677.405 402.72V404.72C679.397 404.72 680.899 405.372 682.019 406.626L683.51 405.294ZM677.405 402.72C674.9 402.72 672.807 403.541 671.231 405.24L672.698 406.6C673.842 405.366 675.375 404.72 677.405 404.72V402.72ZM671.225 405.247C669.683 406.943 668.965 409.193 668.965 411.88H670.965C670.965 409.554 671.579 407.83 672.704 406.593L671.225 405.247ZM668.965 411.88C668.965 414.545 669.685 416.788 671.219 418.506L672.71 417.174C671.577 415.905 670.965 414.175 670.965 411.88H668.965ZM671.231 418.52C672.807 420.219 674.9 421.04 677.405 421.04V419.04C675.375 419.04 673.842 418.394 672.698 417.16L671.231 418.52ZM721.89 426L721.014 426.483L721.299 427H721.89V426ZM716.05 415.4L716.926 414.917L716.641 414.4H716.05V415.4ZM714.41 415.4V414.4H713.41V415.4H714.41ZM714.41 426V427H715.41V426H714.41ZM707.57 426H706.57V427H707.57V426ZM707.57 397.92V396.92H706.57V397.92H707.57ZM724.69 399.08L724.243 399.974L724.249 399.977L724.69 399.08ZM728.21 402.28L727.341 402.774L727.345 402.782L728.21 402.28ZM727.77 411.76L726.961 411.172L726.954 411.182L727.77 411.76ZM723.13 414.88L722.844 413.922L721.626 414.286L722.266 415.383L723.13 414.88ZM729.61 426V427H731.35L730.474 425.497L729.61 426ZM714.41 410.56H713.41V411.56H714.41V410.56ZM721.45 409.64L720.758 408.918L720.75 408.925L720.743 408.933L721.45 409.64ZM721.45 404.52L720.743 405.227L720.75 405.235L720.758 405.242L721.45 404.52ZM714.41 403.6V402.6H713.41V403.6H714.41ZM722.766 425.517L716.926 414.917L715.174 415.883L721.014 426.483L722.766 425.517ZM716.05 414.4H714.41V416.4H716.05V414.4ZM713.41 415.4V426H715.41V415.4H713.41ZM714.41 425H707.57V427H714.41V425ZM708.57 426V397.92H706.57V426H708.57ZM707.57 398.92H719.05V396.92H707.57V398.92ZM719.05 398.92C721.15 398.92 722.868 399.287 724.243 399.974L725.137 398.186C723.418 397.326 721.376 396.92 719.05 396.92V398.92ZM724.249 399.977C725.665 400.673 726.678 401.609 727.341 402.774L729.079 401.786C728.195 400.231 726.862 399.033 725.131 398.183L724.249 399.977ZM727.345 402.782C728.023 403.952 728.37 405.27 728.37 406.76H730.37C730.37 404.944 729.943 403.275 729.075 401.778L727.345 402.782ZM728.37 406.76C728.37 408.422 727.9 409.881 726.961 411.172L728.579 412.348C729.773 410.705 730.37 408.831 730.37 406.76H728.37ZM726.954 411.182C726.067 412.433 724.726 413.36 722.844 413.922L723.416 415.838C725.641 415.174 727.393 414.02 728.586 412.338L726.954 411.182ZM722.266 415.383L728.746 426.503L730.474 425.497L723.994 414.377L722.266 415.383ZM729.61 425H721.89V427H729.61V425ZM714.41 411.56H718.65V409.56H714.41V411.56ZM718.65 411.56C720.05 411.56 721.286 411.218 722.157 410.347L720.743 408.933C720.387 409.289 719.756 409.56 718.65 409.56V411.56ZM722.142 410.362C723.027 409.513 723.41 408.356 723.41 407.04H721.41C721.41 407.964 721.152 408.54 720.758 408.918L722.142 410.362ZM723.41 407.04C723.41 405.76 723.018 404.638 722.142 403.798L720.758 405.242C721.162 405.629 721.41 406.186 721.41 407.04H723.41ZM722.157 403.813C721.286 402.942 720.05 402.6 718.65 402.6V404.6C719.756 404.6 720.387 404.871 720.743 405.227L722.157 403.813ZM718.65 402.6H714.41V404.6H718.65V402.6ZM713.41 403.6V410.56H715.41V403.6H713.41ZM752.504 403.4V402.4H751.504V403.4H752.504ZM752.504 409.08H751.504V410.08H752.504V409.08ZM761.664 409.08H762.664V408.08H761.664V409.08ZM761.664 414.36V415.36H762.664V414.36H761.664ZM752.504 414.36V413.36H751.504V414.36H752.504ZM752.504 420.52H751.504V421.52H752.504V420.52ZM762.864 420.52H763.864V419.52H762.864V420.52ZM762.864 426V427H763.864V426H762.864ZM745.664 426H744.664V427H745.664V426ZM745.664 397.92V396.92H744.664V397.92H745.664ZM762.864 397.92H763.864V396.92H762.864V397.92ZM762.864 403.4V404.4H763.864V403.4H762.864ZM751.504 403.4V409.08H753.504V403.4H751.504ZM752.504 410.08H761.664V408.08H752.504V410.08ZM760.664 409.08V414.36H762.664V409.08H760.664ZM761.664 413.36H752.504V415.36H761.664V413.36ZM751.504 414.36V420.52H753.504V414.36H751.504ZM752.504 421.52H762.864V419.52H752.504V421.52ZM761.864 420.52V426H763.864V420.52H761.864ZM762.864 425H745.664V427H762.864V425ZM746.664 426V397.92H744.664V426H746.664ZM745.664 398.92H762.864V396.92H745.664V398.92ZM761.864 397.92V403.4H763.864V397.92H761.864ZM762.864 402.4H752.504V404.4H762.864V402.4Z" fill="#CEA392" mask="url(#path-11-outside-1_5_114)"/>
<path d="M428.138 345.195C427.141 345.672 426.719 346.866 427.195 347.862L434.957 364.103C435.433 365.1 436.627 365.521 437.624 365.045C438.621 364.569 439.042 363.375 438.566 362.378L431.667 347.942L446.103 341.043C447.1 340.567 447.521 339.373 447.045 338.376C446.569 337.379 445.375 336.958 444.378 337.434L428.138 345.195ZM613.666 410.114L429.666 345.114L428.334 348.886L612.334 413.886L613.666 410.114Z" fill="#CEA392"/>
<mask id="path-14-outside-2_5_114" maskUnits="userSpaceOnUse" x="678" y="284" width="221" height="31" fill="black">
<rect fill="white" x="678" y="284" width="221" height="31"/>
<path d="M711.468 285.92V314H704.628V297.16L698.348 314H692.828L686.508 297.12V314H679.668V285.92H687.747L695.628 305.36L703.428 285.92H711.468ZM745.866 309.04H735.386L733.706 314H726.546L736.706 285.92H744.626L754.786 314H747.546L745.866 309.04ZM744.106 303.76L740.626 293.48L737.186 303.76H744.106ZM794.998 314H788.158L776.718 296.68V314H769.878V285.92H776.718L788.158 303.32V285.92H794.998V314ZM832.157 285.92V291.4H824.717V314H817.877V291.4H810.437V285.92H832.157ZM854.429 291.4V297.08H863.589V302.36H854.429V308.52H864.789V314H847.589V285.92H864.789V291.4H854.429ZM888.07 308.72H897.03V314H881.23V285.92H888.07V308.72Z"/>
</mask>
<path d="M711.468 285.92V314H704.628V297.16L698.348 314H692.828L686.508 297.12V314H679.668V285.92H687.747L695.628 305.36L703.428 285.92H711.468ZM745.866 309.04H735.386L733.706 314H726.546L736.706 285.92H744.626L754.786 314H747.546L745.866 309.04ZM744.106 303.76L740.626 293.48L737.186 303.76H744.106ZM794.998 314H788.158L776.718 296.68V314H769.878V285.92H776.718L788.158 303.32V285.92H794.998V314ZM832.157 285.92V291.4H824.717V314H817.877V291.4H810.437V285.92H832.157ZM854.429 291.4V297.08H863.589V302.36H854.429V308.52H864.789V314H847.589V285.92H864.789V291.4H854.429ZM888.07 308.72H897.03V314H881.23V285.92H888.07V308.72Z" fill="#AE654A"/>
<path d="M711.468 285.92H712.468V284.92H711.468V285.92ZM711.468 314V315H712.468V314H711.468ZM704.628 314H703.628V315H704.628V314ZM704.628 297.16H705.628L703.691 296.811L704.628 297.16ZM698.348 314V315H699.042L699.284 314.349L698.348 314ZM692.828 314L691.891 314.351L692.134 315H692.828V314ZM686.508 297.12L687.444 296.769L685.508 297.12H686.508ZM686.508 314V315H687.508V314H686.508ZM679.668 314H678.668V315H679.668V314ZM679.668 285.92V284.92H678.668V285.92H679.668ZM687.747 285.92L688.674 285.544L688.421 284.92H687.747V285.92ZM695.628 305.36L694.701 305.736L695.632 308.034L696.556 305.732L695.628 305.36ZM703.428 285.92V284.92H702.751L702.499 285.548L703.428 285.92ZM710.468 285.92V314H712.468V285.92H710.468ZM711.468 313H704.628V315H711.468V313ZM705.628 314V297.16H703.628V314H705.628ZM703.691 296.811L697.411 313.651L699.284 314.349L705.564 297.509L703.691 296.811ZM698.348 313H692.828V315H698.348V313ZM693.764 313.649L687.444 296.769L685.571 297.471L691.891 314.351L693.764 313.649ZM685.508 297.12V314H687.508V297.12H685.508ZM686.508 313H679.668V315H686.508V313ZM680.668 314V285.92H678.668V314H680.668ZM679.668 286.92H687.747V284.92H679.668V286.92ZM686.821 286.296L694.701 305.736L696.554 304.984L688.674 285.544L686.821 286.296ZM696.556 305.732L704.356 286.292L702.499 285.548L694.699 304.988L696.556 305.732ZM703.428 286.92H711.468V284.92H703.428V286.92ZM745.866 309.04L746.813 308.719L746.583 308.04H745.866V309.04ZM735.386 309.04V308.04H734.669L734.439 308.719L735.386 309.04ZM733.706 314V315H734.423L734.653 314.321L733.706 314ZM726.546 314L725.606 313.66L725.121 315H726.546V314ZM736.706 285.92V284.92H736.005L735.766 285.58L736.706 285.92ZM744.626 285.92L745.567 285.58L745.328 284.92H744.626V285.92ZM754.786 314V315H756.212L755.727 313.66L754.786 314ZM747.546 314L746.599 314.321L746.829 315H747.546V314ZM744.106 303.76V304.76H745.501L745.053 303.439L744.106 303.76ZM740.626 293.48L741.573 293.159L740.621 290.345L739.678 293.163L740.626 293.48ZM737.186 303.76L736.238 303.443L735.797 304.76H737.186V303.76ZM745.866 308.04H735.386V310.04H745.866V308.04ZM734.439 308.719L732.759 313.679L734.653 314.321L736.333 309.361L734.439 308.719ZM733.706 313H726.546V315H733.706V313ZM727.487 314.34L737.647 286.26L735.766 285.58L725.606 313.66L727.487 314.34ZM736.706 286.92H744.626V284.92H736.706V286.92ZM743.686 286.26L753.846 314.34L755.727 313.66L745.567 285.58L743.686 286.26ZM754.786 313H747.546V315H754.786V313ZM748.493 313.679L746.813 308.719L744.919 309.361L746.599 314.321L748.493 313.679ZM745.053 303.439L741.573 293.159L739.679 293.801L743.159 304.081L745.053 303.439ZM739.678 293.163L736.238 303.443L738.135 304.077L741.575 293.797L739.678 293.163ZM737.186 304.76H744.106V302.76H737.186V304.76ZM794.998 314V315H795.998V314H794.998ZM788.158 314L787.324 314.551L787.621 315H788.158V314ZM776.718 296.68L777.553 296.129L775.718 293.352V296.68H776.718ZM776.718 314V315H777.718V314H776.718ZM769.878 314H768.878V315H769.878V314ZM769.878 285.92V284.92H768.878V285.92H769.878ZM776.718 285.92L777.554 285.371L777.258 284.92H776.718V285.92ZM788.158 303.32L787.323 303.869L789.158 306.661V303.32H788.158ZM788.158 285.92V284.92H787.158V285.92H788.158ZM794.998 285.92H795.998V284.92H794.998V285.92ZM794.998 313H788.158V315H794.998V313ZM788.993 313.449L777.553 296.129L775.884 297.231L787.324 314.551L788.993 313.449ZM775.718 296.68V314H777.718V296.68H775.718ZM776.718 313H769.878V315H776.718V313ZM770.878 314V285.92H768.878V314H770.878ZM769.878 286.92H776.718V284.92H769.878V286.92ZM775.883 286.469L787.323 303.869L788.994 302.771L777.554 285.371L775.883 286.469ZM789.158 303.32V285.92H787.158V303.32H789.158ZM788.158 286.92H794.998V284.92H788.158V286.92ZM793.998 285.92V314H795.998V285.92H793.998ZM832.157 285.92H833.157V284.92H832.157V285.92ZM832.157 291.4V292.4H833.157V291.4H832.157ZM824.717 291.4V290.4H823.717V291.4H824.717ZM824.717 314V315H825.717V314H824.717ZM817.877 314H816.877V315H817.877V314ZM817.877 291.4H818.877V290.4H817.877V291.4ZM810.437 291.4H809.437V292.4H810.437V291.4ZM810.437 285.92V284.92H809.437V285.92H810.437ZM831.157 285.92V291.4H833.157V285.92H831.157ZM832.157 290.4H824.717V292.4H832.157V290.4ZM823.717 291.4V314H825.717V291.4H823.717ZM824.717 313H817.877V315H824.717V313ZM818.877 314V291.4H816.877V314H818.877ZM817.877 290.4H810.437V292.4H817.877V290.4ZM811.437 291.4V285.92H809.437V291.4H811.437ZM810.437 286.92H832.157V284.92H810.437V286.92ZM854.429 291.4V290.4H853.429V291.4H854.429ZM854.429 297.08H853.429V298.08H854.429V297.08ZM863.589 297.08H864.589V296.08H863.589V297.08ZM863.589 302.36V303.36H864.589V302.36H863.589ZM854.429 302.36V301.36H853.429V302.36H854.429ZM854.429 308.52H853.429V309.52H854.429V308.52ZM864.789 308.52H865.789V307.52H864.789V308.52ZM864.789 314V315H865.789V314H864.789ZM847.589 314H846.589V315H847.589V314ZM847.589 285.92V284.92H846.589V285.92H847.589ZM864.789 285.92H865.789V284.92H864.789V285.92ZM864.789 291.4V292.4H865.789V291.4H864.789ZM853.429 291.4V297.08H855.429V291.4H853.429ZM854.429 298.08H863.589V296.08H854.429V298.08ZM862.589 297.08V302.36H864.589V297.08H862.589ZM863.589 301.36H854.429V303.36H863.589V301.36ZM853.429 302.36V308.52H855.429V302.36H853.429ZM854.429 309.52H864.789V307.52H854.429V309.52ZM863.789 308.52V314H865.789V308.52H863.789ZM864.789 313H847.589V315H864.789V313ZM848.589 314V285.92H846.589V314H848.589ZM847.589 286.92H864.789V284.92H847.589V286.92ZM863.789 285.92V291.4H865.789V285.92H863.789ZM864.789 290.4H854.429V292.4H864.789V290.4ZM888.07 308.72H887.07V309.72H888.07V308.72ZM897.03 308.72H898.03V307.72H897.03V308.72ZM897.03 314V315H898.03V314H897.03ZM881.23 314H880.23V315H881.23V314ZM881.23 285.92V284.92H880.23V285.92H881.23ZM888.07 285.92H889.07V284.92H888.07V285.92ZM888.07 309.72H897.03V307.72H888.07V309.72ZM896.03 308.72V314H898.03V308.72H896.03ZM897.03 313H881.23V315H897.03V313ZM882.23 314V285.92H880.23V314H882.23ZM881.23 286.92H888.07V284.92H881.23V286.92ZM887.07 285.92V308.72H889.07V285.92H887.07Z" fill="#AE654A" mask="url(#path-14-outside-2_5_114)"/>
<path d="M576.586 298.586C575.805 299.367 575.805 300.633 576.586 301.414L589.314 314.142C590.095 314.923 591.361 314.923 592.142 314.142C592.923 313.361 592.923 312.095 592.142 311.314L580.828 300L592.142 288.686C592.923 287.905 592.923 286.639 592.142 285.858C591.361 285.077 590.095 285.077 589.314 285.858L576.586 298.586ZM668 298L578 298L578 302L668 302L668 298Z" fill="#AE654A"/>
<defs>
<clipPath id="clip0_5_114">
<rect width="600" height="600" fill="white"/>
</clipPath>
</defs>
</svg>
