<svg width="583" height="353" viewBox="0 0 583 353" fill="none" xmlns="http://www.w3.org/2000/svg">
<g clip-path="url(#clip0_51_29)">
<circle cx="150" cy="153" r="150" fill="#DCDCDC"/>
<circle cx="150.5" cy="153.5" r="137.5" fill="#8B8B8B"/>
<circle cx="150.5" cy="153.5" r="131" stroke="#535353" stroke-width="3" stroke-dasharray="10 10"/>
<circle cx="150" cy="153" r="125" fill="#FFFDFD"/>
<rect width="10" height="3" transform="translate(145 288)" fill="#535353"/>
<rect width="3" height="8" transform="translate(148.5 291)" fill="#535353"/>
<rect width="10" height="3" transform="translate(145 299)" fill="#535353"/>
</g>
<path d="M275.32 22.92C275.32 20.1467 275.92 17.68 277.12 15.52C278.32 13.3333 279.987 11.64 282.12 10.44C284.28 9.21333 286.72 8.6 289.44 8.6C292.773 8.6 295.627 9.48 298 11.24C300.373 13 301.96 15.4 302.76 18.44H295.24C294.68 17.2667 293.88 16.3733 292.84 15.76C291.827 15.1467 290.667 14.84 289.36 14.84C287.253 14.84 285.547 15.5733 284.24 17.04C282.933 18.5067 282.28 20.4667 282.28 22.92C282.28 25.3733 282.933 27.3333 284.24 28.8C285.547 30.2667 287.253 31 289.36 31C290.667 31 291.827 30.6933 292.84 30.08C293.88 29.4667 294.68 28.5733 295.24 27.4H302.76C301.96 30.44 300.373 32.84 298 34.6C295.627 36.3333 292.773 37.2 289.44 37.2C286.72 37.2 284.28 36.6 282.12 35.4C279.987 34.1733 278.32 32.48 277.12 30.32C275.92 28.16 275.32 25.6933 275.32 22.92ZM333.269 37L327.429 26.4H325.789V37H318.949V8.92H330.429C332.642 8.92 334.522 9.30667 336.069 10.08C337.642 10.8533 338.815 11.92 339.589 13.28C340.362 14.6133 340.749 16.1067 340.749 17.76C340.749 19.6267 340.215 21.2933 339.149 22.76C338.109 24.2267 336.562 25.2667 334.509 25.88L340.989 37H333.269ZM325.789 21.56H330.029C331.282 21.56 332.215 21.2533 332.829 20.64C333.469 20.0267 333.789 19.16 333.789 18.04C333.789 16.9733 333.469 16.1333 332.829 15.52C332.215 14.9067 331.282 14.6 330.029 14.6H325.789V21.56ZM363.763 8.92V25.72C363.763 27.4 364.176 28.6933 365.003 29.6C365.829 30.5067 367.043 30.96 368.643 30.96C370.243 30.96 371.469 30.5067 372.323 29.6C373.176 28.6933 373.603 27.4 373.603 25.72V8.92H380.443V25.68C380.443 28.1867 379.909 30.3067 378.843 32.04C377.776 33.7733 376.336 35.08 374.523 35.96C372.736 36.84 370.736 37.28 368.523 37.28C366.309 37.28 364.323 36.8533 362.563 36C360.829 35.12 359.456 33.8133 358.443 32.08C357.429 30.32 356.923 28.1867 356.923 25.68V8.92H363.763ZM407.406 37.28C405.352 37.28 403.512 36.9467 401.886 36.28C400.259 35.6133 398.952 34.6267 397.966 33.32C397.006 32.0133 396.499 30.44 396.446 28.6H403.726C403.832 29.64 404.192 30.44 404.806 31C405.419 31.5333 406.219 31.8 407.206 31.8C408.219 31.8 409.019 31.5733 409.606 31.12C410.192 30.64 410.486 29.9867 410.486 29.16C410.486 28.4667 410.246 27.8933 409.766 27.44C409.312 26.9867 408.739 26.6133 408.046 26.32C407.379 26.0267 406.419 25.6933 405.166 25.32C403.352 24.76 401.872 24.2 400.726 23.64C399.579 23.08 398.592 22.2533 397.766 21.16C396.939 20.0667 396.526 18.64 396.526 16.88C396.526 14.2667 397.472 12.2267 399.366 10.76C401.259 9.26667 403.726 8.52 406.766 8.52C409.859 8.52 412.352 9.26667 414.246 10.76C416.139 12.2267 417.152 14.28 417.286 16.92H409.886C409.832 16.0133 409.499 15.3067 408.886 14.8C408.272 14.2667 407.486 14 406.526 14C405.699 14 405.032 14.2267 404.526 14.68C404.019 15.1067 403.766 15.7333 403.766 16.56C403.766 17.4667 404.192 18.1733 405.046 18.68C405.899 19.1867 407.232 19.7333 409.046 20.32C410.859 20.9333 412.326 21.52 413.446 22.08C414.592 22.64 415.579 23.4533 416.406 24.52C417.232 25.5867 417.646 26.96 417.646 28.64C417.646 30.24 417.232 31.6933 416.406 33C415.606 34.3067 414.432 35.3467 412.886 36.12C411.339 36.8933 409.512 37.28 407.406 37.28ZM454.055 8.92V14.4H446.615V37H439.775V14.4H432.335V8.92H454.055Z" fill="#F3F3F3"/>
<path d="M159.621 339.72H168.581V345H152.781V316.92H159.621V339.72ZM190.683 316.92V345H183.843V316.92H190.683ZM227.84 316.92V322.4H220.4V345H213.56V322.4H206.12V316.92H227.84ZM267.593 316.92V345H260.753V333.44H250.113V345H243.273V316.92H250.113V327.92H260.753V316.92H267.593ZM297.811 345.28C295.171 345.28 292.744 344.667 290.531 343.44C288.344 342.213 286.597 340.507 285.291 338.32C284.011 336.107 283.371 333.627 283.371 330.88C283.371 328.133 284.011 325.667 285.291 323.48C286.597 321.293 288.344 319.587 290.531 318.36C292.744 317.133 295.171 316.52 297.811 316.52C300.451 316.52 302.864 317.133 305.051 318.36C307.264 319.587 308.997 321.293 310.251 323.48C311.531 325.667 312.171 328.133 312.171 330.88C312.171 333.627 311.531 336.107 310.251 338.32C308.971 340.507 307.237 342.213 305.051 343.44C302.864 344.667 300.451 345.28 297.811 345.28ZM297.811 339.04C300.051 339.04 301.837 338.293 303.171 336.8C304.531 335.307 305.211 333.333 305.211 330.88C305.211 328.4 304.531 326.427 303.171 324.96C301.837 323.467 300.051 322.72 297.811 322.72C295.544 322.72 293.731 323.453 292.371 324.92C291.037 326.387 290.371 328.373 290.371 330.88C290.371 333.36 291.037 335.347 292.371 336.84C293.731 338.307 295.544 339.04 297.811 339.04ZM338.136 345.28C336.083 345.28 334.243 344.947 332.616 344.28C330.989 343.613 329.683 342.627 328.696 341.32C327.736 340.013 327.229 338.44 327.176 336.6H334.456C334.563 337.64 334.923 338.44 335.536 339C336.149 339.533 336.949 339.8 337.936 339.8C338.949 339.8 339.749 339.573 340.336 339.12C340.923 338.64 341.216 337.987 341.216 337.16C341.216 336.467 340.976 335.893 340.496 335.44C340.043 334.987 339.469 334.613 338.776 334.32C338.109 334.027 337.149 333.693 335.896 333.32C334.083 332.76 332.603 332.2 331.456 331.64C330.309 331.08 329.323 330.253 328.496 329.16C327.669 328.067 327.256 326.64 327.256 324.88C327.256 322.267 328.203 320.227 330.096 318.76C331.989 317.267 334.456 316.52 337.496 316.52C340.589 316.52 343.083 317.267 344.976 318.76C346.869 320.227 347.883 322.28 348.016 324.92H340.616C340.563 324.013 340.229 323.307 339.616 322.8C339.003 322.267 338.216 322 337.256 322C336.429 322 335.763 322.227 335.256 322.68C334.749 323.107 334.496 323.733 334.496 324.56C334.496 325.467 334.923 326.173 335.776 326.68C336.629 327.187 337.963 327.733 339.776 328.32C341.589 328.933 343.056 329.52 344.176 330.08C345.323 330.64 346.309 331.453 347.136 332.52C347.963 333.587 348.376 334.96 348.376 336.64C348.376 338.24 347.963 339.693 347.136 341C346.336 342.307 345.163 343.347 343.616 344.12C342.069 344.893 340.243 345.28 338.136 345.28ZM385.985 325.96C385.985 327.587 385.612 329.08 384.865 330.44C384.119 331.773 382.972 332.853 381.425 333.68C379.879 334.507 377.959 334.92 375.665 334.92H371.425V345H364.585V316.92H375.665C377.905 316.92 379.799 317.307 381.345 318.08C382.892 318.853 384.052 319.92 384.825 321.28C385.599 322.64 385.985 324.2 385.985 325.96ZM375.145 329.48C376.452 329.48 377.425 329.173 378.065 328.56C378.705 327.947 379.025 327.08 379.025 325.96C379.025 324.84 378.705 323.973 378.065 323.36C377.425 322.747 376.452 322.44 375.145 322.44H371.425V329.48H375.145ZM425.866 316.92V345H419.026V333.44H408.386V345H401.546V316.92H408.386V327.92H419.026V316.92H425.866ZM449.644 322.4V328.08H458.804V333.36H449.644V339.52H460.004V345H442.804V316.92H460.004V322.4H449.644ZM490.765 345L484.925 334.4H483.285V345H476.445V316.92H487.925C490.138 316.92 492.018 317.307 493.565 318.08C495.138 318.853 496.312 319.92 497.085 321.28C497.858 322.613 498.245 324.107 498.245 325.76C498.245 327.627 497.712 329.293 496.645 330.76C495.605 332.227 494.058 333.267 492.005 333.88L498.485 345H490.765ZM483.285 329.56H487.525C488.778 329.56 489.712 329.253 490.325 328.64C490.965 328.027 491.285 327.16 491.285 326.04C491.285 324.973 490.965 324.133 490.325 323.52C489.712 322.907 488.778 322.6 487.525 322.6H483.285V329.56ZM521.379 322.4V328.08H530.539V333.36H521.379V339.52H531.739V345H514.539V316.92H531.739V322.4H521.379Z" fill="#535353"/>
<path d="M314.496 246.92C314.496 244.147 315.096 241.68 316.296 239.52C317.496 237.333 319.162 235.64 321.296 234.44C323.456 233.213 325.896 232.6 328.616 232.6C331.949 232.6 334.802 233.48 337.176 235.24C339.549 237 341.136 239.4 341.936 242.44H334.416C333.856 241.267 333.056 240.373 332.016 239.76C331.002 239.147 329.842 238.84 328.536 238.84C326.429 238.84 324.722 239.573 323.416 241.04C322.109 242.507 321.456 244.467 321.456 246.92C321.456 249.373 322.109 251.333 323.416 252.8C324.722 254.267 326.429 255 328.536 255C329.842 255 331.002 254.693 332.016 254.08C333.056 253.467 333.856 252.573 334.416 251.4H341.936C341.136 254.44 339.549 256.84 337.176 258.6C334.802 260.333 331.949 261.2 328.616 261.2C325.896 261.2 323.456 260.6 321.296 259.4C319.162 258.173 317.496 256.48 316.296 254.32C315.096 252.16 314.496 249.693 314.496 246.92ZM371.405 261.28C368.765 261.28 366.338 260.667 364.125 259.44C361.938 258.213 360.191 256.507 358.885 254.32C357.605 252.107 356.965 249.627 356.965 246.88C356.965 244.133 357.605 241.667 358.885 239.48C360.191 237.293 361.938 235.587 364.125 234.36C366.338 233.133 368.765 232.52 371.405 232.52C374.045 232.52 376.458 233.133 378.645 234.36C380.858 235.587 382.591 237.293 383.845 239.48C385.125 241.667 385.765 244.133 385.765 246.88C385.765 249.627 385.125 252.107 383.845 254.32C382.565 256.507 380.831 258.213 378.645 259.44C376.458 260.667 374.045 261.28 371.405 261.28ZM371.405 255.04C373.645 255.04 375.431 254.293 376.765 252.8C378.125 251.307 378.805 249.333 378.805 246.88C378.805 244.4 378.125 242.427 376.765 240.96C375.431 239.467 373.645 238.72 371.405 238.72C369.138 238.72 367.325 239.453 365.965 240.92C364.631 242.387 363.965 244.373 363.965 246.88C363.965 249.36 364.631 251.347 365.965 252.84C367.325 254.307 369.138 255.04 371.405 255.04ZM415.89 261L410.05 250.4H408.41V261H401.57V232.92H413.05C415.263 232.92 417.143 233.307 418.69 234.08C420.263 234.853 421.437 235.92 422.21 237.28C422.983 238.613 423.37 240.107 423.37 241.76C423.37 243.627 422.837 245.293 421.77 246.76C420.73 248.227 419.183 249.267 417.13 249.88L423.61 261H415.89ZM408.41 245.56H412.65C413.903 245.56 414.837 245.253 415.45 244.64C416.09 244.027 416.41 243.16 416.41 242.04C416.41 240.973 416.09 240.133 415.45 239.52C414.837 238.907 413.903 238.6 412.65 238.6H408.41V245.56ZM446.504 238.4V244.08H455.664V249.36H446.504V255.52H456.864V261H439.664V232.92H456.864V238.4H446.504Z" fill="white"/>
<path d="M396.468 167.92V196H389.628V179.16L383.348 196H377.828L371.508 179.12V196H364.668V167.92H372.747L380.628 187.36L388.428 167.92H396.468ZM430.866 191.04H420.386L418.706 196H411.546L421.706 167.92H429.626L439.786 196H432.546L430.866 191.04ZM429.106 185.76L425.626 175.48L422.186 185.76H429.106ZM479.998 196H473.158L461.718 178.68V196H454.878V167.92H461.718L473.158 185.32V167.92H479.998V196ZM517.157 167.92V173.4H509.717V196H502.877V173.4H495.437V167.92H517.157ZM539.429 173.4V179.08H548.589V184.36H539.429V190.52H549.789V196H532.589V167.92H549.789V173.4H539.429ZM573.07 190.72H582.03V196H566.23V167.92H573.07V190.72Z" fill="#8B8B8B"/>
<path d="M253.638 223.068C253.123 223.268 252.868 223.848 253.068 224.362L256.33 232.75C256.53 233.265 257.11 233.52 257.624 233.32C258.139 233.12 258.394 232.54 258.194 232.026L255.294 224.57L262.75 221.67C263.265 221.47 263.52 220.89 263.32 220.376C263.12 219.861 262.54 219.606 262.026 219.806L253.638 223.068ZM304.403 245.085L254.403 223.085L253.597 224.915L303.597 246.915L304.403 245.085Z" fill="white"/>
<path d="M285.303 180.283C284.907 180.668 284.898 181.301 285.283 181.697L291.558 188.149C291.943 188.545 292.576 188.554 292.972 188.169C293.368 187.784 293.377 187.15 292.992 186.755L287.414 181.02L293.149 175.442C293.545 175.057 293.554 174.424 293.169 174.028C292.784 173.632 292.15 173.623 291.755 174.008L285.303 180.283ZM358.014 181L286.014 180L285.986 182L357.986 183L358.014 181Z" fill="#8B8B8B"/>
<path d="M288.008 79.8776C287.94 80.4258 288.33 80.9249 288.878 80.9925L297.81 82.0937C298.358 82.1613 298.857 81.7717 298.925 81.2236C298.992 80.6755 298.603 80.1763 298.055 80.1088L290.115 79.1299L291.094 71.19C291.161 70.6419 290.772 70.1427 290.224 70.0751C289.675 70.0076 289.176 70.3971 289.109 70.9453L288.008 79.8776ZM329.385 47.2117L288.385 79.2117L289.615 80.7883L330.615 48.7883L329.385 47.2117Z" fill="white"/>
<defs>
<clipPath id="clip0_51_29">
<rect width="300" height="300" fill="white" transform="translate(0 3)"/>
</clipPath>
</defs>
</svg>
