<svg width="1067" height="614" viewBox="0 0 1067 614" fill="none" xmlns="http://www.w3.org/2000/svg">
<g filter="url(#filter0_d_68_152)">
<circle cx="304" cy="300" r="300" fill="#1F4367"/>
</g>
<g filter="url(#filter1_d_68_152)">
<circle cx="303.5" cy="299.5" r="237.5" fill="#4A6F94"/>
</g>
<g filter="url(#filter2_d_68_152)">
<circle cx="304" cy="300" r="175" fill="#A2C8EE"/>
</g>
<g filter="url(#filter3_d_68_152)">
<circle cx="304" cy="300" r="40" fill="#C7DEF5"/>
</g>
<g filter="url(#filter4_d_68_152)">
<path d="M545.236 367.709C544.523 368.132 544.287 369.052 544.709 369.764L551.589 381.38C552.011 382.093 552.931 382.329 553.644 381.906C554.356 381.484 554.592 380.564 554.17 379.851L548.055 369.526L558.38 363.411C559.093 362.989 559.329 362.069 558.906 361.356C558.484 360.644 557.564 360.408 556.851 360.83L545.236 367.709ZM710.372 409.547L546.372 367.547L545.628 370.453L709.628 412.453L710.372 409.547Z" fill="#4A6F94"/>
</g>
<g filter="url(#filter5_d_68_152)">
<path d="M527.532 518.575C526.745 518.833 526.316 519.681 526.575 520.468L530.788 533.294C531.046 534.081 531.894 534.509 532.681 534.251C533.468 533.992 533.896 533.145 533.638 532.358L529.893 520.957L541.294 517.212C542.081 516.954 542.509 516.106 542.251 515.319C541.992 514.532 541.145 514.104 540.358 514.362L527.532 518.575ZM619.677 564.661L528.677 518.661L527.323 521.339L618.323 567.339L619.677 564.661Z" fill="#1F4367"/>
</g>
<g filter="url(#filter6_d_68_152)">
<path d="M349.535 278.678C349.357 279.488 349.869 280.288 350.678 280.465L363.864 283.36C364.674 283.537 365.474 283.025 365.651 282.216C365.829 281.407 365.317 280.607 364.508 280.429L352.787 277.857L355.36 266.136C355.537 265.326 355.025 264.526 354.216 264.349C353.407 264.171 352.607 264.683 352.429 265.492L349.535 278.678ZM625.191 101.737L350.191 277.737L351.809 280.263L626.809 104.263L625.191 101.737Z" fill="#C7DEF5"/>
</g>
<g filter="url(#filter7_d_68_152)">
<path d="M487.957 255.922C487.362 256.498 487.346 257.448 487.922 258.043L497.31 267.744C497.886 268.34 498.836 268.355 499.431 267.779C500.027 267.203 500.042 266.253 499.466 265.658L491.121 257.035L499.744 248.69C500.34 248.114 500.355 247.164 499.779 246.569C499.203 245.973 498.253 245.958 497.658 246.534L487.957 255.922ZM672.025 258.5L489.025 255.5L488.975 258.5L671.975 261.5L672.025 258.5Z" fill="#A2C8EE"/>
</g>
<path d="M646.496 102.92C646.496 100.147 647.096 97.68 648.296 95.52C649.496 93.3333 651.162 91.64 653.296 90.44C655.456 89.2133 657.896 88.6 660.616 88.6C663.949 88.6 666.802 89.48 669.176 91.24C671.549 93 673.136 95.4 673.936 98.44H666.416C665.856 97.2667 665.056 96.3733 664.016 95.76C663.002 95.1467 661.842 94.84 660.536 94.84C658.429 94.84 656.722 95.5733 655.416 97.04C654.109 98.5067 653.456 100.467 653.456 102.92C653.456 105.373 654.109 107.333 655.416 108.8C656.722 110.267 658.429 111 660.536 111C661.842 111 663.002 110.693 664.016 110.08C665.056 109.467 665.856 108.573 666.416 107.4H673.936C673.136 110.44 671.549 112.84 669.176 114.6C666.802 116.333 663.949 117.2 660.616 117.2C657.896 117.2 655.456 116.6 653.296 115.4C651.162 114.173 649.496 112.48 648.296 110.32C647.096 108.16 646.496 105.693 646.496 102.92ZM703.405 117.28C700.765 117.28 698.338 116.667 696.125 115.44C693.938 114.213 692.191 112.507 690.885 110.32C689.605 108.107 688.965 105.627 688.965 102.88C688.965 100.133 689.605 97.6667 690.885 95.48C692.191 93.2933 693.938 91.5867 696.125 90.36C698.338 89.1333 700.765 88.52 703.405 88.52C706.045 88.52 708.458 89.1333 710.645 90.36C712.858 91.5867 714.591 93.2933 715.845 95.48C717.125 97.6667 717.765 100.133 717.765 102.88C717.765 105.627 717.125 108.107 715.845 110.32C714.565 112.507 712.831 114.213 710.645 115.44C708.458 116.667 706.045 117.28 703.405 117.28ZM703.405 111.04C705.645 111.04 707.431 110.293 708.765 108.8C710.125 107.307 710.805 105.333 710.805 102.88C710.805 100.4 710.125 98.4267 708.765 96.96C707.431 95.4667 705.645 94.72 703.405 94.72C701.138 94.72 699.325 95.4533 697.965 96.92C696.631 98.3867 695.965 100.373 695.965 102.88C695.965 105.36 696.631 107.347 697.965 108.84C699.325 110.307 701.138 111.04 703.405 111.04ZM747.89 117L742.05 106.4H740.41V117H733.57V88.92H745.05C747.263 88.92 749.143 89.3067 750.69 90.08C752.263 90.8533 753.437 91.92 754.21 93.28C754.983 94.6133 755.37 96.1067 755.37 97.76C755.37 99.6267 754.837 101.293 753.77 102.76C752.73 104.227 751.183 105.267 749.13 105.88L755.61 117H747.89ZM740.41 101.56H744.65C745.903 101.56 746.837 101.253 747.45 100.64C748.09 100.027 748.41 99.16 748.41 98.04C748.41 96.9733 748.09 96.1333 747.45 95.52C746.837 94.9067 745.903 94.6 744.65 94.6H740.41V101.56ZM778.504 94.4V100.08H787.664V105.36H778.504V111.52H788.864V117H771.664V88.92H788.864V94.4H778.504Z" fill="#C7DEF5"/>
<path d="M662.094 529.92L652.134 558H643.574L633.614 529.92H640.894L647.854 551.12L654.854 529.92H662.094ZM683.793 529.92V558H676.953V529.92H683.793ZM710.91 558.28C708.856 558.28 707.016 557.947 705.39 557.28C703.763 556.613 702.456 555.627 701.47 554.32C700.51 553.013 700.003 551.44 699.95 549.6H707.23C707.336 550.64 707.696 551.44 708.31 552C708.923 552.533 709.723 552.8 710.71 552.8C711.723 552.8 712.523 552.573 713.11 552.12C713.696 551.64 713.99 550.987 713.99 550.16C713.99 549.467 713.75 548.893 713.27 548.44C712.816 547.987 712.243 547.613 711.55 547.32C710.883 547.027 709.923 546.693 708.67 546.32C706.856 545.76 705.376 545.2 704.23 544.64C703.083 544.08 702.096 543.253 701.27 542.16C700.443 541.067 700.03 539.64 700.03 537.88C700.03 535.267 700.976 533.227 702.87 531.76C704.763 530.267 707.23 529.52 710.27 529.52C713.363 529.52 715.856 530.267 717.75 531.76C719.643 533.227 720.656 535.28 720.79 537.92H713.39C713.336 537.013 713.003 536.307 712.39 535.8C711.776 535.267 710.99 535 710.03 535C709.203 535 708.536 535.227 708.03 535.68C707.523 536.107 707.27 536.733 707.27 537.56C707.27 538.467 707.696 539.173 708.55 539.68C709.403 540.187 710.736 540.733 712.55 541.32C714.363 541.933 715.83 542.52 716.95 543.08C718.096 543.64 719.083 544.453 719.91 545.52C720.736 546.587 721.15 547.96 721.15 549.64C721.15 551.24 720.736 552.693 719.91 554C719.11 555.307 717.936 556.347 716.39 557.12C714.843 557.893 713.016 558.28 710.91 558.28ZM744.199 529.92V558H737.359V529.92H744.199ZM778.156 543.6C779.782 543.947 781.089 544.76 782.076 546.04C783.062 547.293 783.556 548.733 783.556 550.36C783.556 552.707 782.729 554.573 781.076 555.96C779.449 557.32 777.169 558 774.236 558H761.156V529.92H773.796C776.649 529.92 778.876 530.573 780.476 531.88C782.102 533.187 782.916 534.96 782.916 537.2C782.916 538.853 782.476 540.227 781.596 541.32C780.742 542.413 779.596 543.173 778.156 543.6ZM767.996 541.28H772.476C773.596 541.28 774.449 541.04 775.036 540.56C775.649 540.053 775.956 539.32 775.956 538.36C775.956 537.4 775.649 536.667 775.036 536.16C774.449 535.653 773.596 535.4 772.476 535.4H767.996V541.28ZM773.036 552.48C774.182 552.48 775.062 552.227 775.676 551.72C776.316 551.187 776.636 550.427 776.636 549.44C776.636 548.453 776.302 547.68 775.636 547.12C774.996 546.56 774.102 546.28 772.956 546.28H767.996V552.48H773.036ZM806.363 552.72H815.323V558H799.523V529.92H806.363V552.72ZM837.425 535.4V541.08H846.585V546.36H837.425V552.52H847.785V558H830.585V529.92H847.785V535.4H837.425ZM637.394 588.92C637.394 586.147 637.994 583.68 639.194 581.52C640.394 579.333 642.061 577.64 644.194 576.44C646.354 575.213 648.794 574.6 651.514 574.6C654.848 574.6 657.701 575.48 660.074 577.24C662.448 579 664.034 581.4 664.834 584.44H657.314C656.754 583.267 655.954 582.373 654.914 581.76C653.901 581.147 652.741 580.84 651.434 580.84C649.328 580.84 647.621 581.573 646.314 583.04C645.008 584.507 644.354 586.467 644.354 588.92C644.354 591.373 645.008 593.333 646.314 594.8C647.621 596.267 649.328 597 651.434 597C652.741 597 653.901 596.693 654.914 596.08C655.954 595.467 656.754 594.573 657.314 593.4H664.834C664.034 596.44 662.448 598.84 660.074 600.6C657.701 602.333 654.848 603.2 651.514 603.2C648.794 603.2 646.354 602.6 644.194 601.4C642.061 600.173 640.394 598.48 639.194 596.32C637.994 594.16 637.394 591.693 637.394 588.92ZM687.863 597.72H696.823V603H681.023V574.92H687.863V597.72ZM725.365 603.28C722.725 603.28 720.299 602.667 718.085 601.44C715.899 600.213 714.152 598.507 712.845 596.32C711.565 594.107 710.925 591.627 710.925 588.88C710.925 586.133 711.565 583.667 712.845 581.48C714.152 579.293 715.899 577.587 718.085 576.36C720.299 575.133 722.725 574.52 725.365 574.52C728.005 574.52 730.419 575.133 732.605 576.36C734.819 577.587 736.552 579.293 737.805 581.48C739.085 583.667 739.725 586.133 739.725 588.88C739.725 591.627 739.085 594.107 737.805 596.32C736.525 598.507 734.792 600.213 732.605 601.44C730.419 602.667 728.005 603.28 725.365 603.28ZM725.365 597.04C727.605 597.04 729.392 596.293 730.725 594.8C732.085 593.307 732.765 591.333 732.765 588.88C732.765 586.4 732.085 584.427 730.725 582.96C729.392 581.467 727.605 580.72 725.365 580.72C723.099 580.72 721.285 581.453 719.925 582.92C718.592 584.387 717.925 586.373 717.925 588.88C717.925 591.36 718.592 593.347 719.925 594.84C721.285 596.307 723.099 597.04 725.365 597.04ZM762.251 574.92V591.72C762.251 593.4 762.664 594.693 763.491 595.6C764.317 596.507 765.531 596.96 767.131 596.96C768.731 596.96 769.957 596.507 770.811 595.6C771.664 594.693 772.091 593.4 772.091 591.72V574.92H778.931V591.68C778.931 594.187 778.397 596.307 777.331 598.04C776.264 599.773 774.824 601.08 773.011 601.96C771.224 602.84 769.224 603.28 767.011 603.28C764.797 603.28 762.811 602.853 761.051 602C759.317 601.12 757.944 599.813 756.931 598.08C755.917 596.32 755.411 594.187 755.411 591.68V574.92H762.251ZM806.254 574.92C809.214 574.92 811.801 575.507 814.014 576.68C816.227 577.853 817.934 579.507 819.134 581.64C820.361 583.747 820.974 586.187 820.974 588.96C820.974 591.707 820.361 594.147 819.134 596.28C817.934 598.413 816.214 600.067 813.974 601.24C811.761 602.413 809.187 603 806.254 603H795.734V574.92H806.254ZM805.814 597.08C808.401 597.08 810.414 596.373 811.854 594.96C813.294 593.547 814.014 591.547 814.014 588.96C814.014 586.373 813.294 584.36 811.854 582.92C810.414 581.48 808.401 580.76 805.814 580.76H802.574V597.08H805.814ZM846.956 603.28C844.903 603.28 843.063 602.947 841.436 602.28C839.81 601.613 838.503 600.627 837.516 599.32C836.556 598.013 836.05 596.44 835.996 594.6H843.276C843.383 595.64 843.743 596.44 844.356 597C844.97 597.533 845.77 597.8 846.756 597.8C847.77 597.8 848.57 597.573 849.156 597.12C849.743 596.64 850.036 595.987 850.036 595.16C850.036 594.467 849.796 593.893 849.316 593.44C848.863 592.987 848.29 592.613 847.596 592.32C846.93 592.027 845.97 591.693 844.716 591.32C842.903 590.76 841.423 590.2 840.276 589.64C839.13 589.08 838.143 588.253 837.316 587.16C836.49 586.067 836.076 584.64 836.076 582.88C836.076 580.267 837.023 578.227 838.916 576.76C840.81 575.267 843.276 574.52 846.316 574.52C849.41 574.52 851.903 575.267 853.796 576.76C855.69 578.227 856.703 580.28 856.836 582.92H849.436C849.383 582.013 849.05 581.307 848.436 580.8C847.823 580.267 847.036 580 846.076 580C845.25 580 844.583 580.227 844.076 580.68C843.57 581.107 843.316 581.733 843.316 582.56C843.316 583.467 843.743 584.173 844.596 584.68C845.45 585.187 846.783 585.733 848.596 586.32C850.41 586.933 851.876 587.52 852.996 588.08C854.143 588.64 855.13 589.453 855.956 590.52C856.783 591.587 857.196 592.96 857.196 594.64C857.196 596.24 856.783 597.693 855.956 599C855.156 600.307 853.983 601.347 852.436 602.12C850.89 602.893 849.063 603.28 846.956 603.28Z" fill="#1F4367"/>
<path d="M797.413 200.92L790.093 229H781.813L777.333 210.52L772.693 229H764.413L757.293 200.92H764.613L768.653 221.36L773.653 200.92H781.173L785.973 221.36L790.053 200.92H797.413ZM830.323 224.04H819.843L818.163 229H811.003L821.163 200.92H829.083L839.243 229H832.003L830.323 224.04ZM828.563 218.76L825.083 208.48L821.643 218.76H828.563ZM874.535 200.92V206.4H867.095V229H860.255V206.4H852.815V200.92H874.535ZM896.808 206.4V212.08H905.968V217.36H896.808V223.52H907.168V229H889.968V200.92H907.168V206.4H896.808ZM937.929 229L932.089 218.4H930.449V229H923.609V200.92H935.089C937.302 200.92 939.182 201.307 940.729 202.08C942.302 202.853 943.476 203.92 944.249 205.28C945.022 206.613 945.409 208.107 945.409 209.76C945.409 211.627 944.876 213.293 943.809 214.76C942.769 216.227 941.222 217.267 939.169 217.88L945.649 229H937.929ZM930.449 213.56H934.689C935.942 213.56 936.876 213.253 937.489 212.64C938.129 212.027 938.449 211.16 938.449 210.04C938.449 208.973 938.129 208.133 937.489 207.52C936.876 206.907 935.942 206.6 934.689 206.6H930.449V213.56ZM969.063 222.68L964.623 234.16H960.263L962.583 222.68H969.063ZM721.612 245.92V274H714.772V257.16L708.492 274H702.972L696.652 257.12V274H689.812V245.92H697.892L705.772 265.36L713.572 245.92H721.612ZM745.371 251.4V257.08H754.531V262.36H745.371V268.52H755.731V274H738.531V245.92H755.731V251.4H745.371ZM792.371 245.92V251.4H784.931V274H778.091V251.4H770.651V245.92H792.371ZM832.124 245.92V274H825.284V262.44H814.644V274H807.804V245.92H814.644V256.92H825.284V245.92H832.124ZM866.542 269.04H856.062L854.382 274H847.222L857.382 245.92H865.302L875.462 274H868.222L866.542 269.04ZM864.782 263.76L861.302 253.48L857.862 263.76H864.782ZM915.674 274H908.834L897.394 256.68V274H890.554V245.92H897.394L908.834 263.32V245.92H915.674V274ZM939.472 251.4V257.08H948.632V262.36H939.472V268.52H949.832V274H932.632V245.92H949.832V251.4H939.472ZM973.633 267.68L969.193 279.16H964.833L967.153 267.68H973.633ZM1031.71 274L1029.11 271.48C1026.53 273.453 1023.43 274.44 1019.83 274.44C1017.67 274.44 1015.79 274.093 1014.19 273.4C1012.59 272.68 1011.35 271.68 1010.47 270.4C1009.62 269.093 1009.19 267.573 1009.19 265.84C1009.19 264.08 1009.66 262.493 1010.59 261.08C1011.55 259.64 1012.98 258.467 1014.87 257.56C1014.18 256.707 1013.69 255.893 1013.39 255.12C1013.1 254.32 1012.95 253.453 1012.95 252.52C1012.95 251.187 1013.3 249.973 1013.99 248.88C1014.69 247.787 1015.69 246.933 1016.99 246.32C1018.33 245.68 1019.9 245.36 1021.71 245.36C1023.55 245.36 1025.11 245.693 1026.39 246.36C1027.67 247.027 1028.63 247.92 1029.27 249.04C1029.91 250.16 1030.21 251.387 1030.15 252.72H1023.71C1023.74 252 1023.55 251.453 1023.15 251.08C1022.78 250.68 1022.27 250.48 1021.63 250.48C1020.99 250.48 1020.46 250.667 1020.03 251.04C1019.61 251.413 1019.39 251.893 1019.39 252.48C1019.39 253.04 1019.57 253.627 1019.91 254.24C1020.29 254.853 1020.86 255.56 1021.63 256.36L1028.47 263.04C1028.53 262.907 1028.59 262.747 1028.67 262.56C1028.78 262.373 1028.89 262.16 1028.99 261.92L1030.47 259.4H1037.31L1035.39 262.88C1034.67 264.453 1033.85 265.947 1032.91 267.36L1039.67 274H1031.71ZM1020.15 268.92C1021.94 268.92 1023.53 268.413 1024.91 267.4L1018.67 261.36C1016.75 262.347 1015.79 263.68 1015.79 265.36C1015.79 266.373 1016.18 267.227 1016.95 267.92C1017.75 268.587 1018.82 268.92 1020.15 268.92ZM750.589 314.04H740.109L738.429 319H731.269L741.429 290.92H749.349L759.509 319H752.269L750.589 314.04ZM748.829 308.76L745.349 298.48L741.909 308.76H748.829ZM806.401 290.92V319H799.561V302.16L793.281 319H787.761L781.441 302.12V319H774.601V290.92H782.681L790.561 310.36L798.361 290.92H806.401ZM855.12 290.92V319H848.28V302.16L842 319H836.48L830.16 302.12V319H823.32V290.92H831.4L839.28 310.36L847.08 290.92H855.12ZM885.319 319.28C882.679 319.28 880.252 318.667 878.039 317.44C875.852 316.213 874.105 314.507 872.799 312.32C871.519 310.107 870.879 307.627 870.879 304.88C870.879 302.133 871.519 299.667 872.799 297.48C874.105 295.293 875.852 293.587 878.039 292.36C880.252 291.133 882.679 290.52 885.319 290.52C887.959 290.52 890.372 291.133 892.559 292.36C894.772 293.587 896.505 295.293 897.759 297.48C899.039 299.667 899.679 302.133 899.679 304.88C899.679 307.627 899.039 310.107 897.759 312.32C896.479 314.507 894.745 316.213 892.559 317.44C890.372 318.667 887.959 319.28 885.319 319.28ZM885.319 313.04C887.559 313.04 889.345 312.293 890.679 310.8C892.039 309.307 892.719 307.333 892.719 304.88C892.719 302.4 892.039 300.427 890.679 298.96C889.345 297.467 887.559 296.72 885.319 296.72C883.052 296.72 881.239 297.453 879.879 298.92C878.545 300.387 877.879 302.373 877.879 304.88C877.879 307.36 878.545 309.347 879.879 310.84C881.239 312.307 883.052 313.04 885.319 313.04ZM940.604 319H933.764L922.324 301.68V319H915.484V290.92H922.324L933.764 308.32V290.92H940.604V319ZM964.402 290.92V319H957.562V290.92H964.402ZM998.839 314.04H988.359L986.679 319H979.519L989.679 290.92H997.599L1007.76 319H1000.52L998.839 314.04ZM997.079 308.76L993.599 298.48L990.159 308.76H997.079Z" fill="#A2C8EE"/>
<path d="M755.886 386.8C755.379 385.867 754.646 385.16 753.686 384.68C752.752 384.173 751.646 383.92 750.366 383.92C748.152 383.92 746.379 384.653 745.046 386.12C743.712 387.56 743.046 389.493 743.046 391.92C743.046 394.507 743.739 396.533 745.126 398C746.539 399.44 748.472 400.16 750.926 400.16C752.606 400.16 754.019 399.733 755.166 398.88C756.339 398.027 757.192 396.8 757.726 395.2H749.046V390.16H763.926V396.52C763.419 398.227 762.552 399.813 761.326 401.28C760.126 402.747 758.592 403.933 756.726 404.84C754.859 405.747 752.752 406.2 750.406 406.2C747.632 406.2 745.152 405.6 742.966 404.4C740.806 403.173 739.112 401.48 737.886 399.32C736.686 397.16 736.086 394.693 736.086 391.92C736.086 389.147 736.686 386.68 737.886 384.52C739.112 382.333 740.806 380.64 742.966 379.44C745.126 378.213 747.592 377.6 750.366 377.6C753.726 377.6 756.552 378.413 758.846 380.04C761.166 381.667 762.699 383.92 763.446 386.8H755.886ZM797.194 401.04H786.714L785.034 406H777.874L788.034 377.92H795.954L806.114 406H798.874L797.194 401.04ZM795.434 395.76L791.954 385.48L788.514 395.76H795.434ZM831.367 406.28C829.313 406.28 827.473 405.947 825.847 405.28C824.22 404.613 822.913 403.627 821.927 402.32C820.967 401.013 820.46 399.44 820.407 397.6H827.687C827.793 398.64 828.153 399.44 828.767 400C829.38 400.533 830.18 400.8 831.167 400.8C832.18 400.8 832.98 400.573 833.567 400.12C834.153 399.64 834.447 398.987 834.447 398.16C834.447 397.467 834.207 396.893 833.727 396.44C833.273 395.987 832.7 395.613 832.007 395.32C831.34 395.027 830.38 394.693 829.127 394.32C827.313 393.76 825.833 393.2 824.687 392.64C823.54 392.08 822.553 391.253 821.727 390.16C820.9 389.067 820.487 387.64 820.487 385.88C820.487 383.267 821.433 381.227 823.327 379.76C825.22 378.267 827.687 377.52 830.727 377.52C833.82 377.52 836.313 378.267 838.207 379.76C840.1 381.227 841.113 383.28 841.247 385.92H833.847C833.793 385.013 833.46 384.307 832.847 383.8C832.233 383.267 831.447 383 830.487 383C829.66 383 828.993 383.227 828.487 383.68C827.98 384.107 827.727 384.733 827.727 385.56C827.727 386.467 828.153 387.173 829.007 387.68C829.86 388.187 831.193 388.733 833.007 389.32C834.82 389.933 836.287 390.52 837.407 391.08C838.553 391.64 839.54 392.453 840.367 393.52C841.193 394.587 841.607 395.96 841.607 397.64C841.607 399.24 841.193 400.693 840.367 402C839.567 403.307 838.393 404.347 836.847 405.12C835.3 405.893 833.473 406.28 831.367 406.28ZM864.656 383.4V389.08H873.816V394.36H864.656V400.52H875.016V406H857.816V377.92H875.016V383.4H864.656ZM904.737 406.28C902.097 406.28 899.67 405.667 897.457 404.44C895.27 403.213 893.523 401.507 892.217 399.32C890.937 397.107 890.297 394.627 890.297 391.88C890.297 389.133 890.937 386.667 892.217 384.48C893.523 382.293 895.27 380.587 897.457 379.36C899.67 378.133 902.097 377.52 904.737 377.52C907.377 377.52 909.79 378.133 911.977 379.36C914.19 380.587 915.923 382.293 917.177 384.48C918.457 386.667 919.097 389.133 919.097 391.88C919.097 394.627 918.457 397.107 917.177 399.32C915.897 401.507 914.163 403.213 911.977 404.44C909.79 405.667 907.377 406.28 904.737 406.28ZM904.737 400.04C906.977 400.04 908.763 399.293 910.097 397.8C911.457 396.307 912.137 394.333 912.137 391.88C912.137 389.4 911.457 387.427 910.097 385.96C908.763 384.467 906.977 383.72 904.737 383.72C902.47 383.72 900.657 384.453 899.297 385.92C897.963 387.387 897.297 389.373 897.297 391.88C897.297 394.36 897.963 396.347 899.297 397.84C900.657 399.307 902.47 400.04 904.737 400.04ZM941.622 377.92V394.72C941.622 396.4 942.035 397.693 942.862 398.6C943.689 399.507 944.902 399.96 946.502 399.96C948.102 399.96 949.329 399.507 950.182 398.6C951.035 397.693 951.462 396.4 951.462 394.72V377.92H958.302V394.68C958.302 397.187 957.769 399.307 956.702 401.04C955.635 402.773 954.195 404.08 952.382 404.96C950.595 405.84 948.595 406.28 946.382 406.28C944.169 406.28 942.182 405.853 940.422 405C938.689 404.12 937.315 402.813 936.302 401.08C935.289 399.32 934.782 397.187 934.782 394.68V377.92H941.622ZM985.265 406.28C983.212 406.28 981.372 405.947 979.745 405.28C978.118 404.613 976.812 403.627 975.825 402.32C974.865 401.013 974.358 399.44 974.305 397.6H981.585C981.692 398.64 982.052 399.44 982.665 400C983.278 400.533 984.078 400.8 985.065 400.8C986.078 400.8 986.878 400.573 987.465 400.12C988.052 399.64 988.345 398.987 988.345 398.16C988.345 397.467 988.105 396.893 987.625 396.44C987.172 395.987 986.598 395.613 985.905 395.32C985.238 395.027 984.278 394.693 983.025 394.32C981.212 393.76 979.732 393.2 978.585 392.64C977.438 392.08 976.452 391.253 975.625 390.16C974.798 389.067 974.385 387.64 974.385 385.88C974.385 383.267 975.332 381.227 977.225 379.76C979.118 378.267 981.585 377.52 984.625 377.52C987.718 377.52 990.212 378.267 992.105 379.76C993.998 381.227 995.012 383.28 995.145 385.92H987.745C987.692 385.013 987.358 384.307 986.745 383.8C986.132 383.267 985.345 383 984.385 383C983.558 383 982.892 383.227 982.385 383.68C981.878 384.107 981.625 384.733 981.625 385.56C981.625 386.467 982.052 387.173 982.905 387.68C983.758 388.187 985.092 388.733 986.905 389.32C988.718 389.933 990.185 390.52 991.305 391.08C992.452 391.64 993.438 392.453 994.265 393.52C995.092 394.587 995.505 395.96 995.505 397.64C995.505 399.24 995.092 400.693 994.265 402C993.465 403.307 992.292 404.347 990.745 405.12C989.198 405.893 987.372 406.28 985.265 406.28ZM744.359 422.92V451H737.519V439.44H726.879V451H720.039V422.92H726.879V433.92H737.519V422.92H744.359ZM785.376 422.92L775.656 441.72V451H768.816V441.72L759.096 422.92H766.856L772.296 434.68L777.696 422.92H785.376ZM810.652 422.92C813.612 422.92 816.199 423.507 818.412 424.68C820.626 425.853 822.332 427.507 823.532 429.64C824.759 431.747 825.372 434.187 825.372 436.96C825.372 439.707 824.759 442.147 823.532 444.28C822.332 446.413 820.612 448.067 818.372 449.24C816.159 450.413 813.586 451 810.652 451H800.132V422.92H810.652ZM810.212 445.08C812.799 445.08 814.812 444.373 816.252 442.96C817.692 441.547 818.412 439.547 818.412 436.96C818.412 434.373 817.692 432.36 816.252 430.92C814.812 429.48 812.799 428.76 810.212 428.76H806.972V445.08H810.212ZM855.515 451L849.675 440.4H848.035V451H841.195V422.92H852.675C854.888 422.92 856.768 423.307 858.315 424.08C859.888 424.853 861.062 425.92 861.835 427.28C862.608 428.613 862.995 430.107 862.995 431.76C862.995 433.627 862.462 435.293 861.395 436.76C860.355 438.227 858.808 439.267 856.755 439.88L863.235 451H855.515ZM848.035 435.56H852.275C853.528 435.56 854.462 435.253 855.075 434.64C855.715 434.027 856.035 433.16 856.035 432.04C856.035 430.973 855.715 430.133 855.075 429.52C854.462 428.907 853.528 428.6 852.275 428.6H848.035V435.56ZM892.569 451.28C889.929 451.28 887.502 450.667 885.289 449.44C883.102 448.213 881.355 446.507 880.049 444.32C878.769 442.107 878.129 439.627 878.129 436.88C878.129 434.133 878.769 431.667 880.049 429.48C881.355 427.293 883.102 425.587 885.289 424.36C887.502 423.133 889.929 422.52 892.569 422.52C895.209 422.52 897.622 423.133 899.809 424.36C902.022 425.587 903.755 427.293 905.009 429.48C906.289 431.667 906.929 434.133 906.929 436.88C906.929 439.627 906.289 442.107 905.009 444.32C903.729 446.507 901.995 448.213 899.809 449.44C897.622 450.667 895.209 451.28 892.569 451.28ZM892.569 445.04C894.809 445.04 896.595 444.293 897.929 442.8C899.289 441.307 899.969 439.333 899.969 436.88C899.969 434.4 899.289 432.427 897.929 430.96C896.595 429.467 894.809 428.72 892.569 428.72C890.302 428.72 888.489 429.453 887.129 430.92C885.795 432.387 885.129 434.373 885.129 436.88C885.129 439.36 885.795 441.347 887.129 442.84C888.489 444.307 890.302 445.04 892.569 445.04ZM941.374 431.8C940.867 430.867 940.134 430.16 939.174 429.68C938.241 429.173 937.134 428.92 935.854 428.92C933.641 428.92 931.867 429.653 930.534 431.12C929.201 432.56 928.534 434.493 928.534 436.92C928.534 439.507 929.227 441.533 930.614 443C932.027 444.44 933.961 445.16 936.414 445.16C938.094 445.16 939.507 444.733 940.654 443.88C941.827 443.027 942.681 441.8 943.214 440.2H934.534V435.16H949.414V441.52C948.907 443.227 948.041 444.813 946.814 446.28C945.614 447.747 944.081 448.933 942.214 449.84C940.347 450.747 938.241 451.2 935.894 451.2C933.121 451.2 930.641 450.6 928.454 449.4C926.294 448.173 924.601 446.48 923.374 444.32C922.174 442.16 921.574 439.693 921.574 436.92C921.574 434.147 922.174 431.68 923.374 429.52C924.601 427.333 926.294 425.64 928.454 424.44C930.614 423.213 933.081 422.6 935.854 422.6C939.214 422.6 942.041 423.413 944.334 425.04C946.654 426.667 948.187 428.92 948.934 431.8H941.374ZM972.043 428.4V434.08H981.203V439.36H972.043V445.52H982.403V451H965.203V422.92H982.403V428.4H972.043ZM1023.96 451H1017.12L1005.68 433.68V451H998.843V422.92H1005.68L1017.12 440.32V422.92H1023.96V451Z" fill="#4A6F94"/>
<defs>
<filter id="filter0_d_68_152" x="0" y="0" width="608" height="614" filterUnits="userSpaceOnUse" color-interpolation-filters="sRGB">
<feFlood flood-opacity="0" result="BackgroundImageFix"/>
<feColorMatrix in="SourceAlpha" type="matrix" values="0 0 0 0 0 0 0 0 0 0 0 0 0 0 0 0 0 0 127 0" result="hardAlpha"/>
<feOffset dy="10"/>
<feGaussianBlur stdDeviation="2"/>
<feComposite in2="hardAlpha" operator="out"/>
<feColorMatrix type="matrix" values="0 0 0 0 0 0 0 0 0 0 0 0 0 0 0 0 0 0 0.25 0"/>
<feBlend mode="normal" in2="BackgroundImageFix" result="effect1_dropShadow_68_152"/>
<feBlend mode="normal" in="SourceGraphic" in2="effect1_dropShadow_68_152" result="shape"/>
</filter>
<filter id="filter1_d_68_152" x="62" y="62" width="483" height="489" filterUnits="userSpaceOnUse" color-interpolation-filters="sRGB">
<feFlood flood-opacity="0" result="BackgroundImageFix"/>
<feColorMatrix in="SourceAlpha" type="matrix" values="0 0 0 0 0 0 0 0 0 0 0 0 0 0 0 0 0 0 127 0" result="hardAlpha"/>
<feOffset dy="10"/>
<feGaussianBlur stdDeviation="2"/>
<feComposite in2="hardAlpha" operator="out"/>
<feColorMatrix type="matrix" values="0 0 0 0 0 0 0 0 0 0 0 0 0 0 0 0 0 0 0.25 0"/>
<feBlend mode="normal" in2="BackgroundImageFix" result="effect1_dropShadow_68_152"/>
<feBlend mode="normal" in="SourceGraphic" in2="effect1_dropShadow_68_152" result="shape"/>
</filter>
<filter id="filter2_d_68_152" x="125" y="125" width="358" height="364" filterUnits="userSpaceOnUse" color-interpolation-filters="sRGB">
<feFlood flood-opacity="0" result="BackgroundImageFix"/>
<feColorMatrix in="SourceAlpha" type="matrix" values="0 0 0 0 0 0 0 0 0 0 0 0 0 0 0 0 0 0 127 0" result="hardAlpha"/>
<feOffset dy="10"/>
<feGaussianBlur stdDeviation="2"/>
<feComposite in2="hardAlpha" operator="out"/>
<feColorMatrix type="matrix" values="0 0 0 0 0 0 0 0 0 0 0 0 0 0 0 0 0 0 0.25 0"/>
<feBlend mode="normal" in2="BackgroundImageFix" result="effect1_dropShadow_68_152"/>
<feBlend mode="normal" in="SourceGraphic" in2="effect1_dropShadow_68_152" result="shape"/>
</filter>
<filter id="filter3_d_68_152" x="260" y="260" width="88" height="94" filterUnits="userSpaceOnUse" color-interpolation-filters="sRGB">
<feFlood flood-opacity="0" result="BackgroundImageFix"/>
<feColorMatrix in="SourceAlpha" type="matrix" values="0 0 0 0 0 0 0 0 0 0 0 0 0 0 0 0 0 0 127 0" result="hardAlpha"/>
<feOffset dy="10"/>
<feGaussianBlur stdDeviation="2"/>
<feComposite in2="hardAlpha" operator="out"/>
<feColorMatrix type="matrix" values="0 0 0 0 0 0 0 0 0 0 0 0 0 0 0 0 0 0 0.25 0"/>
<feBlend mode="normal" in2="BackgroundImageFix" result="effect1_dropShadow_68_152"/>
<feBlend mode="normal" in="SourceGraphic" in2="effect1_dropShadow_68_152" result="shape"/>
</filter>
<filter id="filter4_d_68_152" x="540.5" y="360.62" width="173.872" height="59.8326" filterUnits="userSpaceOnUse" color-interpolation-filters="sRGB">
<feFlood flood-opacity="0" result="BackgroundImageFix"/>
<feColorMatrix in="SourceAlpha" type="matrix" values="0 0 0 0 0 0 0 0 0 0 0 0 0 0 0 0 0 0 127 0" result="hardAlpha"/>
<feOffset dy="4"/>
<feGaussianBlur stdDeviation="2"/>
<feComposite in2="hardAlpha" operator="out"/>
<feColorMatrix type="matrix" values="0 0 0 0 0 0 0 0 0 0 0 0 0 0 0 0 0 0 0.25 0"/>
<feBlend mode="normal" in2="BackgroundImageFix" result="effect1_dropShadow_68_152"/>
<feBlend mode="normal" in="SourceGraphic" in2="effect1_dropShadow_68_152" result="shape"/>
</filter>
<filter id="filter5_d_68_152" x="522.5" y="514.287" width="101.177" height="61.052" filterUnits="userSpaceOnUse" color-interpolation-filters="sRGB">
<feFlood flood-opacity="0" result="BackgroundImageFix"/>
<feColorMatrix in="SourceAlpha" type="matrix" values="0 0 0 0 0 0 0 0 0 0 0 0 0 0 0 0 0 0 127 0" result="hardAlpha"/>
<feOffset dy="4"/>
<feGaussianBlur stdDeviation="2"/>
<feComposite in2="hardAlpha" operator="out"/>
<feColorMatrix type="matrix" values="0 0 0 0 0 0 0 0 0 0 0 0 0 0 0 0 0 0 0.25 0"/>
<feBlend mode="normal" in2="BackgroundImageFix" result="effect1_dropShadow_68_152"/>
<feBlend mode="normal" in="SourceGraphic" in2="effect1_dropShadow_68_152" result="shape"/>
</filter>
<filter id="filter6_d_68_152" x="345.5" y="101.737" width="285.309" height="189.658" filterUnits="userSpaceOnUse" color-interpolation-filters="sRGB">
<feFlood flood-opacity="0" result="BackgroundImageFix"/>
<feColorMatrix in="SourceAlpha" type="matrix" values="0 0 0 0 0 0 0 0 0 0 0 0 0 0 0 0 0 0 127 0" result="hardAlpha"/>
<feOffset dy="4"/>
<feGaussianBlur stdDeviation="2"/>
<feComposite in2="hardAlpha" operator="out"/>
<feColorMatrix type="matrix" values="0 0 0 0 0 0 0 0 0 0 0 0 0 0 0 0 0 0 0.25 0"/>
<feBlend mode="normal" in2="BackgroundImageFix" result="effect1_dropShadow_68_152"/>
<feBlend mode="normal" in="SourceGraphic" in2="effect1_dropShadow_68_152" result="shape"/>
</filter>
<filter id="filter7_d_68_152" x="483.5" y="246.112" width="192.525" height="30.0894" filterUnits="userSpaceOnUse" color-interpolation-filters="sRGB">
<feFlood flood-opacity="0" result="BackgroundImageFix"/>
<feColorMatrix in="SourceAlpha" type="matrix" values="0 0 0 0 0 0 0 0 0 0 0 0 0 0 0 0 0 0 127 0" result="hardAlpha"/>
<feOffset dy="4"/>
<feGaussianBlur stdDeviation="2"/>
<feComposite in2="hardAlpha" operator="out"/>
<feColorMatrix type="matrix" values="0 0 0 0 0 0 0 0 0 0 0 0 0 0 0 0 0 0 0.25 0"/>
<feBlend mode="normal" in2="BackgroundImageFix" result="effect1_dropShadow_68_152"/>
<feBlend mode="normal" in="SourceGraphic" in2="effect1_dropShadow_68_152" result="shape"/>
</filter>
</defs>
</svg>
