<svg width="1277" height="905" viewBox="0 0 1277 905" fill="none" xmlns="http://www.w3.org/2000/svg">
<g filter="url(#filter0_d_68_107)">
<circle cx="441.5" cy="437.5" r="437.5" fill="#604F3B"/>
</g>
<g filter="url(#filter1_d_68_107)">
<circle cx="442" cy="438" r="400" fill="#4F402F"/>
</g>
<g filter="url(#filter2_d_68_107)">
<circle cx="442" cy="438" r="320" fill="#846C53"/>
</g>
<g filter="url(#filter3_d_68_107)">
<circle cx="442" cy="438" r="250" fill="#CAA883"/>
</g>
<g filter="url(#filter4_d_68_107)">
<circle cx="442" cy="438" r="75" fill="#DFCBB5"/>
</g>
<path d="M975.386 639.8C974.879 638.867 974.146 638.16 973.186 637.68C972.252 637.173 971.146 636.92 969.866 636.92C967.652 636.92 965.879 637.653 964.546 639.12C963.212 640.56 962.546 642.493 962.546 644.92C962.546 647.507 963.239 649.533 964.626 651C966.039 652.44 967.972 653.16 970.426 653.16C972.106 653.16 973.519 652.733 974.666 651.88C975.839 651.027 976.692 649.8 977.226 648.2H968.546V643.16H983.426V649.52C982.919 651.227 982.052 652.813 980.826 654.28C979.626 655.747 978.092 656.933 976.226 657.84C974.359 658.747 972.252 659.2 969.906 659.2C967.132 659.2 964.652 658.6 962.466 657.4C960.306 656.173 958.612 654.48 957.386 652.32C956.186 650.16 955.586 647.693 955.586 644.92C955.586 642.147 956.186 639.68 957.386 637.52C958.612 635.333 960.306 633.64 962.466 632.44C964.626 631.213 967.092 630.6 969.866 630.6C973.226 630.6 976.052 631.413 978.346 633.04C980.666 634.667 982.199 636.92 982.946 639.8H975.386ZM1016.69 654.04H1006.21L1004.53 659H997.374L1007.53 630.92H1015.45L1025.61 659H1018.37L1016.69 654.04ZM1014.93 648.76L1011.45 638.48L1008.01 648.76H1014.93ZM1050.87 659.28C1048.81 659.28 1046.97 658.947 1045.35 658.28C1043.72 657.613 1042.41 656.627 1041.43 655.32C1040.47 654.013 1039.96 652.44 1039.91 650.6H1047.19C1047.29 651.64 1047.65 652.44 1048.27 653C1048.88 653.533 1049.68 653.8 1050.67 653.8C1051.68 653.8 1052.48 653.573 1053.07 653.12C1053.65 652.64 1053.95 651.987 1053.95 651.16C1053.95 650.467 1053.71 649.893 1053.23 649.44C1052.77 648.987 1052.2 648.613 1051.51 648.32C1050.84 648.027 1049.88 647.693 1048.63 647.32C1046.81 646.76 1045.33 646.2 1044.19 645.64C1043.04 645.08 1042.05 644.253 1041.23 643.16C1040.4 642.067 1039.99 640.64 1039.99 638.88C1039.99 636.267 1040.93 634.227 1042.83 632.76C1044.72 631.267 1047.19 630.52 1050.23 630.52C1053.32 630.52 1055.81 631.267 1057.71 632.76C1059.6 634.227 1060.61 636.28 1060.75 638.92H1053.35C1053.29 638.013 1052.96 637.307 1052.35 636.8C1051.73 636.267 1050.95 636 1049.99 636C1049.16 636 1048.49 636.227 1047.99 636.68C1047.48 637.107 1047.23 637.733 1047.23 638.56C1047.23 639.467 1047.65 640.173 1048.51 640.68C1049.36 641.187 1050.69 641.733 1052.51 642.32C1054.32 642.933 1055.79 643.52 1056.91 644.08C1058.05 644.64 1059.04 645.453 1059.87 646.52C1060.69 647.587 1061.11 648.96 1061.11 650.64C1061.11 652.24 1060.69 653.693 1059.87 655C1059.07 656.307 1057.89 657.347 1056.35 658.12C1054.8 658.893 1052.97 659.28 1050.87 659.28ZM1084.16 636.4V642.08H1093.32V647.36H1084.16V653.52H1094.52V659H1077.32V630.92H1094.52V636.4H1084.16ZM1124.24 659.28C1121.6 659.28 1119.17 658.667 1116.96 657.44C1114.77 656.213 1113.02 654.507 1111.72 652.32C1110.44 650.107 1109.8 647.627 1109.8 644.88C1109.8 642.133 1110.44 639.667 1111.72 637.48C1113.02 635.293 1114.77 633.587 1116.96 632.36C1119.17 631.133 1121.6 630.52 1124.24 630.52C1126.88 630.52 1129.29 631.133 1131.48 632.36C1133.69 633.587 1135.42 635.293 1136.68 637.48C1137.96 639.667 1138.6 642.133 1138.6 644.88C1138.6 647.627 1137.96 650.107 1136.68 652.32C1135.4 654.507 1133.66 656.213 1131.48 657.44C1129.29 658.667 1126.88 659.28 1124.24 659.28ZM1124.24 653.04C1126.48 653.04 1128.26 652.293 1129.6 650.8C1130.96 649.307 1131.64 647.333 1131.64 644.88C1131.64 642.4 1130.96 640.427 1129.6 638.96C1128.26 637.467 1126.48 636.72 1124.24 636.72C1121.97 636.72 1120.16 637.453 1118.8 638.92C1117.46 640.387 1116.8 642.373 1116.8 644.88C1116.8 647.36 1117.46 649.347 1118.8 650.84C1120.16 652.307 1121.97 653.04 1124.24 653.04ZM1161.12 630.92V647.72C1161.12 649.4 1161.54 650.693 1162.36 651.6C1163.19 652.507 1164.4 652.96 1166 652.96C1167.6 652.96 1168.83 652.507 1169.68 651.6C1170.54 650.693 1170.96 649.4 1170.96 647.72V630.92H1177.8V647.68C1177.8 650.187 1177.27 652.307 1176.2 654.04C1175.14 655.773 1173.7 657.08 1171.88 657.96C1170.1 658.84 1168.1 659.28 1165.88 659.28C1163.67 659.28 1161.68 658.853 1159.92 658C1158.19 657.12 1156.82 655.813 1155.8 654.08C1154.79 652.32 1154.28 650.187 1154.28 647.68V630.92H1161.12ZM1204.77 659.28C1202.71 659.28 1200.87 658.947 1199.25 658.28C1197.62 657.613 1196.31 656.627 1195.33 655.32C1194.37 654.013 1193.86 652.44 1193.81 650.6H1201.09C1201.19 651.64 1201.55 652.44 1202.17 653C1202.78 653.533 1203.58 653.8 1204.57 653.8C1205.58 653.8 1206.38 653.573 1206.97 653.12C1207.55 652.64 1207.85 651.987 1207.85 651.16C1207.85 650.467 1207.61 649.893 1207.13 649.44C1206.67 648.987 1206.1 648.613 1205.41 648.32C1204.74 648.027 1203.78 647.693 1202.53 647.32C1200.71 646.76 1199.23 646.2 1198.09 645.64C1196.94 645.08 1195.95 644.253 1195.13 643.16C1194.3 642.067 1193.89 640.64 1193.89 638.88C1193.89 636.267 1194.83 634.227 1196.73 632.76C1198.62 631.267 1201.09 630.52 1204.13 630.52C1207.22 630.52 1209.71 631.267 1211.61 632.76C1213.5 634.227 1214.51 636.28 1214.65 638.92H1207.25C1207.19 638.013 1206.86 637.307 1206.25 636.8C1205.63 636.267 1204.85 636 1203.88 636C1203.06 636 1202.39 636.227 1201.89 636.68C1201.38 637.107 1201.13 637.733 1201.13 638.56C1201.13 639.467 1201.55 640.173 1202.4 640.68C1203.26 641.187 1204.59 641.733 1206.41 642.32C1208.22 642.933 1209.69 643.52 1210.81 644.08C1211.95 644.64 1212.94 645.453 1213.77 646.52C1214.59 647.587 1215.01 648.96 1215.01 650.64C1215.01 652.24 1214.59 653.693 1213.77 655C1212.97 656.307 1211.79 657.347 1210.25 658.12C1208.7 658.893 1206.87 659.28 1204.77 659.28ZM963.859 675.92V704H957.019V692.44H946.379V704H939.539V675.92H946.379V686.92H957.019V675.92H963.859ZM1004.88 675.92L995.156 694.72V704H988.316V694.72L978.596 675.92H986.356L991.796 687.68L997.196 675.92H1004.88ZM1030.15 675.92C1033.11 675.92 1035.7 676.507 1037.91 677.68C1040.13 678.853 1041.83 680.507 1043.03 682.64C1044.26 684.747 1044.87 687.187 1044.87 689.96C1044.87 692.707 1044.26 695.147 1043.03 697.28C1041.83 699.413 1040.11 701.067 1037.87 702.24C1035.66 703.413 1033.09 704 1030.15 704H1019.63V675.92H1030.15ZM1029.71 698.08C1032.3 698.08 1034.31 697.373 1035.75 695.96C1037.19 694.547 1037.91 692.547 1037.91 689.96C1037.91 687.373 1037.19 685.36 1035.75 683.92C1034.31 682.48 1032.3 681.76 1029.71 681.76H1026.47V698.08H1029.71ZM1075.01 704L1069.17 693.4H1067.53V704H1060.69V675.92H1072.17C1074.39 675.92 1076.27 676.307 1077.81 677.08C1079.39 677.853 1080.56 678.92 1081.33 680.28C1082.11 681.613 1082.49 683.107 1082.49 684.76C1082.49 686.627 1081.96 688.293 1080.89 689.76C1079.85 691.227 1078.31 692.267 1076.25 692.88L1082.73 704H1075.01ZM1067.53 688.56H1071.77C1073.03 688.56 1073.96 688.253 1074.57 687.64C1075.21 687.027 1075.53 686.16 1075.53 685.04C1075.53 683.973 1075.21 683.133 1074.57 682.52C1073.96 681.907 1073.03 681.6 1071.77 681.6H1067.53V688.56ZM1112.07 704.28C1109.43 704.28 1107 703.667 1104.79 702.44C1102.6 701.213 1100.86 699.507 1099.55 697.32C1098.27 695.107 1097.63 692.627 1097.63 689.88C1097.63 687.133 1098.27 684.667 1099.55 682.48C1100.86 680.293 1102.6 678.587 1104.79 677.36C1107 676.133 1109.43 675.52 1112.07 675.52C1114.71 675.52 1117.12 676.133 1119.31 677.36C1121.52 678.587 1123.26 680.293 1124.51 682.48C1125.79 684.667 1126.43 687.133 1126.43 689.88C1126.43 692.627 1125.79 695.107 1124.51 697.32C1123.23 699.507 1121.5 701.213 1119.31 702.44C1117.12 703.667 1114.71 704.28 1112.07 704.28ZM1112.07 698.04C1114.31 698.04 1116.1 697.293 1117.43 695.8C1118.79 694.307 1119.47 692.333 1119.47 689.88C1119.47 687.4 1118.79 685.427 1117.43 683.96C1116.1 682.467 1114.31 681.72 1112.07 681.72C1109.8 681.72 1107.99 682.453 1106.63 683.92C1105.3 685.387 1104.63 687.373 1104.63 689.88C1104.63 692.36 1105.3 694.347 1106.63 695.84C1107.99 697.307 1109.8 698.04 1112.07 698.04ZM1160.87 684.8C1160.37 683.867 1159.63 683.16 1158.67 682.68C1157.74 682.173 1156.63 681.92 1155.35 681.92C1153.14 681.92 1151.37 682.653 1150.03 684.12C1148.7 685.56 1148.03 687.493 1148.03 689.92C1148.03 692.507 1148.73 694.533 1150.11 696C1151.53 697.44 1153.46 698.16 1155.91 698.16C1157.59 698.16 1159.01 697.733 1160.15 696.88C1161.33 696.027 1162.18 694.8 1162.71 693.2H1154.03V688.16H1168.91V694.52C1168.41 696.227 1167.54 697.813 1166.31 699.28C1165.11 700.747 1163.58 701.933 1161.71 702.84C1159.85 703.747 1157.74 704.2 1155.39 704.2C1152.62 704.2 1150.14 703.6 1147.95 702.4C1145.79 701.173 1144.1 699.48 1142.87 697.32C1141.67 695.16 1141.07 692.693 1141.07 689.92C1141.07 687.147 1141.67 684.68 1142.87 682.52C1144.1 680.333 1145.79 678.64 1147.95 677.44C1150.11 676.213 1152.58 675.6 1155.35 675.6C1158.71 675.6 1161.54 676.413 1163.83 678.04C1166.15 679.667 1167.69 681.92 1168.43 684.8H1160.87ZM1191.54 681.4V687.08H1200.7V692.36H1191.54V698.52H1201.9V704H1184.7V675.92H1201.9V681.4H1191.54ZM1243.46 704H1236.62L1225.18 686.68V704H1218.34V675.92H1225.18L1236.62 693.32V675.92H1243.46V704Z" fill="#4F402F"/>
<path d="M857.496 187.92C857.496 185.147 858.096 182.68 859.296 180.52C860.496 178.333 862.162 176.64 864.296 175.44C866.456 174.213 868.896 173.6 871.616 173.6C874.949 173.6 877.802 174.48 880.176 176.24C882.549 178 884.136 180.4 884.936 183.44H877.416C876.856 182.267 876.056 181.373 875.016 180.76C874.002 180.147 872.842 179.84 871.536 179.84C869.429 179.84 867.722 180.573 866.416 182.04C865.109 183.507 864.456 185.467 864.456 187.92C864.456 190.373 865.109 192.333 866.416 193.8C867.722 195.267 869.429 196 871.536 196C872.842 196 874.002 195.693 875.016 195.08C876.056 194.467 876.856 193.573 877.416 192.4H884.936C884.136 195.44 882.549 197.84 880.176 199.6C877.802 201.333 874.949 202.2 871.616 202.2C868.896 202.2 866.456 201.6 864.296 200.4C862.162 199.173 860.496 197.48 859.296 195.32C858.096 193.16 857.496 190.693 857.496 187.92ZM914.405 202.28C911.765 202.28 909.338 201.667 907.125 200.44C904.938 199.213 903.191 197.507 901.885 195.32C900.605 193.107 899.965 190.627 899.965 187.88C899.965 185.133 900.605 182.667 901.885 180.48C903.191 178.293 904.938 176.587 907.125 175.36C909.338 174.133 911.765 173.52 914.405 173.52C917.045 173.52 919.458 174.133 921.645 175.36C923.858 176.587 925.591 178.293 926.845 180.48C928.125 182.667 928.765 185.133 928.765 187.88C928.765 190.627 928.125 193.107 926.845 195.32C925.565 197.507 923.831 199.213 921.645 200.44C919.458 201.667 917.045 202.28 914.405 202.28ZM914.405 196.04C916.645 196.04 918.431 195.293 919.765 193.8C921.125 192.307 921.805 190.333 921.805 187.88C921.805 185.4 921.125 183.427 919.765 181.96C918.431 180.467 916.645 179.72 914.405 179.72C912.138 179.72 910.325 180.453 908.965 181.92C907.631 183.387 906.965 185.373 906.965 187.88C906.965 190.36 907.631 192.347 908.965 193.84C910.325 195.307 912.138 196.04 914.405 196.04ZM958.89 202L953.05 191.4H951.41V202H944.57V173.92H956.05C958.263 173.92 960.143 174.307 961.69 175.08C963.263 175.853 964.437 176.92 965.21 178.28C965.983 179.613 966.37 181.107 966.37 182.76C966.37 184.627 965.837 186.293 964.77 187.76C963.73 189.227 962.183 190.267 960.13 190.88L966.61 202H958.89ZM951.41 186.56H955.65C956.903 186.56 957.837 186.253 958.45 185.64C959.09 185.027 959.41 184.16 959.41 183.04C959.41 181.973 959.09 181.133 958.45 180.52C957.837 179.907 956.903 179.6 955.65 179.6H951.41V186.56ZM989.504 179.4V185.08H998.664V190.36H989.504V196.52H999.864V202H982.664V173.92H999.864V179.4H989.504Z" fill="#DFCBB5"/>
<path d="M973.343 281.92V310H966.503V293.16L960.223 310H954.703L948.383 293.12V310H941.543V281.92H949.622L957.503 301.36L965.303 281.92H973.343ZM997.101 287.4V293.08H1006.26V298.36H997.101V304.52H1007.46V310H990.261V281.92H1007.46V287.4H997.101ZM1044.1 281.92V287.4H1036.66V310H1029.82V287.4H1022.38V281.92H1044.1ZM1077.01 305.04H1066.53L1064.85 310H1057.69L1067.85 281.92H1075.77L1085.93 310H1078.69L1077.01 305.04ZM1075.25 299.76L1071.77 289.48L1068.33 299.76H1075.25ZM1107.87 304.72H1116.83V310H1101.03V281.92H1107.87V304.72ZM1138.93 304.72H1147.89V310H1132.09V281.92H1138.93V304.72ZM1169.99 281.92V310H1163.15V281.92H1169.99ZM1185.79 295.92C1185.79 293.147 1186.39 290.68 1187.59 288.52C1188.79 286.333 1190.46 284.64 1192.59 283.44C1194.75 282.213 1197.19 281.6 1199.91 281.6C1203.24 281.6 1206.1 282.48 1208.47 284.24C1210.84 286 1212.43 288.4 1213.23 291.44H1205.71C1205.15 290.267 1204.35 289.373 1203.31 288.76C1202.3 288.147 1201.14 287.84 1199.83 287.84C1197.72 287.84 1196.02 288.573 1194.71 290.04C1193.4 291.507 1192.75 293.467 1192.75 295.92C1192.75 298.373 1193.4 300.333 1194.71 301.8C1196.02 303.267 1197.72 304 1199.83 304C1201.14 304 1202.3 303.693 1203.31 303.08C1204.35 302.467 1205.15 301.573 1205.71 300.4H1213.23C1212.43 303.44 1210.84 305.84 1208.47 307.6C1206.1 309.333 1203.24 310.2 1199.91 310.2C1197.19 310.2 1194.75 309.6 1192.59 308.4C1190.46 307.173 1188.79 305.48 1187.59 303.32C1186.39 301.16 1185.79 298.693 1185.79 295.92ZM955.359 326.92V355H948.519V343.44H937.879V355H931.039V326.92H937.879V337.92H948.519V326.92H955.359ZM996.376 326.92L986.656 345.72V355H979.816V345.72L970.096 326.92H977.856L983.296 338.68L988.696 326.92H996.376ZM1021.65 326.92C1024.61 326.92 1027.2 327.507 1029.41 328.68C1031.63 329.853 1033.33 331.507 1034.53 333.64C1035.76 335.747 1036.37 338.187 1036.37 340.96C1036.37 343.707 1035.76 346.147 1034.53 348.28C1033.33 350.413 1031.61 352.067 1029.37 353.24C1027.16 354.413 1024.59 355 1021.65 355H1011.13V326.92H1021.65ZM1021.21 349.08C1023.8 349.08 1025.81 348.373 1027.25 346.96C1028.69 345.547 1029.41 343.547 1029.41 340.96C1029.41 338.373 1028.69 336.36 1027.25 334.92C1025.81 333.48 1023.8 332.76 1021.21 332.76H1017.97V349.08H1021.21ZM1066.51 355L1060.67 344.4H1059.03V355H1052.19V326.92H1063.67C1065.89 326.92 1067.77 327.307 1069.31 328.08C1070.89 328.853 1072.06 329.92 1072.83 331.28C1073.61 332.613 1073.99 334.107 1073.99 335.76C1073.99 337.627 1073.46 339.293 1072.39 340.76C1071.35 342.227 1069.81 343.267 1067.75 343.88L1074.23 355H1066.51ZM1059.03 339.56H1063.27C1064.53 339.56 1065.46 339.253 1066.07 338.64C1066.71 338.027 1067.03 337.16 1067.03 336.04C1067.03 334.973 1066.71 334.133 1066.07 333.52C1065.46 332.907 1064.53 332.6 1063.27 332.6H1059.03V339.56ZM1103.57 355.28C1100.93 355.28 1098.5 354.667 1096.29 353.44C1094.1 352.213 1092.36 350.507 1091.05 348.32C1089.77 346.107 1089.13 343.627 1089.13 340.88C1089.13 338.133 1089.77 335.667 1091.05 333.48C1092.36 331.293 1094.1 329.587 1096.29 328.36C1098.5 327.133 1100.93 326.52 1103.57 326.52C1106.21 326.52 1108.62 327.133 1110.81 328.36C1113.02 329.587 1114.76 331.293 1116.01 333.48C1117.29 335.667 1117.93 338.133 1117.93 340.88C1117.93 343.627 1117.29 346.107 1116.01 348.32C1114.73 350.507 1113 352.213 1110.81 353.44C1108.62 354.667 1106.21 355.28 1103.57 355.28ZM1103.57 349.04C1105.81 349.04 1107.6 348.293 1108.93 346.8C1110.29 345.307 1110.97 343.333 1110.97 340.88C1110.97 338.4 1110.29 336.427 1108.93 334.96C1107.6 333.467 1105.81 332.72 1103.57 332.72C1101.3 332.72 1099.49 333.453 1098.13 334.92C1096.8 336.387 1096.13 338.373 1096.13 340.88C1096.13 343.36 1096.8 345.347 1098.13 346.84C1099.49 348.307 1101.3 349.04 1103.57 349.04ZM1152.37 335.8C1151.87 334.867 1151.13 334.16 1150.17 333.68C1149.24 333.173 1148.13 332.92 1146.85 332.92C1144.64 332.92 1142.87 333.653 1141.53 335.12C1140.2 336.56 1139.53 338.493 1139.53 340.92C1139.53 343.507 1140.23 345.533 1141.61 347C1143.03 348.44 1144.96 349.16 1147.41 349.16C1149.09 349.16 1150.51 348.733 1151.65 347.88C1152.83 347.027 1153.68 345.8 1154.21 344.2H1145.53V339.16H1160.41V345.52C1159.91 347.227 1159.04 348.813 1157.81 350.28C1156.61 351.747 1155.08 352.933 1153.21 353.84C1151.35 354.747 1149.24 355.2 1146.89 355.2C1144.12 355.2 1141.64 354.6 1139.45 353.4C1137.29 352.173 1135.6 350.48 1134.37 348.32C1133.17 346.16 1132.57 343.693 1132.57 340.92C1132.57 338.147 1133.17 335.68 1134.37 333.52C1135.6 331.333 1137.29 329.64 1139.45 328.44C1141.61 327.213 1144.08 326.6 1146.85 326.6C1150.21 326.6 1153.04 327.413 1155.33 329.04C1157.65 330.667 1159.19 332.92 1159.93 335.8H1152.37ZM1183.04 332.4V338.08H1192.2V343.36H1183.04V349.52H1193.4V355H1176.2V326.92H1193.4V332.4H1183.04ZM1234.96 355H1228.12L1216.68 337.68V355H1209.84V326.92H1216.68L1228.12 344.32V326.92H1234.96V355Z" fill="#CAA883"/>
<path d="M1017.6 485.72H1026.56V491H1010.76V462.92H1017.6V485.72ZM1048.66 462.92V491H1041.82V462.92H1048.66ZM1085.62 495.8L1082.02 490.96C1080.95 491.173 1079.91 491.28 1078.9 491.28C1076.26 491.28 1073.83 490.667 1071.62 489.44C1069.43 488.213 1067.68 486.507 1066.38 484.32C1065.1 482.107 1064.46 479.627 1064.46 476.88C1064.46 474.133 1065.1 471.667 1066.38 469.48C1067.68 467.293 1069.43 465.587 1071.62 464.36C1073.83 463.133 1076.26 462.52 1078.9 462.52C1081.54 462.52 1083.95 463.133 1086.14 464.36C1088.35 465.587 1090.08 467.293 1091.34 469.48C1092.62 471.667 1093.26 474.133 1093.26 476.88C1093.26 479.28 1092.76 481.48 1091.78 483.48C1090.82 485.453 1089.47 487.093 1087.74 488.4L1093.9 495.8H1085.62ZM1071.46 476.88C1071.46 479.36 1072.12 481.347 1073.46 482.84C1074.82 484.307 1076.63 485.04 1078.9 485.04C1081.14 485.04 1082.92 484.293 1084.26 482.8C1085.62 481.307 1086.3 479.333 1086.3 476.88C1086.3 474.4 1085.62 472.427 1084.26 470.96C1082.92 469.467 1081.14 468.72 1078.9 468.72C1076.63 468.72 1074.82 469.453 1073.46 470.92C1072.12 472.387 1071.46 474.373 1071.46 476.88ZM1115.86 462.92V479.72C1115.86 481.4 1116.27 482.693 1117.1 483.6C1117.93 484.507 1119.14 484.96 1120.74 484.96C1122.34 484.96 1123.57 484.507 1124.42 483.6C1125.27 482.693 1125.7 481.4 1125.7 479.72V462.92H1132.54V479.68C1132.54 482.187 1132.01 484.307 1130.94 486.04C1129.87 487.773 1128.43 489.08 1126.62 489.96C1124.83 490.84 1122.83 491.28 1120.62 491.28C1118.41 491.28 1116.42 490.853 1114.66 490C1112.93 489.12 1111.55 487.813 1110.54 486.08C1109.53 484.32 1109.02 482.187 1109.02 479.68V462.92H1115.86ZM1156.18 462.92V491H1149.34V462.92H1156.18ZM1183.66 462.92C1186.62 462.92 1189.21 463.507 1191.42 464.68C1193.63 465.853 1195.34 467.507 1196.54 469.64C1197.77 471.747 1198.38 474.187 1198.38 476.96C1198.38 479.707 1197.77 482.147 1196.54 484.28C1195.34 486.413 1193.62 488.067 1191.38 489.24C1189.17 490.413 1186.59 491 1183.66 491H1173.14V462.92H1183.66ZM1183.22 485.08C1185.81 485.08 1187.82 484.373 1189.26 482.96C1190.7 481.547 1191.42 479.547 1191.42 476.96C1191.42 474.373 1190.7 472.36 1189.26 470.92C1187.82 469.48 1185.81 468.76 1183.22 468.76H1179.98V485.08H1183.22ZM982.359 507.92V536H975.519V524.44H964.879V536H958.039V507.92H964.879V518.92H975.519V507.92H982.359ZM1023.38 507.92L1013.66 526.72V536H1006.82V526.72L997.096 507.92H1004.86L1010.3 519.68L1015.7 507.92H1023.38ZM1048.65 507.92C1051.61 507.92 1054.2 508.507 1056.41 509.68C1058.63 510.853 1060.33 512.507 1061.53 514.64C1062.76 516.747 1063.37 519.187 1063.37 521.96C1063.37 524.707 1062.76 527.147 1061.53 529.28C1060.33 531.413 1058.61 533.067 1056.37 534.24C1054.16 535.413 1051.59 536 1048.65 536H1038.13V507.92H1048.65ZM1048.21 530.08C1050.8 530.08 1052.81 529.373 1054.25 527.96C1055.69 526.547 1056.41 524.547 1056.41 521.96C1056.41 519.373 1055.69 517.36 1054.25 515.92C1052.81 514.48 1050.8 513.76 1048.21 513.76H1044.97V530.08H1048.21ZM1093.51 536L1087.67 525.4H1086.03V536H1079.19V507.92H1090.67C1092.89 507.92 1094.77 508.307 1096.31 509.08C1097.89 509.853 1099.06 510.92 1099.83 512.28C1100.61 513.613 1100.99 515.107 1100.99 516.76C1100.99 518.627 1100.46 520.293 1099.39 521.76C1098.35 523.227 1096.81 524.267 1094.75 524.88L1101.23 536H1093.51ZM1086.03 520.56H1090.27C1091.53 520.56 1092.46 520.253 1093.07 519.64C1093.71 519.027 1094.03 518.16 1094.03 517.04C1094.03 515.973 1093.71 515.133 1093.07 514.52C1092.46 513.907 1091.53 513.6 1090.27 513.6H1086.03V520.56ZM1130.57 536.28C1127.93 536.28 1125.5 535.667 1123.29 534.44C1121.1 533.213 1119.36 531.507 1118.05 529.32C1116.77 527.107 1116.13 524.627 1116.13 521.88C1116.13 519.133 1116.77 516.667 1118.05 514.48C1119.36 512.293 1121.1 510.587 1123.29 509.36C1125.5 508.133 1127.93 507.52 1130.57 507.52C1133.21 507.52 1135.62 508.133 1137.81 509.36C1140.02 510.587 1141.76 512.293 1143.01 514.48C1144.29 516.667 1144.93 519.133 1144.93 521.88C1144.93 524.627 1144.29 527.107 1143.01 529.32C1141.73 531.507 1140 533.213 1137.81 534.44C1135.62 535.667 1133.21 536.28 1130.57 536.28ZM1130.57 530.04C1132.81 530.04 1134.6 529.293 1135.93 527.8C1137.29 526.307 1137.97 524.333 1137.97 521.88C1137.97 519.4 1137.29 517.427 1135.93 515.96C1134.6 514.467 1132.81 513.72 1130.57 513.72C1128.3 513.72 1126.49 514.453 1125.13 515.92C1123.8 517.387 1123.13 519.373 1123.13 521.88C1123.13 524.36 1123.8 526.347 1125.13 527.84C1126.49 529.307 1128.3 530.04 1130.57 530.04ZM1179.37 516.8C1178.87 515.867 1178.13 515.16 1177.17 514.68C1176.24 514.173 1175.13 513.92 1173.85 513.92C1171.64 513.92 1169.87 514.653 1168.53 516.12C1167.2 517.56 1166.53 519.493 1166.53 521.92C1166.53 524.507 1167.23 526.533 1168.61 528C1170.03 529.44 1171.96 530.16 1174.41 530.16C1176.09 530.16 1177.51 529.733 1178.65 528.88C1179.83 528.027 1180.68 526.8 1181.21 525.2H1172.53V520.16H1187.41V526.52C1186.91 528.227 1186.04 529.813 1184.81 531.28C1183.61 532.747 1182.08 533.933 1180.21 534.84C1178.35 535.747 1176.24 536.2 1173.89 536.2C1171.12 536.2 1168.64 535.6 1166.45 534.4C1164.29 533.173 1162.6 531.48 1161.37 529.32C1160.17 527.16 1159.57 524.693 1159.57 521.92C1159.57 519.147 1160.17 516.68 1161.37 514.52C1162.6 512.333 1164.29 510.64 1166.45 509.44C1168.61 508.213 1171.08 507.6 1173.85 507.6C1177.21 507.6 1180.04 508.413 1182.33 510.04C1184.65 511.667 1186.19 513.92 1186.93 516.8H1179.37ZM1210.04 513.4V519.08H1219.2V524.36H1210.04V530.52H1220.4V536H1203.2V507.92H1220.4V513.4H1210.04ZM1261.96 536H1255.12L1243.68 518.68V536H1236.84V507.92H1243.68L1255.12 525.32V507.92H1261.96V536Z" fill="#846C53"/>
<g filter="url(#filter5_d_68_107)">
<path d="M511.535 398.68C511.358 399.489 511.87 400.289 512.68 400.465L525.869 403.347C526.678 403.524 527.477 403.012 527.654 402.202C527.831 401.393 527.318 400.593 526.509 400.417L514.786 397.855L517.347 386.131C517.524 385.322 517.012 384.523 516.202 384.346C515.393 384.169 514.593 384.682 514.417 385.491L511.535 398.68ZM841.19 186.737L512.19 397.737L513.81 400.263L842.81 189.263L841.19 186.737Z" fill="#DFCBB5"/>
</g>
<g filter="url(#filter6_d_68_107)">
<path d="M694.718 373.222C694.288 373.93 694.513 374.852 695.222 375.282L706.762 382.287C707.47 382.717 708.393 382.492 708.823 381.784C709.252 381.075 709.027 380.153 708.319 379.723L698.061 373.496L704.287 363.238C704.717 362.53 704.492 361.607 703.783 361.177C703.075 360.748 702.153 360.973 701.723 361.681L694.718 373.222ZM924.644 316.543L695.644 372.543L696.356 375.457L925.356 319.457L924.644 316.543Z" fill="#CAA883"/>
</g>
<g filter="url(#filter7_d_68_107)">
<path d="M775.974 492.906C775.37 493.473 775.339 494.422 775.906 495.026L785.143 504.871C785.71 505.475 786.659 505.506 787.264 504.939C787.868 504.372 787.898 503.423 787.331 502.819L779.12 494.068L787.871 485.857C788.475 485.29 788.506 484.341 787.939 483.736C787.372 483.132 786.423 483.102 785.819 483.669L775.974 492.906ZM934.048 497.501L777.048 492.501L776.952 495.499L933.952 500.499L934.048 497.501Z" fill="#846C53"/>
</g>
<g filter="url(#filter8_d_68_107)">
<path d="M771.695 735.531C770.884 735.7 770.363 736.494 770.531 737.305L773.275 750.523C773.443 751.334 774.237 751.855 775.048 751.687C775.859 751.519 776.38 750.725 776.212 749.913L773.774 738.164L785.523 735.725C786.334 735.557 786.855 734.763 786.687 733.952C786.519 733.141 785.725 732.62 784.913 732.788L771.695 735.531ZM836.823 777.746L772.823 735.746L771.177 738.254L835.177 780.254L836.823 777.746Z" fill="#604F3B"/>
</g>
<path d="M875.094 764.92L865.134 793H856.574L846.614 764.92H853.894L860.854 786.12L867.854 764.92H875.094ZM896.793 764.92V793H889.953V764.92H896.793ZM923.91 793.28C921.856 793.28 920.016 792.947 918.39 792.28C916.763 791.613 915.456 790.627 914.47 789.32C913.51 788.013 913.003 786.44 912.95 784.6H920.23C920.336 785.64 920.696 786.44 921.31 787C921.923 787.533 922.723 787.8 923.71 787.8C924.723 787.8 925.523 787.573 926.11 787.12C926.696 786.64 926.99 785.987 926.99 785.16C926.99 784.467 926.75 783.893 926.27 783.44C925.816 782.987 925.243 782.613 924.55 782.32C923.883 782.027 922.923 781.693 921.67 781.32C919.856 780.76 918.376 780.2 917.23 779.64C916.083 779.08 915.096 778.253 914.27 777.16C913.443 776.067 913.03 774.64 913.03 772.88C913.03 770.267 913.976 768.227 915.87 766.76C917.763 765.267 920.23 764.52 923.27 764.52C926.363 764.52 928.856 765.267 930.75 766.76C932.643 768.227 933.656 770.28 933.79 772.92H926.39C926.336 772.013 926.003 771.307 925.39 770.8C924.776 770.267 923.99 770 923.03 770C922.203 770 921.536 770.227 921.03 770.68C920.523 771.107 920.27 771.733 920.27 772.56C920.27 773.467 920.696 774.173 921.55 774.68C922.403 775.187 923.736 775.733 925.55 776.32C927.363 776.933 928.83 777.52 929.95 778.08C931.096 778.64 932.083 779.453 932.91 780.52C933.736 781.587 934.15 782.96 934.15 784.64C934.15 786.24 933.736 787.693 932.91 789C932.11 790.307 930.936 791.347 929.39 792.12C927.843 792.893 926.016 793.28 923.91 793.28ZM957.199 764.92V793H950.359V764.92H957.199ZM991.156 778.6C992.782 778.947 994.089 779.76 995.076 781.04C996.062 782.293 996.556 783.733 996.556 785.36C996.556 787.707 995.729 789.573 994.076 790.96C992.449 792.32 990.169 793 987.236 793H974.156V764.92H986.796C989.649 764.92 991.876 765.573 993.476 766.88C995.102 768.187 995.916 769.96 995.916 772.2C995.916 773.853 995.476 775.227 994.596 776.32C993.742 777.413 992.596 778.173 991.156 778.6ZM980.996 776.28H985.476C986.596 776.28 987.449 776.04 988.036 775.56C988.649 775.053 988.956 774.32 988.956 773.36C988.956 772.4 988.649 771.667 988.036 771.16C987.449 770.653 986.596 770.4 985.476 770.4H980.996V776.28ZM986.036 787.48C987.182 787.48 988.062 787.227 988.676 786.72C989.316 786.187 989.636 785.427 989.636 784.44C989.636 783.453 989.302 782.68 988.636 782.12C987.996 781.56 987.102 781.28 985.956 781.28H980.996V787.48H986.036ZM1019.36 787.72H1028.32V793H1012.52V764.92H1019.36V787.72ZM1050.43 770.4V776.08H1059.59V781.36H1050.43V787.52H1060.79V793H1043.59V764.92H1060.79V770.4H1050.43ZM850.394 823.92C850.394 821.147 850.994 818.68 852.194 816.52C853.394 814.333 855.061 812.64 857.194 811.44C859.354 810.213 861.794 809.6 864.514 809.6C867.848 809.6 870.701 810.48 873.074 812.24C875.448 814 877.034 816.4 877.834 819.44H870.314C869.754 818.267 868.954 817.373 867.914 816.76C866.901 816.147 865.741 815.84 864.434 815.84C862.328 815.84 860.621 816.573 859.314 818.04C858.008 819.507 857.354 821.467 857.354 823.92C857.354 826.373 858.008 828.333 859.314 829.8C860.621 831.267 862.328 832 864.434 832C865.741 832 866.901 831.693 867.914 831.08C868.954 830.467 869.754 829.573 870.314 828.4H877.834C877.034 831.44 875.448 833.84 873.074 835.6C870.701 837.333 867.848 838.2 864.514 838.2C861.794 838.2 859.354 837.6 857.194 836.4C855.061 835.173 853.394 833.48 852.194 831.32C850.994 829.16 850.394 826.693 850.394 823.92ZM900.863 832.72H909.823V838H894.023V809.92H900.863V832.72ZM938.365 838.28C935.725 838.28 933.299 837.667 931.085 836.44C928.899 835.213 927.152 833.507 925.845 831.32C924.565 829.107 923.925 826.627 923.925 823.88C923.925 821.133 924.565 818.667 925.845 816.48C927.152 814.293 928.899 812.587 931.085 811.36C933.299 810.133 935.725 809.52 938.365 809.52C941.005 809.52 943.419 810.133 945.605 811.36C947.819 812.587 949.552 814.293 950.805 816.48C952.085 818.667 952.725 821.133 952.725 823.88C952.725 826.627 952.085 829.107 950.805 831.32C949.525 833.507 947.792 835.213 945.605 836.44C943.419 837.667 941.005 838.28 938.365 838.28ZM938.365 832.04C940.605 832.04 942.392 831.293 943.725 829.8C945.085 828.307 945.765 826.333 945.765 823.88C945.765 821.4 945.085 819.427 943.725 817.96C942.392 816.467 940.605 815.72 938.365 815.72C936.099 815.72 934.285 816.453 932.925 817.92C931.592 819.387 930.925 821.373 930.925 823.88C930.925 826.36 931.592 828.347 932.925 829.84C934.285 831.307 936.099 832.04 938.365 832.04ZM975.251 809.92V826.72C975.251 828.4 975.664 829.693 976.491 830.6C977.317 831.507 978.531 831.96 980.131 831.96C981.731 831.96 982.957 831.507 983.811 830.6C984.664 829.693 985.091 828.4 985.091 826.72V809.92H991.931V826.68C991.931 829.187 991.397 831.307 990.331 833.04C989.264 834.773 987.824 836.08 986.011 836.96C984.224 837.84 982.224 838.28 980.011 838.28C977.797 838.28 975.811 837.853 974.051 837C972.317 836.12 970.944 834.813 969.931 833.08C968.917 831.32 968.411 829.187 968.411 826.68V809.92H975.251ZM1019.25 809.92C1022.21 809.92 1024.8 810.507 1027.01 811.68C1029.23 812.853 1030.93 814.507 1032.13 816.64C1033.36 818.747 1033.97 821.187 1033.97 823.96C1033.97 826.707 1033.36 829.147 1032.13 831.28C1030.93 833.413 1029.21 835.067 1026.97 836.24C1024.76 837.413 1022.19 838 1019.25 838H1008.73V809.92H1019.25ZM1018.81 832.08C1021.4 832.08 1023.41 831.373 1024.85 829.96C1026.29 828.547 1027.01 826.547 1027.01 823.96C1027.01 821.373 1026.29 819.36 1024.85 817.92C1023.41 816.48 1021.4 815.76 1018.81 815.76H1015.57V832.08H1018.81ZM1059.96 838.28C1057.9 838.28 1056.06 837.947 1054.44 837.28C1052.81 836.613 1051.5 835.627 1050.52 834.32C1049.56 833.013 1049.05 831.44 1049 829.6H1056.28C1056.38 830.64 1056.74 831.44 1057.36 832C1057.97 832.533 1058.77 832.8 1059.76 832.8C1060.77 832.8 1061.57 832.573 1062.16 832.12C1062.74 831.64 1063.04 830.987 1063.04 830.16C1063.04 829.467 1062.8 828.893 1062.32 828.44C1061.86 827.987 1061.29 827.613 1060.6 827.32C1059.93 827.027 1058.97 826.693 1057.72 826.32C1055.9 825.76 1054.42 825.2 1053.28 824.64C1052.13 824.08 1051.14 823.253 1050.32 822.16C1049.49 821.067 1049.08 819.64 1049.08 817.88C1049.08 815.267 1050.02 813.227 1051.92 811.76C1053.81 810.267 1056.28 809.52 1059.32 809.52C1062.41 809.52 1064.9 810.267 1066.8 811.76C1068.69 813.227 1069.7 815.28 1069.84 817.92H1062.44C1062.38 817.013 1062.05 816.307 1061.44 815.8C1060.82 815.267 1060.04 815 1059.08 815C1058.25 815 1057.58 815.227 1057.08 815.68C1056.57 816.107 1056.32 816.733 1056.32 817.56C1056.32 818.467 1056.74 819.173 1057.6 819.68C1058.45 820.187 1059.78 820.733 1061.6 821.32C1063.41 821.933 1064.88 822.52 1066 823.08C1067.14 823.64 1068.13 824.453 1068.96 825.52C1069.78 826.587 1070.2 827.96 1070.2 829.64C1070.2 831.24 1069.78 832.693 1068.96 834C1068.16 835.307 1066.98 836.347 1065.44 837.12C1063.89 837.893 1062.06 838.28 1059.96 838.28Z" fill="#604F3B"/>
<g filter="url(#filter9_d_68_107)">
<path d="M809.326 616.66C808.586 617.032 808.288 617.934 808.66 618.674L814.727 630.734C815.099 631.474 816.001 631.772 816.741 631.4C817.481 631.028 817.779 630.126 817.407 629.386L812.014 618.666L822.734 613.273C823.474 612.901 823.772 611.999 823.4 611.259C823.028 610.519 822.126 610.221 821.386 610.593L809.326 616.66ZM934.471 657.576L810.471 616.576L809.529 619.424L933.529 660.424L934.471 657.576Z" fill="#4F402F"/>
</g>
<defs>
<filter id="filter0_d_68_107" x="0" y="0" width="883" height="889" filterUnits="userSpaceOnUse" color-interpolation-filters="sRGB">
<feFlood flood-opacity="0" result="BackgroundImageFix"/>
<feColorMatrix in="SourceAlpha" type="matrix" values="0 0 0 0 0 0 0 0 0 0 0 0 0 0 0 0 0 0 127 0" result="hardAlpha"/>
<feOffset dy="10"/>
<feGaussianBlur stdDeviation="2"/>
<feComposite in2="hardAlpha" operator="out"/>
<feColorMatrix type="matrix" values="0 0 0 0 0 0 0 0 0 0 0 0 0 0 0 0 0 0 0.25 0"/>
<feBlend mode="normal" in2="BackgroundImageFix" result="effect1_dropShadow_68_107"/>
<feBlend mode="normal" in="SourceGraphic" in2="effect1_dropShadow_68_107" result="shape"/>
</filter>
<filter id="filter1_d_68_107" x="38" y="38" width="808" height="814" filterUnits="userSpaceOnUse" color-interpolation-filters="sRGB">
<feFlood flood-opacity="0" result="BackgroundImageFix"/>
<feColorMatrix in="SourceAlpha" type="matrix" values="0 0 0 0 0 0 0 0 0 0 0 0 0 0 0 0 0 0 127 0" result="hardAlpha"/>
<feOffset dy="10"/>
<feGaussianBlur stdDeviation="2"/>
<feComposite in2="hardAlpha" operator="out"/>
<feColorMatrix type="matrix" values="0 0 0 0 0 0 0 0 0 0 0 0 0 0 0 0 0 0 0.25 0"/>
<feBlend mode="normal" in2="BackgroundImageFix" result="effect1_dropShadow_68_107"/>
<feBlend mode="normal" in="SourceGraphic" in2="effect1_dropShadow_68_107" result="shape"/>
</filter>
<filter id="filter2_d_68_107" x="118" y="118" width="648" height="654" filterUnits="userSpaceOnUse" color-interpolation-filters="sRGB">
<feFlood flood-opacity="0" result="BackgroundImageFix"/>
<feColorMatrix in="SourceAlpha" type="matrix" values="0 0 0 0 0 0 0 0 0 0 0 0 0 0 0 0 0 0 127 0" result="hardAlpha"/>
<feOffset dy="10"/>
<feGaussianBlur stdDeviation="2"/>
<feComposite in2="hardAlpha" operator="out"/>
<feColorMatrix type="matrix" values="0 0 0 0 0 0 0 0 0 0 0 0 0 0 0 0 0 0 0.25 0"/>
<feBlend mode="normal" in2="BackgroundImageFix" result="effect1_dropShadow_68_107"/>
<feBlend mode="normal" in="SourceGraphic" in2="effect1_dropShadow_68_107" result="shape"/>
</filter>
<filter id="filter3_d_68_107" x="188" y="188" width="508" height="514" filterUnits="userSpaceOnUse" color-interpolation-filters="sRGB">
<feFlood flood-opacity="0" result="BackgroundImageFix"/>
<feColorMatrix in="SourceAlpha" type="matrix" values="0 0 0 0 0 0 0 0 0 0 0 0 0 0 0 0 0 0 127 0" result="hardAlpha"/>
<feOffset dy="10"/>
<feGaussianBlur stdDeviation="2"/>
<feComposite in2="hardAlpha" operator="out"/>
<feColorMatrix type="matrix" values="0 0 0 0 0 0 0 0 0 0 0 0 0 0 0 0 0 0 0.25 0"/>
<feBlend mode="normal" in2="BackgroundImageFix" result="effect1_dropShadow_68_107"/>
<feBlend mode="normal" in="SourceGraphic" in2="effect1_dropShadow_68_107" result="shape"/>
</filter>
<filter id="filter4_d_68_107" x="363" y="363" width="158" height="162" filterUnits="userSpaceOnUse" color-interpolation-filters="sRGB">
<feFlood flood-opacity="0" result="BackgroundImageFix"/>
<feColorMatrix in="SourceAlpha" type="matrix" values="0 0 0 0 0 0 0 0 0 0 0 0 0 0 0 0 0 0 127 0" result="hardAlpha"/>
<feOffset dy="8"/>
<feGaussianBlur stdDeviation="2"/>
<feComposite in2="hardAlpha" operator="out"/>
<feColorMatrix type="matrix" values="0 0 0 0 0 0 0 0 0 0 0 0 0 0 0 0 0 0 0.25 0"/>
<feBlend mode="normal" in2="BackgroundImageFix" result="effect1_dropShadow_68_107"/>
<feBlend mode="normal" in="SourceGraphic" in2="effect1_dropShadow_68_107" result="shape"/>
</filter>
<filter id="filter5_d_68_107" x="507.5" y="186.737" width="339.31" height="224.645" filterUnits="userSpaceOnUse" color-interpolation-filters="sRGB">
<feFlood flood-opacity="0" result="BackgroundImageFix"/>
<feColorMatrix in="SourceAlpha" type="matrix" values="0 0 0 0 0 0 0 0 0 0 0 0 0 0 0 0 0 0 127 0" result="hardAlpha"/>
<feOffset dy="4"/>
<feGaussianBlur stdDeviation="2"/>
<feComposite in2="hardAlpha" operator="out"/>
<feColorMatrix type="matrix" values="0 0 0 0 0 0 0 0 0 0 0 0 0 0 0 0 0 0 0.25 0"/>
<feBlend mode="normal" in2="BackgroundImageFix" result="effect1_dropShadow_68_107"/>
<feBlend mode="normal" in="SourceGraphic" in2="effect1_dropShadow_68_107" result="shape"/>
</filter>
<filter id="filter6_d_68_107" x="690.5" y="316.543" width="238.856" height="73.9625" filterUnits="userSpaceOnUse" color-interpolation-filters="sRGB">
<feFlood flood-opacity="0" result="BackgroundImageFix"/>
<feColorMatrix in="SourceAlpha" type="matrix" values="0 0 0 0 0 0 0 0 0 0 0 0 0 0 0 0 0 0 127 0" result="hardAlpha"/>
<feOffset dy="4"/>
<feGaussianBlur stdDeviation="2"/>
<feComposite in2="hardAlpha" operator="out"/>
<feColorMatrix type="matrix" values="0 0 0 0 0 0 0 0 0 0 0 0 0 0 0 0 0 0 0.25 0"/>
<feBlend mode="normal" in2="BackgroundImageFix" result="effect1_dropShadow_68_107"/>
<feBlend mode="normal" in="SourceGraphic" in2="effect1_dropShadow_68_107" result="shape"/>
</filter>
<filter id="filter7_d_68_107" x="771.5" y="483.263" width="166.548" height="30.0822" filterUnits="userSpaceOnUse" color-interpolation-filters="sRGB">
<feFlood flood-opacity="0" result="BackgroundImageFix"/>
<feColorMatrix in="SourceAlpha" type="matrix" values="0 0 0 0 0 0 0 0 0 0 0 0 0 0 0 0 0 0 127 0" result="hardAlpha"/>
<feOffset dy="4"/>
<feGaussianBlur stdDeviation="2"/>
<feComposite in2="hardAlpha" operator="out"/>
<feColorMatrix type="matrix" values="0 0 0 0 0 0 0 0 0 0 0 0 0 0 0 0 0 0 0.25 0"/>
<feBlend mode="normal" in2="BackgroundImageFix" result="effect1_dropShadow_68_107"/>
<feBlend mode="normal" in="SourceGraphic" in2="effect1_dropShadow_68_107" result="shape"/>
</filter>
<filter id="filter8_d_68_107" x="766.5" y="732.756" width="74.3232" height="55.4978" filterUnits="userSpaceOnUse" color-interpolation-filters="sRGB">
<feFlood flood-opacity="0" result="BackgroundImageFix"/>
<feColorMatrix in="SourceAlpha" type="matrix" values="0 0 0 0 0 0 0 0 0 0 0 0 0 0 0 0 0 0 127 0" result="hardAlpha"/>
<feOffset dy="4"/>
<feGaussianBlur stdDeviation="2"/>
<feComposite in2="hardAlpha" operator="out"/>
<feColorMatrix type="matrix" values="0 0 0 0 0 0 0 0 0 0 0 0 0 0 0 0 0 0 0.25 0"/>
<feBlend mode="normal" in2="BackgroundImageFix" result="effect1_dropShadow_68_107"/>
<feBlend mode="normal" in="SourceGraphic" in2="effect1_dropShadow_68_107" result="shape"/>
</filter>
<filter id="filter9_d_68_107" x="804.5" y="610.433" width="133.971" height="57.9911" filterUnits="userSpaceOnUse" color-interpolation-filters="sRGB">
<feFlood flood-opacity="0" result="BackgroundImageFix"/>
<feColorMatrix in="SourceAlpha" type="matrix" values="0 0 0 0 0 0 0 0 0 0 0 0 0 0 0 0 0 0 127 0" result="hardAlpha"/>
<feOffset dy="4"/>
<feGaussianBlur stdDeviation="2"/>
<feComposite in2="hardAlpha" operator="out"/>
<feColorMatrix type="matrix" values="0 0 0 0 0 0 0 0 0 0 0 0 0 0 0 0 0 0 0.25 0"/>
<feBlend mode="normal" in2="BackgroundImageFix" result="effect1_dropShadow_68_107"/>
<feBlend mode="normal" in="SourceGraphic" in2="effect1_dropShadow_68_107" result="shape"/>
</filter>
</defs>
</svg>
