<svg width="675" height="1014" viewBox="0 0 675 1014" fill="none" xmlns="http://www.w3.org/2000/svg">
<g clip-path="url(#clip0_110_179)">
<circle cx="337.5" cy="502.5" r="337.5" fill="#89D6DC"/>
<ellipse cx="64" cy="338.5" rx="200" ry="373.5" fill="#589297"/>
<ellipse cx="522" cy="452.5" rx="200" ry="373.5" fill="#B8E6EA"/>
</g>
<g filter="url(#filter0_d_110_179)">
<path d="M332.893 121.738C331.193 129.937 329.54 138.506 327.904 147.446C327.276 150.925 326.62 154.459 325.997 158.044C327.169 161.178 328.342 164.365 329.49 167.659C330.641 160.493 331.836 153.59 333.009 146.901C334.064 141.066 335.126 135.391 336.197 129.927C349.197 63.455 363.999 24.8853 378.358 27.7522C394.105 30.876 406.419 83.4803 413.711 166.68C419.472 232.319 422.078 317.055 420.864 411.571C420.479 438.827 419.82 466.945 418.81 495.61C418.59 501.939 418.342 508.321 418.065 514.759C412.824 643.967 401.674 759.845 387.808 843.453C387.214 846.984 386.618 850.462 386.019 853.887C385.572 856.509 385.121 859.024 384.672 861.593C371.064 936.907 355.144 981.313 339.808 978.278C324.693 975.285 312.783 926.857 305.411 849.608C303.75 848.832 302.087 848.003 300.453 847.12C309.771 941.434 325.591 1001.85 345.596 1005.79C364.121 1009.48 382.944 964.256 398.968 886.976C399.588 884.028 400.174 881.029 400.789 877.975C402.14 871.065 403.51 863.889 404.811 856.557C418.094 782.373 428.925 685.359 435.141 576.709C436.239 557.758 437.193 538.387 437.979 518.759C438.335 509.876 438.665 501.1 438.932 492.327C442.858 373.637 440.427 264.681 433.094 179.837C424.069 75.2097 407.537 7.23464 386.269 3.02861C367.74 -0.768086 348.885 44.4596 332.893 121.738Z" fill="#1A3E40"/>
</g>
<defs>
<filter id="filter0_d_110_179" x="296.453" y="2.80713" width="148.343" height="1011.19" filterUnits="userSpaceOnUse" color-interpolation-filters="sRGB">
<feFlood flood-opacity="0" result="BackgroundImageFix"/>
<feColorMatrix in="SourceAlpha" type="matrix" values="0 0 0 0 0 0 0 0 0 0 0 0 0 0 0 0 0 0 127 0" result="hardAlpha"/>
<feOffset dy="4"/>
<feGaussianBlur stdDeviation="2"/>
<feComposite in2="hardAlpha" operator="out"/>
<feColorMatrix type="matrix" values="0 0 0 0 0 0 0 0 0 0 0 0 0 0 0 0 0 0 0.25 0"/>
<feBlend mode="normal" in2="BackgroundImageFix" result="effect1_dropShadow_110_179"/>
<feBlend mode="normal" in="SourceGraphic" in2="effect1_dropShadow_110_179" result="shape"/>
</filter>
<clipPath id="clip0_110_179">
<rect y="165" width="675" height="675" rx="337.5" fill="white"/>
</clipPath>
</defs>
</svg>
