<svg width="1087" height="742" viewBox="0 0 1087 742" fill="none" xmlns="http://www.w3.org/2000/svg">
<g clip-path="url(#clip0_96_59)">
<path d="M177 565L177 146" stroke="white" stroke-width="12" stroke-linecap="round"/>
<path d="M177 565H1041" stroke="white" stroke-width="12" stroke-linecap="round"/>
<path d="M177 560V514" stroke="white" stroke-width="12" stroke-linecap="round"/>
<path d="M393 560V514" stroke="white" stroke-width="12" stroke-linecap="round"/>
<path d="M609 560V514" stroke="white" stroke-width="12" stroke-linecap="round"/>
<path d="M825 560V514" stroke="white" stroke-width="12" stroke-linecap="round"/>
<path d="M1041 560V514" stroke="white" stroke-width="12" stroke-linecap="round"/>
<g filter="url(#filter0_d_96_59)">
<path d="M364.872 616.424C365.96 615.56 366.456 615.16 366.36 615.224C369.496 612.632 371.96 610.504 373.752 608.84C375.576 607.176 377.112 605.432 378.36 603.608C379.608 601.784 380.232 600.008 380.232 598.28C380.232 596.968 379.928 595.944 379.32 595.208C378.712 594.472 377.8 594.104 376.584 594.104C375.368 594.104 374.408 594.568 373.704 595.496C373.032 596.392 372.696 597.672 372.696 599.336H364.776C364.84 596.616 365.416 594.344 366.504 592.52C367.624 590.696 369.08 589.352 370.872 588.488C372.696 587.624 374.712 587.192 376.92 587.192C380.728 587.192 383.592 588.168 385.512 590.12C387.464 592.072 388.44 594.616 388.44 597.752C388.44 601.176 387.272 604.36 384.936 607.304C382.6 610.216 379.624 613.064 376.008 615.848H388.968V622.52H364.872V616.424ZM406.118 595.592V587.96H419.414V623H410.87V595.592H406.118Z" fill="white"/>
</g>
<g filter="url(#filter1_d_96_59)">
<path d="M395.184 704.88V711.696H406.176V718.032H395.184V725.424H407.616V732H386.976V698.304H407.616V704.88H395.184ZM448.321 726.048H435.745L433.729 732H425.137L437.329 698.304H446.833L459.025 732H450.337L448.321 726.048ZM446.209 719.712L442.033 707.376L437.905 719.712H446.209ZM494.319 732L487.311 719.28H485.343V732H477.135V698.304H490.911C493.567 698.304 495.823 698.768 497.679 699.696C499.567 700.624 500.975 701.904 501.903 703.536C502.831 705.136 503.295 706.928 503.295 708.912C503.295 711.152 502.655 713.152 501.375 714.912C500.127 716.672 498.271 717.92 495.807 718.656L503.583 732H494.319ZM485.343 713.472H490.431C491.935 713.472 493.055 713.104 493.791 712.368C494.559 711.632 494.943 710.592 494.943 709.248C494.943 707.968 494.559 706.96 493.791 706.224C493.055 705.488 491.935 705.12 490.431 705.12H485.343V713.472ZM547.088 698.304V704.88H538.16V732H529.952V704.88H521.024V698.304H547.088ZM594.791 698.304V732H586.583V718.128H573.815V732H565.607V698.304H573.815V711.504H586.583V698.304H594.791ZM668.584 698.304L656.92 720.864V732H648.712V720.864L637.048 698.304H646.36L652.888 712.416L659.368 698.304H668.584ZM694.5 704.88V711.696H705.492V718.032H694.5V725.424H706.932V732H686.292V698.304H706.932V704.88H694.5ZM747.636 726.048H735.06L733.044 732H724.452L736.644 698.304H746.148L758.34 732H749.652L747.636 726.048ZM745.524 719.712L741.348 707.376L737.22 719.712H745.524ZM793.635 732L786.627 719.28H784.659V732H776.451V698.304H790.227C792.883 698.304 795.139 698.768 796.995 699.696C798.883 700.624 800.291 701.904 801.219 703.536C802.147 705.136 802.611 706.928 802.611 708.912C802.611 711.152 801.971 713.152 800.691 714.912C799.443 716.672 797.587 717.92 795.123 718.656L802.899 732H793.635ZM784.659 713.472H789.747C791.251 713.472 792.371 713.104 793.107 712.368C793.875 711.632 794.259 710.592 794.259 709.248C794.259 707.968 793.875 706.96 793.107 706.224C792.371 705.488 791.251 705.12 789.747 705.12H784.659V713.472ZM834.356 732.336C831.892 732.336 829.684 731.936 827.732 731.136C825.78 730.336 824.212 729.152 823.028 727.584C821.876 726.016 821.268 724.128 821.204 721.92H829.94C830.068 723.168 830.5 724.128 831.236 724.8C831.972 725.44 832.932 725.76 834.116 725.76C835.332 725.76 836.292 725.488 836.996 724.944C837.7 724.368 838.052 723.584 838.052 722.592C838.052 721.76 837.764 721.072 837.188 720.528C836.644 719.984 835.956 719.536 835.124 719.184C834.324 718.832 833.172 718.432 831.668 717.984C829.492 717.312 827.716 716.64 826.34 715.968C824.964 715.296 823.78 714.304 822.788 712.992C821.796 711.68 821.3 709.968 821.3 707.856C821.3 704.72 822.436 702.272 824.708 700.512C826.98 698.72 829.94 697.824 833.588 697.824C837.3 697.824 840.292 698.72 842.564 700.512C844.836 702.272 846.052 704.736 846.212 707.904H837.332C837.268 706.816 836.868 705.968 836.132 705.36C835.396 704.72 834.452 704.4 833.299 704.4C832.308 704.4 831.508 704.672 830.9 705.216C830.292 705.728 829.988 706.48 829.988 707.472C829.988 708.56 830.5 709.408 831.523 710.016C832.548 710.624 834.148 711.28 836.324 711.984C838.5 712.72 840.26 713.424 841.604 714.096C842.98 714.768 844.164 715.744 845.156 717.024C846.148 718.304 846.644 719.952 846.644 721.968C846.644 723.888 846.148 725.632 845.156 727.2C844.196 728.768 842.788 730.016 840.932 730.944C839.076 731.872 836.884 732.336 834.356 732.336Z" fill="white"/>
</g>
<g filter="url(#filter2_d_96_59)">
<path d="M408.184 15.88V22.696H419.176V29.032H408.184V36.424H420.616V43H399.976V9.304H420.616V15.88H408.184ZM464.345 48.76L460.025 42.952C458.745 43.208 457.497 43.336 456.281 43.336C453.113 43.336 450.201 42.6 447.545 41.128C444.921 39.656 442.825 37.608 441.257 34.984C439.721 32.328 438.953 29.352 438.953 26.056C438.953 22.76 439.721 19.8 441.257 17.176C442.825 14.552 444.921 12.504 447.545 11.032C450.201 9.56 453.113 8.824 456.281 8.824C459.449 8.824 462.345 9.56 464.969 11.032C467.625 12.504 469.705 14.552 471.209 17.176C472.745 19.8 473.513 22.76 473.513 26.056C473.513 28.936 472.921 31.576 471.737 33.976C470.585 36.344 468.969 38.312 466.889 39.88L474.281 48.76H464.345ZM447.353 26.056C447.353 29.032 448.153 31.416 449.753 33.208C451.385 34.968 453.561 35.848 456.281 35.848C458.969 35.848 461.113 34.952 462.713 33.16C464.345 31.368 465.161 29 465.161 26.056C465.161 23.08 464.345 20.712 462.713 18.952C461.113 17.16 458.969 16.264 456.281 16.264C453.561 16.264 451.385 17.144 449.753 18.904C448.153 20.664 447.353 23.048 447.353 26.056ZM500.637 9.304V29.464C500.637 31.48 501.133 33.032 502.125 34.12C503.117 35.208 504.573 35.752 506.493 35.752C508.413 35.752 509.885 35.208 510.909 34.12C511.933 33.032 512.445 31.48 512.445 29.464V9.304H520.653V29.416C520.653 32.424 520.013 34.968 518.733 37.048C517.453 39.128 515.725 40.696 513.549 41.752C511.405 42.808 509.005 43.336 506.349 43.336C503.693 43.336 501.309 42.824 499.197 41.8C497.117 40.744 495.469 39.176 494.253 37.096C493.037 34.984 492.429 32.424 492.429 29.416V9.304H500.637ZM561.793 37.048H549.217L547.201 43H538.609L550.801 9.304H560.305L572.497 43H563.809L561.793 37.048ZM559.681 30.712L555.505 18.376L551.377 30.712H559.681ZM614.847 9.304V15.88H605.919V43H597.711V15.88H588.783V9.304H614.847ZM649.303 43.336C646.135 43.336 643.223 42.6 640.567 41.128C637.943 39.656 635.847 37.608 634.279 34.984C632.743 32.328 631.975 29.352 631.975 26.056C631.975 22.76 632.743 19.8 634.279 17.176C635.847 14.552 637.943 12.504 640.567 11.032C643.223 9.56 646.135 8.824 649.303 8.824C652.471 8.824 655.367 9.56 657.991 11.032C660.647 12.504 662.727 14.552 664.231 17.176C665.767 19.8 666.535 22.76 666.535 26.056C666.535 29.352 665.767 32.328 664.231 34.984C662.695 37.608 660.615 39.656 657.991 41.128C655.367 42.6 652.471 43.336 649.303 43.336ZM649.303 35.848C651.991 35.848 654.135 34.952 655.735 33.16C657.367 31.368 658.183 29 658.183 26.056C658.183 23.08 657.367 20.712 655.735 18.952C654.135 17.16 651.991 16.264 649.303 16.264C646.583 16.264 644.407 17.144 642.775 18.904C641.175 20.664 640.375 23.048 640.375 26.056C640.375 29.032 641.175 31.416 642.775 33.208C644.407 34.968 646.583 35.848 649.303 35.848ZM702.685 43L695.677 30.28H693.709V43H685.501V9.304H699.277C701.933 9.304 704.189 9.768 706.045 10.696C707.933 11.624 709.341 12.904 710.269 14.536C711.197 16.136 711.661 17.928 711.661 19.912C711.661 22.152 711.021 24.152 709.741 25.912C708.493 27.672 706.637 28.92 704.173 29.656L711.949 43H702.685ZM693.709 24.472H698.797C700.301 24.472 701.421 24.104 702.157 23.368C702.925 22.632 703.309 21.592 703.309 20.248C703.309 18.968 702.925 17.96 702.157 17.224C701.421 16.488 700.301 16.12 698.797 16.12H693.709V24.472Z" fill="#1A3E40"/>
</g>
<g filter="url(#filter3_d_96_59)">
<path d="M412.168 96.336C409.704 96.336 407.496 95.936 405.544 95.136C403.592 94.336 402.024 93.152 400.84 91.584C399.688 90.016 399.08 88.128 399.016 85.92H407.752C407.88 87.168 408.312 88.128 409.048 88.8C409.784 89.44 410.744 89.76 411.928 89.76C413.144 89.76 414.104 89.488 414.808 88.944C415.512 88.368 415.864 87.584 415.864 86.592C415.864 85.76 415.576 85.072 415 84.528C414.456 83.984 413.768 83.536 412.936 83.184C412.136 82.832 410.984 82.432 409.48 81.984C407.304 81.312 405.528 80.64 404.152 79.968C402.776 79.296 401.592 78.304 400.6 76.992C399.608 75.68 399.112 73.968 399.112 71.856C399.112 68.72 400.248 66.272 402.52 64.512C404.792 62.72 407.752 61.824 411.4 61.824C415.112 61.824 418.104 62.72 420.376 64.512C422.648 66.272 423.864 68.736 424.024 71.904H415.144C415.08 70.816 414.68 69.968 413.944 69.36C413.208 68.72 412.264 68.4 411.112 68.4C410.12 68.4 409.32 68.672 408.712 69.216C408.104 69.728 407.8 70.48 407.8 71.472C407.8 72.56 408.312 73.408 409.336 74.016C410.36 74.624 411.96 75.28 414.136 75.984C416.312 76.72 418.072 77.424 419.416 78.096C420.792 78.768 421.976 79.744 422.968 81.024C423.96 82.304 424.456 83.952 424.456 85.968C424.456 87.888 423.96 89.632 422.968 91.2C422.008 92.768 420.6 94.016 418.744 94.944C416.888 95.872 414.696 96.336 412.168 96.336ZM459.843 96.336C456.675 96.336 453.763 95.6 451.107 94.128C448.483 92.656 446.387 90.608 444.819 87.984C443.283 85.328 442.515 82.352 442.515 79.056C442.515 75.76 443.283 72.8 444.819 70.176C446.387 67.552 448.483 65.504 451.107 64.032C453.763 62.56 456.675 61.824 459.843 61.824C463.011 61.824 465.907 62.56 468.531 64.032C471.187 65.504 473.267 67.552 474.771 70.176C476.307 72.8 477.075 75.76 477.075 79.056C477.075 82.352 476.307 85.328 474.771 87.984C473.235 90.608 471.155 92.656 468.531 94.128C465.907 95.6 463.011 96.336 459.843 96.336ZM459.843 88.848C462.531 88.848 464.675 87.952 466.275 86.16C467.907 84.368 468.723 82 468.723 79.056C468.723 76.08 467.907 73.712 466.275 71.952C464.675 70.16 462.531 69.264 459.843 69.264C457.123 69.264 454.947 70.144 453.315 71.904C451.715 73.664 450.915 76.048 450.915 79.056C450.915 82.032 451.715 84.416 453.315 86.208C454.947 87.968 457.123 88.848 459.843 88.848ZM504.106 62.304V82.464C504.106 84.48 504.602 86.032 505.594 87.12C506.586 88.208 508.042 88.752 509.962 88.752C511.882 88.752 513.354 88.208 514.378 87.12C515.402 86.032 515.914 84.48 515.914 82.464V62.304H524.122V82.416C524.122 85.424 523.482 87.968 522.202 90.048C520.922 92.128 519.194 93.696 517.018 94.752C514.874 95.808 512.474 96.336 509.818 96.336C507.162 96.336 504.778 95.824 502.666 94.8C500.586 93.744 498.938 92.176 497.722 90.096C496.506 87.984 495.898 85.424 495.898 82.416V62.304H504.106ZM568.525 62.304V68.88H559.597V96H551.389V68.88H542.461V62.304H568.525ZM616.229 62.304V96H608.021V82.128H595.253V96H587.045V62.304H595.253V75.504H608.021V62.304H616.229ZM686.806 73.152C686.806 75.104 686.358 76.896 685.462 78.528C684.566 80.128 683.19 81.424 681.334 82.416C679.478 83.408 677.174 83.904 674.422 83.904H669.334V96H661.126V62.304H674.422C677.11 62.304 679.382 62.768 681.238 63.696C683.094 64.624 684.486 65.904 685.414 67.536C686.342 69.168 686.806 71.04 686.806 73.152ZM673.798 77.376C675.366 77.376 676.534 77.008 677.302 76.272C678.07 75.536 678.454 74.496 678.454 73.152C678.454 71.808 678.07 70.768 677.302 70.032C676.534 69.296 675.366 68.928 673.798 68.928H669.334V77.376H673.798ZM721.415 96.336C718.247 96.336 715.335 95.6 712.679 94.128C710.055 92.656 707.959 90.608 706.391 87.984C704.855 85.328 704.087 82.352 704.087 79.056C704.087 75.76 704.855 72.8 706.391 70.176C707.959 67.552 710.055 65.504 712.679 64.032C715.335 62.56 718.247 61.824 721.415 61.824C724.583 61.824 727.479 62.56 730.103 64.032C732.759 65.504 734.839 67.552 736.343 70.176C737.879 72.8 738.647 75.76 738.647 79.056C738.647 82.352 737.879 85.328 736.343 87.984C734.807 90.608 732.727 92.656 730.103 94.128C727.479 95.6 724.583 96.336 721.415 96.336ZM721.415 88.848C724.103 88.848 726.247 87.952 727.847 86.16C729.479 84.368 730.295 82 730.295 79.056C730.295 76.08 729.479 73.712 727.847 71.952C726.247 70.16 724.103 69.264 721.415 69.264C718.695 69.264 716.519 70.144 714.887 71.904C713.287 73.664 712.487 76.048 712.487 79.056C712.487 82.032 713.287 84.416 714.887 86.208C716.519 87.968 718.695 88.848 721.415 88.848ZM765.822 89.664H776.574V96H757.614V62.304H765.822V89.664ZM803.097 68.88V75.696H814.089V82.032H803.097V89.424H815.529V96H794.889V62.304H815.529V68.88H803.097Z" fill="#589297"/>
</g>
<g filter="url(#filter4_d_96_59)">
<path d="M430.12 151H421.912L408.184 130.216V151H399.976V117.304H408.184L421.912 138.184V117.304H430.12V151ZM466.406 151.336C463.238 151.336 460.326 150.6 457.67 149.128C455.046 147.656 452.95 145.608 451.382 142.984C449.846 140.328 449.078 137.352 449.078 134.056C449.078 130.76 449.846 127.8 451.382 125.176C452.95 122.552 455.046 120.504 457.67 119.032C460.326 117.56 463.238 116.824 466.406 116.824C469.574 116.824 472.47 117.56 475.094 119.032C477.75 120.504 479.83 122.552 481.334 125.176C482.87 127.8 483.638 130.76 483.638 134.056C483.638 137.352 482.87 140.328 481.334 142.984C479.798 145.608 477.718 147.656 475.094 149.128C472.47 150.6 469.574 151.336 466.406 151.336ZM466.406 143.848C469.094 143.848 471.238 142.952 472.838 141.16C474.47 139.368 475.286 137 475.286 134.056C475.286 131.08 474.47 128.712 472.838 126.952C471.238 125.16 469.094 124.264 466.406 124.264C463.686 124.264 461.51 125.144 459.878 126.904C458.278 128.664 457.478 131.048 457.478 134.056C457.478 137.032 458.278 139.416 459.878 141.208C461.51 142.968 463.686 143.848 466.406 143.848ZM519.788 151L512.78 138.28H510.812V151H502.604V117.304H516.38C519.036 117.304 521.292 117.768 523.148 118.696C525.036 119.624 526.444 120.904 527.372 122.536C528.3 124.136 528.764 125.928 528.764 127.912C528.764 130.152 528.124 132.152 526.844 133.912C525.596 135.672 523.74 136.92 521.276 137.656L529.052 151H519.788ZM510.812 132.472H515.9C517.404 132.472 518.524 132.104 519.26 131.368C520.028 130.632 520.412 129.592 520.412 128.248C520.412 126.968 520.028 125.96 519.26 125.224C518.524 124.488 517.404 124.12 515.9 124.12H510.812V132.472ZM572.557 117.304V123.88H563.629V151H555.421V123.88H546.493V117.304H572.557ZM620.26 117.304V151H612.052V137.128H599.284V151H591.076V117.304H599.284V130.504H612.052V117.304H620.26ZM690.837 128.152C690.837 130.104 690.389 131.896 689.493 133.528C688.597 135.128 687.221 136.424 685.365 137.416C683.509 138.408 681.205 138.904 678.453 138.904H673.365V151H665.157V117.304H678.453C681.141 117.304 683.413 117.768 685.269 118.696C687.125 119.624 688.517 120.904 689.445 122.536C690.373 124.168 690.837 126.04 690.837 128.152ZM677.829 132.376C679.397 132.376 680.565 132.008 681.333 131.272C682.101 130.536 682.485 129.496 682.485 128.152C682.485 126.808 682.101 125.768 681.333 125.032C680.565 124.296 679.397 123.928 677.829 123.928H673.365V132.376H677.829ZM725.446 151.336C722.278 151.336 719.366 150.6 716.71 149.128C714.086 147.656 711.99 145.608 710.422 142.984C708.886 140.328 708.118 137.352 708.118 134.056C708.118 130.76 708.886 127.8 710.422 125.176C711.99 122.552 714.086 120.504 716.71 119.032C719.366 117.56 722.278 116.824 725.446 116.824C728.614 116.824 731.51 117.56 734.134 119.032C736.79 120.504 738.87 122.552 740.374 125.176C741.91 127.8 742.678 130.76 742.678 134.056C742.678 137.352 741.91 140.328 740.374 142.984C738.838 145.608 736.758 147.656 734.134 149.128C731.51 150.6 728.614 151.336 725.446 151.336ZM725.446 143.848C728.134 143.848 730.278 142.952 731.878 141.16C733.51 139.368 734.326 137 734.326 134.056C734.326 131.08 733.51 128.712 731.878 126.952C730.278 125.16 728.134 124.264 725.446 124.264C722.726 124.264 720.55 125.144 718.918 126.904C717.318 128.664 716.518 131.048 716.518 134.056C716.518 137.032 717.318 139.416 718.918 141.208C720.55 142.968 722.726 143.848 725.446 143.848ZM769.853 144.664H780.605V151H761.645V117.304H769.853V144.664ZM807.128 123.88V130.696H818.12V137.032H807.128V144.424H819.56V151H798.92V117.304H819.56V123.88H807.128Z" fill="#89D6DC"/>
</g>
<g filter="url(#filter5_d_96_59)">
<path d="M37.048 527.168V539.744L43 541.76V550.352L9.304 538.16L9.304 528.656L43 516.464L43 525.152L37.048 527.168ZM30.712 529.28L18.376 533.456L30.712 537.584V529.28ZM9.304 460.194H43V468.402H22.792L43 475.938V482.562L22.744 490.146H43V498.354H9.304V488.658L32.632 479.202L9.304 469.842V460.194ZM43.336 423.955C43.336 427.123 42.6 430.035 41.128 432.691C39.656 435.315 37.608 437.411 34.984 438.979C32.328 440.515 29.352 441.283 26.056 441.283C22.76 441.283 19.8 440.515 17.176 438.979C14.552 437.411 12.504 435.315 11.032 432.691C9.56 430.035 8.824 427.123 8.824 423.955C8.824 420.787 9.56 417.891 11.032 415.267C12.504 412.611 14.552 410.531 17.176 409.027C19.8 407.491 22.76 406.723 26.056 406.723C29.352 406.723 32.328 407.491 34.984 409.027C37.608 410.563 39.656 412.643 41.128 415.267C42.6 417.891 43.336 420.787 43.336 423.955ZM35.848 423.955C35.848 421.267 34.952 419.123 33.16 417.523C31.368 415.891 29 415.075 26.056 415.075C23.08 415.075 20.712 415.891 18.952 417.523C17.16 419.123 16.264 421.267 16.264 423.955C16.264 426.675 17.144 428.851 18.904 430.483C20.664 432.083 23.048 432.883 26.056 432.883C29.032 432.883 31.416 432.083 33.208 430.483C34.968 428.851 35.848 426.675 35.848 423.955ZM9.304 379.693H29.464C31.48 379.693 33.032 379.197 34.12 378.205C35.208 377.213 35.752 375.757 35.752 373.837C35.752 371.917 35.208 370.445 34.12 369.421C33.032 368.397 31.48 367.885 29.464 367.885H9.304L9.304 359.677H29.416C32.424 359.677 34.968 360.317 37.048 361.597C39.128 362.877 40.696 364.605 41.752 366.781C42.808 368.925 43.336 371.325 43.336 373.981C43.336 376.637 42.824 379.021 41.8 381.133C40.744 383.213 39.176 384.861 37.096 386.077C34.984 387.293 32.424 387.901 29.416 387.901H9.304V379.693ZM43 309.369V317.577L22.216 331.305H43V339.513H9.304L9.304 331.305L30.184 317.577H9.304V309.369H43ZM9.304 264.779H15.88V273.707H43V281.915H15.88V290.843H9.304L9.304 264.779ZM43.336 205.752C43.336 208.92 42.6 211.832 41.128 214.488C39.656 217.112 37.608 219.208 34.984 220.776C32.328 222.312 29.352 223.08 26.056 223.08C22.76 223.08 19.8 222.312 17.176 220.776C14.552 219.208 12.504 217.112 11.032 214.488C9.56 211.832 8.824 208.92 8.824 205.752C8.824 202.584 9.56 199.688 11.032 197.064C12.504 194.408 14.552 192.328 17.176 190.824C19.8 189.288 22.76 188.52 26.056 188.52C29.352 188.52 32.328 189.288 34.984 190.824C37.608 192.36 39.656 194.44 41.128 197.064C42.6 199.688 43.336 202.584 43.336 205.752ZM35.848 205.752C35.848 203.064 34.952 200.92 33.16 199.32C31.368 197.688 29 196.872 26.056 196.872C23.08 196.872 20.712 197.688 18.952 199.32C17.16 200.92 16.264 203.064 16.264 205.752C16.264 208.472 17.144 210.648 18.904 212.28C20.664 213.88 23.048 214.68 26.056 214.68C29.032 214.68 31.416 213.88 33.208 212.28C34.968 210.648 35.848 208.472 35.848 205.752ZM9.304 147.618H15.88L15.88 161.346H22.984V151.074H29.368V161.346H43V169.554H9.304L9.304 147.618ZM96.336 494.998C96.336 497.462 95.936 499.67 95.136 501.622C94.336 503.574 93.152 505.142 91.584 506.326C90.016 507.478 88.128 508.086 85.92 508.15V499.414C87.168 499.286 88.128 498.854 88.8 498.118C89.44 497.382 89.76 496.422 89.76 495.238C89.76 494.022 89.488 493.062 88.944 492.358C88.368 491.654 87.584 491.302 86.592 491.302C85.76 491.302 85.072 491.59 84.528 492.166C83.984 492.71 83.536 493.398 83.184 494.23C82.832 495.03 82.432 496.182 81.984 497.686C81.312 499.862 80.64 501.638 79.968 503.014C79.296 504.39 78.304 505.574 76.992 506.566C75.68 507.558 73.968 508.054 71.856 508.054C68.72 508.054 66.272 506.918 64.512 504.646C62.72 502.374 61.824 499.414 61.824 495.766C61.824 492.054 62.72 489.062 64.512 486.79C66.272 484.518 68.736 483.302 71.904 483.142V492.022C70.816 492.086 69.968 492.486 69.36 493.222C68.72 493.958 68.4 494.902 68.4 496.054C68.4 497.046 68.672 497.846 69.216 498.454C69.728 499.062 70.48 499.366 71.472 499.366C72.56 499.366 73.408 498.854 74.016 497.83C74.624 496.806 75.28 495.206 75.984 493.03C76.72 490.854 77.424 489.094 78.096 487.75C78.768 486.374 79.744 485.19 81.024 484.198C82.304 483.206 83.952 482.71 85.968 482.71C87.888 482.71 89.632 483.206 91.2 484.198C92.768 485.158 94.016 486.566 94.944 488.422C95.872 490.278 96.336 492.47 96.336 494.998ZM62.304 455.194H82.464C84.48 455.194 86.032 454.698 87.12 453.706C88.208 452.714 88.752 451.258 88.752 449.338C88.752 447.418 88.208 445.946 87.12 444.922C86.032 443.898 84.48 443.386 82.464 443.386H62.304V435.178H82.416C85.424 435.178 87.968 435.818 90.048 437.098C92.128 438.378 93.696 440.106 94.752 442.282C95.808 444.426 96.336 446.826 96.336 449.482C96.336 452.138 95.824 454.522 94.8 456.634C93.744 458.714 92.176 460.362 90.096 461.578C87.984 462.794 85.424 463.402 82.416 463.402H62.304V455.194ZM96 384.871V393.079L75.216 406.807H96V415.015H62.304V406.807L83.184 393.079H62.304V384.871H96ZM89.664 356.313V345.561H96V364.521H62.304V356.313H89.664ZM62.304 319.038H96V327.246H62.304V319.038ZM72.96 276.322C71.84 276.93 70.992 277.81 70.416 278.962C69.808 280.082 69.504 281.41 69.504 282.946C69.504 285.602 70.384 287.73 72.144 289.33C73.872 290.93 76.192 291.73 79.104 291.73C82.208 291.73 84.64 290.898 86.4 289.234C88.128 287.538 88.992 285.218 88.992 282.274C88.992 280.258 88.48 278.562 87.456 277.186C86.432 275.778 84.96 274.754 83.04 274.114V284.53H76.992V266.674H84.624C86.672 267.282 88.576 268.322 90.336 269.794C92.096 271.234 93.52 273.074 94.608 275.314C95.696 277.554 96.24 280.082 96.24 282.898C96.24 286.226 95.52 289.202 94.08 291.826C92.608 294.418 90.576 296.45 87.984 297.922C85.392 299.362 82.432 300.082 79.104 300.082C75.776 300.082 72.816 299.362 70.224 297.922C67.6 296.45 65.568 294.418 64.128 291.826C62.656 289.234 61.92 286.274 61.92 282.946C61.92 278.914 62.896 275.522 64.848 272.77C66.8 269.986 69.504 268.146 72.96 267.25V276.322ZM62.304 218.543H96V226.751H82.128L82.128 239.519H96V247.727H62.304V239.519H75.504L75.504 226.751H62.304V218.543ZM62.304 173.978H68.88V182.906H96V191.114H68.88V200.042H62.304V173.978Z" fill="white"/>
</g>
<g filter="url(#filter6_d_96_59)">
<path d="M1013.92 604.184C1010.91 602.584 1009.41 600.072 1009.41 596.648C1009.41 594.92 1009.86 593.352 1010.75 591.944C1011.65 590.504 1013.01 589.368 1014.83 588.536C1016.66 587.672 1018.9 587.24 1021.55 587.24C1024.21 587.24 1026.43 587.672 1028.22 588.536C1030.05 589.368 1031.41 590.504 1032.3 591.944C1033.2 593.352 1033.65 594.92 1033.65 596.648C1033.65 598.376 1033.23 599.88 1032.4 601.16C1031.6 602.44 1030.51 603.448 1029.14 604.184C1030.86 605.016 1032.19 606.168 1033.12 607.64C1034.05 609.08 1034.51 610.776 1034.51 612.728C1034.51 615 1033.94 616.968 1032.78 618.632C1031.63 620.264 1030.06 621.512 1028.08 622.376C1026.13 623.24 1023.95 623.672 1021.55 623.672C1019.15 623.672 1016.96 623.24 1014.98 622.376C1013.02 621.512 1011.47 620.264 1010.32 618.632C1009.17 616.968 1008.59 615 1008.59 612.728C1008.59 610.744 1009.06 609.032 1009.98 607.592C1010.91 606.12 1012.22 604.984 1013.92 604.184ZM1025.68 597.896C1025.68 596.584 1025.3 595.576 1024.53 594.872C1023.79 594.136 1022.8 593.768 1021.55 593.768C1020.3 593.768 1019.3 594.136 1018.53 594.872C1017.79 595.608 1017.42 596.632 1017.42 597.944C1017.42 599.192 1017.81 600.184 1018.58 600.92C1019.34 601.624 1020.34 601.976 1021.55 601.976C1022.77 601.976 1023.76 601.608 1024.53 600.872C1025.3 600.136 1025.68 599.144 1025.68 597.896ZM1021.55 607.736C1020.05 607.736 1018.83 608.152 1017.9 608.984C1016.98 609.784 1016.51 610.904 1016.51 612.344C1016.51 613.688 1016.96 614.792 1017.86 615.656C1018.78 616.52 1020.02 616.952 1021.55 616.952C1023.09 616.952 1024.29 616.52 1025.15 615.656C1026.05 614.792 1026.5 613.688 1026.5 612.344C1026.5 610.936 1026.03 609.816 1025.1 608.984C1024.21 608.152 1023.02 607.736 1021.55 607.736ZM1053.88 616.76V610.136L1069.05 588.44H1078.21V609.656H1082.15V616.76H1078.21V623H1070.01V616.76H1053.88ZM1070.58 597.464L1062.52 609.656H1070.58V597.464Z" fill="white"/>
</g>
<g filter="url(#filter7_d_96_59)">
<path d="M163.16 605C163.16 599.496 164.216 595.16 166.328 591.992C168.472 588.824 171.912 587.24 176.648 587.24C181.384 587.24 184.808 588.824 186.92 591.992C189.064 595.16 190.136 599.496 190.136 605C190.136 610.568 189.064 614.936 186.92 618.104C184.808 621.272 181.384 622.856 176.648 622.856C171.912 622.856 168.472 621.272 166.328 618.104C164.216 614.936 163.16 610.568 163.16 605ZM182.072 605C182.072 601.768 181.72 599.288 181.016 597.56C180.312 595.8 178.856 594.92 176.648 594.92C174.44 594.92 172.984 595.8 172.28 597.56C171.576 599.288 171.224 601.768 171.224 605C171.224 607.176 171.352 608.984 171.608 610.424C171.864 611.832 172.376 612.984 173.144 613.88C173.944 614.744 175.112 615.176 176.648 615.176C178.184 615.176 179.336 614.744 180.104 613.88C180.904 612.984 181.432 611.832 181.688 610.424C181.944 608.984 182.072 607.176 182.072 605Z" fill="white"/>
</g>
<g filter="url(#filter8_d_96_59)">
<path d="M814.488 597.416C814.232 596.232 813.784 595.352 813.144 594.776C812.504 594.168 811.592 593.864 810.408 593.864C808.584 593.864 807.272 594.664 806.472 596.264C805.672 597.832 805.256 600.328 805.224 603.752C805.928 602.632 806.936 601.752 808.248 601.112C809.592 600.472 811.064 600.152 812.664 600.152C815.8 600.152 818.312 601.144 820.2 603.128C822.12 605.112 823.08 607.88 823.08 611.432C823.08 613.768 822.6 615.816 821.64 617.576C820.712 619.336 819.336 620.712 817.512 621.704C815.72 622.696 813.592 623.192 811.128 623.192C806.2 623.192 802.776 621.656 800.856 618.584C798.936 615.48 797.976 611.032 797.976 605.24C797.976 599.16 798.984 594.648 801 591.704C803.048 588.728 806.312 587.24 810.792 587.24C813.192 587.24 815.208 587.72 816.84 588.68C818.504 589.608 819.752 590.84 820.584 592.376C821.448 593.912 821.96 595.592 822.12 597.416H814.488ZM810.696 606.632C809.32 606.632 808.168 607.048 807.24 607.88C806.344 608.68 805.896 609.832 805.896 611.336C805.896 612.872 806.312 614.072 807.144 614.936C808.008 615.8 809.224 616.232 810.792 616.232C812.2 616.232 813.304 615.816 814.104 614.984C814.936 614.12 815.352 612.952 815.352 611.48C815.352 609.976 814.952 608.792 814.152 607.928C813.352 607.064 812.2 606.632 810.696 606.632ZM842.411 597.848C842.539 594.424 843.659 591.784 845.771 589.928C847.883 588.072 850.747 587.144 854.363 587.144C856.763 587.144 858.811 587.56 860.507 588.392C862.235 589.224 863.531 590.36 864.395 591.8C865.291 593.24 865.739 594.856 865.739 596.648C865.739 598.76 865.211 600.488 864.155 601.832C863.099 603.144 861.867 604.04 860.459 604.52V604.712C862.283 605.32 863.723 606.328 864.779 607.736C865.835 609.144 866.363 610.952 866.363 613.16C866.363 615.144 865.899 616.904 864.971 618.44C864.075 619.944 862.747 621.128 860.987 621.992C859.259 622.856 857.195 623.288 854.795 623.288C850.955 623.288 847.883 622.344 845.579 620.456C843.307 618.568 842.107 615.72 841.979 611.912H849.947C849.979 613.32 850.379 614.44 851.147 615.272C851.915 616.072 853.035 616.472 854.507 616.472C855.755 616.472 856.715 616.12 857.387 615.416C858.091 614.68 858.443 613.72 858.443 612.536C858.443 611 857.947 609.896 856.955 609.224C855.995 608.52 854.443 608.168 852.299 608.168H850.763V601.496H852.299C853.931 601.496 855.243 601.224 856.235 600.68C857.259 600.104 857.771 599.096 857.771 597.656C857.771 596.504 857.451 595.608 856.811 594.968C856.171 594.328 855.291 594.008 854.171 594.008C852.955 594.008 852.043 594.376 851.435 595.112C850.859 595.848 850.523 596.76 850.427 597.848H842.411Z" fill="white"/>
</g>
<g filter="url(#filter9_d_96_59)">
<path d="M581.352 616.76V610.136L596.52 588.44H605.688V609.656H609.624V616.76H605.688V623H597.48V616.76H581.352ZM598.056 597.464L589.992 609.656H598.056V597.464ZM627.756 616.424C628.844 615.56 629.34 615.16 629.244 615.224C632.38 612.632 634.844 610.504 636.636 608.84C638.46 607.176 639.996 605.432 641.244 603.608C642.492 601.784 643.116 600.008 643.116 598.28C643.116 596.968 642.812 595.944 642.204 595.208C641.596 594.472 640.684 594.104 639.468 594.104C638.252 594.104 637.292 594.568 636.588 595.496C635.916 596.392 635.58 597.672 635.58 599.336H627.66C627.724 596.616 628.3 594.344 629.388 592.52C630.508 590.696 631.964 589.352 633.756 588.488C635.58 587.624 637.596 587.192 639.804 587.192C643.612 587.192 646.476 588.168 648.396 590.12C650.348 592.072 651.324 594.616 651.324 597.752C651.324 601.176 650.156 604.36 647.82 607.304C645.484 610.216 642.508 613.064 638.892 615.848H651.852V622.52H627.756V616.424Z" fill="white"/>
</g>
<path d="M611 517.001C611 517.001 644 312 826 312C1008 312 1037 525.001 1037 525.001" stroke="#89D6DC" stroke-width="13" stroke-linecap="round"/>
<path d="M183 517.001C183 517.001 216 312 398 312C580 312 609 525.001 609 525.001" stroke="#589297" stroke-width="13" stroke-linecap="round"/>
<path d="M178 243.676C178 243.676 246.134 203.169 304.001 391.072C361.868 578.976 442.134 578.976 500.001 391.072C557.868 203.169 670.133 203.169 728 391.072C785.867 578.976 858.133 578.976 916 391.072C973.867 203.169 1041 243.676 1041 243.676" stroke="#1A3E40" stroke-width="13" stroke-linecap="round"/>
</g>
<defs>
<filter id="filter0_d_96_59" x="360.776" y="587.192" width="62.6382" height="43.8076" filterUnits="userSpaceOnUse" color-interpolation-filters="sRGB">
<feFlood flood-opacity="0" result="BackgroundImageFix"/>
<feColorMatrix in="SourceAlpha" type="matrix" values="0 0 0 0 0 0 0 0 0 0 0 0 0 0 0 0 0 0 127 0" result="hardAlpha"/>
<feOffset dy="4"/>
<feGaussianBlur stdDeviation="2"/>
<feComposite in2="hardAlpha" operator="out"/>
<feColorMatrix type="matrix" values="0 0 0 0 0 0 0 0 0 0 0 0 0 0 0 0 0 0 0.25 0"/>
<feBlend mode="normal" in2="BackgroundImageFix" result="effect1_dropShadow_96_59"/>
<feBlend mode="normal" in="SourceGraphic" in2="effect1_dropShadow_96_59" result="shape"/>
</filter>
<filter id="filter1_d_96_59" x="382.976" y="697.824" width="467.667" height="42.5117" filterUnits="userSpaceOnUse" color-interpolation-filters="sRGB">
<feFlood flood-opacity="0" result="BackgroundImageFix"/>
<feColorMatrix in="SourceAlpha" type="matrix" values="0 0 0 0 0 0 0 0 0 0 0 0 0 0 0 0 0 0 127 0" result="hardAlpha"/>
<feOffset dy="4"/>
<feGaussianBlur stdDeviation="2"/>
<feComposite in2="hardAlpha" operator="out"/>
<feColorMatrix type="matrix" values="0 0 0 0 0 0 0 0 0 0 0 0 0 0 0 0 0 0 0.25 0"/>
<feBlend mode="normal" in2="BackgroundImageFix" result="effect1_dropShadow_96_59"/>
<feBlend mode="normal" in="SourceGraphic" in2="effect1_dropShadow_96_59" result="shape"/>
</filter>
<filter id="filter2_d_96_59" x="395.976" y="8.82422" width="319.973" height="47.9355" filterUnits="userSpaceOnUse" color-interpolation-filters="sRGB">
<feFlood flood-opacity="0" result="BackgroundImageFix"/>
<feColorMatrix in="SourceAlpha" type="matrix" values="0 0 0 0 0 0 0 0 0 0 0 0 0 0 0 0 0 0 127 0" result="hardAlpha"/>
<feOffset dy="4"/>
<feGaussianBlur stdDeviation="2"/>
<feComposite in2="hardAlpha" operator="out"/>
<feColorMatrix type="matrix" values="0 0 0 0 0 0 0 0 0 0 0 0 0 0 0 0 0 0 0.25 0"/>
<feBlend mode="normal" in2="BackgroundImageFix" result="effect1_dropShadow_96_59"/>
<feBlend mode="normal" in="SourceGraphic" in2="effect1_dropShadow_96_59" result="shape"/>
</filter>
<filter id="filter3_d_96_59" x="395.016" y="61.8242" width="424.512" height="42.5117" filterUnits="userSpaceOnUse" color-interpolation-filters="sRGB">
<feFlood flood-opacity="0" result="BackgroundImageFix"/>
<feColorMatrix in="SourceAlpha" type="matrix" values="0 0 0 0 0 0 0 0 0 0 0 0 0 0 0 0 0 0 127 0" result="hardAlpha"/>
<feOffset dy="4"/>
<feGaussianBlur stdDeviation="2"/>
<feComposite in2="hardAlpha" operator="out"/>
<feColorMatrix type="matrix" values="0 0 0 0 0 0 0 0 0 0 0 0 0 0 0 0 0 0 0.25 0"/>
<feBlend mode="normal" in2="BackgroundImageFix" result="effect1_dropShadow_96_59"/>
<feBlend mode="normal" in="SourceGraphic" in2="effect1_dropShadow_96_59" result="shape"/>
</filter>
<filter id="filter4_d_96_59" x="395.976" y="116.824" width="427.583" height="42.5117" filterUnits="userSpaceOnUse" color-interpolation-filters="sRGB">
<feFlood flood-opacity="0" result="BackgroundImageFix"/>
<feColorMatrix in="SourceAlpha" type="matrix" values="0 0 0 0 0 0 0 0 0 0 0 0 0 0 0 0 0 0 127 0" result="hardAlpha"/>
<feOffset dy="4"/>
<feGaussianBlur stdDeviation="2"/>
<feComposite in2="hardAlpha" operator="out"/>
<feColorMatrix type="matrix" values="0 0 0 0 0 0 0 0 0 0 0 0 0 0 0 0 0 0 0.25 0"/>
<feBlend mode="normal" in2="BackgroundImageFix" result="effect1_dropShadow_96_59"/>
<feBlend mode="normal" in="SourceGraphic" in2="effect1_dropShadow_96_59" result="shape"/>
</filter>
<filter id="filter5_d_96_59" x="4.82422" y="147.617" width="95.5117" height="410.735" filterUnits="userSpaceOnUse" color-interpolation-filters="sRGB">
<feFlood flood-opacity="0" result="BackgroundImageFix"/>
<feColorMatrix in="SourceAlpha" type="matrix" values="0 0 0 0 0 0 0 0 0 0 0 0 0 0 0 0 0 0 127 0" result="hardAlpha"/>
<feOffset dy="4"/>
<feGaussianBlur stdDeviation="2"/>
<feComposite in2="hardAlpha" operator="out"/>
<feColorMatrix type="matrix" values="0 0 0 0 0 0 0 0 0 0 0 0 0 0 0 0 0 0 0.25 0"/>
<feBlend mode="normal" in2="BackgroundImageFix" result="effect1_dropShadow_96_59"/>
<feBlend mode="normal" in="SourceGraphic" in2="effect1_dropShadow_96_59" result="shape"/>
</filter>
<filter id="filter6_d_96_59" x="1004.59" y="587.24" width="81.5571" height="44.4316" filterUnits="userSpaceOnUse" color-interpolation-filters="sRGB">
<feFlood flood-opacity="0" result="BackgroundImageFix"/>
<feColorMatrix in="SourceAlpha" type="matrix" values="0 0 0 0 0 0 0 0 0 0 0 0 0 0 0 0 0 0 127 0" result="hardAlpha"/>
<feOffset dy="4"/>
<feGaussianBlur stdDeviation="2"/>
<feComposite in2="hardAlpha" operator="out"/>
<feColorMatrix type="matrix" values="0 0 0 0 0 0 0 0 0 0 0 0 0 0 0 0 0 0 0.25 0"/>
<feBlend mode="normal" in2="BackgroundImageFix" result="effect1_dropShadow_96_59"/>
<feBlend mode="normal" in="SourceGraphic" in2="effect1_dropShadow_96_59" result="shape"/>
</filter>
<filter id="filter7_d_96_59" x="159.16" y="587.24" width="34.9761" height="43.6162" filterUnits="userSpaceOnUse" color-interpolation-filters="sRGB">
<feFlood flood-opacity="0" result="BackgroundImageFix"/>
<feColorMatrix in="SourceAlpha" type="matrix" values="0 0 0 0 0 0 0 0 0 0 0 0 0 0 0 0 0 0 127 0" result="hardAlpha"/>
<feOffset dy="4"/>
<feGaussianBlur stdDeviation="2"/>
<feComposite in2="hardAlpha" operator="out"/>
<feColorMatrix type="matrix" values="0 0 0 0 0 0 0 0 0 0 0 0 0 0 0 0 0 0 0.25 0"/>
<feBlend mode="normal" in2="BackgroundImageFix" result="effect1_dropShadow_96_59"/>
<feBlend mode="normal" in="SourceGraphic" in2="effect1_dropShadow_96_59" result="shape"/>
</filter>
<filter id="filter8_d_96_59" x="793.976" y="587.144" width="76.3862" height="44.1445" filterUnits="userSpaceOnUse" color-interpolation-filters="sRGB">
<feFlood flood-opacity="0" result="BackgroundImageFix"/>
<feColorMatrix in="SourceAlpha" type="matrix" values="0 0 0 0 0 0 0 0 0 0 0 0 0 0 0 0 0 0 127 0" result="hardAlpha"/>
<feOffset dy="4"/>
<feGaussianBlur stdDeviation="2"/>
<feComposite in2="hardAlpha" operator="out"/>
<feColorMatrix type="matrix" values="0 0 0 0 0 0 0 0 0 0 0 0 0 0 0 0 0 0 0.25 0"/>
<feBlend mode="normal" in2="BackgroundImageFix" result="effect1_dropShadow_96_59"/>
<feBlend mode="normal" in="SourceGraphic" in2="effect1_dropShadow_96_59" result="shape"/>
</filter>
<filter id="filter9_d_96_59" x="577.352" y="587.192" width="78.5005" height="43.8076" filterUnits="userSpaceOnUse" color-interpolation-filters="sRGB">
<feFlood flood-opacity="0" result="BackgroundImageFix"/>
<feColorMatrix in="SourceAlpha" type="matrix" values="0 0 0 0 0 0 0 0 0 0 0 0 0 0 0 0 0 0 127 0" result="hardAlpha"/>
<feOffset dy="4"/>
<feGaussianBlur stdDeviation="2"/>
<feComposite in2="hardAlpha" operator="out"/>
<feColorMatrix type="matrix" values="0 0 0 0 0 0 0 0 0 0 0 0 0 0 0 0 0 0 0.25 0"/>
<feBlend mode="normal" in2="BackgroundImageFix" result="effect1_dropShadow_96_59"/>
<feBlend mode="normal" in="SourceGraphic" in2="effect1_dropShadow_96_59" result="shape"/>
</filter>
<clipPath id="clip0_96_59">
<rect width="1087" height="742" fill="white"/>
</clipPath>
</defs>
</svg>
