<svg width="1169" height="714" viewBox="0 0 1169 714" fill="none" xmlns="http://www.w3.org/2000/svg">
<g filter="url(#filter0_d_68_162)">
<circle cx="354" cy="350" r="350" fill="#1A3E40"/>
</g>
<g filter="url(#filter1_d_68_162)">
<circle cx="354" cy="350" r="300" fill="#589297"/>
</g>
<g filter="url(#filter2_d_68_162)">
<circle cx="354" cy="350" r="200" fill="#89D6DC"/>
</g>
<g filter="url(#filter3_d_68_162)">
<circle cx="354" cy="350" r="50" fill="#B8E6EA"/>
</g>
<g filter="url(#filter4_d_68_162)">
<path d="M653.044 464.844C652.406 465.372 652.316 466.317 652.844 466.956L661.445 477.361C661.973 478 662.918 478.089 663.557 477.562C664.195 477.034 664.285 476.088 663.757 475.45L656.112 466.2L665.361 458.555C666 458.027 666.089 457.082 665.562 456.443C665.034 455.805 664.088 455.715 663.45 456.243L653.044 464.844ZM812.142 479.507L654.142 464.507L653.858 467.493L811.858 482.493L812.142 479.507Z" fill="#589297"/>
</g>
<g filter="url(#filter5_d_68_162)">
<path d="M624.49 589.589C623.711 589.871 623.308 590.731 623.589 591.51L628.181 604.205C628.463 604.984 629.323 605.387 630.102 605.106C630.881 604.824 631.284 603.964 631.002 603.185L626.921 591.9L638.205 587.819C638.984 587.537 639.387 586.677 639.106 585.898C638.824 585.119 637.964 584.716 637.185 584.998L624.49 589.589ZM721.637 634.642L625.637 589.642L624.363 592.358L720.363 637.358L721.637 634.642Z" fill="#1A3E40"/>
</g>
<g filter="url(#filter6_d_68_162)">
<path d="M413.597 313.469C413.304 314.243 413.694 315.109 414.469 315.403L427.093 320.186C427.868 320.479 428.734 320.089 429.027 319.314C429.321 318.54 428.93 317.674 428.156 317.38L416.934 313.129L421.186 301.907C421.479 301.132 421.089 300.266 420.314 299.973C419.54 299.679 418.674 300.07 418.38 300.844L413.597 313.469ZM727.384 171.632L414.384 312.632L415.616 315.368L728.616 174.368L727.384 171.632Z" fill="#B8E6EA"/>
</g>
<g filter="url(#filter7_d_68_162)">
<path d="M569.869 343.015C569.325 343.64 569.39 344.587 570.015 345.131L580.195 353.998C580.82 354.542 581.767 354.476 582.311 353.852C582.855 353.227 582.79 352.28 582.165 351.735L573.116 343.854L580.998 334.805C581.542 334.18 581.476 333.233 580.852 332.689C580.227 332.145 579.28 332.21 578.735 332.835L569.869 343.015ZM773.897 328.504L570.897 342.504L571.103 345.496L774.103 331.496L773.897 328.504Z" fill="#89D6DC"/>
</g>
<path d="M748.496 172.92C748.496 170.147 749.096 167.68 750.296 165.52C751.496 163.333 753.162 161.64 755.296 160.44C757.456 159.213 759.896 158.6 762.616 158.6C765.949 158.6 768.802 159.48 771.176 161.24C773.549 163 775.136 165.4 775.936 168.44H768.416C767.856 167.267 767.056 166.373 766.016 165.76C765.002 165.147 763.842 164.84 762.536 164.84C760.429 164.84 758.722 165.573 757.416 167.04C756.109 168.507 755.456 170.467 755.456 172.92C755.456 175.373 756.109 177.333 757.416 178.8C758.722 180.267 760.429 181 762.536 181C763.842 181 765.002 180.693 766.016 180.08C767.056 179.467 767.856 178.573 768.416 177.4H775.936C775.136 180.44 773.549 182.84 771.176 184.6C768.802 186.333 765.949 187.2 762.616 187.2C759.896 187.2 757.456 186.6 755.296 185.4C753.162 184.173 751.496 182.48 750.296 180.32C749.096 178.16 748.496 175.693 748.496 172.92ZM805.405 187.28C802.765 187.28 800.338 186.667 798.125 185.44C795.938 184.213 794.191 182.507 792.885 180.32C791.605 178.107 790.965 175.627 790.965 172.88C790.965 170.133 791.605 167.667 792.885 165.48C794.191 163.293 795.938 161.587 798.125 160.36C800.338 159.133 802.765 158.52 805.405 158.52C808.045 158.52 810.458 159.133 812.645 160.36C814.858 161.587 816.591 163.293 817.845 165.48C819.125 167.667 819.765 170.133 819.765 172.88C819.765 175.627 819.125 178.107 817.845 180.32C816.565 182.507 814.831 184.213 812.645 185.44C810.458 186.667 808.045 187.28 805.405 187.28ZM805.405 181.04C807.645 181.04 809.431 180.293 810.765 178.8C812.125 177.307 812.805 175.333 812.805 172.88C812.805 170.4 812.125 168.427 810.765 166.96C809.431 165.467 807.645 164.72 805.405 164.72C803.138 164.72 801.325 165.453 799.965 166.92C798.631 168.387 797.965 170.373 797.965 172.88C797.965 175.36 798.631 177.347 799.965 178.84C801.325 180.307 803.138 181.04 805.405 181.04ZM849.89 187L844.05 176.4H842.41V187H835.57V158.92H847.05C849.263 158.92 851.143 159.307 852.69 160.08C854.263 160.853 855.437 161.92 856.21 163.28C856.983 164.613 857.37 166.107 857.37 167.76C857.37 169.627 856.837 171.293 855.77 172.76C854.73 174.227 853.183 175.267 851.13 175.88L857.61 187H849.89ZM842.41 171.56H846.65C847.903 171.56 848.837 171.253 849.45 170.64C850.09 170.027 850.41 169.16 850.41 168.04C850.41 166.973 850.09 166.133 849.45 165.52C848.837 164.907 847.903 164.6 846.65 164.6H842.41V171.56ZM880.504 164.4V170.08H889.664V175.36H880.504V181.52H890.864V187H873.664V158.92H890.864V164.4H880.504Z" fill="#B8E6EA"/>
<path d="M764.094 599.92L754.134 628H745.574L735.614 599.92H742.894L749.854 621.12L756.854 599.92H764.094ZM785.793 599.92V628H778.953V599.92H785.793ZM812.91 628.28C810.856 628.28 809.016 627.947 807.39 627.28C805.763 626.613 804.456 625.627 803.47 624.32C802.51 623.013 802.003 621.44 801.95 619.6H809.23C809.336 620.64 809.696 621.44 810.31 622C810.923 622.533 811.723 622.8 812.71 622.8C813.723 622.8 814.523 622.573 815.11 622.12C815.696 621.64 815.99 620.987 815.99 620.16C815.99 619.467 815.75 618.893 815.27 618.44C814.816 617.987 814.243 617.613 813.55 617.32C812.883 617.027 811.923 616.693 810.67 616.32C808.856 615.76 807.376 615.2 806.23 614.64C805.083 614.08 804.096 613.253 803.27 612.16C802.443 611.067 802.03 609.64 802.03 607.88C802.03 605.267 802.976 603.227 804.87 601.76C806.763 600.267 809.23 599.52 812.27 599.52C815.363 599.52 817.856 600.267 819.75 601.76C821.643 603.227 822.656 605.28 822.79 607.92H815.39C815.336 607.013 815.003 606.307 814.39 605.8C813.776 605.267 812.99 605 812.03 605C811.203 605 810.536 605.227 810.03 605.68C809.523 606.107 809.27 606.733 809.27 607.56C809.27 608.467 809.696 609.173 810.55 609.68C811.403 610.187 812.736 610.733 814.55 611.32C816.363 611.933 817.83 612.52 818.95 613.08C820.096 613.64 821.083 614.453 821.91 615.52C822.736 616.587 823.15 617.96 823.15 619.64C823.15 621.24 822.736 622.693 821.91 624C821.11 625.307 819.936 626.347 818.39 627.12C816.843 627.893 815.016 628.28 812.91 628.28ZM846.199 599.92V628H839.359V599.92H846.199ZM880.156 613.6C881.782 613.947 883.089 614.76 884.076 616.04C885.062 617.293 885.556 618.733 885.556 620.36C885.556 622.707 884.729 624.573 883.076 625.96C881.449 627.32 879.169 628 876.236 628H863.156V599.92H875.796C878.649 599.92 880.876 600.573 882.476 601.88C884.102 603.187 884.916 604.96 884.916 607.2C884.916 608.853 884.476 610.227 883.596 611.32C882.742 612.413 881.596 613.173 880.156 613.6ZM869.996 611.28H874.476C875.596 611.28 876.449 611.04 877.036 610.56C877.649 610.053 877.956 609.32 877.956 608.36C877.956 607.4 877.649 606.667 877.036 606.16C876.449 605.653 875.596 605.4 874.476 605.4H869.996V611.28ZM875.036 622.48C876.182 622.48 877.062 622.227 877.676 621.72C878.316 621.187 878.636 620.427 878.636 619.44C878.636 618.453 878.302 617.68 877.636 617.12C876.996 616.56 876.102 616.28 874.956 616.28H869.996V622.48H875.036ZM908.363 622.72H917.323V628H901.523V599.92H908.363V622.72ZM939.425 605.4V611.08H948.585V616.36H939.425V622.52H949.785V628H932.585V599.92H949.785V605.4H939.425ZM739.394 658.92C739.394 656.147 739.994 653.68 741.194 651.52C742.394 649.333 744.061 647.64 746.194 646.44C748.354 645.213 750.794 644.6 753.514 644.6C756.848 644.6 759.701 645.48 762.074 647.24C764.448 649 766.034 651.4 766.834 654.44H759.314C758.754 653.267 757.954 652.373 756.914 651.76C755.901 651.147 754.741 650.84 753.434 650.84C751.328 650.84 749.621 651.573 748.314 653.04C747.008 654.507 746.354 656.467 746.354 658.92C746.354 661.373 747.008 663.333 748.314 664.8C749.621 666.267 751.328 667 753.434 667C754.741 667 755.901 666.693 756.914 666.08C757.954 665.467 758.754 664.573 759.314 663.4H766.834C766.034 666.44 764.448 668.84 762.074 670.6C759.701 672.333 756.848 673.2 753.514 673.2C750.794 673.2 748.354 672.6 746.194 671.4C744.061 670.173 742.394 668.48 741.194 666.32C739.994 664.16 739.394 661.693 739.394 658.92ZM789.863 667.72H798.823V673H783.023V644.92H789.863V667.72ZM827.365 673.28C824.725 673.28 822.299 672.667 820.085 671.44C817.899 670.213 816.152 668.507 814.845 666.32C813.565 664.107 812.925 661.627 812.925 658.88C812.925 656.133 813.565 653.667 814.845 651.48C816.152 649.293 817.899 647.587 820.085 646.36C822.299 645.133 824.725 644.52 827.365 644.52C830.005 644.52 832.419 645.133 834.605 646.36C836.819 647.587 838.552 649.293 839.805 651.48C841.085 653.667 841.725 656.133 841.725 658.88C841.725 661.627 841.085 664.107 839.805 666.32C838.525 668.507 836.792 670.213 834.605 671.44C832.419 672.667 830.005 673.28 827.365 673.28ZM827.365 667.04C829.605 667.04 831.392 666.293 832.725 664.8C834.085 663.307 834.765 661.333 834.765 658.88C834.765 656.4 834.085 654.427 832.725 652.96C831.392 651.467 829.605 650.72 827.365 650.72C825.099 650.72 823.285 651.453 821.925 652.92C820.592 654.387 819.925 656.373 819.925 658.88C819.925 661.36 820.592 663.347 821.925 664.84C823.285 666.307 825.099 667.04 827.365 667.04ZM864.251 644.92V661.72C864.251 663.4 864.664 664.693 865.491 665.6C866.317 666.507 867.531 666.96 869.131 666.96C870.731 666.96 871.957 666.507 872.811 665.6C873.664 664.693 874.091 663.4 874.091 661.72V644.92H880.931V661.68C880.931 664.187 880.397 666.307 879.331 668.04C878.264 669.773 876.824 671.08 875.011 671.96C873.224 672.84 871.224 673.28 869.011 673.28C866.797 673.28 864.811 672.853 863.051 672C861.317 671.12 859.944 669.813 858.931 668.08C857.917 666.32 857.411 664.187 857.411 661.68V644.92H864.251ZM908.254 644.92C911.214 644.92 913.801 645.507 916.014 646.68C918.227 647.853 919.934 649.507 921.134 651.64C922.361 653.747 922.974 656.187 922.974 658.96C922.974 661.707 922.361 664.147 921.134 666.28C919.934 668.413 918.214 670.067 915.974 671.24C913.761 672.413 911.187 673 908.254 673H897.734V644.92H908.254ZM907.814 667.08C910.401 667.08 912.414 666.373 913.854 664.96C915.294 663.547 916.014 661.547 916.014 658.96C916.014 656.373 915.294 654.36 913.854 652.92C912.414 651.48 910.401 650.76 907.814 650.76H904.574V667.08H907.814ZM948.956 673.28C946.903 673.28 945.063 672.947 943.436 672.28C941.81 671.613 940.503 670.627 939.516 669.32C938.556 668.013 938.05 666.44 937.996 664.6H945.276C945.383 665.64 945.743 666.44 946.356 667C946.97 667.533 947.77 667.8 948.756 667.8C949.77 667.8 950.57 667.573 951.156 667.12C951.743 666.64 952.036 665.987 952.036 665.16C952.036 664.467 951.796 663.893 951.316 663.44C950.863 662.987 950.29 662.613 949.596 662.32C948.93 662.027 947.97 661.693 946.716 661.32C944.903 660.76 943.423 660.2 942.276 659.64C941.13 659.08 940.143 658.253 939.316 657.16C938.49 656.067 938.076 654.64 938.076 652.88C938.076 650.267 939.023 648.227 940.916 646.76C942.81 645.267 945.276 644.52 948.316 644.52C951.41 644.52 953.903 645.267 955.796 646.76C957.69 648.227 958.703 650.28 958.836 652.92H951.436C951.383 652.013 951.05 651.307 950.436 650.8C949.823 650.267 949.036 650 948.076 650C947.25 650 946.583 650.227 946.076 650.68C945.57 651.107 945.316 651.733 945.316 652.56C945.316 653.467 945.743 654.173 946.596 654.68C947.45 655.187 948.783 655.733 950.596 656.32C952.41 656.933 953.876 657.52 954.996 658.08C956.143 658.64 957.13 659.453 957.956 660.52C958.783 661.587 959.196 662.96 959.196 664.64C959.196 666.24 958.783 667.693 957.956 669C957.156 670.307 955.983 671.347 954.436 672.12C952.89 672.893 951.063 673.28 948.956 673.28Z" fill="#1A3E40"/>
<path d="M899.413 270.92L892.093 299H883.813L879.333 280.52L874.693 299H866.413L859.293 270.92H866.613L870.653 291.36L875.653 270.92H883.173L887.973 291.36L892.053 270.92H899.413ZM932.323 294.04H921.843L920.163 299H913.003L923.163 270.92H931.083L941.243 299H934.003L932.323 294.04ZM930.563 288.76L927.083 278.48L923.643 288.76H930.563ZM976.535 270.92V276.4H969.095V299H962.255V276.4H954.815V270.92H976.535ZM998.808 276.4V282.08H1007.97V287.36H998.808V293.52H1009.17V299H991.968V270.92H1009.17V276.4H998.808ZM1039.93 299L1034.09 288.4H1032.45V299H1025.61V270.92H1037.09C1039.3 270.92 1041.18 271.307 1042.73 272.08C1044.3 272.853 1045.48 273.92 1046.25 275.28C1047.02 276.613 1047.41 278.107 1047.41 279.76C1047.41 281.627 1046.88 283.293 1045.81 284.76C1044.77 286.227 1043.22 287.267 1041.17 287.88L1047.65 299H1039.93ZM1032.45 283.56H1036.69C1037.94 283.56 1038.88 283.253 1039.49 282.64C1040.13 282.027 1040.45 281.16 1040.45 280.04C1040.45 278.973 1040.13 278.133 1039.49 277.52C1038.88 276.907 1037.94 276.6 1036.69 276.6H1032.45V283.56ZM1071.06 292.68L1066.62 304.16H1062.26L1064.58 292.68H1071.06ZM823.612 315.92V344H816.772V327.16L810.492 344H804.972L798.652 327.12V344H791.812V315.92H799.892L807.772 335.36L815.572 315.92H823.612ZM847.371 321.4V327.08H856.531V332.36H847.371V338.52H857.731V344H840.531V315.92H857.731V321.4H847.371ZM894.371 315.92V321.4H886.931V344H880.091V321.4H872.651V315.92H894.371ZM934.124 315.92V344H927.284V332.44H916.644V344H909.804V315.92H916.644V326.92H927.284V315.92H934.124ZM968.542 339.04H958.062L956.382 344H949.222L959.382 315.92H967.302L977.462 344H970.222L968.542 339.04ZM966.782 333.76L963.302 323.48L959.862 333.76H966.782ZM1017.67 344H1010.83L999.394 326.68V344H992.554V315.92H999.394L1010.83 333.32V315.92H1017.67V344ZM1041.47 321.4V327.08H1050.63V332.36H1041.47V338.52H1051.83V344H1034.63V315.92H1051.83V321.4H1041.47ZM1075.63 337.68L1071.19 349.16H1066.83L1069.15 337.68H1075.63ZM1133.71 344L1131.11 341.48C1128.53 343.453 1125.43 344.44 1121.83 344.44C1119.67 344.44 1117.79 344.093 1116.19 343.4C1114.59 342.68 1113.35 341.68 1112.47 340.4C1111.62 339.093 1111.19 337.573 1111.19 335.84C1111.19 334.08 1111.66 332.493 1112.59 331.08C1113.55 329.64 1114.98 328.467 1116.87 327.56C1116.18 326.707 1115.69 325.893 1115.39 325.12C1115.1 324.32 1114.95 323.453 1114.95 322.52C1114.95 321.187 1115.3 319.973 1115.99 318.88C1116.69 317.787 1117.69 316.933 1118.99 316.32C1120.33 315.68 1121.9 315.36 1123.71 315.36C1125.55 315.36 1127.11 315.693 1128.39 316.36C1129.67 317.027 1130.63 317.92 1131.27 319.04C1131.91 320.16 1132.21 321.387 1132.15 322.72H1125.71C1125.74 322 1125.55 321.453 1125.15 321.08C1124.78 320.68 1124.27 320.48 1123.63 320.48C1122.99 320.48 1122.46 320.667 1122.03 321.04C1121.61 321.413 1121.39 321.893 1121.39 322.48C1121.39 323.04 1121.57 323.627 1121.91 324.24C1122.29 324.853 1122.86 325.56 1123.63 326.36L1130.47 333.04C1130.53 332.907 1130.59 332.747 1130.67 332.56C1130.78 332.373 1130.89 332.16 1130.99 331.92L1132.47 329.4H1139.31L1137.39 332.88C1136.67 334.453 1135.85 335.947 1134.91 337.36L1141.67 344H1133.71ZM1122.15 338.92C1123.94 338.92 1125.53 338.413 1126.91 337.4L1120.67 331.36C1118.75 332.347 1117.79 333.68 1117.79 335.36C1117.79 336.373 1118.18 337.227 1118.95 337.92C1119.75 338.587 1120.82 338.92 1122.15 338.92ZM852.589 384.04H842.109L840.429 389H833.269L843.429 360.92H851.349L861.509 389H854.269L852.589 384.04ZM850.829 378.76L847.349 368.48L843.909 378.76H850.829ZM908.401 360.92V389H901.561V372.16L895.281 389H889.761L883.441 372.12V389H876.601V360.92H884.681L892.561 380.36L900.361 360.92H908.401ZM957.12 360.92V389H950.28V372.16L944 389H938.48L932.16 372.12V389H925.32V360.92H933.4L941.28 380.36L949.08 360.92H957.12ZM987.319 389.28C984.679 389.28 982.252 388.667 980.039 387.44C977.852 386.213 976.105 384.507 974.799 382.32C973.519 380.107 972.879 377.627 972.879 374.88C972.879 372.133 973.519 369.667 974.799 367.48C976.105 365.293 977.852 363.587 980.039 362.36C982.252 361.133 984.679 360.52 987.319 360.52C989.959 360.52 992.372 361.133 994.559 362.36C996.772 363.587 998.505 365.293 999.759 367.48C1001.04 369.667 1001.68 372.133 1001.68 374.88C1001.68 377.627 1001.04 380.107 999.759 382.32C998.479 384.507 996.745 386.213 994.559 387.44C992.372 388.667 989.959 389.28 987.319 389.28ZM987.319 383.04C989.559 383.04 991.345 382.293 992.679 380.8C994.039 379.307 994.719 377.333 994.719 374.88C994.719 372.4 994.039 370.427 992.679 368.96C991.345 367.467 989.559 366.72 987.319 366.72C985.052 366.72 983.239 367.453 981.879 368.92C980.545 370.387 979.879 372.373 979.879 374.88C979.879 377.36 980.545 379.347 981.879 380.84C983.239 382.307 985.052 383.04 987.319 383.04ZM1042.6 389H1035.76L1024.32 371.68V389H1017.48V360.92H1024.32L1035.76 378.32V360.92H1042.6V389ZM1066.4 360.92V389H1059.56V360.92H1066.4ZM1100.84 384.04H1090.36L1088.68 389H1081.52L1091.68 360.92H1099.6L1109.76 389H1102.52L1100.84 384.04ZM1099.08 378.76L1095.6 368.48L1092.16 378.76H1099.08Z" fill="#89D6DC"/>
<path d="M857.886 456.8C857.379 455.867 856.646 455.16 855.686 454.68C854.752 454.173 853.646 453.92 852.366 453.92C850.152 453.92 848.379 454.653 847.046 456.12C845.712 457.56 845.046 459.493 845.046 461.92C845.046 464.507 845.739 466.533 847.126 468C848.539 469.44 850.472 470.16 852.926 470.16C854.606 470.16 856.019 469.733 857.166 468.88C858.339 468.027 859.192 466.8 859.726 465.2H851.046V460.16H865.926V466.52C865.419 468.227 864.552 469.813 863.326 471.28C862.126 472.747 860.592 473.933 858.726 474.84C856.859 475.747 854.752 476.2 852.406 476.2C849.632 476.2 847.152 475.6 844.966 474.4C842.806 473.173 841.112 471.48 839.886 469.32C838.686 467.16 838.086 464.693 838.086 461.92C838.086 459.147 838.686 456.68 839.886 454.52C841.112 452.333 842.806 450.64 844.966 449.44C847.126 448.213 849.592 447.6 852.366 447.6C855.726 447.6 858.552 448.413 860.846 450.04C863.166 451.667 864.699 453.92 865.446 456.8H857.886ZM899.194 471.04H888.714L887.034 476H879.874L890.034 447.92H897.954L908.114 476H900.874L899.194 471.04ZM897.434 465.76L893.954 455.48L890.514 465.76H897.434ZM933.367 476.28C931.313 476.28 929.473 475.947 927.847 475.28C926.22 474.613 924.913 473.627 923.927 472.32C922.967 471.013 922.46 469.44 922.407 467.6H929.687C929.793 468.64 930.153 469.44 930.767 470C931.38 470.533 932.18 470.8 933.167 470.8C934.18 470.8 934.98 470.573 935.567 470.12C936.153 469.64 936.447 468.987 936.447 468.16C936.447 467.467 936.207 466.893 935.727 466.44C935.273 465.987 934.7 465.613 934.007 465.32C933.34 465.027 932.38 464.693 931.127 464.32C929.313 463.76 927.833 463.2 926.687 462.64C925.54 462.08 924.553 461.253 923.727 460.16C922.9 459.067 922.487 457.64 922.487 455.88C922.487 453.267 923.433 451.227 925.327 449.76C927.22 448.267 929.687 447.52 932.727 447.52C935.82 447.52 938.313 448.267 940.207 449.76C942.1 451.227 943.113 453.28 943.247 455.92H935.847C935.793 455.013 935.46 454.307 934.847 453.8C934.233 453.267 933.447 453 932.487 453C931.66 453 930.993 453.227 930.487 453.68C929.98 454.107 929.727 454.733 929.727 455.56C929.727 456.467 930.153 457.173 931.007 457.68C931.86 458.187 933.193 458.733 935.007 459.32C936.82 459.933 938.287 460.52 939.407 461.08C940.553 461.64 941.54 462.453 942.367 463.52C943.193 464.587 943.607 465.96 943.607 467.64C943.607 469.24 943.193 470.693 942.367 472C941.567 473.307 940.393 474.347 938.847 475.12C937.3 475.893 935.473 476.28 933.367 476.28ZM966.656 453.4V459.08H975.816V464.36H966.656V470.52H977.016V476H959.816V447.92H977.016V453.4H966.656ZM1006.74 476.28C1004.1 476.28 1001.67 475.667 999.457 474.44C997.27 473.213 995.523 471.507 994.217 469.32C992.937 467.107 992.297 464.627 992.297 461.88C992.297 459.133 992.937 456.667 994.217 454.48C995.523 452.293 997.27 450.587 999.457 449.36C1001.67 448.133 1004.1 447.52 1006.74 447.52C1009.38 447.52 1011.79 448.133 1013.98 449.36C1016.19 450.587 1017.92 452.293 1019.18 454.48C1020.46 456.667 1021.1 459.133 1021.1 461.88C1021.1 464.627 1020.46 467.107 1019.18 469.32C1017.9 471.507 1016.16 473.213 1013.98 474.44C1011.79 475.667 1009.38 476.28 1006.74 476.28ZM1006.74 470.04C1008.98 470.04 1010.76 469.293 1012.1 467.8C1013.46 466.307 1014.14 464.333 1014.14 461.88C1014.14 459.4 1013.46 457.427 1012.1 455.96C1010.76 454.467 1008.98 453.72 1006.74 453.72C1004.47 453.72 1002.66 454.453 1001.3 455.92C999.963 457.387 999.297 459.373 999.297 461.88C999.297 464.36 999.963 466.347 1001.3 467.84C1002.66 469.307 1004.47 470.04 1006.74 470.04ZM1043.62 447.92V464.72C1043.62 466.4 1044.04 467.693 1044.86 468.6C1045.69 469.507 1046.9 469.96 1048.5 469.96C1050.1 469.96 1051.33 469.507 1052.18 468.6C1053.04 467.693 1053.46 466.4 1053.46 464.72V447.92H1060.3V464.68C1060.3 467.187 1059.77 469.307 1058.7 471.04C1057.64 472.773 1056.2 474.08 1054.38 474.96C1052.6 475.84 1050.6 476.28 1048.38 476.28C1046.17 476.28 1044.18 475.853 1042.42 475C1040.69 474.12 1039.32 472.813 1038.3 471.08C1037.29 469.32 1036.78 467.187 1036.78 464.68V447.92H1043.62ZM1087.27 476.28C1085.21 476.28 1083.37 475.947 1081.75 475.28C1080.12 474.613 1078.81 473.627 1077.83 472.32C1076.87 471.013 1076.36 469.44 1076.31 467.6H1083.59C1083.69 468.64 1084.05 469.44 1084.67 470C1085.28 470.533 1086.08 470.8 1087.07 470.8C1088.08 470.8 1088.88 470.573 1089.47 470.12C1090.05 469.64 1090.35 468.987 1090.35 468.16C1090.35 467.467 1090.11 466.893 1089.63 466.44C1089.17 465.987 1088.6 465.613 1087.91 465.32C1087.24 465.027 1086.28 464.693 1085.03 464.32C1083.21 463.76 1081.73 463.2 1080.59 462.64C1079.44 462.08 1078.45 461.253 1077.63 460.16C1076.8 459.067 1076.39 457.64 1076.39 455.88C1076.39 453.267 1077.33 451.227 1079.23 449.76C1081.12 448.267 1083.59 447.52 1086.63 447.52C1089.72 447.52 1092.21 448.267 1094.11 449.76C1096 451.227 1097.01 453.28 1097.15 455.92H1089.75C1089.69 455.013 1089.36 454.307 1088.75 453.8C1088.13 453.267 1087.35 453 1086.38 453C1085.56 453 1084.89 453.227 1084.39 453.68C1083.88 454.107 1083.63 454.733 1083.63 455.56C1083.63 456.467 1084.05 457.173 1084.9 457.68C1085.76 458.187 1087.09 458.733 1088.91 459.32C1090.72 459.933 1092.19 460.52 1093.31 461.08C1094.45 461.64 1095.44 462.453 1096.27 463.52C1097.09 464.587 1097.51 465.96 1097.51 467.64C1097.51 469.24 1097.09 470.693 1096.27 472C1095.47 473.307 1094.29 474.347 1092.75 475.12C1091.2 475.893 1089.37 476.28 1087.27 476.28ZM846.359 492.92V521H839.519V509.44H828.879V521H822.039V492.92H828.879V503.92H839.519V492.92H846.359ZM887.376 492.92L877.656 511.72V521H870.816V511.72L861.096 492.92H868.856L874.296 504.68L879.696 492.92H887.376ZM912.652 492.92C915.612 492.92 918.199 493.507 920.412 494.68C922.626 495.853 924.332 497.507 925.532 499.64C926.759 501.747 927.372 504.187 927.372 506.96C927.372 509.707 926.759 512.147 925.532 514.28C924.332 516.413 922.612 518.067 920.372 519.24C918.159 520.413 915.586 521 912.652 521H902.132V492.92H912.652ZM912.212 515.08C914.799 515.08 916.812 514.373 918.252 512.96C919.692 511.547 920.412 509.547 920.412 506.96C920.412 504.373 919.692 502.36 918.252 500.92C916.812 499.48 914.799 498.76 912.212 498.76H908.972V515.08H912.212ZM957.515 521L951.675 510.4H950.035V521H943.195V492.92H954.675C956.888 492.92 958.768 493.307 960.315 494.08C961.888 494.853 963.062 495.92 963.835 497.28C964.608 498.613 964.995 500.107 964.995 501.76C964.995 503.627 964.462 505.293 963.395 506.76C962.355 508.227 960.808 509.267 958.755 509.88L965.235 521H957.515ZM950.035 505.56H954.275C955.528 505.56 956.462 505.253 957.075 504.64C957.715 504.027 958.035 503.16 958.035 502.04C958.035 500.973 957.715 500.133 957.075 499.52C956.462 498.907 955.528 498.6 954.275 498.6H950.035V505.56ZM994.569 521.28C991.929 521.28 989.502 520.667 987.289 519.44C985.102 518.213 983.355 516.507 982.049 514.32C980.769 512.107 980.129 509.627 980.129 506.88C980.129 504.133 980.769 501.667 982.049 499.48C983.355 497.293 985.102 495.587 987.289 494.36C989.502 493.133 991.929 492.52 994.569 492.52C997.209 492.52 999.622 493.133 1001.81 494.36C1004.02 495.587 1005.76 497.293 1007.01 499.48C1008.29 501.667 1008.93 504.133 1008.93 506.88C1008.93 509.627 1008.29 512.107 1007.01 514.32C1005.73 516.507 1004 518.213 1001.81 519.44C999.622 520.667 997.209 521.28 994.569 521.28ZM994.569 515.04C996.809 515.04 998.595 514.293 999.929 512.8C1001.29 511.307 1001.97 509.333 1001.97 506.88C1001.97 504.4 1001.29 502.427 999.929 500.96C998.595 499.467 996.809 498.72 994.569 498.72C992.302 498.72 990.489 499.453 989.129 500.92C987.795 502.387 987.129 504.373 987.129 506.88C987.129 509.36 987.795 511.347 989.129 512.84C990.489 514.307 992.302 515.04 994.569 515.04ZM1043.37 501.8C1042.87 500.867 1042.13 500.16 1041.17 499.68C1040.24 499.173 1039.13 498.92 1037.85 498.92C1035.64 498.92 1033.87 499.653 1032.53 501.12C1031.2 502.56 1030.53 504.493 1030.53 506.92C1030.53 509.507 1031.23 511.533 1032.61 513C1034.03 514.44 1035.96 515.16 1038.41 515.16C1040.09 515.16 1041.51 514.733 1042.65 513.88C1043.83 513.027 1044.68 511.8 1045.21 510.2H1036.53V505.16H1051.41V511.52C1050.91 513.227 1050.04 514.813 1048.81 516.28C1047.61 517.747 1046.08 518.933 1044.21 519.84C1042.35 520.747 1040.24 521.2 1037.89 521.2C1035.12 521.2 1032.64 520.6 1030.45 519.4C1028.29 518.173 1026.6 516.48 1025.37 514.32C1024.17 512.16 1023.57 509.693 1023.57 506.92C1023.57 504.147 1024.17 501.68 1025.37 499.52C1026.6 497.333 1028.29 495.64 1030.45 494.44C1032.61 493.213 1035.08 492.6 1037.85 492.6C1041.21 492.6 1044.04 493.413 1046.33 495.04C1048.65 496.667 1050.19 498.92 1050.93 501.8H1043.37ZM1074.04 498.4V504.08H1083.2V509.36H1074.04V515.52H1084.4V521H1067.2V492.92H1084.4V498.4H1074.04ZM1125.96 521H1119.12L1107.68 503.68V521H1100.84V492.92H1107.68L1119.12 510.32V492.92H1125.96V521Z" fill="#589297"/>
<defs>
<filter id="filter0_d_68_162" x="0" y="0" width="708" height="714" filterUnits="userSpaceOnUse" color-interpolation-filters="sRGB">
<feFlood flood-opacity="0" result="BackgroundImageFix"/>
<feColorMatrix in="SourceAlpha" type="matrix" values="0 0 0 0 0 0 0 0 0 0 0 0 0 0 0 0 0 0 127 0" result="hardAlpha"/>
<feOffset dy="10"/>
<feGaussianBlur stdDeviation="2"/>
<feComposite in2="hardAlpha" operator="out"/>
<feColorMatrix type="matrix" values="0 0 0 0 0 0 0 0 0 0 0 0 0 0 0 0 0 0 0.25 0"/>
<feBlend mode="normal" in2="BackgroundImageFix" result="effect1_dropShadow_68_162"/>
<feBlend mode="normal" in="SourceGraphic" in2="effect1_dropShadow_68_162" result="shape"/>
</filter>
<filter id="filter1_d_68_162" x="50" y="50" width="608" height="614" filterUnits="userSpaceOnUse" color-interpolation-filters="sRGB">
<feFlood flood-opacity="0" result="BackgroundImageFix"/>
<feColorMatrix in="SourceAlpha" type="matrix" values="0 0 0 0 0 0 0 0 0 0 0 0 0 0 0 0 0 0 127 0" result="hardAlpha"/>
<feOffset dy="10"/>
<feGaussianBlur stdDeviation="2"/>
<feComposite in2="hardAlpha" operator="out"/>
<feColorMatrix type="matrix" values="0 0 0 0 0 0 0 0 0 0 0 0 0 0 0 0 0 0 0.25 0"/>
<feBlend mode="normal" in2="BackgroundImageFix" result="effect1_dropShadow_68_162"/>
<feBlend mode="normal" in="SourceGraphic" in2="effect1_dropShadow_68_162" result="shape"/>
</filter>
<filter id="filter2_d_68_162" x="150" y="150" width="408" height="414" filterUnits="userSpaceOnUse" color-interpolation-filters="sRGB">
<feFlood flood-opacity="0" result="BackgroundImageFix"/>
<feColorMatrix in="SourceAlpha" type="matrix" values="0 0 0 0 0 0 0 0 0 0 0 0 0 0 0 0 0 0 127 0" result="hardAlpha"/>
<feOffset dy="10"/>
<feGaussianBlur stdDeviation="2"/>
<feComposite in2="hardAlpha" operator="out"/>
<feColorMatrix type="matrix" values="0 0 0 0 0 0 0 0 0 0 0 0 0 0 0 0 0 0 0.25 0"/>
<feBlend mode="normal" in2="BackgroundImageFix" result="effect1_dropShadow_68_162"/>
<feBlend mode="normal" in="SourceGraphic" in2="effect1_dropShadow_68_162" result="shape"/>
</filter>
<filter id="filter3_d_68_162" x="300" y="300" width="108" height="114" filterUnits="userSpaceOnUse" color-interpolation-filters="sRGB">
<feFlood flood-opacity="0" result="BackgroundImageFix"/>
<feColorMatrix in="SourceAlpha" type="matrix" values="0 0 0 0 0 0 0 0 0 0 0 0 0 0 0 0 0 0 127 0" result="hardAlpha"/>
<feOffset dy="10"/>
<feGaussianBlur stdDeviation="2"/>
<feComposite in2="hardAlpha" operator="out"/>
<feColorMatrix type="matrix" values="0 0 0 0 0 0 0 0 0 0 0 0 0 0 0 0 0 0 0.25 0"/>
<feBlend mode="normal" in2="BackgroundImageFix" result="effect1_dropShadow_68_162"/>
<feBlend mode="normal" in="SourceGraphic" in2="effect1_dropShadow_68_162" result="shape"/>
</filter>
<filter id="filter4_d_68_162" x="648.5" y="455.899" width="167.642" height="34.5942" filterUnits="userSpaceOnUse" color-interpolation-filters="sRGB">
<feFlood flood-opacity="0" result="BackgroundImageFix"/>
<feColorMatrix in="SourceAlpha" type="matrix" values="0 0 0 0 0 0 0 0 0 0 0 0 0 0 0 0 0 0 127 0" result="hardAlpha"/>
<feOffset dy="4"/>
<feGaussianBlur stdDeviation="2"/>
<feComposite in2="hardAlpha" operator="out"/>
<feColorMatrix type="matrix" values="0 0 0 0 0 0 0 0 0 0 0 0 0 0 0 0 0 0 0.25 0"/>
<feBlend mode="normal" in2="BackgroundImageFix" result="effect1_dropShadow_68_162"/>
<feBlend mode="normal" in="SourceGraphic" in2="effect1_dropShadow_68_162" result="shape"/>
</filter>
<filter id="filter5_d_68_162" x="619.5" y="584.908" width="106.137" height="60.4504" filterUnits="userSpaceOnUse" color-interpolation-filters="sRGB">
<feFlood flood-opacity="0" result="BackgroundImageFix"/>
<feColorMatrix in="SourceAlpha" type="matrix" values="0 0 0 0 0 0 0 0 0 0 0 0 0 0 0 0 0 0 127 0" result="hardAlpha"/>
<feOffset dy="4"/>
<feGaussianBlur stdDeviation="2"/>
<feComposite in2="hardAlpha" operator="out"/>
<feColorMatrix type="matrix" values="0 0 0 0 0 0 0 0 0 0 0 0 0 0 0 0 0 0 0.25 0"/>
<feBlend mode="normal" in2="BackgroundImageFix" result="effect1_dropShadow_68_162"/>
<feBlend mode="normal" in="SourceGraphic" in2="effect1_dropShadow_68_162" result="shape"/>
</filter>
<filter id="filter6_d_68_162" x="409.5" y="171.632" width="323.116" height="156.651" filterUnits="userSpaceOnUse" color-interpolation-filters="sRGB">
<feFlood flood-opacity="0" result="BackgroundImageFix"/>
<feColorMatrix in="SourceAlpha" type="matrix" values="0 0 0 0 0 0 0 0 0 0 0 0 0 0 0 0 0 0 127 0" result="hardAlpha"/>
<feOffset dy="4"/>
<feGaussianBlur stdDeviation="2"/>
<feComposite in2="hardAlpha" operator="out"/>
<feColorMatrix type="matrix" values="0 0 0 0 0 0 0 0 0 0 0 0 0 0 0 0 0 0 0.25 0"/>
<feBlend mode="normal" in2="BackgroundImageFix" result="effect1_dropShadow_68_162"/>
<feBlend mode="normal" in="SourceGraphic" in2="effect1_dropShadow_68_162" result="shape"/>
</filter>
<filter id="filter7_d_68_162" x="565.5" y="328.504" width="212.603" height="33.863" filterUnits="userSpaceOnUse" color-interpolation-filters="sRGB">
<feFlood flood-opacity="0" result="BackgroundImageFix"/>
<feColorMatrix in="SourceAlpha" type="matrix" values="0 0 0 0 0 0 0 0 0 0 0 0 0 0 0 0 0 0 127 0" result="hardAlpha"/>
<feOffset dy="4"/>
<feGaussianBlur stdDeviation="2"/>
<feComposite in2="hardAlpha" operator="out"/>
<feColorMatrix type="matrix" values="0 0 0 0 0 0 0 0 0 0 0 0 0 0 0 0 0 0 0.25 0"/>
<feBlend mode="normal" in2="BackgroundImageFix" result="effect1_dropShadow_68_162"/>
<feBlend mode="normal" in="SourceGraphic" in2="effect1_dropShadow_68_162" result="shape"/>
</filter>
</defs>
</svg>
