<svg width="908" height="645" viewBox="0 0 908 645" fill="none" xmlns="http://www.w3.org/2000/svg">
<g filter="url(#filter0_d_64_58)">
<circle cx="304" cy="300" r="300" fill="#3D637E"/>
</g>
<g filter="url(#filter1_d_64_58)">
<circle cx="304" cy="300" r="250" fill="#839CAE"/>
</g>
<circle cx="304" cy="300" r="223.5" stroke="#253B4C" stroke-width="3" stroke-dasharray="10 10"/>
<g filter="url(#filter2_d_64_58)">
<path d="M429 300C429 369.036 373.036 425 304 425C234.964 425 179 369.036 179 300C179 230.964 234.964 175 304 175C373.036 175 429 230.964 429 300Z" fill="#CAD5DE"/>
</g>
<rect width="10" height="3" transform="translate(299 530)" fill="#253B4C"/>
<rect width="3" height="65" transform="translate(302.5 533)" fill="#253B4C"/>
<rect width="10" height="3" transform="translate(299 598)" fill="#253B4C"/>
<g filter="url(#filter3_d_64_58)">
<path d="M571.156 447.76C570.471 448.226 570.294 449.159 570.76 449.844L578.356 461.004C578.822 461.689 579.755 461.866 580.44 461.4C581.125 460.934 581.302 460.001 580.836 459.316L574.084 449.396L584.004 442.644C584.689 442.178 584.866 441.245 584.4 440.56C583.934 439.875 583.001 439.698 582.316 440.164L571.156 447.76ZM635.434 459.526L572.28 447.526L571.72 450.474L634.874 462.474L635.434 459.526Z" fill="#3D637E"/>
</g>
<path d="M653.32 454.92C653.32 452.147 653.92 449.68 655.12 447.52C656.32 445.333 657.987 443.64 660.12 442.44C662.28 441.213 664.72 440.6 667.44 440.6C670.773 440.6 673.627 441.48 676 443.24C678.373 445 679.96 447.4 680.76 450.44H673.24C672.68 449.267 671.88 448.373 670.84 447.76C669.827 447.147 668.667 446.84 667.36 446.84C665.253 446.84 663.547 447.573 662.24 449.04C660.933 450.507 660.28 452.467 660.28 454.92C660.28 457.373 660.933 459.333 662.24 460.8C663.547 462.267 665.253 463 667.36 463C668.667 463 669.827 462.693 670.84 462.08C671.88 461.467 672.68 460.573 673.24 459.4H680.76C679.96 462.44 678.373 464.84 676 466.6C673.627 468.333 670.773 469.2 667.44 469.2C664.72 469.2 662.28 468.6 660.12 467.4C657.987 466.173 656.32 464.48 655.12 462.32C653.92 460.16 653.32 457.693 653.32 454.92ZM711.269 469L705.429 458.4H703.789V469H696.949V440.92H708.429C710.642 440.92 712.522 441.307 714.069 442.08C715.642 442.853 716.815 443.92 717.589 445.28C718.362 446.613 718.749 448.107 718.749 449.76C718.749 451.627 718.215 453.293 717.149 454.76C716.109 456.227 714.562 457.267 712.509 457.88L718.989 469H711.269ZM703.789 453.56H708.029C709.282 453.56 710.215 453.253 710.829 452.64C711.469 452.027 711.789 451.16 711.789 450.04C711.789 448.973 711.469 448.133 710.829 447.52C710.215 446.907 709.282 446.6 708.029 446.6H703.789V453.56ZM741.763 440.92V457.72C741.763 459.4 742.176 460.693 743.003 461.6C743.829 462.507 745.043 462.96 746.643 462.96C748.243 462.96 749.469 462.507 750.323 461.6C751.176 460.693 751.603 459.4 751.603 457.72V440.92H758.443V457.68C758.443 460.187 757.909 462.307 756.843 464.04C755.776 465.773 754.336 467.08 752.523 467.96C750.736 468.84 748.736 469.28 746.523 469.28C744.309 469.28 742.323 468.853 740.563 468C738.829 467.12 737.456 465.813 736.443 464.08C735.429 462.32 734.923 460.187 734.923 457.68V440.92H741.763ZM785.406 469.28C783.352 469.28 781.512 468.947 779.886 468.28C778.259 467.613 776.952 466.627 775.966 465.32C775.006 464.013 774.499 462.44 774.446 460.6H781.726C781.832 461.64 782.192 462.44 782.806 463C783.419 463.533 784.219 463.8 785.206 463.8C786.219 463.8 787.019 463.573 787.606 463.12C788.192 462.64 788.486 461.987 788.486 461.16C788.486 460.467 788.246 459.893 787.766 459.44C787.312 458.987 786.739 458.613 786.046 458.32C785.379 458.027 784.419 457.693 783.166 457.32C781.352 456.76 779.872 456.2 778.726 455.64C777.579 455.08 776.592 454.253 775.766 453.16C774.939 452.067 774.526 450.64 774.526 448.88C774.526 446.267 775.472 444.227 777.366 442.76C779.259 441.267 781.726 440.52 784.766 440.52C787.859 440.52 790.352 441.267 792.246 442.76C794.139 444.227 795.152 446.28 795.286 448.92H787.886C787.832 448.013 787.499 447.307 786.886 446.8C786.272 446.267 785.486 446 784.526 446C783.699 446 783.032 446.227 782.526 446.68C782.019 447.107 781.766 447.733 781.766 448.56C781.766 449.467 782.192 450.173 783.046 450.68C783.899 451.187 785.232 451.733 787.046 452.32C788.859 452.933 790.326 453.52 791.446 454.08C792.592 454.64 793.579 455.453 794.406 456.52C795.232 457.587 795.646 458.96 795.646 460.64C795.646 462.24 795.232 463.693 794.406 465C793.606 466.307 792.432 467.347 790.886 468.12C789.339 468.893 787.512 469.28 785.406 469.28ZM832.055 440.92V446.4H824.615V469H817.775V446.4H810.335V440.92H832.055Z" fill="#3D637E"/>
<path d="M323.621 631.72H332.581V637H316.781V608.92H323.621V631.72ZM354.683 608.92V637H347.843V608.92H354.683ZM391.84 608.92V614.4H384.4V637H377.56V614.4H370.12V608.92H391.84ZM431.593 608.92V637H424.753V625.44H414.113V637H407.273V608.92H414.113V619.92H424.753V608.92H431.593ZM461.811 637.28C459.171 637.28 456.744 636.667 454.531 635.44C452.344 634.213 450.597 632.507 449.291 630.32C448.011 628.107 447.371 625.627 447.371 622.88C447.371 620.133 448.011 617.667 449.291 615.48C450.597 613.293 452.344 611.587 454.531 610.36C456.744 609.133 459.171 608.52 461.811 608.52C464.451 608.52 466.864 609.133 469.051 610.36C471.264 611.587 472.997 613.293 474.251 615.48C475.531 617.667 476.171 620.133 476.171 622.88C476.171 625.627 475.531 628.107 474.251 630.32C472.971 632.507 471.237 634.213 469.051 635.44C466.864 636.667 464.451 637.28 461.811 637.28ZM461.811 631.04C464.051 631.04 465.837 630.293 467.171 628.8C468.531 627.307 469.211 625.333 469.211 622.88C469.211 620.4 468.531 618.427 467.171 616.96C465.837 615.467 464.051 614.72 461.811 614.72C459.544 614.72 457.731 615.453 456.371 616.92C455.037 618.387 454.371 620.373 454.371 622.88C454.371 625.36 455.037 627.347 456.371 628.84C457.731 630.307 459.544 631.04 461.811 631.04ZM502.136 637.28C500.083 637.28 498.243 636.947 496.616 636.28C494.989 635.613 493.683 634.627 492.696 633.32C491.736 632.013 491.229 630.44 491.176 628.6H498.456C498.563 629.64 498.923 630.44 499.536 631C500.149 631.533 500.949 631.8 501.936 631.8C502.949 631.8 503.749 631.573 504.336 631.12C504.923 630.64 505.216 629.987 505.216 629.16C505.216 628.467 504.976 627.893 504.496 627.44C504.043 626.987 503.469 626.613 502.776 626.32C502.109 626.027 501.149 625.693 499.896 625.32C498.083 624.76 496.603 624.2 495.456 623.64C494.309 623.08 493.323 622.253 492.496 621.16C491.669 620.067 491.256 618.64 491.256 616.88C491.256 614.267 492.203 612.227 494.096 610.76C495.989 609.267 498.456 608.52 501.496 608.52C504.589 608.52 507.083 609.267 508.976 610.76C510.869 612.227 511.883 614.28 512.016 616.92H504.616C504.563 616.013 504.229 615.307 503.616 614.8C503.003 614.267 502.216 614 501.256 614C500.429 614 499.763 614.227 499.256 614.68C498.749 615.107 498.496 615.733 498.496 616.56C498.496 617.467 498.923 618.173 499.776 618.68C500.629 619.187 501.963 619.733 503.776 620.32C505.589 620.933 507.056 621.52 508.176 622.08C509.323 622.64 510.309 623.453 511.136 624.52C511.963 625.587 512.376 626.96 512.376 628.64C512.376 630.24 511.963 631.693 511.136 633C510.336 634.307 509.163 635.347 507.616 636.12C506.069 636.893 504.243 637.28 502.136 637.28ZM549.985 617.96C549.985 619.587 549.612 621.08 548.865 622.44C548.119 623.773 546.972 624.853 545.425 625.68C543.879 626.507 541.959 626.92 539.665 626.92H535.425V637H528.585V608.92H539.665C541.905 608.92 543.799 609.307 545.345 610.08C546.892 610.853 548.052 611.92 548.825 613.28C549.599 614.64 549.985 616.2 549.985 617.96ZM539.145 621.48C540.452 621.48 541.425 621.173 542.065 620.56C542.705 619.947 543.025 619.08 543.025 617.96C543.025 616.84 542.705 615.973 542.065 615.36C541.425 614.747 540.452 614.44 539.145 614.44H535.425V621.48H539.145ZM589.866 608.92V637H583.026V625.44H572.386V637H565.546V608.92H572.386V619.92H583.026V608.92H589.866ZM613.644 614.4V620.08H622.804V625.36H613.644V631.52H624.004V637H606.804V608.92H624.004V614.4H613.644ZM654.765 637L648.925 626.4H647.285V637H640.445V608.92H651.925C654.138 608.92 656.018 609.307 657.565 610.08C659.138 610.853 660.312 611.92 661.085 613.28C661.858 614.613 662.245 616.107 662.245 617.76C662.245 619.627 661.712 621.293 660.645 622.76C659.605 624.227 658.058 625.267 656.005 625.88L662.485 637H654.765ZM647.285 621.56H651.525C652.778 621.56 653.712 621.253 654.325 620.64C654.965 620.027 655.285 619.16 655.285 618.04C655.285 616.973 654.965 616.133 654.325 615.52C653.712 614.907 652.778 614.6 651.525 614.6H647.285V621.56ZM685.379 614.4V620.08H694.539V625.36H685.379V631.52H695.739V637H678.539V608.92H695.739V614.4H685.379Z" fill="#253B4C"/>
<path d="M598.496 87.92C598.496 85.1467 599.096 82.68 600.296 80.52C601.496 78.3333 603.162 76.64 605.296 75.44C607.456 74.2133 609.896 73.6 612.616 73.6C615.949 73.6 618.802 74.48 621.176 76.24C623.549 78 625.136 80.4 625.936 83.44H618.416C617.856 82.2667 617.056 81.3733 616.016 80.76C615.002 80.1467 613.842 79.84 612.536 79.84C610.429 79.84 608.722 80.5733 607.416 82.04C606.109 83.5067 605.456 85.4667 605.456 87.92C605.456 90.3733 606.109 92.3333 607.416 93.8C608.722 95.2667 610.429 96 612.536 96C613.842 96 615.002 95.6933 616.016 95.08C617.056 94.4667 617.856 93.5733 618.416 92.4H625.936C625.136 95.44 623.549 97.84 621.176 99.6C618.802 101.333 615.949 102.2 612.616 102.2C609.896 102.2 607.456 101.6 605.296 100.4C603.162 99.1733 601.496 97.48 600.296 95.32C599.096 93.16 598.496 90.6933 598.496 87.92ZM655.405 102.28C652.765 102.28 650.338 101.667 648.125 100.44C645.938 99.2133 644.191 97.5067 642.885 95.32C641.605 93.1067 640.965 90.6267 640.965 87.88C640.965 85.1333 641.605 82.6667 642.885 80.48C644.191 78.2933 645.938 76.5867 648.125 75.36C650.338 74.1333 652.765 73.52 655.405 73.52C658.045 73.52 660.458 74.1333 662.645 75.36C664.858 76.5867 666.591 78.2933 667.845 80.48C669.125 82.6667 669.765 85.1333 669.765 87.88C669.765 90.6267 669.125 93.1067 667.845 95.32C666.565 97.5067 664.831 99.2133 662.645 100.44C660.458 101.667 658.045 102.28 655.405 102.28ZM655.405 96.04C657.645 96.04 659.431 95.2933 660.765 93.8C662.125 92.3067 662.805 90.3333 662.805 87.88C662.805 85.4 662.125 83.4267 660.765 81.96C659.431 80.4667 657.645 79.72 655.405 79.72C653.138 79.72 651.325 80.4533 649.965 81.92C648.631 83.3867 647.965 85.3733 647.965 87.88C647.965 90.36 648.631 92.3467 649.965 93.84C651.325 95.3067 653.138 96.04 655.405 96.04ZM699.89 102L694.05 91.4H692.41V102H685.57V73.92H697.05C699.263 73.92 701.143 74.3067 702.69 75.08C704.263 75.8533 705.437 76.92 706.21 78.28C706.983 79.6133 707.37 81.1067 707.37 82.76C707.37 84.6267 706.837 86.2933 705.77 87.76C704.73 89.2267 703.183 90.2667 701.13 90.88L707.61 102H699.89ZM692.41 86.56H696.65C697.903 86.56 698.837 86.2533 699.45 85.64C700.09 85.0267 700.41 84.16 700.41 83.04C700.41 81.9733 700.09 81.1333 699.45 80.52C698.837 79.9067 697.903 79.6 696.65 79.6H692.41V86.56ZM730.504 79.4V85.08H739.664V90.36H730.504V96.52H740.864V102H723.664V73.92H740.864V79.4H730.504Z" fill="#CAD5DE"/>
<path d="M711.468 285.92V314H704.628V297.16L698.348 314H692.828L686.508 297.12V314H679.668V285.92H687.747L695.628 305.36L703.428 285.92H711.468ZM745.866 309.04H735.386L733.706 314H726.546L736.706 285.92H744.626L754.786 314H747.546L745.866 309.04ZM744.106 303.76L740.626 293.48L737.186 303.76H744.106ZM794.998 314H788.158L776.718 296.68V314H769.878V285.92H776.718L788.158 303.32V285.92H794.998V314ZM832.157 285.92V291.4H824.717V314H817.877V291.4H810.437V285.92H832.157ZM854.429 291.4V297.08H863.589V302.36H854.429V308.52H864.789V314H847.589V285.92H864.789V291.4H854.429ZM888.07 308.72H897.03V314H881.23V285.92H888.07V308.72Z" fill="#839CAE"/>
<g filter="url(#filter4_d_64_58)">
<path d="M395.543 201.642C395.346 202.446 395.837 203.259 396.642 203.457L409.751 206.68C410.556 206.878 411.368 206.386 411.566 205.582C411.764 204.777 411.272 203.965 410.468 203.767L398.815 200.902L401.68 189.249C401.878 188.444 401.386 187.632 400.582 187.434C399.777 187.236 398.965 187.728 398.767 188.532L395.543 201.642ZM586.223 85.7167L396.223 200.717L397.777 203.283L587.777 88.2833L586.223 85.7167Z" fill="#CAD5DE"/>
</g>
<g filter="url(#filter5_d_64_58)">
<path d="M558.949 297.93C558.358 298.51 558.349 299.46 558.93 300.051L568.389 309.683C568.969 310.274 569.919 310.283 570.51 309.703C571.101 309.122 571.109 308.172 570.529 307.581L562.121 299.019L570.683 290.611C571.274 290.031 571.283 289.081 570.703 288.49C570.122 287.899 569.172 287.891 568.581 288.471L558.949 297.93ZM670.014 298.5L560.014 297.5L559.986 300.5L669.986 301.5L670.014 298.5Z" fill="#839CAE"/>
</g>
<defs>
<filter id="filter0_d_64_58" x="0" y="0" width="608" height="614" filterUnits="userSpaceOnUse" color-interpolation-filters="sRGB">
<feFlood flood-opacity="0" result="BackgroundImageFix"/>
<feColorMatrix in="SourceAlpha" type="matrix" values="0 0 0 0 0 0 0 0 0 0 0 0 0 0 0 0 0 0 127 0" result="hardAlpha"/>
<feOffset dy="10"/>
<feGaussianBlur stdDeviation="2"/>
<feComposite in2="hardAlpha" operator="out"/>
<feColorMatrix type="matrix" values="0 0 0 0 0 0 0 0 0 0 0 0 0 0 0 0 0 0 0.25 0"/>
<feBlend mode="normal" in2="BackgroundImageFix" result="effect1_dropShadow_64_58"/>
<feBlend mode="normal" in="SourceGraphic" in2="effect1_dropShadow_64_58" result="shape"/>
</filter>
<filter id="filter1_d_64_58" x="50" y="50" width="508" height="514" filterUnits="userSpaceOnUse" color-interpolation-filters="sRGB">
<feFlood flood-opacity="0" result="BackgroundImageFix"/>
<feColorMatrix in="SourceAlpha" type="matrix" values="0 0 0 0 0 0 0 0 0 0 0 0 0 0 0 0 0 0 127 0" result="hardAlpha"/>
<feOffset dy="10"/>
<feGaussianBlur stdDeviation="2"/>
<feComposite in2="hardAlpha" operator="out"/>
<feColorMatrix type="matrix" values="0 0 0 0 0 0 0 0 0 0 0 0 0 0 0 0 0 0 0.25 0"/>
<feBlend mode="normal" in2="BackgroundImageFix" result="effect1_dropShadow_64_58"/>
<feBlend mode="normal" in="SourceGraphic" in2="effect1_dropShadow_64_58" result="shape"/>
</filter>
<filter id="filter2_d_64_58" x="175" y="175" width="258" height="264" filterUnits="userSpaceOnUse" color-interpolation-filters="sRGB">
<feFlood flood-opacity="0" result="BackgroundImageFix"/>
<feColorMatrix in="SourceAlpha" type="matrix" values="0 0 0 0 0 0 0 0 0 0 0 0 0 0 0 0 0 0 127 0" result="hardAlpha"/>
<feOffset dy="10"/>
<feGaussianBlur stdDeviation="2"/>
<feComposite in2="hardAlpha" operator="out"/>
<feColorMatrix type="matrix" values="0 0 0 0 0 0 0 0 0 0 0 0 0 0 0 0 0 0 0.25 0"/>
<feBlend mode="normal" in2="BackgroundImageFix" result="effect1_dropShadow_64_58"/>
<feBlend mode="normal" in="SourceGraphic" in2="effect1_dropShadow_64_58" result="shape"/>
</filter>
<filter id="filter3_d_64_58" x="566.5" y="439.904" width="72.9338" height="30.57" filterUnits="userSpaceOnUse" color-interpolation-filters="sRGB">
<feFlood flood-opacity="0" result="BackgroundImageFix"/>
<feColorMatrix in="SourceAlpha" type="matrix" values="0 0 0 0 0 0 0 0 0 0 0 0 0 0 0 0 0 0 127 0" result="hardAlpha"/>
<feOffset dy="4"/>
<feGaussianBlur stdDeviation="2"/>
<feComposite in2="hardAlpha" operator="out"/>
<feColorMatrix type="matrix" values="0 0 0 0 0 0 0 0 0 0 0 0 0 0 0 0 0 0 0.25 0"/>
<feBlend mode="normal" in2="BackgroundImageFix" result="effect1_dropShadow_64_58"/>
<feBlend mode="normal" in="SourceGraphic" in2="effect1_dropShadow_64_58" result="shape"/>
</filter>
<filter id="filter4_d_64_58" x="391.5" y="85.7167" width="200.277" height="129.007" filterUnits="userSpaceOnUse" color-interpolation-filters="sRGB">
<feFlood flood-opacity="0" result="BackgroundImageFix"/>
<feColorMatrix in="SourceAlpha" type="matrix" values="0 0 0 0 0 0 0 0 0 0 0 0 0 0 0 0 0 0 127 0" result="hardAlpha"/>
<feOffset dy="4"/>
<feGaussianBlur stdDeviation="2"/>
<feComposite in2="hardAlpha" operator="out"/>
<feColorMatrix type="matrix" values="0 0 0 0 0 0 0 0 0 0 0 0 0 0 0 0 0 0 0.25 0"/>
<feBlend mode="normal" in2="BackgroundImageFix" result="effect1_dropShadow_64_58"/>
<feBlend mode="normal" in="SourceGraphic" in2="effect1_dropShadow_64_58" result="shape"/>
</filter>
<filter id="filter5_d_64_58" x="554.5" y="288.041" width="119.514" height="30.0911" filterUnits="userSpaceOnUse" color-interpolation-filters="sRGB">
<feFlood flood-opacity="0" result="BackgroundImageFix"/>
<feColorMatrix in="SourceAlpha" type="matrix" values="0 0 0 0 0 0 0 0 0 0 0 0 0 0 0 0 0 0 127 0" result="hardAlpha"/>
<feOffset dy="4"/>
<feGaussianBlur stdDeviation="2"/>
<feComposite in2="hardAlpha" operator="out"/>
<feColorMatrix type="matrix" values="0 0 0 0 0 0 0 0 0 0 0 0 0 0 0 0 0 0 0.25 0"/>
<feBlend mode="normal" in2="BackgroundImageFix" result="effect1_dropShadow_64_58"/>
<feBlend mode="normal" in="SourceGraphic" in2="effect1_dropShadow_64_58" result="shape"/>
</filter>
</defs>
</svg>
