<svg width="1277" height="905" viewBox="0 0 1277 905" fill="none" xmlns="http://www.w3.org/2000/svg">
<g filter="url(#filter0_d_68_106)">
<circle cx="441.5" cy="437.5" r="437.5" fill="#40392A"/>
</g>
<g filter="url(#filter1_d_68_106)">
<circle cx="441.5" cy="437.5" r="412.5" fill="#61563F"/>
</g>
<g filter="url(#filter2_d_68_106)">
<circle cx="442" cy="438" r="350" fill="#B4A587"/>
</g>
<g filter="url(#filter3_d_68_106)">
<circle cx="442" cy="438" r="325" fill="#A18F69"/>
</g>
<g filter="url(#filter4_d_68_106)">
<circle cx="442" cy="438" r="50" fill="#D9D2C3"/>
</g>
<path d="M799.094 823.92L789.134 852H780.574L770.614 823.92H777.894L784.854 845.12L791.854 823.92H799.094ZM820.793 823.92V852H813.953V823.92H820.793ZM847.91 852.28C845.856 852.28 844.016 851.947 842.39 851.28C840.763 850.613 839.456 849.627 838.47 848.32C837.51 847.013 837.003 845.44 836.95 843.6H844.23C844.336 844.64 844.696 845.44 845.31 846C845.923 846.533 846.723 846.8 847.71 846.8C848.723 846.8 849.523 846.573 850.11 846.12C850.696 845.64 850.99 844.987 850.99 844.16C850.99 843.467 850.75 842.893 850.27 842.44C849.816 841.987 849.243 841.613 848.55 841.32C847.883 841.027 846.923 840.693 845.67 840.32C843.856 839.76 842.376 839.2 841.23 838.64C840.083 838.08 839.096 837.253 838.27 836.16C837.443 835.067 837.03 833.64 837.03 831.88C837.03 829.267 837.976 827.227 839.87 825.76C841.763 824.267 844.23 823.52 847.27 823.52C850.363 823.52 852.856 824.267 854.75 825.76C856.643 827.227 857.656 829.28 857.79 831.92H850.39C850.336 831.013 850.003 830.307 849.39 829.8C848.776 829.267 847.99 829 847.03 829C846.203 829 845.536 829.227 845.03 829.68C844.523 830.107 844.27 830.733 844.27 831.56C844.27 832.467 844.696 833.173 845.55 833.68C846.403 834.187 847.736 834.733 849.55 835.32C851.363 835.933 852.83 836.52 853.95 837.08C855.096 837.64 856.083 838.453 856.91 839.52C857.736 840.587 858.15 841.96 858.15 843.64C858.15 845.24 857.736 846.693 856.91 848C856.11 849.307 854.936 850.347 853.39 851.12C851.843 851.893 850.016 852.28 847.91 852.28ZM881.199 823.92V852H874.359V823.92H881.199ZM915.156 837.6C916.782 837.947 918.089 838.76 919.076 840.04C920.062 841.293 920.556 842.733 920.556 844.36C920.556 846.707 919.729 848.573 918.076 849.96C916.449 851.32 914.169 852 911.236 852H898.156V823.92H910.796C913.649 823.92 915.876 824.573 917.476 825.88C919.102 827.187 919.916 828.96 919.916 831.2C919.916 832.853 919.476 834.227 918.596 835.32C917.742 836.413 916.596 837.173 915.156 837.6ZM904.996 835.28H909.476C910.596 835.28 911.449 835.04 912.036 834.56C912.649 834.053 912.956 833.32 912.956 832.36C912.956 831.4 912.649 830.667 912.036 830.16C911.449 829.653 910.596 829.4 909.476 829.4H904.996V835.28ZM910.036 846.48C911.182 846.48 912.062 846.227 912.676 845.72C913.316 845.187 913.636 844.427 913.636 843.44C913.636 842.453 913.302 841.68 912.636 841.12C911.996 840.56 911.102 840.28 909.956 840.28H904.996V846.48H910.036ZM943.363 846.72H952.323V852H936.523V823.92H943.363V846.72ZM974.425 829.4V835.08H983.585V840.36H974.425V846.52H984.785V852H967.585V823.92H984.785V829.4H974.425ZM774.394 882.92C774.394 880.147 774.994 877.68 776.194 875.52C777.394 873.333 779.061 871.64 781.194 870.44C783.354 869.213 785.794 868.6 788.514 868.6C791.848 868.6 794.701 869.48 797.074 871.24C799.448 873 801.034 875.4 801.834 878.44H794.314C793.754 877.267 792.954 876.373 791.914 875.76C790.901 875.147 789.741 874.84 788.434 874.84C786.328 874.84 784.621 875.573 783.314 877.04C782.008 878.507 781.354 880.467 781.354 882.92C781.354 885.373 782.008 887.333 783.314 888.8C784.621 890.267 786.328 891 788.434 891C789.741 891 790.901 890.693 791.914 890.08C792.954 889.467 793.754 888.573 794.314 887.4H801.834C801.034 890.44 799.448 892.84 797.074 894.6C794.701 896.333 791.848 897.2 788.514 897.2C785.794 897.2 783.354 896.6 781.194 895.4C779.061 894.173 777.394 892.48 776.194 890.32C774.994 888.16 774.394 885.693 774.394 882.92ZM824.863 891.72H833.823V897H818.023V868.92H824.863V891.72ZM862.365 897.28C859.725 897.28 857.299 896.667 855.085 895.44C852.899 894.213 851.152 892.507 849.845 890.32C848.565 888.107 847.925 885.627 847.925 882.88C847.925 880.133 848.565 877.667 849.845 875.48C851.152 873.293 852.899 871.587 855.085 870.36C857.299 869.133 859.725 868.52 862.365 868.52C865.005 868.52 867.419 869.133 869.605 870.36C871.819 871.587 873.552 873.293 874.805 875.48C876.085 877.667 876.725 880.133 876.725 882.88C876.725 885.627 876.085 888.107 874.805 890.32C873.525 892.507 871.792 894.213 869.605 895.44C867.419 896.667 865.005 897.28 862.365 897.28ZM862.365 891.04C864.605 891.04 866.392 890.293 867.725 888.8C869.085 887.307 869.765 885.333 869.765 882.88C869.765 880.4 869.085 878.427 867.725 876.96C866.392 875.467 864.605 874.72 862.365 874.72C860.099 874.72 858.285 875.453 856.925 876.92C855.592 878.387 854.925 880.373 854.925 882.88C854.925 885.36 855.592 887.347 856.925 888.84C858.285 890.307 860.099 891.04 862.365 891.04ZM899.251 868.92V885.72C899.251 887.4 899.664 888.693 900.491 889.6C901.317 890.507 902.531 890.96 904.131 890.96C905.731 890.96 906.957 890.507 907.811 889.6C908.664 888.693 909.091 887.4 909.091 885.72V868.92H915.931V885.68C915.931 888.187 915.397 890.307 914.331 892.04C913.264 893.773 911.824 895.08 910.011 895.96C908.224 896.84 906.224 897.28 904.011 897.28C901.797 897.28 899.811 896.853 898.051 896C896.317 895.12 894.944 893.813 893.931 892.08C892.917 890.32 892.411 888.187 892.411 885.68V868.92H899.251ZM943.254 868.92C946.214 868.92 948.801 869.507 951.014 870.68C953.227 871.853 954.934 873.507 956.134 875.64C957.361 877.747 957.974 880.187 957.974 882.96C957.974 885.707 957.361 888.147 956.134 890.28C954.934 892.413 953.214 894.067 950.974 895.24C948.761 896.413 946.187 897 943.254 897H932.734V868.92H943.254ZM942.814 891.08C945.401 891.08 947.414 890.373 948.854 888.96C950.294 887.547 951.014 885.547 951.014 882.96C951.014 880.373 950.294 878.36 948.854 876.92C947.414 875.48 945.401 874.76 942.814 874.76H939.574V891.08H942.814ZM983.956 897.28C981.903 897.28 980.063 896.947 978.436 896.28C976.81 895.613 975.503 894.627 974.516 893.32C973.556 892.013 973.05 890.44 972.996 888.6H980.276C980.383 889.64 980.743 890.44 981.356 891C981.97 891.533 982.77 891.8 983.756 891.8C984.77 891.8 985.57 891.573 986.156 891.12C986.743 890.64 987.036 889.987 987.036 889.16C987.036 888.467 986.796 887.893 986.316 887.44C985.863 886.987 985.29 886.613 984.596 886.32C983.93 886.027 982.97 885.693 981.716 885.32C979.903 884.76 978.423 884.2 977.276 883.64C976.13 883.08 975.143 882.253 974.316 881.16C973.49 880.067 973.076 878.64 973.076 876.88C973.076 874.267 974.023 872.227 975.916 870.76C977.81 869.267 980.276 868.52 983.316 868.52C986.41 868.52 988.903 869.267 990.796 870.76C992.69 872.227 993.703 874.28 993.836 876.92H986.436C986.383 876.013 986.05 875.307 985.436 874.8C984.823 874.267 984.036 874 983.076 874C982.25 874 981.583 874.227 981.076 874.68C980.57 875.107 980.316 875.733 980.316 876.56C980.316 877.467 980.743 878.173 981.596 878.68C982.45 879.187 983.783 879.733 985.596 880.32C987.41 880.933 988.876 881.52 989.996 882.08C991.143 882.64 992.13 883.453 992.956 884.52C993.783 885.587 994.196 886.96 994.196 888.64C994.196 890.24 993.783 891.693 992.956 893C992.156 894.307 990.983 895.347 989.436 896.12C987.89 896.893 986.063 897.28 983.956 897.28Z" fill="#40392A"/>
<path d="M975.386 639.8C974.879 638.867 974.146 638.16 973.186 637.68C972.252 637.173 971.146 636.92 969.866 636.92C967.652 636.92 965.879 637.653 964.546 639.12C963.212 640.56 962.546 642.493 962.546 644.92C962.546 647.507 963.239 649.533 964.626 651C966.039 652.44 967.972 653.16 970.426 653.16C972.106 653.16 973.519 652.733 974.666 651.88C975.839 651.027 976.692 649.8 977.226 648.2H968.546V643.16H983.426V649.52C982.919 651.227 982.052 652.813 980.826 654.28C979.626 655.747 978.092 656.933 976.226 657.84C974.359 658.747 972.252 659.2 969.906 659.2C967.132 659.2 964.652 658.6 962.466 657.4C960.306 656.173 958.612 654.48 957.386 652.32C956.186 650.16 955.586 647.693 955.586 644.92C955.586 642.147 956.186 639.68 957.386 637.52C958.612 635.333 960.306 633.64 962.466 632.44C964.626 631.213 967.092 630.6 969.866 630.6C973.226 630.6 976.052 631.413 978.346 633.04C980.666 634.667 982.199 636.92 982.946 639.8H975.386ZM1016.69 654.04H1006.21L1004.53 659H997.374L1007.53 630.92H1015.45L1025.61 659H1018.37L1016.69 654.04ZM1014.93 648.76L1011.45 638.48L1008.01 648.76H1014.93ZM1050.87 659.28C1048.81 659.28 1046.97 658.947 1045.35 658.28C1043.72 657.613 1042.41 656.627 1041.43 655.32C1040.47 654.013 1039.96 652.44 1039.91 650.6H1047.19C1047.29 651.64 1047.65 652.44 1048.27 653C1048.88 653.533 1049.68 653.8 1050.67 653.8C1051.68 653.8 1052.48 653.573 1053.07 653.12C1053.65 652.64 1053.95 651.987 1053.95 651.16C1053.95 650.467 1053.71 649.893 1053.23 649.44C1052.77 648.987 1052.2 648.613 1051.51 648.32C1050.84 648.027 1049.88 647.693 1048.63 647.32C1046.81 646.76 1045.33 646.2 1044.19 645.64C1043.04 645.08 1042.05 644.253 1041.23 643.16C1040.4 642.067 1039.99 640.64 1039.99 638.88C1039.99 636.267 1040.93 634.227 1042.83 632.76C1044.72 631.267 1047.19 630.52 1050.23 630.52C1053.32 630.52 1055.81 631.267 1057.71 632.76C1059.6 634.227 1060.61 636.28 1060.75 638.92H1053.35C1053.29 638.013 1052.96 637.307 1052.35 636.8C1051.73 636.267 1050.95 636 1049.99 636C1049.16 636 1048.49 636.227 1047.99 636.68C1047.48 637.107 1047.23 637.733 1047.23 638.56C1047.23 639.467 1047.65 640.173 1048.51 640.68C1049.36 641.187 1050.69 641.733 1052.51 642.32C1054.32 642.933 1055.79 643.52 1056.91 644.08C1058.05 644.64 1059.04 645.453 1059.87 646.52C1060.69 647.587 1061.11 648.96 1061.11 650.64C1061.11 652.24 1060.69 653.693 1059.87 655C1059.07 656.307 1057.89 657.347 1056.35 658.12C1054.8 658.893 1052.97 659.28 1050.87 659.28ZM1084.16 636.4V642.08H1093.32V647.36H1084.16V653.52H1094.52V659H1077.32V630.92H1094.52V636.4H1084.16ZM1124.24 659.28C1121.6 659.28 1119.17 658.667 1116.96 657.44C1114.77 656.213 1113.02 654.507 1111.72 652.32C1110.44 650.107 1109.8 647.627 1109.8 644.88C1109.8 642.133 1110.44 639.667 1111.72 637.48C1113.02 635.293 1114.77 633.587 1116.96 632.36C1119.17 631.133 1121.6 630.52 1124.24 630.52C1126.88 630.52 1129.29 631.133 1131.48 632.36C1133.69 633.587 1135.42 635.293 1136.68 637.48C1137.96 639.667 1138.6 642.133 1138.6 644.88C1138.6 647.627 1137.96 650.107 1136.68 652.32C1135.4 654.507 1133.66 656.213 1131.48 657.44C1129.29 658.667 1126.88 659.28 1124.24 659.28ZM1124.24 653.04C1126.48 653.04 1128.26 652.293 1129.6 650.8C1130.96 649.307 1131.64 647.333 1131.64 644.88C1131.64 642.4 1130.96 640.427 1129.6 638.96C1128.26 637.467 1126.48 636.72 1124.24 636.72C1121.97 636.72 1120.16 637.453 1118.8 638.92C1117.46 640.387 1116.8 642.373 1116.8 644.88C1116.8 647.36 1117.46 649.347 1118.8 650.84C1120.16 652.307 1121.97 653.04 1124.24 653.04ZM1161.12 630.92V647.72C1161.12 649.4 1161.54 650.693 1162.36 651.6C1163.19 652.507 1164.4 652.96 1166 652.96C1167.6 652.96 1168.83 652.507 1169.68 651.6C1170.54 650.693 1170.96 649.4 1170.96 647.72V630.92H1177.8V647.68C1177.8 650.187 1177.27 652.307 1176.2 654.04C1175.14 655.773 1173.7 657.08 1171.88 657.96C1170.1 658.84 1168.1 659.28 1165.88 659.28C1163.67 659.28 1161.68 658.853 1159.92 658C1158.19 657.12 1156.82 655.813 1155.8 654.08C1154.79 652.32 1154.28 650.187 1154.28 647.68V630.92H1161.12ZM1204.77 659.28C1202.71 659.28 1200.87 658.947 1199.25 658.28C1197.62 657.613 1196.31 656.627 1195.33 655.32C1194.37 654.013 1193.86 652.44 1193.81 650.6H1201.09C1201.19 651.64 1201.55 652.44 1202.17 653C1202.78 653.533 1203.58 653.8 1204.57 653.8C1205.58 653.8 1206.38 653.573 1206.97 653.12C1207.55 652.64 1207.85 651.987 1207.85 651.16C1207.85 650.467 1207.61 649.893 1207.13 649.44C1206.67 648.987 1206.1 648.613 1205.41 648.32C1204.74 648.027 1203.78 647.693 1202.53 647.32C1200.71 646.76 1199.23 646.2 1198.09 645.64C1196.94 645.08 1195.95 644.253 1195.13 643.16C1194.3 642.067 1193.89 640.64 1193.89 638.88C1193.89 636.267 1194.83 634.227 1196.73 632.76C1198.62 631.267 1201.09 630.52 1204.13 630.52C1207.22 630.52 1209.71 631.267 1211.61 632.76C1213.5 634.227 1214.51 636.28 1214.65 638.92H1207.25C1207.19 638.013 1206.86 637.307 1206.25 636.8C1205.63 636.267 1204.85 636 1203.88 636C1203.06 636 1202.39 636.227 1201.89 636.68C1201.38 637.107 1201.13 637.733 1201.13 638.56C1201.13 639.467 1201.55 640.173 1202.4 640.68C1203.26 641.187 1204.59 641.733 1206.41 642.32C1208.22 642.933 1209.69 643.52 1210.81 644.08C1211.95 644.64 1212.94 645.453 1213.77 646.52C1214.59 647.587 1215.01 648.96 1215.01 650.64C1215.01 652.24 1214.59 653.693 1213.77 655C1212.97 656.307 1211.79 657.347 1210.25 658.12C1208.7 658.893 1206.87 659.28 1204.77 659.28ZM963.859 675.92V704H957.019V692.44H946.379V704H939.539V675.92H946.379V686.92H957.019V675.92H963.859ZM1004.88 675.92L995.156 694.72V704H988.316V694.72L978.596 675.92H986.356L991.796 687.68L997.196 675.92H1004.88ZM1030.15 675.92C1033.11 675.92 1035.7 676.507 1037.91 677.68C1040.13 678.853 1041.83 680.507 1043.03 682.64C1044.26 684.747 1044.87 687.187 1044.87 689.96C1044.87 692.707 1044.26 695.147 1043.03 697.28C1041.83 699.413 1040.11 701.067 1037.87 702.24C1035.66 703.413 1033.09 704 1030.15 704H1019.63V675.92H1030.15ZM1029.71 698.08C1032.3 698.08 1034.31 697.373 1035.75 695.96C1037.19 694.547 1037.91 692.547 1037.91 689.96C1037.91 687.373 1037.19 685.36 1035.75 683.92C1034.31 682.48 1032.3 681.76 1029.71 681.76H1026.47V698.08H1029.71ZM1075.01 704L1069.17 693.4H1067.53V704H1060.69V675.92H1072.17C1074.39 675.92 1076.27 676.307 1077.81 677.08C1079.39 677.853 1080.56 678.92 1081.33 680.28C1082.11 681.613 1082.49 683.107 1082.49 684.76C1082.49 686.627 1081.96 688.293 1080.89 689.76C1079.85 691.227 1078.31 692.267 1076.25 692.88L1082.73 704H1075.01ZM1067.53 688.56H1071.77C1073.03 688.56 1073.96 688.253 1074.57 687.64C1075.21 687.027 1075.53 686.16 1075.53 685.04C1075.53 683.973 1075.21 683.133 1074.57 682.52C1073.96 681.907 1073.03 681.6 1071.77 681.6H1067.53V688.56ZM1112.07 704.28C1109.43 704.28 1107 703.667 1104.79 702.44C1102.6 701.213 1100.86 699.507 1099.55 697.32C1098.27 695.107 1097.63 692.627 1097.63 689.88C1097.63 687.133 1098.27 684.667 1099.55 682.48C1100.86 680.293 1102.6 678.587 1104.79 677.36C1107 676.133 1109.43 675.52 1112.07 675.52C1114.71 675.52 1117.12 676.133 1119.31 677.36C1121.52 678.587 1123.26 680.293 1124.51 682.48C1125.79 684.667 1126.43 687.133 1126.43 689.88C1126.43 692.627 1125.79 695.107 1124.51 697.32C1123.23 699.507 1121.5 701.213 1119.31 702.44C1117.12 703.667 1114.71 704.28 1112.07 704.28ZM1112.07 698.04C1114.31 698.04 1116.1 697.293 1117.43 695.8C1118.79 694.307 1119.47 692.333 1119.47 689.88C1119.47 687.4 1118.79 685.427 1117.43 683.96C1116.1 682.467 1114.31 681.72 1112.07 681.72C1109.8 681.72 1107.99 682.453 1106.63 683.92C1105.3 685.387 1104.63 687.373 1104.63 689.88C1104.63 692.36 1105.3 694.347 1106.63 695.84C1107.99 697.307 1109.8 698.04 1112.07 698.04ZM1160.87 684.8C1160.37 683.867 1159.63 683.16 1158.67 682.68C1157.74 682.173 1156.63 681.92 1155.35 681.92C1153.14 681.92 1151.37 682.653 1150.03 684.12C1148.7 685.56 1148.03 687.493 1148.03 689.92C1148.03 692.507 1148.73 694.533 1150.11 696C1151.53 697.44 1153.46 698.16 1155.91 698.16C1157.59 698.16 1159.01 697.733 1160.15 696.88C1161.33 696.027 1162.18 694.8 1162.71 693.2H1154.03V688.16H1168.91V694.52C1168.41 696.227 1167.54 697.813 1166.31 699.28C1165.11 700.747 1163.58 701.933 1161.71 702.84C1159.85 703.747 1157.74 704.2 1155.39 704.2C1152.62 704.2 1150.14 703.6 1147.95 702.4C1145.79 701.173 1144.1 699.48 1142.87 697.32C1141.67 695.16 1141.07 692.693 1141.07 689.92C1141.07 687.147 1141.67 684.68 1142.87 682.52C1144.1 680.333 1145.79 678.64 1147.95 677.44C1150.11 676.213 1152.58 675.6 1155.35 675.6C1158.71 675.6 1161.54 676.413 1163.83 678.04C1166.15 679.667 1167.69 681.92 1168.43 684.8H1160.87ZM1191.54 681.4V687.08H1200.7V692.36H1191.54V698.52H1201.9V704H1184.7V675.92H1201.9V681.4H1191.54ZM1243.46 704H1236.62L1225.18 686.68V704H1218.34V675.92H1225.18L1236.62 693.32V675.92H1243.46V704Z" fill="#61563F"/>
<path d="M873.496 167.92C873.496 165.147 874.096 162.68 875.296 160.52C876.496 158.333 878.162 156.64 880.296 155.44C882.456 154.213 884.896 153.6 887.616 153.6C890.949 153.6 893.802 154.48 896.176 156.24C898.549 158 900.136 160.4 900.936 163.44H893.416C892.856 162.267 892.056 161.373 891.016 160.76C890.002 160.147 888.842 159.84 887.536 159.84C885.429 159.84 883.722 160.573 882.416 162.04C881.109 163.507 880.456 165.467 880.456 167.92C880.456 170.373 881.109 172.333 882.416 173.8C883.722 175.267 885.429 176 887.536 176C888.842 176 890.002 175.693 891.016 175.08C892.056 174.467 892.856 173.573 893.416 172.4H900.936C900.136 175.44 898.549 177.84 896.176 179.6C893.802 181.333 890.949 182.2 887.616 182.2C884.896 182.2 882.456 181.6 880.296 180.4C878.162 179.173 876.496 177.48 875.296 175.32C874.096 173.16 873.496 170.693 873.496 167.92ZM930.405 182.28C927.765 182.28 925.338 181.667 923.125 180.44C920.938 179.213 919.191 177.507 917.885 175.32C916.605 173.107 915.965 170.627 915.965 167.88C915.965 165.133 916.605 162.667 917.885 160.48C919.191 158.293 920.938 156.587 923.125 155.36C925.338 154.133 927.765 153.52 930.405 153.52C933.045 153.52 935.458 154.133 937.645 155.36C939.858 156.587 941.591 158.293 942.845 160.48C944.125 162.667 944.765 165.133 944.765 167.88C944.765 170.627 944.125 173.107 942.845 175.32C941.565 177.507 939.831 179.213 937.645 180.44C935.458 181.667 933.045 182.28 930.405 182.28ZM930.405 176.04C932.645 176.04 934.431 175.293 935.765 173.8C937.125 172.307 937.805 170.333 937.805 167.88C937.805 165.4 937.125 163.427 935.765 161.96C934.431 160.467 932.645 159.72 930.405 159.72C928.138 159.72 926.325 160.453 924.965 161.92C923.631 163.387 922.965 165.373 922.965 167.88C922.965 170.36 923.631 172.347 924.965 173.84C926.325 175.307 928.138 176.04 930.405 176.04ZM974.89 182L969.05 171.4H967.41V182H960.57V153.92H972.05C974.263 153.92 976.143 154.307 977.69 155.08C979.263 155.853 980.437 156.92 981.21 158.28C981.983 159.613 982.37 161.107 982.37 162.76C982.37 164.627 981.837 166.293 980.77 167.76C979.73 169.227 978.183 170.267 976.13 170.88L982.61 182H974.89ZM967.41 166.56H971.65C972.903 166.56 973.837 166.253 974.45 165.64C975.09 165.027 975.41 164.16 975.41 163.04C975.41 161.973 975.09 161.133 974.45 160.52C973.837 159.907 972.903 159.6 971.65 159.6H967.41V166.56ZM1005.5 159.4V165.08H1014.66V170.36H1005.5V176.52H1015.86V182H998.664V153.92H1015.86V159.4H1005.5Z" fill="#D9D2C3"/>
<path d="M1009.34 279.92V308H1002.5V291.16L996.223 308H990.703L984.383 291.12V308H977.543V279.92H985.622L993.503 299.36L1001.3 279.92H1009.34ZM1033.1 285.4V291.08H1042.26V296.36H1033.1V302.52H1043.46V308H1026.26V279.92H1043.46V285.4H1033.1ZM1080.1 279.92V285.4H1072.66V308H1065.82V285.4H1058.38V279.92H1080.1ZM1113.01 303.04H1102.53L1100.85 308H1093.69L1103.85 279.92H1111.77L1121.93 308H1114.69L1113.01 303.04ZM1111.25 297.76L1107.77 287.48L1104.33 297.76H1111.25ZM1143.87 302.72H1152.83V308H1137.03V279.92H1143.87V302.72ZM1174.93 302.72H1183.89V308H1168.09V279.92H1174.93V302.72ZM1205.99 279.92V308H1199.15V279.92H1205.99ZM1221.79 293.92C1221.79 291.147 1222.39 288.68 1223.59 286.52C1224.79 284.333 1226.46 282.64 1228.59 281.44C1230.75 280.213 1233.19 279.6 1235.91 279.6C1239.24 279.6 1242.1 280.48 1244.47 282.24C1246.84 284 1248.43 286.4 1249.23 289.44H1241.71C1241.15 288.267 1240.35 287.373 1239.31 286.76C1238.3 286.147 1237.14 285.84 1235.83 285.84C1233.72 285.84 1232.02 286.573 1230.71 288.04C1229.4 289.507 1228.75 291.467 1228.75 293.92C1228.75 296.373 1229.4 298.333 1230.71 299.8C1232.02 301.267 1233.72 302 1235.83 302C1237.14 302 1238.3 301.693 1239.31 301.08C1240.35 300.467 1241.15 299.573 1241.71 298.4H1249.23C1248.43 301.44 1246.84 303.84 1244.47 305.6C1242.1 307.333 1239.24 308.2 1235.91 308.2C1233.19 308.2 1230.75 307.6 1228.59 306.4C1226.46 305.173 1224.79 303.48 1223.59 301.32C1222.39 299.16 1221.79 296.693 1221.79 293.92ZM991.359 324.92V353H984.519V341.44H973.879V353H967.039V324.92H973.879V335.92H984.519V324.92H991.359ZM1032.38 324.92L1022.66 343.72V353H1015.82V343.72L1006.1 324.92H1013.86L1019.3 336.68L1024.7 324.92H1032.38ZM1057.65 324.92C1060.61 324.92 1063.2 325.507 1065.41 326.68C1067.63 327.853 1069.33 329.507 1070.53 331.64C1071.76 333.747 1072.37 336.187 1072.37 338.96C1072.37 341.707 1071.76 344.147 1070.53 346.28C1069.33 348.413 1067.61 350.067 1065.37 351.24C1063.16 352.413 1060.59 353 1057.65 353H1047.13V324.92H1057.65ZM1057.21 347.08C1059.8 347.08 1061.81 346.373 1063.25 344.96C1064.69 343.547 1065.41 341.547 1065.41 338.96C1065.41 336.373 1064.69 334.36 1063.25 332.92C1061.81 331.48 1059.8 330.76 1057.21 330.76H1053.97V347.08H1057.21ZM1102.51 353L1096.67 342.4H1095.03V353H1088.19V324.92H1099.67C1101.89 324.92 1103.77 325.307 1105.31 326.08C1106.89 326.853 1108.06 327.92 1108.83 329.28C1109.61 330.613 1109.99 332.107 1109.99 333.76C1109.99 335.627 1109.46 337.293 1108.39 338.76C1107.35 340.227 1105.81 341.267 1103.75 341.88L1110.23 353H1102.51ZM1095.03 337.56H1099.27C1100.53 337.56 1101.46 337.253 1102.07 336.64C1102.71 336.027 1103.03 335.16 1103.03 334.04C1103.03 332.973 1102.71 332.133 1102.07 331.52C1101.46 330.907 1100.53 330.6 1099.27 330.6H1095.03V337.56ZM1139.57 353.28C1136.93 353.28 1134.5 352.667 1132.29 351.44C1130.1 350.213 1128.36 348.507 1127.05 346.32C1125.77 344.107 1125.13 341.627 1125.13 338.88C1125.13 336.133 1125.77 333.667 1127.05 331.48C1128.36 329.293 1130.1 327.587 1132.29 326.36C1134.5 325.133 1136.93 324.52 1139.57 324.52C1142.21 324.52 1144.62 325.133 1146.81 326.36C1149.02 327.587 1150.76 329.293 1152.01 331.48C1153.29 333.667 1153.93 336.133 1153.93 338.88C1153.93 341.627 1153.29 344.107 1152.01 346.32C1150.73 348.507 1149 350.213 1146.81 351.44C1144.62 352.667 1142.21 353.28 1139.57 353.28ZM1139.57 347.04C1141.81 347.04 1143.6 346.293 1144.93 344.8C1146.29 343.307 1146.97 341.333 1146.97 338.88C1146.97 336.4 1146.29 334.427 1144.93 332.96C1143.6 331.467 1141.81 330.72 1139.57 330.72C1137.3 330.72 1135.49 331.453 1134.13 332.92C1132.8 334.387 1132.13 336.373 1132.13 338.88C1132.13 341.36 1132.8 343.347 1134.13 344.84C1135.49 346.307 1137.3 347.04 1139.57 347.04ZM1188.37 333.8C1187.87 332.867 1187.13 332.16 1186.17 331.68C1185.24 331.173 1184.13 330.92 1182.85 330.92C1180.64 330.92 1178.87 331.653 1177.53 333.12C1176.2 334.56 1175.53 336.493 1175.53 338.92C1175.53 341.507 1176.23 343.533 1177.61 345C1179.03 346.44 1180.96 347.16 1183.41 347.16C1185.09 347.16 1186.51 346.733 1187.65 345.88C1188.83 345.027 1189.68 343.8 1190.21 342.2H1181.53V337.16H1196.41V343.52C1195.91 345.227 1195.04 346.813 1193.81 348.28C1192.61 349.747 1191.08 350.933 1189.21 351.84C1187.35 352.747 1185.24 353.2 1182.89 353.2C1180.12 353.2 1177.64 352.6 1175.45 351.4C1173.29 350.173 1171.6 348.48 1170.37 346.32C1169.17 344.16 1168.57 341.693 1168.57 338.92C1168.57 336.147 1169.17 333.68 1170.37 331.52C1171.6 329.333 1173.29 327.64 1175.45 326.44C1177.61 325.213 1180.08 324.6 1182.85 324.6C1186.21 324.6 1189.04 325.413 1191.33 327.04C1193.65 328.667 1195.19 330.92 1195.93 333.8H1188.37ZM1219.04 330.4V336.08H1228.2V341.36H1219.04V347.52H1229.4V353H1212.2V324.92H1229.4V330.4H1219.04ZM1270.96 353H1264.12L1252.68 335.68V353H1245.84V324.92H1252.68L1264.12 342.32V324.92H1270.96V353Z" fill="#A18F69"/>
<path d="M1017.6 485.72H1026.56V491H1010.76V462.92H1017.6V485.72ZM1048.66 462.92V491H1041.82V462.92H1048.66ZM1085.62 495.8L1082.02 490.96C1080.95 491.173 1079.91 491.28 1078.9 491.28C1076.26 491.28 1073.83 490.667 1071.62 489.44C1069.43 488.213 1067.68 486.507 1066.38 484.32C1065.1 482.107 1064.46 479.627 1064.46 476.88C1064.46 474.133 1065.1 471.667 1066.38 469.48C1067.68 467.293 1069.43 465.587 1071.62 464.36C1073.83 463.133 1076.26 462.52 1078.9 462.52C1081.54 462.52 1083.95 463.133 1086.14 464.36C1088.35 465.587 1090.08 467.293 1091.34 469.48C1092.62 471.667 1093.26 474.133 1093.26 476.88C1093.26 479.28 1092.76 481.48 1091.78 483.48C1090.82 485.453 1089.47 487.093 1087.74 488.4L1093.9 495.8H1085.62ZM1071.46 476.88C1071.46 479.36 1072.12 481.347 1073.46 482.84C1074.82 484.307 1076.63 485.04 1078.9 485.04C1081.14 485.04 1082.92 484.293 1084.26 482.8C1085.62 481.307 1086.3 479.333 1086.3 476.88C1086.3 474.4 1085.62 472.427 1084.26 470.96C1082.92 469.467 1081.14 468.72 1078.9 468.72C1076.63 468.72 1074.82 469.453 1073.46 470.92C1072.12 472.387 1071.46 474.373 1071.46 476.88ZM1115.86 462.92V479.72C1115.86 481.4 1116.27 482.693 1117.1 483.6C1117.93 484.507 1119.14 484.96 1120.74 484.96C1122.34 484.96 1123.57 484.507 1124.42 483.6C1125.27 482.693 1125.7 481.4 1125.7 479.72V462.92H1132.54V479.68C1132.54 482.187 1132.01 484.307 1130.94 486.04C1129.87 487.773 1128.43 489.08 1126.62 489.96C1124.83 490.84 1122.83 491.28 1120.62 491.28C1118.41 491.28 1116.42 490.853 1114.66 490C1112.93 489.12 1111.55 487.813 1110.54 486.08C1109.53 484.32 1109.02 482.187 1109.02 479.68V462.92H1115.86ZM1156.18 462.92V491H1149.34V462.92H1156.18ZM1183.66 462.92C1186.62 462.92 1189.21 463.507 1191.42 464.68C1193.63 465.853 1195.34 467.507 1196.54 469.64C1197.77 471.747 1198.38 474.187 1198.38 476.96C1198.38 479.707 1197.77 482.147 1196.54 484.28C1195.34 486.413 1193.62 488.067 1191.38 489.24C1189.17 490.413 1186.59 491 1183.66 491H1173.14V462.92H1183.66ZM1183.22 485.08C1185.81 485.08 1187.82 484.373 1189.26 482.96C1190.7 481.547 1191.42 479.547 1191.42 476.96C1191.42 474.373 1190.7 472.36 1189.26 470.92C1187.82 469.48 1185.81 468.76 1183.22 468.76H1179.98V485.08H1183.22ZM982.359 507.92V536H975.519V524.44H964.879V536H958.039V507.92H964.879V518.92H975.519V507.92H982.359ZM1023.38 507.92L1013.66 526.72V536H1006.82V526.72L997.096 507.92H1004.86L1010.3 519.68L1015.7 507.92H1023.38ZM1048.65 507.92C1051.61 507.92 1054.2 508.507 1056.41 509.68C1058.63 510.853 1060.33 512.507 1061.53 514.64C1062.76 516.747 1063.37 519.187 1063.37 521.96C1063.37 524.707 1062.76 527.147 1061.53 529.28C1060.33 531.413 1058.61 533.067 1056.37 534.24C1054.16 535.413 1051.59 536 1048.65 536H1038.13V507.92H1048.65ZM1048.21 530.08C1050.8 530.08 1052.81 529.373 1054.25 527.96C1055.69 526.547 1056.41 524.547 1056.41 521.96C1056.41 519.373 1055.69 517.36 1054.25 515.92C1052.81 514.48 1050.8 513.76 1048.21 513.76H1044.97V530.08H1048.21ZM1093.51 536L1087.67 525.4H1086.03V536H1079.19V507.92H1090.67C1092.89 507.92 1094.77 508.307 1096.31 509.08C1097.89 509.853 1099.06 510.92 1099.83 512.28C1100.61 513.613 1100.99 515.107 1100.99 516.76C1100.99 518.627 1100.46 520.293 1099.39 521.76C1098.35 523.227 1096.81 524.267 1094.75 524.88L1101.23 536H1093.51ZM1086.03 520.56H1090.27C1091.53 520.56 1092.46 520.253 1093.07 519.64C1093.71 519.027 1094.03 518.16 1094.03 517.04C1094.03 515.973 1093.71 515.133 1093.07 514.52C1092.46 513.907 1091.53 513.6 1090.27 513.6H1086.03V520.56ZM1130.57 536.28C1127.93 536.28 1125.5 535.667 1123.29 534.44C1121.1 533.213 1119.36 531.507 1118.05 529.32C1116.77 527.107 1116.13 524.627 1116.13 521.88C1116.13 519.133 1116.77 516.667 1118.05 514.48C1119.36 512.293 1121.1 510.587 1123.29 509.36C1125.5 508.133 1127.93 507.52 1130.57 507.52C1133.21 507.52 1135.62 508.133 1137.81 509.36C1140.02 510.587 1141.76 512.293 1143.01 514.48C1144.29 516.667 1144.93 519.133 1144.93 521.88C1144.93 524.627 1144.29 527.107 1143.01 529.32C1141.73 531.507 1140 533.213 1137.81 534.44C1135.62 535.667 1133.21 536.28 1130.57 536.28ZM1130.57 530.04C1132.81 530.04 1134.6 529.293 1135.93 527.8C1137.29 526.307 1137.97 524.333 1137.97 521.88C1137.97 519.4 1137.29 517.427 1135.93 515.96C1134.6 514.467 1132.81 513.72 1130.57 513.72C1128.3 513.72 1126.49 514.453 1125.13 515.92C1123.8 517.387 1123.13 519.373 1123.13 521.88C1123.13 524.36 1123.8 526.347 1125.13 527.84C1126.49 529.307 1128.3 530.04 1130.57 530.04ZM1179.37 516.8C1178.87 515.867 1178.13 515.16 1177.17 514.68C1176.24 514.173 1175.13 513.92 1173.85 513.92C1171.64 513.92 1169.87 514.653 1168.53 516.12C1167.2 517.56 1166.53 519.493 1166.53 521.92C1166.53 524.507 1167.23 526.533 1168.61 528C1170.03 529.44 1171.96 530.16 1174.41 530.16C1176.09 530.16 1177.51 529.733 1178.65 528.88C1179.83 528.027 1180.68 526.8 1181.21 525.2H1172.53V520.16H1187.41V526.52C1186.91 528.227 1186.04 529.813 1184.81 531.28C1183.61 532.747 1182.08 533.933 1180.21 534.84C1178.35 535.747 1176.24 536.2 1173.89 536.2C1171.12 536.2 1168.64 535.6 1166.45 534.4C1164.29 533.173 1162.6 531.48 1161.37 529.32C1160.17 527.16 1159.57 524.693 1159.57 521.92C1159.57 519.147 1160.17 516.68 1161.37 514.52C1162.6 512.333 1164.29 510.64 1166.45 509.44C1168.61 508.213 1171.08 507.6 1173.85 507.6C1177.21 507.6 1180.04 508.413 1182.33 510.04C1184.65 511.667 1186.19 513.92 1186.93 516.8H1179.37ZM1210.04 513.4V519.08H1219.2V524.36H1210.04V530.52H1220.4V536H1203.2V507.92H1220.4V513.4H1210.04ZM1261.96 536H1255.12L1243.68 518.68V536H1236.84V507.92H1243.68L1255.12 525.32V507.92H1261.96V536Z" fill="#B4A587"/>
<g filter="url(#filter5_d_68_106)">
<path d="M695.695 801.531C694.884 801.7 694.363 802.494 694.531 803.305L697.275 816.523C697.443 817.334 698.237 817.855 699.048 817.687C699.859 817.519 700.38 816.725 700.212 815.913L697.774 804.164L709.523 801.725C710.334 801.557 710.855 800.763 710.687 799.952C710.519 799.141 709.725 798.62 708.913 798.788L695.695 801.531ZM760.823 843.746L696.823 801.746L695.177 804.254L759.177 846.254L760.823 843.746Z" fill="#40392A"/>
</g>
<g filter="url(#filter6_d_68_106)">
<path d="M819.303 623.672C818.57 624.056 818.287 624.963 818.672 625.697L824.942 637.652C825.327 638.386 826.233 638.669 826.967 638.284C827.701 637.899 827.984 636.992 827.599 636.259L822.025 625.632L832.652 620.058C833.386 619.673 833.669 618.767 833.284 618.033C832.899 617.299 831.992 617.016 831.259 617.401L819.303 623.672ZM929.447 657.568L820.447 623.568L819.553 626.432L928.553 660.432L929.447 657.568Z" fill="#61563F"/>
</g>
<g filter="url(#filter7_d_68_106)">
<path d="M791.974 486.906C791.37 487.473 791.339 488.422 791.906 489.026L801.143 498.871C801.71 499.475 802.659 499.506 803.264 498.939C803.868 498.372 803.898 497.423 803.331 496.819L795.12 488.068L803.871 479.857C804.475 479.29 804.506 478.341 803.939 477.736C803.372 477.132 802.423 477.102 801.819 477.669L791.974 486.906ZM950.048 491.501L793.048 486.501L792.952 489.499L949.952 494.499L950.048 491.501Z" fill="#B4A587"/>
</g>
<g filter="url(#filter8_d_68_106)">
<path d="M765.729 357.203C765.289 357.905 765.501 358.831 766.203 359.271L777.643 366.44C778.345 366.88 779.271 366.667 779.71 365.965C780.15 365.263 779.938 364.338 779.236 363.898L769.068 357.525L775.44 347.357C775.88 346.655 775.667 345.729 774.965 345.29C774.263 344.85 773.338 345.062 772.898 345.764L765.729 357.203ZM949.664 314.538L766.664 356.538L767.336 359.462L950.336 317.462L949.664 314.538Z" fill="#A18F69"/>
</g>
<g filter="url(#filter9_d_68_106)">
<path d="M490.537 398.669C490.354 399.477 490.861 400.28 491.669 400.463L504.837 403.441C505.645 403.623 506.448 403.116 506.631 402.308C506.813 401.5 506.306 400.697 505.498 400.515L493.794 397.868L496.441 386.163C496.623 385.355 496.116 384.552 495.308 384.369C494.5 384.187 493.697 384.694 493.515 385.502L490.537 398.669ZM857.199 166.732L491.199 397.732L492.801 400.268L858.801 169.268L857.199 166.732Z" fill="#D9D2C3"/>
</g>
<defs>
<filter id="filter0_d_68_106" x="0" y="0" width="883" height="889" filterUnits="userSpaceOnUse" color-interpolation-filters="sRGB">
<feFlood flood-opacity="0" result="BackgroundImageFix"/>
<feColorMatrix in="SourceAlpha" type="matrix" values="0 0 0 0 0 0 0 0 0 0 0 0 0 0 0 0 0 0 127 0" result="hardAlpha"/>
<feOffset dy="10"/>
<feGaussianBlur stdDeviation="2"/>
<feComposite in2="hardAlpha" operator="out"/>
<feColorMatrix type="matrix" values="0 0 0 0 0 0 0 0 0 0 0 0 0 0 0 0 0 0 0.25 0"/>
<feBlend mode="normal" in2="BackgroundImageFix" result="effect1_dropShadow_68_106"/>
<feBlend mode="normal" in="SourceGraphic" in2="effect1_dropShadow_68_106" result="shape"/>
</filter>
<filter id="filter1_d_68_106" x="25" y="25" width="833" height="839" filterUnits="userSpaceOnUse" color-interpolation-filters="sRGB">
<feFlood flood-opacity="0" result="BackgroundImageFix"/>
<feColorMatrix in="SourceAlpha" type="matrix" values="0 0 0 0 0 0 0 0 0 0 0 0 0 0 0 0 0 0 127 0" result="hardAlpha"/>
<feOffset dy="10"/>
<feGaussianBlur stdDeviation="2"/>
<feComposite in2="hardAlpha" operator="out"/>
<feColorMatrix type="matrix" values="0 0 0 0 0 0 0 0 0 0 0 0 0 0 0 0 0 0 0.25 0"/>
<feBlend mode="normal" in2="BackgroundImageFix" result="effect1_dropShadow_68_106"/>
<feBlend mode="normal" in="SourceGraphic" in2="effect1_dropShadow_68_106" result="shape"/>
</filter>
<filter id="filter2_d_68_106" x="88" y="88" width="708" height="714" filterUnits="userSpaceOnUse" color-interpolation-filters="sRGB">
<feFlood flood-opacity="0" result="BackgroundImageFix"/>
<feColorMatrix in="SourceAlpha" type="matrix" values="0 0 0 0 0 0 0 0 0 0 0 0 0 0 0 0 0 0 127 0" result="hardAlpha"/>
<feOffset dy="10"/>
<feGaussianBlur stdDeviation="2"/>
<feComposite in2="hardAlpha" operator="out"/>
<feColorMatrix type="matrix" values="0 0 0 0 0 0 0 0 0 0 0 0 0 0 0 0 0 0 0.25 0"/>
<feBlend mode="normal" in2="BackgroundImageFix" result="effect1_dropShadow_68_106"/>
<feBlend mode="normal" in="SourceGraphic" in2="effect1_dropShadow_68_106" result="shape"/>
</filter>
<filter id="filter3_d_68_106" x="113" y="113" width="658" height="664" filterUnits="userSpaceOnUse" color-interpolation-filters="sRGB">
<feFlood flood-opacity="0" result="BackgroundImageFix"/>
<feColorMatrix in="SourceAlpha" type="matrix" values="0 0 0 0 0 0 0 0 0 0 0 0 0 0 0 0 0 0 127 0" result="hardAlpha"/>
<feOffset dy="10"/>
<feGaussianBlur stdDeviation="2"/>
<feComposite in2="hardAlpha" operator="out"/>
<feColorMatrix type="matrix" values="0 0 0 0 0 0 0 0 0 0 0 0 0 0 0 0 0 0 0.25 0"/>
<feBlend mode="normal" in2="BackgroundImageFix" result="effect1_dropShadow_68_106"/>
<feBlend mode="normal" in="SourceGraphic" in2="effect1_dropShadow_68_106" result="shape"/>
</filter>
<filter id="filter4_d_68_106" x="388" y="388" width="108" height="114" filterUnits="userSpaceOnUse" color-interpolation-filters="sRGB">
<feFlood flood-opacity="0" result="BackgroundImageFix"/>
<feColorMatrix in="SourceAlpha" type="matrix" values="0 0 0 0 0 0 0 0 0 0 0 0 0 0 0 0 0 0 127 0" result="hardAlpha"/>
<feOffset dy="10"/>
<feGaussianBlur stdDeviation="2"/>
<feComposite in2="hardAlpha" operator="out"/>
<feColorMatrix type="matrix" values="0 0 0 0 0 0 0 0 0 0 0 0 0 0 0 0 0 0 0.25 0"/>
<feBlend mode="normal" in2="BackgroundImageFix" result="effect1_dropShadow_68_106"/>
<feBlend mode="normal" in="SourceGraphic" in2="effect1_dropShadow_68_106" result="shape"/>
</filter>
<filter id="filter5_d_68_106" x="690.5" y="798.756" width="74.3232" height="55.4978" filterUnits="userSpaceOnUse" color-interpolation-filters="sRGB">
<feFlood flood-opacity="0" result="BackgroundImageFix"/>
<feColorMatrix in="SourceAlpha" type="matrix" values="0 0 0 0 0 0 0 0 0 0 0 0 0 0 0 0 0 0 127 0" result="hardAlpha"/>
<feOffset dy="4"/>
<feGaussianBlur stdDeviation="2"/>
<feComposite in2="hardAlpha" operator="out"/>
<feColorMatrix type="matrix" values="0 0 0 0 0 0 0 0 0 0 0 0 0 0 0 0 0 0 0.25 0"/>
<feBlend mode="normal" in2="BackgroundImageFix" result="effect1_dropShadow_68_106"/>
<feBlend mode="normal" in="SourceGraphic" in2="effect1_dropShadow_68_106" result="shape"/>
</filter>
<filter id="filter6_d_68_106" x="814.5" y="617.229" width="118.947" height="51.2026" filterUnits="userSpaceOnUse" color-interpolation-filters="sRGB">
<feFlood flood-opacity="0" result="BackgroundImageFix"/>
<feColorMatrix in="SourceAlpha" type="matrix" values="0 0 0 0 0 0 0 0 0 0 0 0 0 0 0 0 0 0 127 0" result="hardAlpha"/>
<feOffset dy="4"/>
<feGaussianBlur stdDeviation="2"/>
<feComposite in2="hardAlpha" operator="out"/>
<feColorMatrix type="matrix" values="0 0 0 0 0 0 0 0 0 0 0 0 0 0 0 0 0 0 0.25 0"/>
<feBlend mode="normal" in2="BackgroundImageFix" result="effect1_dropShadow_68_106"/>
<feBlend mode="normal" in="SourceGraphic" in2="effect1_dropShadow_68_106" result="shape"/>
</filter>
<filter id="filter7_d_68_106" x="787.5" y="477.263" width="166.548" height="30.0822" filterUnits="userSpaceOnUse" color-interpolation-filters="sRGB">
<feFlood flood-opacity="0" result="BackgroundImageFix"/>
<feColorMatrix in="SourceAlpha" type="matrix" values="0 0 0 0 0 0 0 0 0 0 0 0 0 0 0 0 0 0 127 0" result="hardAlpha"/>
<feOffset dy="4"/>
<feGaussianBlur stdDeviation="2"/>
<feComposite in2="hardAlpha" operator="out"/>
<feColorMatrix type="matrix" values="0 0 0 0 0 0 0 0 0 0 0 0 0 0 0 0 0 0 0.25 0"/>
<feBlend mode="normal" in2="BackgroundImageFix" result="effect1_dropShadow_68_106"/>
<feBlend mode="normal" in="SourceGraphic" in2="effect1_dropShadow_68_106" result="shape"/>
</filter>
<filter id="filter8_d_68_106" x="761.5" y="314.538" width="192.836" height="60.1309" filterUnits="userSpaceOnUse" color-interpolation-filters="sRGB">
<feFlood flood-opacity="0" result="BackgroundImageFix"/>
<feColorMatrix in="SourceAlpha" type="matrix" values="0 0 0 0 0 0 0 0 0 0 0 0 0 0 0 0 0 0 127 0" result="hardAlpha"/>
<feOffset dy="4"/>
<feGaussianBlur stdDeviation="2"/>
<feComposite in2="hardAlpha" operator="out"/>
<feColorMatrix type="matrix" values="0 0 0 0 0 0 0 0 0 0 0 0 0 0 0 0 0 0 0.25 0"/>
<feBlend mode="normal" in2="BackgroundImageFix" result="effect1_dropShadow_68_106"/>
<feBlend mode="normal" in="SourceGraphic" in2="effect1_dropShadow_68_106" result="shape"/>
</filter>
<filter id="filter9_d_68_106" x="486.5" y="166.732" width="376.301" height="244.746" filterUnits="userSpaceOnUse" color-interpolation-filters="sRGB">
<feFlood flood-opacity="0" result="BackgroundImageFix"/>
<feColorMatrix in="SourceAlpha" type="matrix" values="0 0 0 0 0 0 0 0 0 0 0 0 0 0 0 0 0 0 127 0" result="hardAlpha"/>
<feOffset dy="4"/>
<feGaussianBlur stdDeviation="2"/>
<feComposite in2="hardAlpha" operator="out"/>
<feColorMatrix type="matrix" values="0 0 0 0 0 0 0 0 0 0 0 0 0 0 0 0 0 0 0.25 0"/>
<feBlend mode="normal" in2="BackgroundImageFix" result="effect1_dropShadow_68_106"/>
<feBlend mode="normal" in="SourceGraphic" in2="effect1_dropShadow_68_106" result="shape"/>
</filter>
</defs>
</svg>
