<svg width="583" height="353" viewBox="0 0 583 353" fill="none" xmlns="http://www.w3.org/2000/svg">
<g clip-path="url(#clip0_51_29)">
<g filter="url(#filter0_d_51_29)">
<circle cx="150" cy="153" r="150" fill="#8B8B8B"/>
</g>
<g filter="url(#filter1_d_51_29)">
<circle cx="150.5" cy="153.5" r="137.5" fill="#DCDCDC"/>
</g>
<circle cx="150.5" cy="153.5" r="131" stroke="#535353" stroke-width="3" stroke-dasharray="10 10"/>
<g filter="url(#filter2_d_51_29)">
<circle cx="150" cy="153" r="115" fill="#FFFDFD"/>
</g>
<rect width="10" height="3" transform="translate(145 288)" fill="#535353"/>
<rect width="3" height="8" transform="translate(148.5 291)" fill="#535353"/>
<rect width="10" height="3" transform="translate(145 299)" fill="#535353"/>
</g>
<path d="M352.32 219.92C352.32 217.147 352.92 214.68 354.12 212.52C355.32 210.333 356.987 208.64 359.12 207.44C361.28 206.213 363.72 205.6 366.44 205.6C369.773 205.6 372.627 206.48 375 208.24C377.373 210 378.96 212.4 379.76 215.44H372.24C371.68 214.267 370.88 213.373 369.84 212.76C368.827 212.147 367.667 211.84 366.36 211.84C364.253 211.84 362.547 212.573 361.24 214.04C359.933 215.507 359.28 217.467 359.28 219.92C359.28 222.373 359.933 224.333 361.24 225.8C362.547 227.267 364.253 228 366.36 228C367.667 228 368.827 227.693 369.84 227.08C370.88 226.467 371.68 225.573 372.24 224.4H379.76C378.96 227.44 377.373 229.84 375 231.6C372.627 233.333 369.773 234.2 366.44 234.2C363.72 234.2 361.28 233.6 359.12 232.4C356.987 231.173 355.32 229.48 354.12 227.32C352.92 225.16 352.32 222.693 352.32 219.92ZM410.269 234L404.429 223.4H402.789V234H395.949V205.92H407.429C409.642 205.92 411.522 206.307 413.069 207.08C414.642 207.853 415.815 208.92 416.589 210.28C417.362 211.613 417.749 213.107 417.749 214.76C417.749 216.627 417.215 218.293 416.149 219.76C415.109 221.227 413.562 222.267 411.509 222.88L417.989 234H410.269ZM402.789 218.56H407.029C408.282 218.56 409.215 218.253 409.829 217.64C410.469 217.027 410.789 216.16 410.789 215.04C410.789 213.973 410.469 213.133 409.829 212.52C409.215 211.907 408.282 211.6 407.029 211.6H402.789V218.56ZM440.763 205.92V222.72C440.763 224.4 441.176 225.693 442.003 226.6C442.829 227.507 444.043 227.96 445.643 227.96C447.243 227.96 448.469 227.507 449.323 226.6C450.176 225.693 450.603 224.4 450.603 222.72V205.92H457.443V222.68C457.443 225.187 456.909 227.307 455.843 229.04C454.776 230.773 453.336 232.08 451.523 232.96C449.736 233.84 447.736 234.28 445.523 234.28C443.309 234.28 441.323 233.853 439.563 233C437.829 232.12 436.456 230.813 435.443 229.08C434.429 227.32 433.923 225.187 433.923 222.68V205.92H440.763ZM484.406 234.28C482.352 234.28 480.512 233.947 478.886 233.28C477.259 232.613 475.952 231.627 474.966 230.32C474.006 229.013 473.499 227.44 473.446 225.6H480.726C480.832 226.64 481.192 227.44 481.806 228C482.419 228.533 483.219 228.8 484.206 228.8C485.219 228.8 486.019 228.573 486.606 228.12C487.192 227.64 487.486 226.987 487.486 226.16C487.486 225.467 487.246 224.893 486.766 224.44C486.312 223.987 485.739 223.613 485.046 223.32C484.379 223.027 483.419 222.693 482.166 222.32C480.352 221.76 478.872 221.2 477.726 220.64C476.579 220.08 475.592 219.253 474.766 218.16C473.939 217.067 473.526 215.64 473.526 213.88C473.526 211.267 474.472 209.227 476.366 207.76C478.259 206.267 480.726 205.52 483.766 205.52C486.859 205.52 489.352 206.267 491.246 207.76C493.139 209.227 494.152 211.28 494.286 213.92H486.886C486.832 213.013 486.499 212.307 485.886 211.8C485.272 211.267 484.486 211 483.526 211C482.699 211 482.032 211.227 481.526 211.68C481.019 212.107 480.766 212.733 480.766 213.56C480.766 214.467 481.192 215.173 482.046 215.68C482.899 216.187 484.232 216.733 486.046 217.32C487.859 217.933 489.326 218.52 490.446 219.08C491.592 219.64 492.579 220.453 493.406 221.52C494.232 222.587 494.646 223.96 494.646 225.64C494.646 227.24 494.232 228.693 493.406 230C492.606 231.307 491.432 232.347 489.886 233.12C488.339 233.893 486.512 234.28 484.406 234.28ZM531.055 205.92V211.4H523.615V234H516.775V211.4H509.335V205.92H531.055Z" fill="#8B8B8B"/>
<path d="M159.621 339.72H168.581V345H152.781V316.92H159.621V339.72ZM190.683 316.92V345H183.843V316.92H190.683ZM227.84 316.92V322.4H220.4V345H213.56V322.4H206.12V316.92H227.84ZM267.593 316.92V345H260.753V333.44H250.113V345H243.273V316.92H250.113V327.92H260.753V316.92H267.593ZM297.811 345.28C295.171 345.28 292.744 344.667 290.531 343.44C288.344 342.213 286.597 340.507 285.291 338.32C284.011 336.107 283.371 333.627 283.371 330.88C283.371 328.133 284.011 325.667 285.291 323.48C286.597 321.293 288.344 319.587 290.531 318.36C292.744 317.133 295.171 316.52 297.811 316.52C300.451 316.52 302.864 317.133 305.051 318.36C307.264 319.587 308.997 321.293 310.251 323.48C311.531 325.667 312.171 328.133 312.171 330.88C312.171 333.627 311.531 336.107 310.251 338.32C308.971 340.507 307.237 342.213 305.051 343.44C302.864 344.667 300.451 345.28 297.811 345.28ZM297.811 339.04C300.051 339.04 301.837 338.293 303.171 336.8C304.531 335.307 305.211 333.333 305.211 330.88C305.211 328.4 304.531 326.427 303.171 324.96C301.837 323.467 300.051 322.72 297.811 322.72C295.544 322.72 293.731 323.453 292.371 324.92C291.037 326.387 290.371 328.373 290.371 330.88C290.371 333.36 291.037 335.347 292.371 336.84C293.731 338.307 295.544 339.04 297.811 339.04ZM338.136 345.28C336.083 345.28 334.243 344.947 332.616 344.28C330.989 343.613 329.683 342.627 328.696 341.32C327.736 340.013 327.229 338.44 327.176 336.6H334.456C334.563 337.64 334.923 338.44 335.536 339C336.149 339.533 336.949 339.8 337.936 339.8C338.949 339.8 339.749 339.573 340.336 339.12C340.923 338.64 341.216 337.987 341.216 337.16C341.216 336.467 340.976 335.893 340.496 335.44C340.043 334.987 339.469 334.613 338.776 334.32C338.109 334.027 337.149 333.693 335.896 333.32C334.083 332.76 332.603 332.2 331.456 331.64C330.309 331.08 329.323 330.253 328.496 329.16C327.669 328.067 327.256 326.64 327.256 324.88C327.256 322.267 328.203 320.227 330.096 318.76C331.989 317.267 334.456 316.52 337.496 316.52C340.589 316.52 343.083 317.267 344.976 318.76C346.869 320.227 347.883 322.28 348.016 324.92H340.616C340.563 324.013 340.229 323.307 339.616 322.8C339.003 322.267 338.216 322 337.256 322C336.429 322 335.763 322.227 335.256 322.68C334.749 323.107 334.496 323.733 334.496 324.56C334.496 325.467 334.923 326.173 335.776 326.68C336.629 327.187 337.963 327.733 339.776 328.32C341.589 328.933 343.056 329.52 344.176 330.08C345.323 330.64 346.309 331.453 347.136 332.52C347.963 333.587 348.376 334.96 348.376 336.64C348.376 338.24 347.963 339.693 347.136 341C346.336 342.307 345.163 343.347 343.616 344.12C342.069 344.893 340.243 345.28 338.136 345.28ZM385.985 325.96C385.985 327.587 385.612 329.08 384.865 330.44C384.119 331.773 382.972 332.853 381.425 333.68C379.879 334.507 377.959 334.92 375.665 334.92H371.425V345H364.585V316.92H375.665C377.905 316.92 379.799 317.307 381.345 318.08C382.892 318.853 384.052 319.92 384.825 321.28C385.599 322.64 385.985 324.2 385.985 325.96ZM375.145 329.48C376.452 329.48 377.425 329.173 378.065 328.56C378.705 327.947 379.025 327.08 379.025 325.96C379.025 324.84 378.705 323.973 378.065 323.36C377.425 322.747 376.452 322.44 375.145 322.44H371.425V329.48H375.145ZM425.866 316.92V345H419.026V333.44H408.386V345H401.546V316.92H408.386V327.92H419.026V316.92H425.866ZM449.644 322.4V328.08H458.804V333.36H449.644V339.52H460.004V345H442.804V316.92H460.004V322.4H449.644ZM490.765 345L484.925 334.4H483.285V345H476.445V316.92H487.925C490.138 316.92 492.018 317.307 493.565 318.08C495.138 318.853 496.312 319.92 497.085 321.28C497.858 322.613 498.245 324.107 498.245 325.76C498.245 327.627 497.712 329.293 496.645 330.76C495.605 332.227 494.058 333.267 492.005 333.88L498.485 345H490.765ZM483.285 329.56H487.525C488.778 329.56 489.712 329.253 490.325 328.64C490.965 328.027 491.285 327.16 491.285 326.04C491.285 324.973 490.965 324.133 490.325 323.52C489.712 322.907 488.778 322.6 487.525 322.6H483.285V329.56ZM521.379 322.4V328.08H530.539V333.36H521.379V339.52H531.739V345H514.539V316.92H531.739V322.4H521.379Z" fill="#535353"/>
<path d="M327.496 25.92C327.496 23.1467 328.096 20.68 329.296 18.52C330.496 16.3333 332.162 14.64 334.296 13.44C336.456 12.2133 338.896 11.6 341.616 11.6C344.949 11.6 347.802 12.48 350.176 14.24C352.549 16 354.136 18.4 354.936 21.44H347.416C346.856 20.2667 346.056 19.3733 345.016 18.76C344.002 18.1467 342.842 17.84 341.536 17.84C339.429 17.84 337.722 18.5733 336.416 20.04C335.109 21.5067 334.456 23.4667 334.456 25.92C334.456 28.3733 335.109 30.3333 336.416 31.8C337.722 33.2667 339.429 34 341.536 34C342.842 34 344.002 33.6933 345.016 33.08C346.056 32.4667 346.856 31.5733 347.416 30.4H354.936C354.136 33.44 352.549 35.84 350.176 37.6C347.802 39.3333 344.949 40.2 341.616 40.2C338.896 40.2 336.456 39.6 334.296 38.4C332.162 37.1733 330.496 35.48 329.296 33.32C328.096 31.16 327.496 28.6933 327.496 25.92ZM384.405 40.28C381.765 40.28 379.338 39.6667 377.125 38.44C374.938 37.2133 373.191 35.5067 371.885 33.32C370.605 31.1067 369.965 28.6267 369.965 25.88C369.965 23.1333 370.605 20.6667 371.885 18.48C373.191 16.2933 374.938 14.5867 377.125 13.36C379.338 12.1333 381.765 11.52 384.405 11.52C387.045 11.52 389.458 12.1333 391.645 13.36C393.858 14.5867 395.591 16.2933 396.845 18.48C398.125 20.6667 398.765 23.1333 398.765 25.88C398.765 28.6267 398.125 31.1067 396.845 33.32C395.565 35.5067 393.831 37.2133 391.645 38.44C389.458 39.6667 387.045 40.28 384.405 40.28ZM384.405 34.04C386.645 34.04 388.431 33.2933 389.765 31.8C391.125 30.3067 391.805 28.3333 391.805 25.88C391.805 23.4 391.125 21.4267 389.765 19.96C388.431 18.4667 386.645 17.72 384.405 17.72C382.138 17.72 380.325 18.4533 378.965 19.92C377.631 21.3867 376.965 23.3733 376.965 25.88C376.965 28.36 377.631 30.3467 378.965 31.84C380.325 33.3067 382.138 34.04 384.405 34.04ZM428.89 40L423.05 29.4H421.41V40H414.57V11.92H426.05C428.263 11.92 430.143 12.3067 431.69 13.08C433.263 13.8533 434.437 14.92 435.21 16.28C435.983 17.6133 436.37 19.1067 436.37 20.76C436.37 22.6267 435.837 24.2933 434.77 25.76C433.73 27.2267 432.183 28.2667 430.13 28.88L436.61 40H428.89ZM421.41 24.56H425.65C426.903 24.56 427.837 24.2533 428.45 23.64C429.09 23.0267 429.41 22.16 429.41 21.04C429.41 19.9733 429.09 19.1333 428.45 18.52C427.837 17.9067 426.903 17.6 425.65 17.6H421.41V24.56ZM459.504 17.4V23.08H468.664V28.36H459.504V34.52H469.864V40H452.664V11.92H469.864V17.4H459.504Z" fill="#FFFDFD"/>
<path d="M396.468 116.92V145H389.628V128.16L383.348 145H377.828L371.508 128.12V145H364.668V116.92H372.747L380.628 136.36L388.428 116.92H396.468ZM430.866 140.04H420.386L418.706 145H411.546L421.706 116.92H429.626L439.786 145H432.546L430.866 140.04ZM429.106 134.76L425.626 124.48L422.186 134.76H429.106ZM479.998 145H473.158L461.718 127.68V145H454.878V116.92H461.718L473.158 134.32V116.92H479.998V145ZM517.157 116.92V122.4H509.717V145H502.877V122.4H495.437V116.92H517.157ZM539.429 122.4V128.08H548.589V133.36H539.429V139.52H549.789V145H532.589V116.92H549.789V122.4H539.429ZM573.07 139.72H582.03V145H566.23V116.92H573.07V139.72Z" fill="#DCDCDC"/>
<g filter="url(#filter3_d_51_29)">
<path d="M231.587 62.497C231.309 63.2775 231.717 64.1354 232.497 64.4132L245.215 68.94C245.996 69.2178 246.854 68.8103 247.132 68.0299C247.409 67.2494 247.002 66.3915 246.221 66.1137L234.916 62.0898L238.94 50.7846C239.218 50.0041 238.81 49.1463 238.03 48.8685C237.249 48.5907 236.392 48.9982 236.114 49.7786L231.587 62.497ZM312.356 23.6451L232.356 61.6451L233.644 64.3549L313.644 26.3549L312.356 23.6451Z" fill="#FFFDFD"/>
</g>
<g filter="url(#filter4_d_51_29)">
<path d="M289.957 127.922C289.362 128.498 289.346 129.447 289.922 130.043L299.307 139.747C299.883 140.342 300.833 140.358 301.428 139.782C302.024 139.206 302.04 138.256 301.464 137.661L293.121 129.035L301.747 120.693C302.342 120.117 302.358 119.167 301.782 118.572C301.206 117.976 300.256 117.96 299.661 118.536L289.957 127.922ZM351.025 128.5L291.025 127.5L290.975 130.5L350.975 131.5L351.025 128.5Z" fill="#DCDCDC"/>
</g>
<g filter="url(#filter5_d_51_29)">
<path d="M299.14 208.771C298.461 209.246 298.296 210.182 298.771 210.86L306.513 221.92C306.988 222.598 307.923 222.764 308.602 222.288C309.281 221.813 309.446 220.878 308.971 220.199L302.089 210.369L311.92 203.487C312.599 203.012 312.764 202.077 312.288 201.398C311.813 200.719 310.878 200.554 310.199 201.029L299.14 208.771ZM351.261 217.523L300.261 208.523L299.739 211.477L350.739 220.477L351.261 217.523Z" fill="#8B8B8B"/>
</g>
<defs>
<filter id="filter0_d_51_29" x="-4" y="3" width="308" height="314" filterUnits="userSpaceOnUse" color-interpolation-filters="sRGB">
<feFlood flood-opacity="0" result="BackgroundImageFix"/>
<feColorMatrix in="SourceAlpha" type="matrix" values="0 0 0 0 0 0 0 0 0 0 0 0 0 0 0 0 0 0 127 0" result="hardAlpha"/>
<feOffset dy="10"/>
<feGaussianBlur stdDeviation="2"/>
<feComposite in2="hardAlpha" operator="out"/>
<feColorMatrix type="matrix" values="0 0 0 0 0 0 0 0 0 0 0 0 0 0 0 0 0 0 0.25 0"/>
<feBlend mode="normal" in2="BackgroundImageFix" result="effect1_dropShadow_51_29"/>
<feBlend mode="normal" in="SourceGraphic" in2="effect1_dropShadow_51_29" result="shape"/>
</filter>
<filter id="filter1_d_51_29" x="9" y="16" width="283" height="289" filterUnits="userSpaceOnUse" color-interpolation-filters="sRGB">
<feFlood flood-opacity="0" result="BackgroundImageFix"/>
<feColorMatrix in="SourceAlpha" type="matrix" values="0 0 0 0 0 0 0 0 0 0 0 0 0 0 0 0 0 0 127 0" result="hardAlpha"/>
<feOffset dy="10"/>
<feGaussianBlur stdDeviation="2"/>
<feComposite in2="hardAlpha" operator="out"/>
<feColorMatrix type="matrix" values="0 0 0 0 0 0 0 0 0 0 0 0 0 0 0 0 0 0 0.25 0"/>
<feBlend mode="normal" in2="BackgroundImageFix" result="effect1_dropShadow_51_29"/>
<feBlend mode="normal" in="SourceGraphic" in2="effect1_dropShadow_51_29" result="shape"/>
</filter>
<filter id="filter2_d_51_29" x="31" y="38" width="238" height="244" filterUnits="userSpaceOnUse" color-interpolation-filters="sRGB">
<feFlood flood-opacity="0" result="BackgroundImageFix"/>
<feColorMatrix in="SourceAlpha" type="matrix" values="0 0 0 0 0 0 0 0 0 0 0 0 0 0 0 0 0 0 127 0" result="hardAlpha"/>
<feOffset dy="10"/>
<feGaussianBlur stdDeviation="2"/>
<feComposite in2="hardAlpha" operator="out"/>
<feColorMatrix type="matrix" values="0 0 0 0 0 0 0 0 0 0 0 0 0 0 0 0 0 0 0.25 0"/>
<feBlend mode="normal" in2="BackgroundImageFix" result="effect1_dropShadow_51_29"/>
<feBlend mode="normal" in="SourceGraphic" in2="effect1_dropShadow_51_29" result="shape"/>
</filter>
<filter id="filter3_d_51_29" x="227.5" y="23.6451" width="90.144" height="53.3822" filterUnits="userSpaceOnUse" color-interpolation-filters="sRGB">
<feFlood flood-opacity="0" result="BackgroundImageFix"/>
<feColorMatrix in="SourceAlpha" type="matrix" values="0 0 0 0 0 0 0 0 0 0 0 0 0 0 0 0 0 0 127 0" result="hardAlpha"/>
<feOffset dy="4"/>
<feGaussianBlur stdDeviation="2"/>
<feComposite in2="hardAlpha" operator="out"/>
<feColorMatrix type="matrix" values="0 0 0 0 0 0 0 0 0 0 0 0 0 0 0 0 0 0 0.25 0"/>
<feBlend mode="normal" in2="BackgroundImageFix" result="effect1_dropShadow_51_29"/>
<feBlend mode="normal" in="SourceGraphic" in2="effect1_dropShadow_51_29" result="shape"/>
</filter>
<filter id="filter4_d_51_29" x="285.5" y="118.114" width="69.525" height="30.0892" filterUnits="userSpaceOnUse" color-interpolation-filters="sRGB">
<feFlood flood-opacity="0" result="BackgroundImageFix"/>
<feColorMatrix in="SourceAlpha" type="matrix" values="0 0 0 0 0 0 0 0 0 0 0 0 0 0 0 0 0 0 127 0" result="hardAlpha"/>
<feOffset dy="4"/>
<feGaussianBlur stdDeviation="2"/>
<feComposite in2="hardAlpha" operator="out"/>
<feColorMatrix type="matrix" values="0 0 0 0 0 0 0 0 0 0 0 0 0 0 0 0 0 0 0.25 0"/>
<feBlend mode="normal" in2="BackgroundImageFix" result="effect1_dropShadow_51_29"/>
<feBlend mode="normal" in="SourceGraphic" in2="effect1_dropShadow_51_29" result="shape"/>
</filter>
<filter id="filter5_d_51_29" x="294.5" y="200.758" width="60.7608" height="29.8016" filterUnits="userSpaceOnUse" color-interpolation-filters="sRGB">
<feFlood flood-opacity="0" result="BackgroundImageFix"/>
<feColorMatrix in="SourceAlpha" type="matrix" values="0 0 0 0 0 0 0 0 0 0 0 0 0 0 0 0 0 0 127 0" result="hardAlpha"/>
<feOffset dy="4"/>
<feGaussianBlur stdDeviation="2"/>
<feComposite in2="hardAlpha" operator="out"/>
<feColorMatrix type="matrix" values="0 0 0 0 0 0 0 0 0 0 0 0 0 0 0 0 0 0 0.25 0"/>
<feBlend mode="normal" in2="BackgroundImageFix" result="effect1_dropShadow_51_29"/>
<feBlend mode="normal" in="SourceGraphic" in2="effect1_dropShadow_51_29" result="shape"/>
</filter>
<clipPath id="clip0_51_29">
<rect width="300" height="300" fill="white" transform="translate(0 3)"/>
</clipPath>
</defs>
</svg>
