<svg width="1101" height="750" viewBox="0 0 1101 750" fill="none" xmlns="http://www.w3.org/2000/svg">
<g clip-path="url(#clip0_110_203)">
<circle cx="551" cy="375" r="375" fill="#CAA883"/>
<circle cx="640" cy="64" r="196" fill="#846C53"/>
<circle cx="326" cy="325" r="50" fill="#846C53"/>
<circle cx="626" cy="717" r="50" fill="#DFCBB5"/>
<circle cx="470" cy="260" r="50" fill="#DFCBB5"/>
<circle cx="494" cy="26" r="50" fill="#DFCBB5"/>
<circle cx="410" cy="571" r="196" fill="#846C53"/>
<circle cx="762" cy="509" r="196" fill="#4F402F"/>
<circle cx="266" cy="147" r="100" fill="#4F402F"/>
<circle cx="836" cy="147" r="100" fill="#4F402F"/>
</g>
<g filter="url(#filter0_d_110_203)">
<path d="M966.992 391.048C958.07 389.413 948.747 387.829 939.02 386.265C935.234 385.665 931.39 385.037 927.489 384.443C924.079 385.639 920.611 386.839 917.026 388.013C924.824 389.107 932.334 390.247 939.612 391.367C945.961 392.375 952.136 393.391 958.08 394.418C1030.4 406.888 1072.37 421.384 1069.25 435.769C1065.85 451.543 1008.61 464.281 918.08 472.242C846.66 478.53 754.461 481.816 651.622 481.359C621.965 481.193 591.371 480.759 560.182 479.978C553.296 479.81 546.351 479.613 539.347 479.387C398.76 475.181 272.679 464.958 181.71 451.76C177.868 451.194 174.084 450.626 170.357 450.055C167.505 449.629 164.768 449.198 161.973 448.769C80.0285 435.762 31.7132 420.196 35.0185 404.833C38.2766 389.69 90.9708 377.39 175.024 369.398C175.869 367.73 176.771 366.06 177.732 364.418C75.1111 374.494 9.37482 390.802 5.08126 410.843C1.06297 429.4 50.2693 447.864 134.352 463.271C137.56 463.867 140.823 464.43 144.146 465.02C151.664 466.316 159.472 467.629 167.45 468.871C248.165 481.562 353.721 491.617 471.938 496.964C492.559 497.909 513.635 498.708 534.991 499.337C544.657 499.622 554.205 499.882 563.751 500.079C692.893 503.053 811.445 499.749 903.762 491.733C1017.6 481.868 1091.57 464.788 1096.15 443.482C1100.28 424.919 1051.07 406.424 966.992 391.048Z" fill="#DFCBB5"/>
</g>
<g filter="url(#filter1_d_110_203)">
<path d="M967.084 416.62C958.162 414.985 948.839 413.401 939.112 411.836C935.326 411.237 931.481 410.609 927.58 410.014C924.17 411.211 920.703 412.411 917.118 413.584C924.915 414.679 932.426 415.819 939.704 416.938C946.052 417.946 952.228 418.963 958.172 419.99C1030.5 432.46 1072.46 446.956 1069.34 461.34C1065.94 477.115 1008.7 489.853 918.172 497.813C846.751 504.102 754.553 507.388 651.714 506.931C622.057 506.765 591.463 506.331 560.273 505.55C553.388 505.381 546.443 505.184 539.439 504.959C398.852 500.753 272.771 490.53 181.801 477.332C177.96 476.766 174.175 476.198 170.449 475.626C167.597 475.201 164.859 474.77 162.065 474.341C80.1203 461.334 31.805 445.768 35.1103 430.404C38.3684 415.262 91.0626 402.962 175.116 394.97C175.96 393.302 176.862 391.632 177.824 389.99C75.2029 400.066 9.46661 416.373 5.17305 436.414C1.15477 454.972 50.3611 473.436 134.444 488.843C137.651 489.439 140.915 490.001 144.238 490.592C151.756 491.888 159.564 493.201 167.541 494.443C248.257 507.134 353.813 517.189 472.03 522.535C492.651 523.481 513.727 524.28 535.083 524.909C544.749 525.194 554.297 525.453 563.843 525.65C692.985 528.625 811.536 525.32 903.853 517.305C1017.7 507.439 1091.66 490.36 1096.24 469.054C1100.37 450.491 1051.16 431.996 967.084 416.62Z" fill="#846C53"/>
</g>
<defs>
<filter id="filter0_d_110_203" x="0.852539" y="364.418" width="1099.54" height="144.739" filterUnits="userSpaceOnUse" color-interpolation-filters="sRGB">
<feFlood flood-opacity="0" result="BackgroundImageFix"/>
<feColorMatrix in="SourceAlpha" type="matrix" values="0 0 0 0 0 0 0 0 0 0 0 0 0 0 0 0 0 0 127 0" result="hardAlpha"/>
<feOffset dy="4"/>
<feGaussianBlur stdDeviation="2"/>
<feComposite in2="hardAlpha" operator="out"/>
<feColorMatrix type="matrix" values="0 0 0 0 0 0 0 0 0 0 0 0 0 0 0 0 0 0 0.25 0"/>
<feBlend mode="normal" in2="BackgroundImageFix" result="effect1_dropShadow_110_203"/>
<feBlend mode="normal" in="SourceGraphic" in2="effect1_dropShadow_110_203" result="shape"/>
</filter>
<filter id="filter1_d_110_203" x="0.944336" y="389.99" width="1099.54" height="144.739" filterUnits="userSpaceOnUse" color-interpolation-filters="sRGB">
<feFlood flood-opacity="0" result="BackgroundImageFix"/>
<feColorMatrix in="SourceAlpha" type="matrix" values="0 0 0 0 0 0 0 0 0 0 0 0 0 0 0 0 0 0 127 0" result="hardAlpha"/>
<feOffset dy="4"/>
<feGaussianBlur stdDeviation="2"/>
<feComposite in2="hardAlpha" operator="out"/>
<feColorMatrix type="matrix" values="0 0 0 0 0 0 0 0 0 0 0 0 0 0 0 0 0 0 0.25 0"/>
<feBlend mode="normal" in2="BackgroundImageFix" result="effect1_dropShadow_110_203"/>
<feBlend mode="normal" in="SourceGraphic" in2="effect1_dropShadow_110_203" result="shape"/>
</filter>
<clipPath id="clip0_110_203">
<rect x="176" width="750" height="750" rx="375" fill="white"/>
</clipPath>
</defs>
</svg>
