<svg width="4120" height="4102" viewBox="0 0 4120 4102" fill="none" xmlns="http://www.w3.org/2000/svg">
<g clip-path="url(#clip0_96_58)">
<circle cx="2048" cy="1988" r="1500" transform="rotate(-90 2048 1988)" fill="#89D6DC" fill-opacity="0.24"/>
</g>
<g clip-path="url(#clip1_96_58)">
<circle cx="2048" cy="2001" r="1500" transform="rotate(90 2048 2001)" fill="#2F9CA5" fill-opacity="0.24"/>
</g>
<circle cx="2059" cy="1997" r="1492" stroke="white" stroke-width="16"/>
<path d="M6 2011L1114 2011" stroke="white" stroke-width="12" stroke-linecap="round"/>
<g filter="url(#filter0_d_96_58)">
<circle cx="559" cy="2011" r="350" fill="#1A3E40"/>
</g>
<g filter="url(#filter1_d_96_58)">
<circle cx="559" cy="2011" r="300" fill="#589297"/>
</g>
<g filter="url(#filter2_d_96_58)">
<circle cx="559" cy="2011" r="200" fill="#89D6DC"/>
</g>
<g filter="url(#filter3_d_96_58)">
<path d="M529.497 1629.02C527.783 1636.9 526.115 1645.15 524.464 1653.74C523.831 1657.09 523.168 1660.49 522.539 1663.94C523.705 1666.95 524.873 1670.01 526.015 1673.17C527.179 1666.28 528.386 1659.64 529.57 1653.21C530.635 1647.6 531.706 1642.14 532.786 1636.89C545.899 1572.96 560.767 1535.85 575.12 1538.59C590.86 1541.56 603.083 1592.11 610.232 1672.09C615.88 1735.18 618.34 1816.64 616.964 1907.51C616.533 1933.71 615.825 1960.75 614.766 1988.31C614.535 1994.39 614.276 2000.53 613.988 2006.72C608.526 2130.94 597.178 2242.37 583.17 2322.77C582.57 2326.17 581.968 2329.51 581.363 2332.8C580.912 2335.33 580.457 2337.74 580.003 2340.21C566.267 2412.64 550.272 2455.36 534.942 2452.47C519.833 2449.62 508.008 2403.08 500.769 2328.83C499.11 2328.09 497.448 2327.29 495.815 2326.45C504.971 2417.1 520.686 2475.15 540.683 2478.91C559.2 2482.43 578.1 2438.92 594.254 2364.59C594.879 2361.76 595.471 2358.87 596.091 2355.94C597.453 2349.29 598.836 2342.39 600.149 2335.34C613.559 2264 624.555 2170.71 630.957 2066.25C632.087 2048.02 633.075 2029.4 633.894 2010.53C634.266 2001.99 634.61 1993.55 634.893 1985.12C639.021 1871 636.778 1766.26 629.591 1684.7C620.745 1584.13 604.332 1518.81 583.072 1514.8C564.551 1511.18 545.62 1554.7 529.497 1629.02Z" fill="#1A3E40"/>
</g>
<g filter="url(#filter4_d_96_58)">
<path d="M469.2 1996.92V2013.72C469.2 2015.4 469.613 2016.69 470.44 2017.6C471.267 2018.51 472.48 2018.96 474.08 2018.96C475.68 2018.96 476.907 2018.51 477.76 2017.6C478.613 2016.69 479.04 2015.4 479.04 2013.72V1996.92H485.88V2013.68C485.88 2016.19 485.347 2018.31 484.28 2020.04C483.213 2021.77 481.773 2023.08 479.96 2023.96C478.173 2024.84 476.173 2025.28 473.96 2025.28C471.747 2025.28 469.76 2024.85 468 2024C466.267 2023.12 464.893 2021.81 463.88 2020.08C462.867 2018.32 462.36 2016.19 462.36 2013.68V1996.92H469.2ZM517.003 2025L511.163 2014.4H509.523V2025H502.683V1996.92H514.163C516.376 1996.92 518.256 1997.31 519.803 1998.08C521.376 1998.85 522.55 1999.92 523.323 2001.28C524.096 2002.61 524.483 2004.11 524.483 2005.76C524.483 2007.63 523.95 2009.29 522.883 2010.76C521.843 2012.23 520.296 2013.27 518.243 2013.88L524.723 2025H517.003ZM509.523 2009.56H513.763C515.016 2009.56 515.95 2009.25 516.563 2008.64C517.203 2008.03 517.523 2007.16 517.523 2006.04C517.523 2004.97 517.203 2004.13 516.563 2003.52C515.95 2002.91 515.016 2002.6 513.763 2002.6H509.523V2009.56ZM558.257 2020.04H547.777L546.097 2025H538.937L549.097 1996.92H557.017L567.177 2025H559.937L558.257 2020.04ZM556.497 2014.76L553.017 2004.48L549.577 2014.76H556.497ZM607.389 2025H600.549L589.109 2007.68V2025H582.269V1996.92H589.109L600.549 2014.32V1996.92H607.389V2025ZM631.067 1996.92V2013.72C631.067 2015.4 631.481 2016.69 632.307 2017.6C633.134 2018.51 634.347 2018.96 635.947 2018.96C637.547 2018.96 638.774 2018.51 639.627 2017.6C640.481 2016.69 640.907 2015.4 640.907 2013.72V1996.92H647.747V2013.68C647.747 2016.19 647.214 2018.31 646.147 2020.04C645.081 2021.77 643.641 2023.08 641.827 2023.96C640.041 2024.84 638.041 2025.28 635.827 2025.28C633.614 2025.28 631.627 2024.85 629.867 2024C628.134 2023.12 626.761 2021.81 625.747 2020.08C624.734 2018.32 624.227 2016.19 624.227 2013.68V1996.92H631.067ZM674.71 2025.28C672.657 2025.28 670.817 2024.95 669.19 2024.28C667.564 2023.61 666.257 2022.63 665.27 2021.32C664.31 2020.01 663.804 2018.44 663.75 2016.6H671.03C671.137 2017.64 671.497 2018.44 672.11 2019C672.724 2019.53 673.524 2019.8 674.51 2019.8C675.524 2019.8 676.324 2019.57 676.91 2019.12C677.497 2018.64 677.79 2017.99 677.79 2017.16C677.79 2016.47 677.55 2015.89 677.07 2015.44C676.617 2014.99 676.044 2014.61 675.35 2014.32C674.684 2014.03 673.724 2013.69 672.47 2013.32C670.657 2012.76 669.177 2012.2 668.03 2011.64C666.884 2011.08 665.897 2010.25 665.07 2009.16C664.244 2008.07 663.83 2006.64 663.83 2004.88C663.83 2002.27 664.777 2000.23 666.67 1998.76C668.564 1997.27 671.03 1996.52 674.07 1996.52C677.164 1996.52 679.657 1997.27 681.55 1998.76C683.444 2000.23 684.457 2002.28 684.59 2004.92H677.19C677.137 2004.01 676.804 2003.31 676.19 2002.8C675.577 2002.27 674.79 2002 673.83 2002C673.004 2002 672.337 2002.23 671.83 2002.68C671.324 2003.11 671.07 2003.73 671.07 2004.56C671.07 2005.47 671.497 2006.17 672.35 2006.68C673.204 2007.19 674.537 2007.73 676.35 2008.32C678.164 2008.93 679.63 2009.52 680.75 2010.08C681.897 2010.64 682.884 2011.45 683.71 2012.52C684.537 2013.59 684.95 2014.96 684.95 2016.64C684.95 2018.24 684.537 2019.69 683.71 2021C682.91 2022.31 681.737 2023.35 680.19 2024.12C678.644 2024.89 676.817 2025.28 674.71 2025.28Z" fill="white"/>
</g>
<g filter="url(#filter5_d_96_58)">
<path d="M22.5658 2067.28C20.5124 2067.28 18.6724 2066.95 17.0458 2066.28C15.4191 2065.61 14.1124 2064.63 13.1258 2063.32C12.1658 2062.01 11.6591 2060.44 11.6058 2058.6H18.8858C18.9924 2059.64 19.3524 2060.44 19.9658 2061C20.5791 2061.53 21.3791 2061.8 22.3658 2061.8C23.3791 2061.8 24.1791 2061.57 24.7658 2061.12C25.3524 2060.64 25.6458 2059.99 25.6458 2059.16C25.6458 2058.47 25.4058 2057.89 24.9258 2057.44C24.4724 2056.99 23.8991 2056.61 23.2058 2056.32C22.5391 2056.03 21.5791 2055.69 20.3258 2055.32C18.5124 2054.76 17.0324 2054.2 15.8858 2053.64C14.7391 2053.08 13.7524 2052.25 12.9258 2051.16C12.0991 2050.07 11.6858 2048.64 11.6858 2046.88C11.6858 2044.27 12.6324 2042.23 14.5258 2040.76C16.4191 2039.27 18.8858 2038.52 21.9258 2038.52C25.0191 2038.52 27.5124 2039.27 29.4058 2040.76C31.2991 2042.23 32.3124 2044.28 32.4458 2046.92H25.0458C24.9924 2046.01 24.6591 2045.31 24.0458 2044.8C23.4324 2044.27 22.6458 2044 21.6858 2044C20.8591 2044 20.1924 2044.23 19.6858 2044.68C19.1791 2045.11 18.9258 2045.73 18.9258 2046.56C18.9258 2047.47 19.3524 2048.17 20.2058 2048.68C21.0591 2049.19 22.3924 2049.73 24.2058 2050.32C26.0191 2050.93 27.4858 2051.52 28.6058 2052.08C29.7524 2052.64 30.7391 2053.45 31.5658 2054.52C32.3924 2055.59 32.8058 2056.96 32.8058 2058.64C32.8058 2060.24 32.3924 2061.69 31.5658 2063C30.7658 2064.31 29.5924 2065.35 28.0458 2066.12C26.4991 2066.89 24.6724 2067.28 22.5658 2067.28ZM62.2952 2067.28C59.6552 2067.28 57.2285 2066.67 55.0152 2065.44C52.8285 2064.21 51.0818 2062.51 49.7752 2060.32C48.4952 2058.11 47.8552 2055.63 47.8552 2052.88C47.8552 2050.13 48.4952 2047.67 49.7752 2045.48C51.0818 2043.29 52.8285 2041.59 55.0152 2040.36C57.2285 2039.13 59.6552 2038.52 62.2952 2038.52C64.9352 2038.52 67.3485 2039.13 69.5352 2040.36C71.7485 2041.59 73.4818 2043.29 74.7352 2045.48C76.0152 2047.67 76.6552 2050.13 76.6552 2052.88C76.6552 2055.63 76.0152 2058.11 74.7352 2060.32C73.4552 2062.51 71.7218 2064.21 69.5352 2065.44C67.3485 2066.67 64.9352 2067.28 62.2952 2067.28ZM62.2952 2061.04C64.5352 2061.04 66.3218 2060.29 67.6552 2058.8C69.0152 2057.31 69.6952 2055.33 69.6952 2052.88C69.6952 2050.4 69.0152 2048.43 67.6552 2046.96C66.3218 2045.47 64.5352 2044.72 62.2952 2044.72C60.0285 2044.72 58.2152 2045.45 56.8552 2046.92C55.5218 2048.39 54.8552 2050.37 54.8552 2052.88C54.8552 2055.36 55.5218 2057.35 56.8552 2058.84C58.2152 2060.31 60.0285 2061.04 62.2952 2061.04ZM99.1805 2038.92V2055.72C99.1805 2057.4 99.5938 2058.69 100.42 2059.6C101.247 2060.51 102.46 2060.96 104.06 2060.96C105.66 2060.96 106.887 2060.51 107.74 2059.6C108.594 2058.69 109.02 2057.4 109.02 2055.72V2038.92H115.86V2055.68C115.86 2058.19 115.327 2060.31 114.26 2062.04C113.194 2063.77 111.754 2065.08 109.94 2065.96C108.154 2066.84 106.154 2067.28 103.94 2067.28C101.727 2067.28 99.7405 2066.85 97.9805 2066C96.2471 2065.12 94.8738 2063.81 93.8605 2062.08C92.8471 2060.32 92.3405 2058.19 92.3405 2055.68V2038.92H99.1805ZM152.864 2038.92V2044.4H145.424V2067H138.584V2044.4H131.144V2038.92H152.864ZM192.616 2038.92V2067H185.776V2055.44H175.136V2067H168.296V2038.92H175.136V2049.92H185.776V2038.92H192.616ZM65.8253 2092.96C65.8253 2094.59 65.452 2096.08 64.7053 2097.44C63.9586 2098.77 62.812 2099.85 61.2653 2100.68C59.7186 2101.51 57.7986 2101.92 55.5053 2101.92H51.2653V2112H44.4253V2083.92H55.5053C57.7453 2083.92 59.6386 2084.31 61.1853 2085.08C62.732 2085.85 63.892 2086.92 64.6653 2088.28C65.4386 2089.64 65.8253 2091.2 65.8253 2092.96ZM54.9853 2096.48C56.292 2096.48 57.2653 2096.17 57.9053 2095.56C58.5453 2094.95 58.8653 2094.08 58.8653 2092.96C58.8653 2091.84 58.5453 2090.97 57.9053 2090.36C57.2653 2089.75 56.292 2089.44 54.9853 2089.44H51.2653V2096.48H54.9853ZM94.6663 2112.28C92.0263 2112.28 89.5996 2111.67 87.3863 2110.44C85.1996 2109.21 83.4529 2107.51 82.1463 2105.32C80.8662 2103.11 80.2262 2100.63 80.2262 2097.88C80.2262 2095.13 80.8662 2092.67 82.1463 2090.48C83.4529 2088.29 85.1996 2086.59 87.3863 2085.36C89.5996 2084.13 92.0263 2083.52 94.6663 2083.52C97.3063 2083.52 99.7196 2084.13 101.906 2085.36C104.12 2086.59 105.853 2088.29 107.106 2090.48C108.386 2092.67 109.026 2095.13 109.026 2097.88C109.026 2100.63 108.386 2103.11 107.106 2105.32C105.826 2107.51 104.093 2109.21 101.906 2110.44C99.7196 2111.67 97.3063 2112.28 94.6663 2112.28ZM94.6663 2106.04C96.9063 2106.04 98.6929 2105.29 100.026 2103.8C101.386 2102.31 102.066 2100.33 102.066 2097.88C102.066 2095.4 101.386 2093.43 100.026 2091.96C98.6929 2090.47 96.9063 2089.72 94.6663 2089.72C92.3996 2089.72 90.5863 2090.45 89.2263 2091.92C87.8929 2093.39 87.2263 2095.37 87.2263 2097.88C87.2263 2100.36 87.8929 2102.35 89.2263 2103.84C90.5863 2105.31 92.3996 2106.04 94.6663 2106.04ZM131.672 2106.72H140.632V2112H124.832V2083.92H131.672V2106.72ZM162.734 2089.4V2095.08H171.894V2100.36H162.734V2106.52H173.094V2112H155.894V2083.92H173.094V2089.4H162.734Z" fill="white"/>
</g>
<g filter="url(#filter6_d_96_58)">
<path d="M942.846 2075H936.006L924.566 2057.68V2075H917.726V2046.92H924.566L936.006 2064.32V2046.92H942.846V2075ZM973.084 2075.28C970.444 2075.28 968.018 2074.67 965.804 2073.44C963.618 2072.21 961.871 2070.51 960.564 2068.32C959.284 2066.11 958.644 2063.63 958.644 2060.88C958.644 2058.13 959.284 2055.67 960.564 2053.48C961.871 2051.29 963.618 2049.59 965.804 2048.36C968.018 2047.13 970.444 2046.52 973.084 2046.52C975.724 2046.52 978.138 2047.13 980.324 2048.36C982.538 2049.59 984.271 2051.29 985.524 2053.48C986.804 2055.67 987.444 2058.13 987.444 2060.88C987.444 2063.63 986.804 2066.11 985.524 2068.32C984.244 2070.51 982.511 2072.21 980.324 2073.44C978.138 2074.67 975.724 2075.28 973.084 2075.28ZM973.084 2069.04C975.324 2069.04 977.111 2068.29 978.444 2066.8C979.804 2065.31 980.484 2063.33 980.484 2060.88C980.484 2058.4 979.804 2056.43 978.444 2054.96C977.111 2053.47 975.324 2052.72 973.084 2052.72C970.818 2052.72 969.004 2053.45 967.644 2054.92C966.311 2056.39 965.644 2058.37 965.644 2060.88C965.644 2063.36 966.311 2065.35 967.644 2066.84C969.004 2068.31 970.818 2069.04 973.084 2069.04ZM1017.57 2075L1011.73 2064.4H1010.09V2075H1003.25V2046.92H1014.73C1016.94 2046.92 1018.82 2047.31 1020.37 2048.08C1021.94 2048.85 1023.12 2049.92 1023.89 2051.28C1024.66 2052.61 1025.05 2054.11 1025.05 2055.76C1025.05 2057.63 1024.52 2059.29 1023.45 2060.76C1022.41 2062.23 1020.86 2063.27 1018.81 2063.88L1025.29 2075H1017.57ZM1010.09 2059.56H1014.33C1015.58 2059.56 1016.52 2059.25 1017.13 2058.64C1017.77 2058.03 1018.09 2057.16 1018.09 2056.04C1018.09 2054.97 1017.77 2054.13 1017.13 2053.52C1016.52 2052.91 1015.58 2052.6 1014.33 2052.6H1010.09V2059.56ZM1061.54 2046.92V2052.4H1054.1V2075H1047.26V2052.4H1039.82V2046.92H1061.54ZM1101.3 2046.92V2075H1094.46V2063.44H1083.82V2075H1076.98V2046.92H1083.82V2057.92H1094.46V2046.92H1101.3ZM972.825 2100.96C972.825 2102.59 972.452 2104.08 971.705 2105.44C970.959 2106.77 969.812 2107.85 968.265 2108.68C966.719 2109.51 964.799 2109.92 962.505 2109.92H958.265V2120H951.425V2091.92H962.505C964.745 2091.92 966.639 2092.31 968.185 2093.08C969.732 2093.85 970.892 2094.92 971.665 2096.28C972.439 2097.64 972.825 2099.2 972.825 2100.96ZM961.985 2104.48C963.292 2104.48 964.265 2104.17 964.905 2103.56C965.545 2102.95 965.865 2102.08 965.865 2100.96C965.865 2099.84 965.545 2098.97 964.905 2098.36C964.265 2097.75 963.292 2097.44 961.985 2097.44H958.265V2104.48H961.985ZM1001.67 2120.28C999.026 2120.28 996.6 2119.67 994.386 2118.44C992.2 2117.21 990.453 2115.51 989.146 2113.32C987.866 2111.11 987.226 2108.63 987.226 2105.88C987.226 2103.13 987.866 2100.67 989.146 2098.48C990.453 2096.29 992.2 2094.59 994.386 2093.36C996.6 2092.13 999.026 2091.52 1001.67 2091.52C1004.31 2091.52 1006.72 2092.13 1008.91 2093.36C1011.12 2094.59 1012.85 2096.29 1014.11 2098.48C1015.39 2100.67 1016.03 2103.13 1016.03 2105.88C1016.03 2108.63 1015.39 2111.11 1014.11 2113.32C1012.83 2115.51 1011.09 2117.21 1008.91 2118.44C1006.72 2119.67 1004.31 2120.28 1001.67 2120.28ZM1001.67 2114.04C1003.91 2114.04 1005.69 2113.29 1007.03 2111.8C1008.39 2110.31 1009.07 2108.33 1009.07 2105.88C1009.07 2103.4 1008.39 2101.43 1007.03 2099.96C1005.69 2098.47 1003.91 2097.72 1001.67 2097.72C999.4 2097.72 997.586 2098.45 996.226 2099.92C994.893 2101.39 994.226 2103.37 994.226 2105.88C994.226 2108.36 994.893 2110.35 996.226 2111.84C997.586 2113.31 999.4 2114.04 1001.67 2114.04ZM1038.67 2114.72H1047.63V2120H1031.83V2091.92H1038.67V2114.72ZM1069.73 2097.4V2103.08H1078.89V2108.36H1069.73V2114.52H1080.09V2120H1062.89V2091.92H1080.09V2097.4H1069.73Z" fill="white"/>
</g>
<path d="M3006 2024L4114 2024" stroke="white" stroke-width="12" stroke-linecap="round"/>
<g filter="url(#filter7_d_96_58)">
<circle cx="3559" cy="2024" r="350" fill="#1A3E40"/>
</g>
<g filter="url(#filter8_d_96_58)">
<circle cx="3559" cy="2024" r="300" fill="#589297"/>
</g>
<g filter="url(#filter9_d_96_58)">
<circle cx="3559" cy="2024" r="200" fill="#89D6DC"/>
</g>
<g filter="url(#filter10_d_96_58)">
<path d="M3529.5 1642.02C3527.78 1649.9 3526.12 1658.15 3524.46 1666.74C3523.83 1670.09 3523.17 1673.49 3522.54 1676.94C3523.71 1679.95 3524.87 1683.01 3526.02 1686.17C3527.18 1679.28 3528.39 1672.64 3529.57 1666.21C3530.63 1660.6 3531.71 1655.14 3532.79 1649.89C3545.9 1585.96 3560.77 1548.85 3575.12 1551.59C3590.86 1554.56 3603.08 1605.11 3610.23 1685.09C3615.88 1748.18 3618.34 1829.64 3616.96 1920.51C3616.53 1946.71 3615.83 1973.75 3614.77 2001.31C3614.54 2007.39 3614.28 2013.53 3613.99 2019.72C3608.53 2143.94 3597.18 2255.37 3583.17 2335.77C3582.57 2339.17 3581.97 2342.51 3581.36 2345.8C3580.91 2348.33 3580.46 2350.74 3580 2353.21C3566.27 2425.64 3550.27 2468.36 3534.94 2465.47C3519.83 2462.62 3508.01 2416.08 3500.77 2341.83C3499.11 2341.09 3497.45 2340.29 3495.82 2339.45C3504.97 2430.1 3520.69 2488.15 3540.68 2491.91C3559.2 2495.43 3578.1 2451.92 3594.25 2377.59C3594.88 2374.76 3595.47 2371.87 3596.09 2368.94C3597.45 2362.29 3598.84 2355.39 3600.15 2348.34C3613.56 2277 3624.56 2183.71 3630.96 2079.25C3632.09 2061.02 3633.07 2042.4 3633.89 2023.53C3634.27 2014.99 3634.61 2006.55 3634.89 1998.12C3639.02 1884 3636.78 1779.26 3629.59 1697.7C3620.75 1597.13 3604.33 1531.81 3583.07 1527.8C3564.55 1524.18 3545.62 1567.7 3529.5 1642.02Z" fill="#1A3E40"/>
</g>
<g filter="url(#filter11_d_96_58)">
<path d="M3469.2 2009.92V2026.72C3469.2 2028.4 3469.61 2029.69 3470.44 2030.6C3471.27 2031.51 3472.48 2031.96 3474.08 2031.96C3475.68 2031.96 3476.91 2031.51 3477.76 2030.6C3478.61 2029.69 3479.04 2028.4 3479.04 2026.72V2009.92H3485.88V2026.68C3485.88 2029.19 3485.35 2031.31 3484.28 2033.04C3483.21 2034.77 3481.77 2036.08 3479.96 2036.96C3478.17 2037.84 3476.17 2038.28 3473.96 2038.28C3471.75 2038.28 3469.76 2037.85 3468 2037C3466.27 2036.12 3464.89 2034.81 3463.88 2033.08C3462.87 2031.32 3462.36 2029.19 3462.36 2026.68V2009.92H3469.2ZM3517 2038L3511.16 2027.4H3509.52V2038H3502.68V2009.92H3514.16C3516.38 2009.92 3518.26 2010.31 3519.8 2011.08C3521.38 2011.85 3522.55 2012.92 3523.32 2014.28C3524.1 2015.61 3524.48 2017.11 3524.48 2018.76C3524.48 2020.63 3523.95 2022.29 3522.88 2023.76C3521.84 2025.23 3520.3 2026.27 3518.24 2026.88L3524.72 2038H3517ZM3509.52 2022.56H3513.76C3515.02 2022.56 3515.95 2022.25 3516.56 2021.64C3517.2 2021.03 3517.52 2020.16 3517.52 2019.04C3517.52 2017.97 3517.2 2017.13 3516.56 2016.52C3515.95 2015.91 3515.02 2015.6 3513.76 2015.6H3509.52V2022.56ZM3558.26 2033.04H3547.78L3546.1 2038H3538.94L3549.1 2009.92H3557.02L3567.18 2038H3559.94L3558.26 2033.04ZM3556.5 2027.76L3553.02 2017.48L3549.58 2027.76H3556.5ZM3607.39 2038H3600.55L3589.11 2020.68V2038H3582.27V2009.92H3589.11L3600.55 2027.32V2009.92H3607.39V2038ZM3631.07 2009.92V2026.72C3631.07 2028.4 3631.48 2029.69 3632.31 2030.6C3633.13 2031.51 3634.35 2031.96 3635.95 2031.96C3637.55 2031.96 3638.77 2031.51 3639.63 2030.6C3640.48 2029.69 3640.91 2028.4 3640.91 2026.72V2009.92H3647.75V2026.68C3647.75 2029.19 3647.21 2031.31 3646.15 2033.04C3645.08 2034.77 3643.64 2036.08 3641.83 2036.96C3640.04 2037.84 3638.04 2038.28 3635.83 2038.28C3633.61 2038.28 3631.63 2037.85 3629.87 2037C3628.13 2036.12 3626.76 2034.81 3625.75 2033.08C3624.73 2031.32 3624.23 2029.19 3624.23 2026.68V2009.92H3631.07ZM3674.71 2038.28C3672.66 2038.28 3670.82 2037.95 3669.19 2037.28C3667.56 2036.61 3666.26 2035.63 3665.27 2034.32C3664.31 2033.01 3663.8 2031.44 3663.75 2029.6H3671.03C3671.14 2030.64 3671.5 2031.44 3672.11 2032C3672.72 2032.53 3673.52 2032.8 3674.51 2032.8C3675.52 2032.8 3676.32 2032.57 3676.91 2032.12C3677.5 2031.64 3677.79 2030.99 3677.79 2030.16C3677.79 2029.47 3677.55 2028.89 3677.07 2028.44C3676.62 2027.99 3676.04 2027.61 3675.35 2027.32C3674.68 2027.03 3673.72 2026.69 3672.47 2026.32C3670.66 2025.76 3669.18 2025.2 3668.03 2024.64C3666.88 2024.08 3665.9 2023.25 3665.07 2022.16C3664.24 2021.07 3663.83 2019.64 3663.83 2017.88C3663.83 2015.27 3664.78 2013.23 3666.67 2011.76C3668.56 2010.27 3671.03 2009.52 3674.07 2009.52C3677.16 2009.52 3679.66 2010.27 3681.55 2011.76C3683.44 2013.23 3684.46 2015.28 3684.59 2017.92H3677.19C3677.14 2017.01 3676.8 2016.31 3676.19 2015.8C3675.58 2015.27 3674.79 2015 3673.83 2015C3673 2015 3672.34 2015.23 3671.83 2015.68C3671.32 2016.11 3671.07 2016.73 3671.07 2017.56C3671.07 2018.47 3671.5 2019.17 3672.35 2019.68C3673.2 2020.19 3674.54 2020.73 3676.35 2021.32C3678.16 2021.93 3679.63 2022.52 3680.75 2023.08C3681.9 2023.64 3682.88 2024.45 3683.71 2025.52C3684.54 2026.59 3684.95 2027.96 3684.95 2029.64C3684.95 2031.24 3684.54 2032.69 3683.71 2034C3682.91 2035.31 3681.74 2036.35 3680.19 2037.12C3678.64 2037.89 3676.82 2038.28 3674.71 2038.28Z" fill="white"/>
</g>
<g filter="url(#filter12_d_96_58)">
<path d="M3022.57 2080.28C3020.51 2080.28 3018.67 2079.95 3017.05 2079.28C3015.42 2078.61 3014.11 2077.63 3013.13 2076.32C3012.17 2075.01 3011.66 2073.44 3011.61 2071.6H3018.89C3018.99 2072.64 3019.35 2073.44 3019.97 2074C3020.58 2074.53 3021.38 2074.8 3022.37 2074.8C3023.38 2074.8 3024.18 2074.57 3024.77 2074.12C3025.35 2073.64 3025.65 2072.99 3025.65 2072.16C3025.65 2071.47 3025.41 2070.89 3024.93 2070.44C3024.47 2069.99 3023.9 2069.61 3023.21 2069.32C3022.54 2069.03 3021.58 2068.69 3020.33 2068.32C3018.51 2067.76 3017.03 2067.2 3015.89 2066.64C3014.74 2066.08 3013.75 2065.25 3012.93 2064.16C3012.1 2063.07 3011.69 2061.64 3011.69 2059.88C3011.69 2057.27 3012.63 2055.23 3014.53 2053.76C3016.42 2052.27 3018.89 2051.52 3021.93 2051.52C3025.02 2051.52 3027.51 2052.27 3029.41 2053.76C3031.3 2055.23 3032.31 2057.28 3032.45 2059.92H3025.05C3024.99 2059.01 3024.66 2058.31 3024.05 2057.8C3023.43 2057.27 3022.65 2057 3021.69 2057C3020.86 2057 3020.19 2057.23 3019.69 2057.68C3019.18 2058.11 3018.93 2058.73 3018.93 2059.56C3018.93 2060.47 3019.35 2061.17 3020.21 2061.68C3021.06 2062.19 3022.39 2062.73 3024.21 2063.32C3026.02 2063.93 3027.49 2064.52 3028.61 2065.08C3029.75 2065.64 3030.74 2066.45 3031.57 2067.52C3032.39 2068.59 3032.81 2069.96 3032.81 2071.64C3032.81 2073.24 3032.39 2074.69 3031.57 2076C3030.77 2077.31 3029.59 2078.35 3028.05 2079.12C3026.5 2079.89 3024.67 2080.28 3022.57 2080.28ZM3062.3 2080.28C3059.66 2080.28 3057.23 2079.67 3055.02 2078.44C3052.83 2077.21 3051.08 2075.51 3049.78 2073.32C3048.5 2071.11 3047.86 2068.63 3047.86 2065.88C3047.86 2063.13 3048.5 2060.67 3049.78 2058.48C3051.08 2056.29 3052.83 2054.59 3055.02 2053.36C3057.23 2052.13 3059.66 2051.52 3062.3 2051.52C3064.94 2051.52 3067.35 2052.13 3069.54 2053.36C3071.75 2054.59 3073.48 2056.29 3074.74 2058.48C3076.02 2060.67 3076.66 2063.13 3076.66 2065.88C3076.66 2068.63 3076.02 2071.11 3074.74 2073.32C3073.46 2075.51 3071.72 2077.21 3069.54 2078.44C3067.35 2079.67 3064.94 2080.28 3062.3 2080.28ZM3062.3 2074.04C3064.54 2074.04 3066.32 2073.29 3067.66 2071.8C3069.02 2070.31 3069.7 2068.33 3069.7 2065.88C3069.7 2063.4 3069.02 2061.43 3067.66 2059.96C3066.32 2058.47 3064.54 2057.72 3062.3 2057.72C3060.03 2057.72 3058.22 2058.45 3056.86 2059.92C3055.52 2061.39 3054.86 2063.37 3054.86 2065.88C3054.86 2068.36 3055.52 2070.35 3056.86 2071.84C3058.22 2073.31 3060.03 2074.04 3062.3 2074.04ZM3099.18 2051.92V2068.72C3099.18 2070.4 3099.59 2071.69 3100.42 2072.6C3101.25 2073.51 3102.46 2073.96 3104.06 2073.96C3105.66 2073.96 3106.89 2073.51 3107.74 2072.6C3108.59 2071.69 3109.02 2070.4 3109.02 2068.72V2051.92H3115.86V2068.68C3115.86 2071.19 3115.33 2073.31 3114.26 2075.04C3113.19 2076.77 3111.75 2078.08 3109.94 2078.96C3108.15 2079.84 3106.15 2080.28 3103.94 2080.28C3101.73 2080.28 3099.74 2079.85 3097.98 2079C3096.25 2078.12 3094.87 2076.81 3093.86 2075.08C3092.85 2073.32 3092.34 2071.19 3092.34 2068.68V2051.92H3099.18ZM3152.86 2051.92V2057.4H3145.42V2080H3138.58V2057.4H3131.14V2051.92H3152.86ZM3192.62 2051.92V2080H3185.78V2068.44H3175.14V2080H3168.3V2051.92H3175.14V2062.92H3185.78V2051.92H3192.62ZM3065.83 2105.96C3065.83 2107.59 3065.45 2109.08 3064.71 2110.44C3063.96 2111.77 3062.81 2112.85 3061.27 2113.68C3059.72 2114.51 3057.8 2114.92 3055.51 2114.92H3051.27V2125H3044.43V2096.92H3055.51C3057.75 2096.92 3059.64 2097.31 3061.19 2098.08C3062.73 2098.85 3063.89 2099.92 3064.67 2101.28C3065.44 2102.64 3065.83 2104.2 3065.83 2105.96ZM3054.99 2109.48C3056.29 2109.48 3057.27 2109.17 3057.91 2108.56C3058.55 2107.95 3058.87 2107.08 3058.87 2105.96C3058.87 2104.84 3058.55 2103.97 3057.91 2103.36C3057.27 2102.75 3056.29 2102.44 3054.99 2102.44H3051.27V2109.48H3054.99ZM3094.67 2125.28C3092.03 2125.28 3089.6 2124.67 3087.39 2123.44C3085.2 2122.21 3083.45 2120.51 3082.15 2118.32C3080.87 2116.11 3080.23 2113.63 3080.23 2110.88C3080.23 2108.13 3080.87 2105.67 3082.15 2103.48C3083.45 2101.29 3085.2 2099.59 3087.39 2098.36C3089.6 2097.13 3092.03 2096.52 3094.67 2096.52C3097.31 2096.52 3099.72 2097.13 3101.91 2098.36C3104.12 2099.59 3105.85 2101.29 3107.11 2103.48C3108.39 2105.67 3109.03 2108.13 3109.03 2110.88C3109.03 2113.63 3108.39 2116.11 3107.11 2118.32C3105.83 2120.51 3104.09 2122.21 3101.91 2123.44C3099.72 2124.67 3097.31 2125.28 3094.67 2125.28ZM3094.67 2119.04C3096.91 2119.04 3098.69 2118.29 3100.03 2116.8C3101.39 2115.31 3102.07 2113.33 3102.07 2110.88C3102.07 2108.4 3101.39 2106.43 3100.03 2104.96C3098.69 2103.47 3096.91 2102.72 3094.67 2102.72C3092.4 2102.72 3090.59 2103.45 3089.23 2104.92C3087.89 2106.39 3087.23 2108.37 3087.23 2110.88C3087.23 2113.36 3087.89 2115.35 3089.23 2116.84C3090.59 2118.31 3092.4 2119.04 3094.67 2119.04ZM3131.67 2119.72H3140.63V2125H3124.83V2096.92H3131.67V2119.72ZM3162.73 2102.4V2108.08H3171.89V2113.36H3162.73V2119.52H3173.09V2125H3155.89V2096.92H3173.09V2102.4H3162.73Z" fill="white"/>
</g>
<g filter="url(#filter13_d_96_58)">
<path d="M3942.85 2088H3936.01L3924.57 2070.68V2088H3917.73V2059.92H3924.57L3936.01 2077.32V2059.92H3942.85V2088ZM3973.08 2088.28C3970.44 2088.28 3968.02 2087.67 3965.8 2086.44C3963.62 2085.21 3961.87 2083.51 3960.56 2081.32C3959.28 2079.11 3958.64 2076.63 3958.64 2073.88C3958.64 2071.13 3959.28 2068.67 3960.56 2066.48C3961.87 2064.29 3963.62 2062.59 3965.8 2061.36C3968.02 2060.13 3970.44 2059.52 3973.08 2059.52C3975.72 2059.52 3978.14 2060.13 3980.32 2061.36C3982.54 2062.59 3984.27 2064.29 3985.52 2066.48C3986.8 2068.67 3987.44 2071.13 3987.44 2073.88C3987.44 2076.63 3986.8 2079.11 3985.52 2081.32C3984.24 2083.51 3982.51 2085.21 3980.32 2086.44C3978.14 2087.67 3975.72 2088.28 3973.08 2088.28ZM3973.08 2082.04C3975.32 2082.04 3977.11 2081.29 3978.44 2079.8C3979.8 2078.31 3980.48 2076.33 3980.48 2073.88C3980.48 2071.4 3979.8 2069.43 3978.44 2067.96C3977.11 2066.47 3975.32 2065.72 3973.08 2065.72C3970.82 2065.72 3969 2066.45 3967.64 2067.92C3966.31 2069.39 3965.64 2071.37 3965.64 2073.88C3965.64 2076.36 3966.31 2078.35 3967.64 2079.84C3969 2081.31 3970.82 2082.04 3973.08 2082.04ZM4017.57 2088L4011.73 2077.4H4010.09V2088H4003.25V2059.92H4014.73C4016.94 2059.92 4018.82 2060.31 4020.37 2061.08C4021.94 2061.85 4023.12 2062.92 4023.89 2064.28C4024.66 2065.61 4025.05 2067.11 4025.05 2068.76C4025.05 2070.63 4024.52 2072.29 4023.45 2073.76C4022.41 2075.23 4020.86 2076.27 4018.81 2076.88L4025.29 2088H4017.57ZM4010.09 2072.56H4014.33C4015.58 2072.56 4016.52 2072.25 4017.13 2071.64C4017.77 2071.03 4018.09 2070.16 4018.09 2069.04C4018.09 2067.97 4017.77 2067.13 4017.13 2066.52C4016.52 2065.91 4015.58 2065.6 4014.33 2065.6H4010.09V2072.56ZM4061.54 2059.92V2065.4H4054.1V2088H4047.26V2065.4H4039.82V2059.92H4061.54ZM4101.3 2059.92V2088H4094.46V2076.44H4083.82V2088H4076.98V2059.92H4083.82V2070.92H4094.46V2059.92H4101.3ZM3972.83 2113.96C3972.83 2115.59 3972.45 2117.08 3971.71 2118.44C3970.96 2119.77 3969.81 2120.85 3968.27 2121.68C3966.72 2122.51 3964.8 2122.92 3962.51 2122.92H3958.27V2133H3951.43V2104.92H3962.51C3964.75 2104.92 3966.64 2105.31 3968.19 2106.08C3969.73 2106.85 3970.89 2107.92 3971.67 2109.28C3972.44 2110.64 3972.83 2112.2 3972.83 2113.96ZM3961.99 2117.48C3963.29 2117.48 3964.27 2117.17 3964.91 2116.56C3965.55 2115.95 3965.87 2115.08 3965.87 2113.96C3965.87 2112.84 3965.55 2111.97 3964.91 2111.36C3964.27 2110.75 3963.29 2110.44 3961.99 2110.44H3958.27V2117.48H3961.99ZM4001.67 2133.28C3999.03 2133.28 3996.6 2132.67 3994.39 2131.44C3992.2 2130.21 3990.45 2128.51 3989.15 2126.32C3987.87 2124.11 3987.23 2121.63 3987.23 2118.88C3987.23 2116.13 3987.87 2113.67 3989.15 2111.48C3990.45 2109.29 3992.2 2107.59 3994.39 2106.36C3996.6 2105.13 3999.03 2104.52 4001.67 2104.52C4004.31 2104.52 4006.72 2105.13 4008.91 2106.36C4011.12 2107.59 4012.85 2109.29 4014.11 2111.48C4015.39 2113.67 4016.03 2116.13 4016.03 2118.88C4016.03 2121.63 4015.39 2124.11 4014.11 2126.32C4012.83 2128.51 4011.09 2130.21 4008.91 2131.44C4006.72 2132.67 4004.31 2133.28 4001.67 2133.28ZM4001.67 2127.04C4003.91 2127.04 4005.69 2126.29 4007.03 2124.8C4008.39 2123.31 4009.07 2121.33 4009.07 2118.88C4009.07 2116.4 4008.39 2114.43 4007.03 2112.96C4005.69 2111.47 4003.91 2110.72 4001.67 2110.72C3999.4 2110.72 3997.59 2111.45 3996.23 2112.92C3994.89 2114.39 3994.23 2116.37 3994.23 2118.88C3994.23 2121.36 3994.89 2123.35 3996.23 2124.84C3997.59 2126.31 3999.4 2127.04 4001.67 2127.04ZM4038.67 2127.72H4047.63V2133H4031.83V2104.92H4038.67V2127.72ZM4069.73 2110.4V2116.08H4078.89V2121.36H4069.73V2127.52H4080.09V2133H4062.89V2104.92H4080.09V2110.4H4069.73Z" fill="white"/>
</g>
<circle cx="2044" cy="2024" r="600" fill="#E8D400"/>
<circle cx="2056" cy="2024" r="450" fill="#F1E566" fill-opacity="0.91"/>
<g filter="url(#filter14_d_96_58)">
<path d="M1824.43 1989.61V2002.76H1806.58V2057H1790.16V2002.76H1772.3V1989.61H1824.43ZM1919.84 1989.61V2057H1903.42V2029.26H1877.89V2057H1861.47V1989.61H1877.89V2016.01H1903.42V1989.61H1919.84ZM1976.91 2002.76V2016.39H1998.89V2029.06H1976.91V2043.85H2001.77V2057H1960.49V1989.61H2001.77V2002.76H1976.91ZM2114.75 2057.67C2109.83 2057.67 2105.41 2056.87 2101.51 2055.27C2097.6 2053.67 2094.47 2051.3 2092.1 2048.17C2089.79 2045.03 2088.58 2041.26 2088.45 2036.84H2105.92C2106.18 2039.34 2107.04 2041.26 2108.51 2042.6C2109.99 2043.88 2111.91 2044.52 2114.27 2044.52C2116.71 2044.52 2118.63 2043.98 2120.03 2042.89C2121.44 2041.74 2122.15 2040.17 2122.15 2038.18C2122.15 2036.52 2121.57 2035.14 2120.42 2034.06C2119.33 2032.97 2117.95 2032.07 2116.29 2031.37C2114.69 2030.66 2112.39 2029.86 2109.38 2028.97C2105.03 2027.62 2101.47 2026.28 2098.72 2024.94C2095.97 2023.59 2093.6 2021.61 2091.62 2018.98C2089.63 2016.36 2088.64 2012.94 2088.64 2008.71C2088.64 2002.44 2090.91 1997.54 2095.46 1994.02C2100 1990.44 2105.92 1988.65 2113.22 1988.65C2120.64 1988.65 2126.63 1990.44 2131.17 1994.02C2135.71 1997.54 2138.15 2002.47 2138.47 2008.81H2120.71C2120.58 2006.63 2119.78 2004.94 2118.31 2003.72C2116.83 2002.44 2114.95 2001.8 2112.64 2001.8C2110.66 2001.8 2109.06 2002.34 2107.84 2003.43C2106.63 2004.46 2106.02 2005.96 2106.02 2007.94C2106.02 2010.12 2107.04 2011.82 2109.09 2013.03C2111.14 2014.25 2114.34 2015.56 2118.69 2016.97C2123.04 2018.44 2126.56 2019.85 2129.25 2021.19C2132 2022.54 2134.37 2024.49 2136.35 2027.05C2138.34 2029.61 2139.33 2032.9 2139.33 2036.94C2139.33 2040.78 2138.34 2044.26 2136.35 2047.4C2134.43 2050.54 2131.62 2053.03 2127.91 2054.89C2124.19 2056.74 2119.81 2057.67 2114.75 2057.67ZM2194.36 1989.61V2029.93C2194.36 2033.96 2195.35 2037.06 2197.34 2039.24C2199.32 2041.42 2202.23 2042.5 2206.07 2042.5C2209.91 2042.5 2212.86 2041.42 2214.91 2039.24C2216.95 2037.06 2217.98 2033.96 2217.98 2029.93V1989.61H2234.39V2029.83C2234.39 2035.85 2233.11 2040.94 2230.55 2045.1C2227.99 2049.26 2224.54 2052.39 2220.19 2054.5C2215.9 2056.62 2211.1 2057.67 2205.79 2057.67C2200.47 2057.67 2195.71 2056.65 2191.48 2054.6C2187.32 2052.49 2184.03 2049.35 2181.59 2045.19C2179.16 2040.97 2177.95 2035.85 2177.95 2029.83V1989.61H2194.36ZM2335.01 2057H2318.59L2291.14 2015.43V2057H2274.72V1989.61H2291.14L2318.59 2031.37V1989.61H2335.01V2057Z" fill="white"/>
</g>
<path d="M1491 3625L2599 3625" stroke="white" stroke-width="12" stroke-linecap="round"/>
<g filter="url(#filter15_d_96_58)">
<circle cx="2044" cy="3625" r="350" fill="#1A3E40"/>
</g>
<g filter="url(#filter16_d_96_58)">
<circle cx="2044" cy="3625" r="300" fill="#589297"/>
</g>
<g filter="url(#filter17_d_96_58)">
<circle cx="2044" cy="3625" r="200" fill="#89D6DC"/>
</g>
<g filter="url(#filter18_d_96_58)">
<path d="M2014.5 3243.02C2012.78 3250.91 2011.12 3259.15 2009.46 3267.74C2008.83 3271.09 2008.17 3274.49 2007.54 3277.94C2008.71 3280.95 2009.87 3284.01 2011.01 3287.17C2012.18 3280.28 2013.39 3273.64 2014.57 3267.21C2015.63 3261.6 2016.71 3256.14 2017.79 3250.89C2030.9 3186.96 2045.77 3149.85 2060.12 3152.59C2075.86 3155.56 2088.08 3206.11 2095.23 3286.09C2100.88 3349.18 2103.34 3430.64 2101.96 3521.51C2101.53 3547.71 2100.83 3574.75 2099.77 3602.31C2099.54 3608.39 2099.28 3614.53 2098.99 3620.72C2093.53 3744.95 2082.18 3856.37 2068.17 3936.77C2067.57 3940.17 2066.97 3943.51 2066.36 3946.8C2065.91 3949.33 2065.46 3951.74 2065 3954.22C2051.27 4026.64 2035.27 4069.36 2019.94 4066.47C2004.83 4063.62 1993.01 4017.08 1985.77 3942.83C1984.11 3942.09 1982.45 3941.29 1980.82 3940.45C1989.97 4031.1 2005.69 4089.15 2025.68 4092.91C2044.2 4096.43 2063.1 4052.92 2079.25 3978.59C2079.88 3975.76 2080.47 3972.87 2081.09 3969.94C2082.45 3963.29 2083.84 3956.39 2085.15 3949.34C2098.56 3878 2109.56 3784.71 2115.96 3680.25C2117.09 3662.02 2118.07 3643.4 2118.89 3624.53C2119.27 3615.99 2119.61 3607.55 2119.89 3599.12C2124.02 3485 2121.78 3380.26 2114.59 3298.7C2105.75 3198.13 2089.33 3132.81 2068.07 3128.8C2049.55 3125.18 2030.62 3168.7 2014.5 3243.02Z" fill="#1A3E40"/>
</g>
<g filter="url(#filter19_d_96_58)">
<path d="M1954.2 3610.92V3627.72C1954.2 3629.4 1954.61 3630.69 1955.44 3631.6C1956.27 3632.51 1957.48 3632.96 1959.08 3632.96C1960.68 3632.96 1961.91 3632.51 1962.76 3631.6C1963.61 3630.69 1964.04 3629.4 1964.04 3627.72V3610.92H1970.88V3627.68C1970.88 3630.19 1970.35 3632.31 1969.28 3634.04C1968.21 3635.77 1966.77 3637.08 1964.96 3637.96C1963.17 3638.84 1961.17 3639.28 1958.96 3639.28C1956.75 3639.28 1954.76 3638.85 1953 3638C1951.27 3637.12 1949.89 3635.81 1948.88 3634.08C1947.87 3632.32 1947.36 3630.19 1947.36 3627.68V3610.92H1954.2ZM2002 3639L1996.16 3628.4H1994.52V3639H1987.68V3610.92H1999.16C2001.38 3610.92 2003.26 3611.31 2004.8 3612.08C2006.38 3612.85 2007.55 3613.92 2008.32 3615.28C2009.1 3616.61 2009.48 3618.11 2009.48 3619.76C2009.48 3621.63 2008.95 3623.29 2007.88 3624.76C2006.84 3626.23 2005.3 3627.27 2003.24 3627.88L2009.72 3639H2002ZM1994.52 3623.56H1998.76C2000.02 3623.56 2000.95 3623.25 2001.56 3622.64C2002.2 3622.03 2002.52 3621.16 2002.52 3620.04C2002.52 3618.97 2002.2 3618.13 2001.56 3617.52C2000.95 3616.91 2000.02 3616.6 1998.76 3616.6H1994.52V3623.56ZM2043.26 3634.04H2032.78L2031.1 3639H2023.94L2034.1 3610.92H2042.02L2052.18 3639H2044.94L2043.26 3634.04ZM2041.5 3628.76L2038.02 3618.48L2034.58 3628.76H2041.5ZM2092.39 3639H2085.55L2074.11 3621.68V3639H2067.27V3610.92H2074.11L2085.55 3628.32V3610.92H2092.39V3639ZM2116.07 3610.92V3627.72C2116.07 3629.4 2116.48 3630.69 2117.31 3631.6C2118.13 3632.51 2119.35 3632.96 2120.95 3632.96C2122.55 3632.96 2123.77 3632.51 2124.63 3631.6C2125.48 3630.69 2125.91 3629.4 2125.91 3627.72V3610.92H2132.75V3627.68C2132.75 3630.19 2132.21 3632.31 2131.15 3634.04C2130.08 3635.77 2128.64 3637.08 2126.83 3637.96C2125.04 3638.84 2123.04 3639.28 2120.83 3639.28C2118.61 3639.28 2116.63 3638.85 2114.87 3638C2113.13 3637.12 2111.76 3635.81 2110.75 3634.08C2109.73 3632.32 2109.23 3630.19 2109.23 3627.68V3610.92H2116.07ZM2159.71 3639.28C2157.66 3639.28 2155.82 3638.95 2154.19 3638.28C2152.56 3637.61 2151.26 3636.63 2150.27 3635.32C2149.31 3634.01 2148.8 3632.44 2148.75 3630.6H2156.03C2156.14 3631.64 2156.5 3632.44 2157.11 3633C2157.72 3633.53 2158.52 3633.8 2159.51 3633.8C2160.52 3633.8 2161.32 3633.57 2161.91 3633.12C2162.5 3632.64 2162.79 3631.99 2162.79 3631.16C2162.79 3630.47 2162.55 3629.89 2162.07 3629.44C2161.62 3628.99 2161.04 3628.61 2160.35 3628.32C2159.68 3628.03 2158.72 3627.69 2157.47 3627.32C2155.66 3626.76 2154.18 3626.2 2153.03 3625.64C2151.88 3625.08 2150.9 3624.25 2150.07 3623.16C2149.24 3622.07 2148.83 3620.64 2148.83 3618.88C2148.83 3616.27 2149.78 3614.23 2151.67 3612.76C2153.56 3611.27 2156.03 3610.52 2159.07 3610.52C2162.16 3610.52 2164.66 3611.27 2166.55 3612.76C2168.44 3614.23 2169.46 3616.28 2169.59 3618.92H2162.19C2162.14 3618.01 2161.8 3617.31 2161.19 3616.8C2160.58 3616.27 2159.79 3616 2158.83 3616C2158 3616 2157.34 3616.23 2156.83 3616.68C2156.32 3617.11 2156.07 3617.73 2156.07 3618.56C2156.07 3619.47 2156.5 3620.17 2157.35 3620.68C2158.2 3621.19 2159.54 3621.73 2161.35 3622.32C2163.16 3622.93 2164.63 3623.52 2165.75 3624.08C2166.9 3624.64 2167.88 3625.45 2168.71 3626.52C2169.54 3627.59 2169.95 3628.96 2169.95 3630.64C2169.95 3632.24 2169.54 3633.69 2168.71 3635C2167.91 3636.31 2166.74 3637.35 2165.19 3638.12C2163.64 3638.89 2161.82 3639.28 2159.71 3639.28Z" fill="white"/>
</g>
<g filter="url(#filter20_d_96_58)">
<path d="M1507.57 3681.28C1505.51 3681.28 1503.67 3680.95 1502.05 3680.28C1500.42 3679.61 1499.11 3678.63 1498.13 3677.32C1497.17 3676.01 1496.66 3674.44 1496.61 3672.6H1503.89C1503.99 3673.64 1504.35 3674.44 1504.97 3675C1505.58 3675.53 1506.38 3675.8 1507.37 3675.8C1508.38 3675.8 1509.18 3675.57 1509.77 3675.12C1510.35 3674.64 1510.65 3673.99 1510.65 3673.16C1510.65 3672.47 1510.41 3671.89 1509.93 3671.44C1509.47 3670.99 1508.9 3670.61 1508.21 3670.32C1507.54 3670.03 1506.58 3669.69 1505.33 3669.32C1503.51 3668.76 1502.03 3668.2 1500.89 3667.64C1499.74 3667.08 1498.75 3666.25 1497.93 3665.16C1497.1 3664.07 1496.69 3662.64 1496.69 3660.88C1496.69 3658.27 1497.63 3656.23 1499.53 3654.76C1501.42 3653.27 1503.89 3652.52 1506.93 3652.52C1510.02 3652.52 1512.51 3653.27 1514.41 3654.76C1516.3 3656.23 1517.31 3658.28 1517.45 3660.92H1510.05C1509.99 3660.01 1509.66 3659.31 1509.05 3658.8C1508.43 3658.27 1507.65 3658 1506.69 3658C1505.86 3658 1505.19 3658.23 1504.69 3658.68C1504.18 3659.11 1503.93 3659.73 1503.93 3660.56C1503.93 3661.47 1504.35 3662.17 1505.21 3662.68C1506.06 3663.19 1507.39 3663.73 1509.21 3664.32C1511.02 3664.93 1512.49 3665.52 1513.61 3666.08C1514.75 3666.64 1515.74 3667.45 1516.57 3668.52C1517.39 3669.59 1517.81 3670.96 1517.81 3672.64C1517.81 3674.24 1517.39 3675.69 1516.57 3677C1515.77 3678.31 1514.59 3679.35 1513.05 3680.12C1511.5 3680.89 1509.67 3681.28 1507.57 3681.28ZM1547.3 3681.28C1544.66 3681.28 1542.23 3680.67 1540.02 3679.44C1537.83 3678.21 1536.08 3676.51 1534.78 3674.32C1533.5 3672.11 1532.86 3669.63 1532.86 3666.88C1532.86 3664.13 1533.5 3661.67 1534.78 3659.48C1536.08 3657.29 1537.83 3655.59 1540.02 3654.36C1542.23 3653.13 1544.66 3652.52 1547.3 3652.52C1549.94 3652.52 1552.35 3653.13 1554.54 3654.36C1556.75 3655.59 1558.48 3657.29 1559.74 3659.48C1561.02 3661.67 1561.66 3664.13 1561.66 3666.88C1561.66 3669.63 1561.02 3672.11 1559.74 3674.32C1558.46 3676.51 1556.72 3678.21 1554.54 3679.44C1552.35 3680.67 1549.94 3681.28 1547.3 3681.28ZM1547.3 3675.04C1549.54 3675.04 1551.32 3674.29 1552.66 3672.8C1554.02 3671.31 1554.7 3669.33 1554.7 3666.88C1554.7 3664.4 1554.02 3662.43 1552.66 3660.96C1551.32 3659.47 1549.54 3658.72 1547.3 3658.72C1545.03 3658.72 1543.22 3659.45 1541.86 3660.92C1540.52 3662.39 1539.86 3664.37 1539.86 3666.88C1539.86 3669.36 1540.52 3671.35 1541.86 3672.84C1543.22 3674.31 1545.03 3675.04 1547.3 3675.04ZM1584.18 3652.92V3669.72C1584.18 3671.4 1584.59 3672.69 1585.42 3673.6C1586.25 3674.51 1587.46 3674.96 1589.06 3674.96C1590.66 3674.96 1591.89 3674.51 1592.74 3673.6C1593.59 3672.69 1594.02 3671.4 1594.02 3669.72V3652.92H1600.86V3669.68C1600.86 3672.19 1600.33 3674.31 1599.26 3676.04C1598.19 3677.77 1596.75 3679.08 1594.94 3679.96C1593.15 3680.84 1591.15 3681.28 1588.94 3681.28C1586.73 3681.28 1584.74 3680.85 1582.98 3680C1581.25 3679.12 1579.87 3677.81 1578.86 3676.08C1577.85 3674.32 1577.34 3672.19 1577.34 3669.68V3652.92H1584.18ZM1637.86 3652.92V3658.4H1630.42V3681H1623.58V3658.4H1616.14V3652.92H1637.86ZM1677.62 3652.92V3681H1670.78V3669.44H1660.14V3681H1653.3V3652.92H1660.14V3663.92H1670.78V3652.92H1677.62ZM1550.83 3706.96C1550.83 3708.59 1550.45 3710.08 1549.71 3711.44C1548.96 3712.77 1547.81 3713.85 1546.27 3714.68C1544.72 3715.51 1542.8 3715.92 1540.51 3715.92H1536.27V3726H1529.43V3697.92H1540.51C1542.75 3697.92 1544.64 3698.31 1546.19 3699.08C1547.73 3699.85 1548.89 3700.92 1549.67 3702.28C1550.44 3703.64 1550.83 3705.2 1550.83 3706.96ZM1539.99 3710.48C1541.29 3710.48 1542.27 3710.17 1542.91 3709.56C1543.55 3708.95 1543.87 3708.08 1543.87 3706.96C1543.87 3705.84 1543.55 3704.97 1542.91 3704.36C1542.27 3703.75 1541.29 3703.44 1539.99 3703.44H1536.27V3710.48H1539.99ZM1579.67 3726.28C1577.03 3726.28 1574.6 3725.67 1572.39 3724.44C1570.2 3723.21 1568.45 3721.51 1567.15 3719.32C1565.87 3717.11 1565.23 3714.63 1565.23 3711.88C1565.23 3709.13 1565.87 3706.67 1567.15 3704.48C1568.45 3702.29 1570.2 3700.59 1572.39 3699.36C1574.6 3698.13 1577.03 3697.52 1579.67 3697.52C1582.31 3697.52 1584.72 3698.13 1586.91 3699.36C1589.12 3700.59 1590.85 3702.29 1592.11 3704.48C1593.39 3706.67 1594.03 3709.13 1594.03 3711.88C1594.03 3714.63 1593.39 3717.11 1592.11 3719.32C1590.83 3721.51 1589.09 3723.21 1586.91 3724.44C1584.72 3725.67 1582.31 3726.28 1579.67 3726.28ZM1579.67 3720.04C1581.91 3720.04 1583.69 3719.29 1585.03 3717.8C1586.39 3716.31 1587.07 3714.33 1587.07 3711.88C1587.07 3709.4 1586.39 3707.43 1585.03 3705.96C1583.69 3704.47 1581.91 3703.72 1579.67 3703.72C1577.4 3703.72 1575.59 3704.45 1574.23 3705.92C1572.89 3707.39 1572.23 3709.37 1572.23 3711.88C1572.23 3714.36 1572.89 3716.35 1574.23 3717.84C1575.59 3719.31 1577.4 3720.04 1579.67 3720.04ZM1616.67 3720.72H1625.63V3726H1609.83V3697.92H1616.67V3720.72ZM1647.73 3703.4V3709.08H1656.89V3714.36H1647.73V3720.52H1658.09V3726H1640.89V3697.92H1658.09V3703.4H1647.73Z" fill="white"/>
</g>
<g filter="url(#filter21_d_96_58)">
<path d="M2427.85 3689H2421.01L2409.57 3671.68V3689H2402.73V3660.92H2409.57L2421.01 3678.32V3660.92H2427.85V3689ZM2458.08 3689.28C2455.44 3689.28 2453.02 3688.67 2450.8 3687.44C2448.62 3686.21 2446.87 3684.51 2445.56 3682.32C2444.28 3680.11 2443.64 3677.63 2443.64 3674.88C2443.64 3672.13 2444.28 3669.67 2445.56 3667.48C2446.87 3665.29 2448.62 3663.59 2450.8 3662.36C2453.02 3661.13 2455.44 3660.52 2458.08 3660.52C2460.72 3660.52 2463.14 3661.13 2465.32 3662.36C2467.54 3663.59 2469.27 3665.29 2470.52 3667.48C2471.8 3669.67 2472.44 3672.13 2472.44 3674.88C2472.44 3677.63 2471.8 3680.11 2470.52 3682.32C2469.24 3684.51 2467.51 3686.21 2465.32 3687.44C2463.14 3688.67 2460.72 3689.28 2458.08 3689.28ZM2458.08 3683.04C2460.32 3683.04 2462.11 3682.29 2463.44 3680.8C2464.8 3679.31 2465.48 3677.33 2465.48 3674.88C2465.48 3672.4 2464.8 3670.43 2463.44 3668.96C2462.11 3667.47 2460.32 3666.72 2458.08 3666.72C2455.82 3666.72 2454 3667.45 2452.64 3668.92C2451.31 3670.39 2450.64 3672.37 2450.64 3674.88C2450.64 3677.36 2451.31 3679.35 2452.64 3680.84C2454 3682.31 2455.82 3683.04 2458.08 3683.04ZM2502.57 3689L2496.73 3678.4H2495.09V3689H2488.25V3660.92H2499.73C2501.94 3660.92 2503.82 3661.31 2505.37 3662.08C2506.94 3662.85 2508.12 3663.92 2508.89 3665.28C2509.66 3666.61 2510.05 3668.11 2510.05 3669.76C2510.05 3671.63 2509.52 3673.29 2508.45 3674.76C2507.41 3676.23 2505.86 3677.27 2503.81 3677.88L2510.29 3689H2502.57ZM2495.09 3673.56H2499.33C2500.58 3673.56 2501.52 3673.25 2502.13 3672.64C2502.77 3672.03 2503.09 3671.16 2503.09 3670.04C2503.09 3668.97 2502.77 3668.13 2502.13 3667.52C2501.52 3666.91 2500.58 3666.6 2499.33 3666.6H2495.09V3673.56ZM2546.54 3660.92V3666.4H2539.1V3689H2532.26V3666.4H2524.82V3660.92H2546.54ZM2586.3 3660.92V3689H2579.46V3677.44H2568.82V3689H2561.98V3660.92H2568.82V3671.92H2579.46V3660.92H2586.3ZM2457.83 3714.96C2457.83 3716.59 2457.45 3718.08 2456.71 3719.44C2455.96 3720.77 2454.81 3721.85 2453.27 3722.68C2451.72 3723.51 2449.8 3723.92 2447.51 3723.92H2443.27V3734H2436.43V3705.92H2447.51C2449.75 3705.92 2451.64 3706.31 2453.19 3707.08C2454.73 3707.85 2455.89 3708.92 2456.67 3710.28C2457.44 3711.64 2457.83 3713.2 2457.83 3714.96ZM2446.99 3718.48C2448.29 3718.48 2449.27 3718.17 2449.91 3717.56C2450.55 3716.95 2450.87 3716.08 2450.87 3714.96C2450.87 3713.84 2450.55 3712.97 2449.91 3712.36C2449.27 3711.75 2448.29 3711.44 2446.99 3711.44H2443.27V3718.48H2446.99ZM2486.67 3734.28C2484.03 3734.28 2481.6 3733.67 2479.39 3732.44C2477.2 3731.21 2475.45 3729.51 2474.15 3727.32C2472.87 3725.11 2472.23 3722.63 2472.23 3719.88C2472.23 3717.13 2472.87 3714.67 2474.15 3712.48C2475.45 3710.29 2477.2 3708.59 2479.39 3707.36C2481.6 3706.13 2484.03 3705.52 2486.67 3705.52C2489.31 3705.52 2491.72 3706.13 2493.91 3707.36C2496.12 3708.59 2497.85 3710.29 2499.11 3712.48C2500.39 3714.67 2501.03 3717.13 2501.03 3719.88C2501.03 3722.63 2500.39 3725.11 2499.11 3727.32C2497.83 3729.51 2496.09 3731.21 2493.91 3732.44C2491.72 3733.67 2489.31 3734.28 2486.67 3734.28ZM2486.67 3728.04C2488.91 3728.04 2490.69 3727.29 2492.03 3725.8C2493.39 3724.31 2494.07 3722.33 2494.07 3719.88C2494.07 3717.4 2493.39 3715.43 2492.03 3713.96C2490.69 3712.47 2488.91 3711.72 2486.67 3711.72C2484.4 3711.72 2482.59 3712.45 2481.23 3713.92C2479.89 3715.39 2479.23 3717.37 2479.23 3719.88C2479.23 3722.36 2479.89 3724.35 2481.23 3725.84C2482.59 3727.31 2484.4 3728.04 2486.67 3728.04ZM2523.67 3728.72H2532.63V3734H2516.83V3705.92H2523.67V3728.72ZM2554.73 3711.4V3717.08H2563.89V3722.36H2554.73V3728.52H2565.09V3734H2547.89V3705.92H2565.09V3711.4H2554.73Z" fill="white"/>
</g>
<path d="M1506 497L2614 497" stroke="white" stroke-width="12" stroke-linecap="round"/>
<g filter="url(#filter22_d_96_58)">
<circle cx="2059" cy="497" r="350" fill="#1A3E40"/>
</g>
<g filter="url(#filter23_d_96_58)">
<circle cx="2059" cy="497" r="300" fill="#589297"/>
</g>
<g filter="url(#filter24_d_96_58)">
<circle cx="2059" cy="497" r="200" fill="#89D6DC"/>
</g>
<g filter="url(#filter25_d_96_58)">
<path d="M2029.5 115.019C2027.78 122.905 2026.12 131.146 2024.46 139.743C2023.83 143.089 2023.17 146.488 2022.54 149.935C2023.71 152.946 2024.87 156.008 2026.01 159.173C2027.18 152.282 2028.39 145.643 2029.57 139.21C2030.63 133.599 2031.71 128.141 2032.79 122.887C2045.9 58.9592 2060.77 21.8536 2075.12 24.5851C2090.86 27.5612 2103.08 78.1131 2110.23 158.087C2115.88 221.182 2118.34 302.641 2116.96 393.509C2116.53 419.713 2115.83 446.747 2114.77 474.307C2114.54 480.391 2114.28 486.528 2113.99 492.717C2108.53 616.945 2097.18 728.367 2083.17 808.77C2082.57 812.166 2081.97 815.51 2081.36 818.804C2080.91 821.325 2080.46 823.744 2080 826.215C2066.27 898.643 2050.27 941.362 2034.94 938.47C2019.83 935.619 2008.01 889.082 2000.77 814.828C1999.11 814.085 1997.45 813.291 1995.82 812.445C2004.97 903.101 2020.69 961.154 2040.68 964.911C2059.2 968.427 2078.1 924.916 2094.25 850.593C2094.88 847.758 2095.47 844.873 2096.09 841.936C2097.45 835.291 2098.84 828.39 2100.15 821.339C2113.56 749.996 2124.56 656.71 2130.96 552.246C2132.09 534.024 2133.07 515.4 2133.89 496.529C2134.27 487.988 2134.61 479.55 2134.89 471.116C2139.02 357.003 2136.78 252.258 2129.59 170.703C2120.75 70.1316 2104.33 4.80986 2083.07 0.802732C2064.55 -2.81557 2045.62 40.6979 2029.5 115.019Z" fill="#1A3E40"/>
</g>
<g filter="url(#filter26_d_96_58)">
<path d="M1969.2 482.92V499.72C1969.2 501.4 1969.61 502.693 1970.44 503.6C1971.27 504.507 1972.48 504.96 1974.08 504.96C1975.68 504.96 1976.91 504.507 1977.76 503.6C1978.61 502.693 1979.04 501.4 1979.04 499.72V482.92H1985.88V499.68C1985.88 502.187 1985.35 504.307 1984.28 506.04C1983.21 507.773 1981.77 509.08 1979.96 509.96C1978.17 510.84 1976.17 511.28 1973.96 511.28C1971.75 511.28 1969.76 510.853 1968 510C1966.27 509.12 1964.89 507.813 1963.88 506.08C1962.87 504.32 1962.36 502.187 1962.36 499.68V482.92H1969.2ZM2017 511L2011.16 500.4H2009.52V511H2002.68V482.92H2014.16C2016.38 482.92 2018.26 483.307 2019.8 484.08C2021.38 484.853 2022.55 485.92 2023.32 487.28C2024.1 488.613 2024.48 490.107 2024.48 491.76C2024.48 493.627 2023.95 495.293 2022.88 496.76C2021.84 498.227 2020.3 499.267 2018.24 499.88L2024.72 511H2017ZM2009.52 495.56H2013.76C2015.02 495.56 2015.95 495.253 2016.56 494.64C2017.2 494.027 2017.52 493.16 2017.52 492.04C2017.52 490.973 2017.2 490.133 2016.56 489.52C2015.95 488.907 2015.02 488.6 2013.76 488.6H2009.52V495.56ZM2058.26 506.04H2047.78L2046.1 511H2038.94L2049.1 482.92H2057.02L2067.18 511H2059.94L2058.26 506.04ZM2056.5 500.76L2053.02 490.48L2049.58 500.76H2056.5ZM2107.39 511H2100.55L2089.11 493.68V511H2082.27V482.92H2089.11L2100.55 500.32V482.92H2107.39V511ZM2131.07 482.92V499.72C2131.07 501.4 2131.48 502.693 2132.31 503.6C2133.13 504.507 2134.35 504.96 2135.95 504.96C2137.55 504.96 2138.77 504.507 2139.63 503.6C2140.48 502.693 2140.91 501.4 2140.91 499.72V482.92H2147.75V499.68C2147.75 502.187 2147.21 504.307 2146.15 506.04C2145.08 507.773 2143.64 509.08 2141.83 509.96C2140.04 510.84 2138.04 511.28 2135.83 511.28C2133.61 511.28 2131.63 510.853 2129.87 510C2128.13 509.12 2126.76 507.813 2125.75 506.08C2124.73 504.32 2124.23 502.187 2124.23 499.68V482.92H2131.07ZM2174.71 511.28C2172.66 511.28 2170.82 510.947 2169.19 510.28C2167.56 509.613 2166.26 508.627 2165.27 507.32C2164.31 506.013 2163.8 504.44 2163.75 502.6H2171.03C2171.14 503.64 2171.5 504.44 2172.11 505C2172.72 505.533 2173.52 505.8 2174.51 505.8C2175.52 505.8 2176.32 505.573 2176.91 505.12C2177.5 504.64 2177.79 503.987 2177.79 503.16C2177.79 502.467 2177.55 501.893 2177.07 501.44C2176.62 500.987 2176.04 500.613 2175.35 500.32C2174.68 500.027 2173.72 499.693 2172.47 499.32C2170.66 498.76 2169.18 498.2 2168.03 497.64C2166.88 497.08 2165.9 496.253 2165.07 495.16C2164.24 494.067 2163.83 492.64 2163.83 490.88C2163.83 488.267 2164.78 486.227 2166.67 484.76C2168.56 483.267 2171.03 482.52 2174.07 482.52C2177.16 482.52 2179.66 483.267 2181.55 484.76C2183.44 486.227 2184.46 488.28 2184.59 490.92H2177.19C2177.14 490.013 2176.8 489.307 2176.19 488.8C2175.58 488.267 2174.79 488 2173.83 488C2173 488 2172.34 488.227 2171.83 488.68C2171.32 489.107 2171.07 489.733 2171.07 490.56C2171.07 491.467 2171.5 492.173 2172.35 492.68C2173.2 493.187 2174.54 493.733 2176.35 494.32C2178.16 494.933 2179.63 495.52 2180.75 496.08C2181.9 496.64 2182.88 497.453 2183.71 498.52C2184.54 499.587 2184.95 500.96 2184.95 502.64C2184.95 504.24 2184.54 505.693 2183.71 507C2182.91 508.307 2181.74 509.347 2180.19 510.12C2178.64 510.893 2176.82 511.28 2174.71 511.28Z" fill="white"/>
</g>
<g filter="url(#filter27_d_96_58)">
<path d="M1515.57 421.28C1513.51 421.28 1511.67 420.947 1510.05 420.28C1508.42 419.613 1507.11 418.627 1506.13 417.32C1505.17 416.013 1504.66 414.44 1504.61 412.6H1511.89C1511.99 413.64 1512.35 414.44 1512.97 415C1513.58 415.533 1514.38 415.8 1515.37 415.8C1516.38 415.8 1517.18 415.573 1517.77 415.12C1518.35 414.64 1518.65 413.987 1518.65 413.16C1518.65 412.467 1518.41 411.893 1517.93 411.44C1517.47 410.987 1516.9 410.613 1516.21 410.32C1515.54 410.027 1514.58 409.693 1513.33 409.32C1511.51 408.76 1510.03 408.2 1508.89 407.64C1507.74 407.08 1506.75 406.253 1505.93 405.16C1505.1 404.067 1504.69 402.64 1504.69 400.88C1504.69 398.267 1505.63 396.227 1507.53 394.76C1509.42 393.267 1511.89 392.52 1514.93 392.52C1518.02 392.52 1520.51 393.267 1522.41 394.76C1524.3 396.227 1525.31 398.28 1525.45 400.92H1518.05C1517.99 400.013 1517.66 399.307 1517.05 398.8C1516.43 398.267 1515.65 398 1514.69 398C1513.86 398 1513.19 398.227 1512.69 398.68C1512.18 399.107 1511.93 399.733 1511.93 400.56C1511.93 401.467 1512.35 402.173 1513.21 402.68C1514.06 403.187 1515.39 403.733 1517.21 404.32C1519.02 404.933 1520.49 405.52 1521.61 406.08C1522.75 406.64 1523.74 407.453 1524.57 408.52C1525.39 409.587 1525.81 410.96 1525.81 412.64C1525.81 414.24 1525.39 415.693 1524.57 417C1523.77 418.307 1522.59 419.347 1521.05 420.12C1519.5 420.893 1517.67 421.28 1515.57 421.28ZM1555.3 421.28C1552.66 421.28 1550.23 420.667 1548.02 419.44C1545.83 418.213 1544.08 416.507 1542.78 414.32C1541.5 412.107 1540.86 409.627 1540.86 406.88C1540.86 404.133 1541.5 401.667 1542.78 399.48C1544.08 397.293 1545.83 395.587 1548.02 394.36C1550.23 393.133 1552.66 392.52 1555.3 392.52C1557.94 392.52 1560.35 393.133 1562.54 394.36C1564.75 395.587 1566.48 397.293 1567.74 399.48C1569.02 401.667 1569.66 404.133 1569.66 406.88C1569.66 409.627 1569.02 412.107 1567.74 414.32C1566.46 416.507 1564.72 418.213 1562.54 419.44C1560.35 420.667 1557.94 421.28 1555.3 421.28ZM1555.3 415.04C1557.54 415.04 1559.32 414.293 1560.66 412.8C1562.02 411.307 1562.7 409.333 1562.7 406.88C1562.7 404.4 1562.02 402.427 1560.66 400.96C1559.32 399.467 1557.54 398.72 1555.3 398.72C1553.03 398.72 1551.22 399.453 1549.86 400.92C1548.52 402.387 1547.86 404.373 1547.86 406.88C1547.86 409.36 1548.52 411.347 1549.86 412.84C1551.22 414.307 1553.03 415.04 1555.3 415.04ZM1592.18 392.92V409.72C1592.18 411.4 1592.59 412.693 1593.42 413.6C1594.25 414.507 1595.46 414.96 1597.06 414.96C1598.66 414.96 1599.89 414.507 1600.74 413.6C1601.59 412.693 1602.02 411.4 1602.02 409.72V392.92H1608.86V409.68C1608.86 412.187 1608.33 414.307 1607.26 416.04C1606.19 417.773 1604.75 419.08 1602.94 419.96C1601.15 420.84 1599.15 421.28 1596.94 421.28C1594.73 421.28 1592.74 420.853 1590.98 420C1589.25 419.12 1587.87 417.813 1586.86 416.08C1585.85 414.32 1585.34 412.187 1585.34 409.68V392.92H1592.18ZM1645.86 392.92V398.4H1638.42V421H1631.58V398.4H1624.14V392.92H1645.86ZM1685.62 392.92V421H1678.78V409.44H1668.14V421H1661.3V392.92H1668.14V403.92H1678.78V392.92H1685.62ZM1558.83 446.96C1558.83 448.587 1558.45 450.08 1557.71 451.44C1556.96 452.773 1555.81 453.853 1554.27 454.68C1552.72 455.507 1550.8 455.92 1548.51 455.92H1544.27V466H1537.43V437.92H1548.51C1550.75 437.92 1552.64 438.307 1554.19 439.08C1555.73 439.853 1556.89 440.92 1557.67 442.28C1558.44 443.64 1558.83 445.2 1558.83 446.96ZM1547.99 450.48C1549.29 450.48 1550.27 450.173 1550.91 449.56C1551.55 448.947 1551.87 448.08 1551.87 446.96C1551.87 445.84 1551.55 444.973 1550.91 444.36C1550.27 443.747 1549.29 443.44 1547.99 443.44H1544.27V450.48H1547.99ZM1587.67 466.28C1585.03 466.28 1582.6 465.667 1580.39 464.44C1578.2 463.213 1576.45 461.507 1575.15 459.32C1573.87 457.107 1573.23 454.627 1573.23 451.88C1573.23 449.133 1573.87 446.667 1575.15 444.48C1576.45 442.293 1578.2 440.587 1580.39 439.36C1582.6 438.133 1585.03 437.52 1587.67 437.52C1590.31 437.52 1592.72 438.133 1594.91 439.36C1597.12 440.587 1598.85 442.293 1600.11 444.48C1601.39 446.667 1602.03 449.133 1602.03 451.88C1602.03 454.627 1601.39 457.107 1600.11 459.32C1598.83 461.507 1597.09 463.213 1594.91 464.44C1592.72 465.667 1590.31 466.28 1587.67 466.28ZM1587.67 460.04C1589.91 460.04 1591.69 459.293 1593.03 457.8C1594.39 456.307 1595.07 454.333 1595.07 451.88C1595.07 449.4 1594.39 447.427 1593.03 445.96C1591.69 444.467 1589.91 443.72 1587.67 443.72C1585.4 443.72 1583.59 444.453 1582.23 445.92C1580.89 447.387 1580.23 449.373 1580.23 451.88C1580.23 454.36 1580.89 456.347 1582.23 457.84C1583.59 459.307 1585.4 460.04 1587.67 460.04ZM1624.67 460.72H1633.63V466H1617.83V437.92H1624.67V460.72ZM1655.73 443.4V449.08H1664.89V454.36H1655.73V460.52H1666.09V466H1648.89V437.92H1666.09V443.4H1655.73Z" fill="white"/>
</g>
<g filter="url(#filter28_d_96_58)">
<path d="M2440.85 421H2434.01L2422.57 403.68V421H2415.73V392.92H2422.57L2434.01 410.32V392.92H2440.85V421ZM2471.08 421.28C2468.44 421.28 2466.02 420.667 2463.8 419.44C2461.62 418.213 2459.87 416.507 2458.56 414.32C2457.28 412.107 2456.64 409.627 2456.64 406.88C2456.64 404.133 2457.28 401.667 2458.56 399.48C2459.87 397.293 2461.62 395.587 2463.8 394.36C2466.02 393.133 2468.44 392.52 2471.08 392.52C2473.72 392.52 2476.14 393.133 2478.32 394.36C2480.54 395.587 2482.27 397.293 2483.52 399.48C2484.8 401.667 2485.44 404.133 2485.44 406.88C2485.44 409.627 2484.8 412.107 2483.52 414.32C2482.24 416.507 2480.51 418.213 2478.32 419.44C2476.14 420.667 2473.72 421.28 2471.08 421.28ZM2471.08 415.04C2473.32 415.04 2475.11 414.293 2476.44 412.8C2477.8 411.307 2478.48 409.333 2478.48 406.88C2478.48 404.4 2477.8 402.427 2476.44 400.96C2475.11 399.467 2473.32 398.72 2471.08 398.72C2468.82 398.72 2467 399.453 2465.64 400.92C2464.31 402.387 2463.64 404.373 2463.64 406.88C2463.64 409.36 2464.31 411.347 2465.64 412.84C2467 414.307 2468.82 415.04 2471.08 415.04ZM2515.57 421L2509.73 410.4H2508.09V421H2501.25V392.92H2512.73C2514.94 392.92 2516.82 393.307 2518.37 394.08C2519.94 394.853 2521.12 395.92 2521.89 397.28C2522.66 398.613 2523.05 400.107 2523.05 401.76C2523.05 403.627 2522.52 405.293 2521.45 406.76C2520.41 408.227 2518.86 409.267 2516.81 409.88L2523.29 421H2515.57ZM2508.09 405.56H2512.33C2513.58 405.56 2514.52 405.253 2515.13 404.64C2515.77 404.027 2516.09 403.16 2516.09 402.04C2516.09 400.973 2515.77 400.133 2515.13 399.52C2514.52 398.907 2513.58 398.6 2512.33 398.6H2508.09V405.56ZM2559.54 392.92V398.4H2552.1V421H2545.26V398.4H2537.82V392.92H2559.54ZM2599.3 392.92V421H2592.46V409.44H2581.82V421H2574.98V392.92H2581.82V403.92H2592.46V392.92H2599.3ZM2470.83 446.96C2470.83 448.587 2470.45 450.08 2469.71 451.44C2468.96 452.773 2467.81 453.853 2466.27 454.68C2464.72 455.507 2462.8 455.92 2460.51 455.92H2456.27V466H2449.43V437.92H2460.51C2462.75 437.92 2464.64 438.307 2466.19 439.08C2467.73 439.853 2468.89 440.92 2469.67 442.28C2470.44 443.64 2470.83 445.2 2470.83 446.96ZM2459.99 450.48C2461.29 450.48 2462.27 450.173 2462.91 449.56C2463.55 448.947 2463.87 448.08 2463.87 446.96C2463.87 445.84 2463.55 444.973 2462.91 444.36C2462.27 443.747 2461.29 443.44 2459.99 443.44H2456.27V450.48H2459.99ZM2499.67 466.28C2497.03 466.28 2494.6 465.667 2492.39 464.44C2490.2 463.213 2488.45 461.507 2487.15 459.32C2485.87 457.107 2485.23 454.627 2485.23 451.88C2485.23 449.133 2485.87 446.667 2487.15 444.48C2488.45 442.293 2490.2 440.587 2492.39 439.36C2494.6 438.133 2497.03 437.52 2499.67 437.52C2502.31 437.52 2504.72 438.133 2506.91 439.36C2509.12 440.587 2510.85 442.293 2512.11 444.48C2513.39 446.667 2514.03 449.133 2514.03 451.88C2514.03 454.627 2513.39 457.107 2512.11 459.32C2510.83 461.507 2509.09 463.213 2506.91 464.44C2504.72 465.667 2502.31 466.28 2499.67 466.28ZM2499.67 460.04C2501.91 460.04 2503.69 459.293 2505.03 457.8C2506.39 456.307 2507.07 454.333 2507.07 451.88C2507.07 449.4 2506.39 447.427 2505.03 445.96C2503.69 444.467 2501.91 443.72 2499.67 443.72C2497.4 443.72 2495.59 444.453 2494.23 445.92C2492.89 447.387 2492.23 449.373 2492.23 451.88C2492.23 454.36 2492.89 456.347 2494.23 457.84C2495.59 459.307 2497.4 460.04 2499.67 460.04ZM2536.67 460.72H2545.63V466H2529.83V437.92H2536.67V460.72ZM2567.73 443.4V449.08H2576.89V454.36H2567.73V460.52H2578.09V466H2560.89V437.92H2578.09V443.4H2567.73Z" fill="white"/>
</g>
<path d="M1193.17 860.605L1076.55 876.97L1096.76 822.985L1116.97 769" stroke="white" stroke-width="16" stroke-linecap="round"/>
<path d="M3040 3044.66L3153.88 3014.65L3140.18 3070.65L3126.48 3126.64" stroke="white" stroke-width="16" stroke-linecap="round"/>
<g filter="url(#filter29_d_96_58)">
<path d="M1674.93 2845H1658.51L1631.06 2803.43V2845H1614.64V2777.61H1631.06L1658.51 2819.37V2777.61H1674.93V2845ZM1747.5 2845.67C1741.16 2845.67 1735.34 2844.2 1730.03 2841.26C1724.78 2838.31 1720.59 2834.22 1717.45 2828.97C1714.38 2823.66 1712.84 2817.7 1712.84 2811.11C1712.84 2804.52 1714.38 2798.6 1717.45 2793.35C1720.59 2788.1 1724.78 2784.01 1730.03 2781.06C1735.34 2778.12 1741.16 2776.65 1747.5 2776.65C1753.83 2776.65 1759.63 2778.12 1764.87 2781.06C1770.19 2784.01 1774.35 2788.1 1777.35 2793.35C1780.43 2798.6 1781.96 2804.52 1781.96 2811.11C1781.96 2817.7 1780.43 2823.66 1777.35 2828.97C1774.28 2834.22 1770.12 2838.31 1764.87 2841.26C1759.63 2844.2 1753.83 2845.67 1747.5 2845.67ZM1747.5 2830.7C1752.87 2830.7 1757.16 2828.9 1760.36 2825.32C1763.63 2821.74 1765.26 2817 1765.26 2811.11C1765.26 2805.16 1763.63 2800.42 1760.36 2796.9C1757.16 2793.32 1752.87 2791.53 1747.5 2791.53C1742.06 2791.53 1737.71 2793.29 1734.44 2796.81C1731.24 2800.33 1729.64 2805.1 1729.64 2811.11C1729.64 2817.06 1731.24 2821.83 1734.44 2825.42C1737.71 2828.94 1742.06 2830.7 1747.5 2830.7ZM1854.26 2845L1840.25 2819.56H1836.31V2845H1819.9V2777.61H1847.45C1852.76 2777.61 1857.27 2778.54 1860.98 2780.39C1864.76 2782.25 1867.58 2784.81 1869.43 2788.07C1871.29 2791.27 1872.22 2794.86 1872.22 2798.82C1872.22 2803.3 1870.94 2807.3 1868.38 2810.82C1865.88 2814.34 1862.17 2816.84 1857.24 2818.31L1872.79 2845H1854.26ZM1836.31 2807.94H1846.49C1849.5 2807.94 1851.74 2807.21 1853.21 2805.74C1854.74 2804.26 1855.51 2802.18 1855.51 2799.5C1855.51 2796.94 1854.74 2794.92 1853.21 2793.45C1851.74 2791.98 1849.5 2791.24 1846.49 2791.24H1836.31V2807.94ZM1959.8 2777.61V2790.76H1941.94V2845H1925.53V2790.76H1907.67V2777.61H1959.8ZM2055.21 2777.61V2845H2038.79V2817.26H2013.26V2845H1996.84V2777.61H2013.26V2804.01H2038.79V2777.61H2055.21ZM2196.36 2799.3C2196.36 2803.21 2195.47 2806.79 2193.67 2810.06C2191.88 2813.26 2189.13 2815.85 2185.42 2817.83C2181.71 2819.82 2177.1 2820.81 2171.59 2820.81H2161.42V2845H2145V2777.61H2171.59C2176.97 2777.61 2181.51 2778.54 2185.23 2780.39C2188.94 2782.25 2191.72 2784.81 2193.58 2788.07C2195.43 2791.34 2196.36 2795.08 2196.36 2799.3ZM2170.35 2807.75C2173.48 2807.75 2175.82 2807.02 2177.35 2805.54C2178.89 2804.07 2179.66 2801.99 2179.66 2799.3C2179.66 2796.62 2178.89 2794.54 2177.35 2793.06C2175.82 2791.59 2173.48 2790.86 2170.35 2790.86H2161.42V2807.75H2170.35ZM2265.58 2845.67C2259.24 2845.67 2253.42 2844.2 2248.11 2841.26C2242.86 2838.31 2238.67 2834.22 2235.53 2828.97C2232.46 2823.66 2230.92 2817.7 2230.92 2811.11C2230.92 2804.52 2232.46 2798.6 2235.53 2793.35C2238.67 2788.1 2242.86 2784.01 2248.11 2781.06C2253.42 2778.12 2259.24 2776.65 2265.58 2776.65C2271.92 2776.65 2277.71 2778.12 2282.96 2781.06C2288.27 2784.01 2292.43 2788.1 2295.44 2793.35C2298.51 2798.6 2300.04 2804.52 2300.04 2811.11C2300.04 2817.7 2298.51 2823.66 2295.44 2828.97C2292.36 2834.22 2288.2 2838.31 2282.96 2841.26C2277.71 2844.2 2271.92 2845.67 2265.58 2845.67ZM2265.58 2830.7C2270.96 2830.7 2275.24 2828.9 2278.44 2825.32C2281.71 2821.74 2283.34 2817 2283.34 2811.11C2283.34 2805.16 2281.71 2800.42 2278.44 2796.9C2275.24 2793.32 2270.96 2791.53 2265.58 2791.53C2260.14 2791.53 2255.79 2793.29 2252.52 2796.81C2249.32 2800.33 2247.72 2805.1 2247.72 2811.11C2247.72 2817.06 2249.32 2821.83 2252.52 2825.42C2255.79 2828.94 2260.14 2830.7 2265.58 2830.7ZM2354.39 2832.33H2375.9V2845H2337.98V2777.61H2354.39V2832.33ZM2428.94 2790.76V2804.39H2450.93V2817.06H2428.94V2831.85H2453.81V2845H2412.53V2777.61H2453.81V2790.76H2428.94ZM1558.76 2905.92C1557.55 2903.68 1555.79 2901.98 1553.48 2900.83C1551.24 2899.62 1548.59 2899.01 1545.52 2899.01C1540.2 2899.01 1535.95 2900.77 1532.75 2904.29C1529.55 2907.74 1527.95 2912.38 1527.95 2918.21C1527.95 2924.42 1529.61 2929.28 1532.94 2932.8C1536.33 2936.26 1540.97 2937.98 1546.86 2937.98C1550.89 2937.98 1554.28 2936.96 1557.04 2934.91C1559.85 2932.86 1561.9 2929.92 1563.18 2926.08H1542.35V2913.98H1578.06V2929.25C1576.84 2933.34 1574.76 2937.15 1571.82 2940.67C1568.94 2944.19 1565.26 2947.04 1560.78 2949.22C1556.3 2951.39 1551.24 2952.48 1545.61 2952.48C1538.96 2952.48 1533 2951.04 1527.76 2948.16C1522.57 2945.22 1518.51 2941.15 1515.56 2935.97C1512.68 2930.78 1511.24 2924.86 1511.24 2918.21C1511.24 2911.55 1512.68 2905.63 1515.56 2900.45C1518.51 2895.2 1522.57 2891.14 1527.76 2888.26C1532.94 2885.31 1538.86 2883.84 1545.52 2883.84C1553.58 2883.84 1560.36 2885.79 1565.87 2889.7C1571.44 2893.6 1575.12 2899.01 1576.91 2905.92H1558.76ZM1632.37 2897.76V2911.39H1654.35V2924.06H1632.37V2938.85H1657.23V2952H1615.95V2884.61H1657.23V2897.76H1632.37ZM1745.17 2884.61V2897.76H1727.31V2952H1710.9V2897.76H1693.04V2884.61H1745.17ZM1806.59 2952.67C1801.66 2952.67 1797.25 2951.87 1793.34 2950.27C1789.44 2948.67 1786.3 2946.3 1783.94 2943.17C1781.63 2940.03 1780.42 2936.26 1780.29 2931.84H1797.76C1798.02 2934.34 1798.88 2936.26 1800.35 2937.6C1801.82 2938.88 1803.74 2939.52 1806.11 2939.52C1808.54 2939.52 1810.46 2938.98 1811.87 2937.89C1813.28 2936.74 1813.98 2935.17 1813.98 2933.18C1813.98 2931.52 1813.41 2930.14 1812.26 2929.06C1811.17 2927.97 1809.79 2927.07 1808.13 2926.37C1806.53 2925.66 1804.22 2924.86 1801.22 2923.97C1796.86 2922.62 1793.31 2921.28 1790.56 2919.94C1787.81 2918.59 1785.44 2916.61 1783.46 2913.98C1781.47 2911.36 1780.48 2907.94 1780.48 2903.71C1780.48 2897.44 1782.75 2892.54 1787.3 2889.02C1791.84 2885.44 1797.76 2883.65 1805.06 2883.65C1812.48 2883.65 1818.46 2885.44 1823.01 2889.02C1827.55 2892.54 1829.98 2897.47 1830.3 2903.81H1812.54C1812.42 2901.63 1811.62 2899.94 1810.14 2898.72C1808.67 2897.44 1806.78 2896.8 1804.48 2896.8C1802.5 2896.8 1800.9 2897.34 1799.68 2898.43C1798.46 2899.46 1797.86 2900.96 1797.86 2902.94C1797.86 2905.12 1798.88 2906.82 1800.93 2908.03C1802.98 2909.25 1806.18 2910.56 1810.53 2911.97C1814.88 2913.44 1818.4 2914.85 1821.09 2916.19C1823.84 2917.54 1826.21 2919.49 1828.19 2922.05C1830.18 2924.61 1831.17 2927.9 1831.17 2931.94C1831.17 2935.78 1830.18 2939.26 1828.19 2942.4C1826.27 2945.54 1823.46 2948.03 1819.74 2949.89C1816.03 2951.74 1811.65 2952.67 1806.59 2952.67ZM1943.6 2952.67C1938.67 2952.67 1934.25 2951.87 1930.35 2950.27C1926.45 2948.67 1923.31 2946.3 1920.94 2943.17C1918.64 2940.03 1917.42 2936.26 1917.29 2931.84H1934.77C1935.02 2934.34 1935.89 2936.26 1937.36 2937.6C1938.83 2938.88 1940.75 2939.52 1943.12 2939.52C1945.55 2939.52 1947.47 2938.98 1948.88 2937.89C1950.29 2936.74 1950.99 2935.17 1950.99 2933.18C1950.99 2931.52 1950.41 2930.14 1949.26 2929.06C1948.17 2927.97 1946.8 2927.07 1945.13 2926.37C1943.53 2925.66 1941.23 2924.86 1938.22 2923.97C1933.87 2922.62 1930.32 2921.28 1927.57 2919.94C1924.81 2918.59 1922.45 2916.61 1920.46 2913.98C1918.48 2911.36 1917.49 2907.94 1917.49 2903.71C1917.49 2897.44 1919.76 2892.54 1924.3 2889.02C1928.85 2885.44 1934.77 2883.65 1942.06 2883.65C1949.49 2883.65 1955.47 2885.44 1960.01 2889.02C1964.56 2892.54 1966.99 2897.47 1967.31 2903.81H1949.55C1949.42 2901.63 1948.62 2899.94 1947.15 2898.72C1945.68 2897.44 1943.79 2896.8 1941.49 2896.8C1939.5 2896.8 1937.9 2897.34 1936.69 2898.43C1935.47 2899.46 1934.86 2900.96 1934.86 2902.94C1934.86 2905.12 1935.89 2906.82 1937.93 2908.03C1939.98 2909.25 1943.18 2910.56 1947.53 2911.97C1951.89 2913.44 1955.41 2914.85 1958.09 2916.19C1960.85 2917.54 1963.21 2919.49 1965.2 2922.05C1967.18 2924.61 1968.17 2927.9 1968.17 2931.94C1968.17 2935.78 1967.18 2939.26 1965.2 2942.4C1963.28 2945.54 1960.46 2948.03 1956.75 2949.89C1953.04 2951.74 1948.65 2952.67 1943.6 2952.67ZM2023.21 2884.61V2924.93C2023.21 2928.96 2024.2 2932.06 2026.18 2934.24C2028.17 2936.42 2031.08 2937.5 2034.92 2937.5C2038.76 2937.5 2041.7 2936.42 2043.75 2934.24C2045.8 2932.06 2046.82 2928.96 2046.82 2924.93V2884.61H2063.24V2924.83C2063.24 2930.85 2061.96 2935.94 2059.4 2940.1C2056.84 2944.26 2053.38 2947.39 2049.03 2949.5C2044.74 2951.62 2039.94 2952.67 2034.63 2952.67C2029.32 2952.67 2024.55 2951.65 2020.33 2949.6C2016.17 2947.49 2012.87 2944.35 2010.44 2940.19C2008.01 2935.97 2006.79 2930.85 2006.79 2924.83V2884.61H2023.21ZM2163.85 2952H2147.44L2119.98 2910.43V2952H2103.56V2884.61H2119.98L2147.44 2926.37V2884.61H2163.85V2952ZM2220.97 2939.33H2242.47V2952H2204.55V2884.61H2220.97V2939.33ZM2295.52 2884.61V2952H2279.1V2884.61H2295.52ZM2380.95 2905.92C2379.73 2903.68 2377.97 2901.98 2375.67 2900.83C2373.43 2899.62 2370.77 2899.01 2367.7 2899.01C2362.39 2899.01 2358.13 2900.77 2354.93 2904.29C2351.73 2907.74 2350.13 2912.38 2350.13 2918.21C2350.13 2924.42 2351.8 2929.28 2355.13 2932.8C2358.52 2936.26 2363.16 2937.98 2369.05 2937.98C2373.08 2937.98 2376.47 2936.96 2379.22 2934.91C2382.04 2932.86 2384.09 2929.92 2385.37 2926.08H2364.53V2913.98H2400.25V2929.25C2399.03 2933.34 2396.95 2937.15 2394.01 2940.67C2391.13 2944.19 2387.45 2947.04 2382.97 2949.22C2378.49 2951.39 2373.43 2952.48 2367.8 2952.48C2361.14 2952.48 2355.19 2951.04 2349.94 2948.16C2344.76 2945.22 2340.69 2941.15 2337.75 2935.97C2334.87 2930.78 2333.43 2924.86 2333.43 2918.21C2333.43 2911.55 2334.87 2905.63 2337.75 2900.45C2340.69 2895.2 2344.76 2891.14 2349.94 2888.26C2355.13 2885.31 2361.05 2883.84 2367.7 2883.84C2375.77 2883.84 2382.55 2885.79 2388.05 2889.7C2393.62 2893.6 2397.3 2899.01 2399.09 2905.92H2380.95ZM2496.51 2884.61V2952H2480.09V2924.26H2454.56V2952H2438.14V2884.61H2454.56V2911.01H2480.09V2884.61H2496.51ZM2585.64 2884.61V2897.76H2567.78V2952H2551.37V2897.76H2533.51V2884.61H2585.64Z" fill="#89D6DC"/>
</g>
<g filter="url(#filter30_d_96_58)">
<path d="M1643.05 1116.67C1638.13 1116.67 1633.71 1115.87 1629.81 1114.27C1625.9 1112.67 1622.77 1110.3 1620.4 1107.17C1618.09 1104.03 1616.88 1100.26 1616.75 1095.84H1634.22C1634.48 1098.34 1635.34 1100.26 1636.81 1101.6C1638.29 1102.88 1640.21 1103.52 1642.57 1103.52C1645.01 1103.52 1646.93 1102.98 1648.33 1101.89C1649.74 1100.74 1650.45 1099.17 1650.45 1097.18C1650.45 1095.52 1649.87 1094.14 1648.72 1093.06C1647.63 1091.97 1646.25 1091.07 1644.59 1090.37C1642.99 1089.66 1640.69 1088.86 1637.68 1087.97C1633.33 1086.62 1629.77 1085.28 1627.02 1083.94C1624.27 1082.59 1621.9 1080.61 1619.92 1077.98C1617.93 1075.36 1616.94 1071.94 1616.94 1067.71C1616.94 1061.44 1619.21 1056.54 1623.76 1053.02C1628.3 1049.44 1634.22 1047.65 1641.52 1047.65C1648.94 1047.65 1654.93 1049.44 1659.47 1053.02C1664.01 1056.54 1666.45 1061.47 1666.77 1067.81H1649.01C1648.88 1065.63 1648.08 1063.94 1646.61 1062.72C1645.13 1061.44 1643.25 1060.8 1640.94 1060.8C1638.96 1060.8 1637.36 1061.34 1636.14 1062.43C1634.93 1063.46 1634.32 1064.96 1634.32 1066.94C1634.32 1069.12 1635.34 1070.82 1637.39 1072.03C1639.44 1073.25 1642.64 1074.56 1646.99 1075.97C1651.34 1077.44 1654.86 1078.85 1657.55 1080.19C1660.3 1081.54 1662.67 1083.49 1664.65 1086.05C1666.64 1088.61 1667.63 1091.9 1667.63 1095.94C1667.63 1099.78 1666.64 1103.26 1664.65 1106.4C1662.73 1109.54 1659.92 1112.03 1656.21 1113.89C1652.49 1115.74 1648.11 1116.67 1643.05 1116.67ZM1738.41 1116.67C1732.07 1116.67 1726.25 1115.2 1720.93 1112.26C1715.69 1109.31 1711.49 1105.22 1708.36 1099.97C1705.29 1094.66 1703.75 1088.7 1703.75 1082.11C1703.75 1075.52 1705.29 1069.6 1708.36 1064.35C1711.49 1059.1 1715.69 1055.01 1720.93 1052.06C1726.25 1049.12 1732.07 1047.65 1738.41 1047.65C1744.74 1047.65 1750.53 1049.12 1755.78 1052.06C1761.09 1055.01 1765.25 1059.1 1768.26 1064.35C1771.33 1069.6 1772.87 1075.52 1772.87 1082.11C1772.87 1088.7 1771.33 1094.66 1768.26 1099.97C1765.19 1105.22 1761.03 1109.31 1755.78 1112.26C1750.53 1115.2 1744.74 1116.67 1738.41 1116.67ZM1738.41 1101.7C1743.78 1101.7 1748.07 1099.9 1751.27 1096.32C1754.53 1092.74 1756.17 1088 1756.17 1082.11C1756.17 1076.16 1754.53 1071.42 1751.27 1067.9C1748.07 1064.32 1743.78 1062.53 1738.41 1062.53C1732.97 1062.53 1728.61 1064.29 1725.35 1067.81C1722.15 1071.33 1720.55 1076.1 1720.55 1082.11C1720.55 1088.06 1722.15 1092.83 1725.35 1096.42C1728.61 1099.94 1732.97 1101.7 1738.41 1101.7ZM1826.93 1048.61V1088.93C1826.93 1092.96 1827.92 1096.06 1829.91 1098.24C1831.89 1100.42 1834.8 1101.5 1838.64 1101.5C1842.48 1101.5 1845.43 1100.42 1847.47 1098.24C1849.52 1096.06 1850.55 1092.96 1850.55 1088.93V1048.61H1866.96V1088.83C1866.96 1094.85 1865.68 1099.94 1863.12 1104.1C1860.56 1108.26 1857.11 1111.39 1852.75 1113.5C1848.47 1115.62 1843.67 1116.67 1838.35 1116.67C1833.04 1116.67 1828.27 1115.65 1824.05 1113.6C1819.89 1111.49 1816.59 1108.35 1814.16 1104.19C1811.73 1099.97 1810.51 1094.85 1810.51 1088.83V1048.61H1826.93ZM1955.77 1048.61V1061.76H1937.91V1116H1921.5V1061.76H1903.64V1048.61H1955.77ZM2051.18 1048.61V1116H2034.76V1088.26H2009.22V1116H1992.81V1048.61H2009.22V1075.01H2034.76V1048.61H2051.18ZM2192.33 1070.3C2192.33 1074.21 2191.43 1077.79 2189.64 1081.06C2187.85 1084.26 2185.1 1086.85 2181.39 1088.83C2177.67 1090.82 2173.07 1091.81 2167.56 1091.81H2157.39V1116H2140.97V1048.61H2167.56C2172.94 1048.61 2177.48 1049.54 2181.19 1051.39C2184.91 1053.25 2187.69 1055.81 2189.55 1059.07C2191.4 1062.34 2192.33 1066.08 2192.33 1070.3ZM2166.31 1078.75C2169.45 1078.75 2171.79 1078.02 2173.32 1076.54C2174.86 1075.07 2175.63 1072.99 2175.63 1070.3C2175.63 1067.62 2174.86 1065.54 2173.32 1064.06C2171.79 1062.59 2169.45 1061.86 2166.31 1061.86H2157.39V1078.75H2166.31ZM2261.55 1116.67C2255.21 1116.67 2249.39 1115.2 2244.08 1112.26C2238.83 1109.31 2234.64 1105.22 2231.5 1099.97C2228.43 1094.66 2226.89 1088.7 2226.89 1082.11C2226.89 1075.52 2228.43 1069.6 2231.5 1064.35C2234.64 1059.1 2238.83 1055.01 2244.08 1052.06C2249.39 1049.12 2255.21 1047.65 2261.55 1047.65C2267.88 1047.65 2273.68 1049.12 2278.92 1052.06C2284.24 1055.01 2288.4 1059.1 2291.4 1064.35C2294.48 1069.6 2296.01 1075.52 2296.01 1082.11C2296.01 1088.7 2294.48 1094.66 2291.4 1099.97C2288.33 1105.22 2284.17 1109.31 2278.92 1112.26C2273.68 1115.2 2267.88 1116.67 2261.55 1116.67ZM2261.55 1101.7C2266.92 1101.7 2271.21 1099.9 2274.41 1096.32C2277.68 1092.74 2279.31 1088 2279.31 1082.11C2279.31 1076.16 2277.68 1071.42 2274.41 1067.9C2271.21 1064.32 2266.92 1062.53 2261.55 1062.53C2256.11 1062.53 2251.76 1064.29 2248.49 1067.81C2245.29 1071.33 2243.69 1076.1 2243.69 1082.11C2243.69 1088.06 2245.29 1092.83 2248.49 1096.42C2251.76 1099.94 2256.11 1101.7 2261.55 1101.7ZM2350.36 1103.33H2371.87V1116H2333.95V1048.61H2350.36V1103.33ZM2424.91 1061.76V1075.39H2446.9V1088.06H2424.91V1102.85H2449.78V1116H2408.5V1048.61H2449.78V1061.76H2424.91ZM1558.76 1176.92C1557.55 1174.68 1555.79 1172.98 1553.48 1171.83C1551.24 1170.62 1548.59 1170.01 1545.52 1170.01C1540.2 1170.01 1535.95 1171.77 1532.75 1175.29C1529.55 1178.74 1527.95 1183.38 1527.95 1189.21C1527.95 1195.42 1529.61 1200.28 1532.94 1203.8C1536.33 1207.26 1540.97 1208.98 1546.86 1208.98C1550.89 1208.98 1554.28 1207.96 1557.04 1205.91C1559.85 1203.86 1561.9 1200.92 1563.18 1197.08H1542.35V1184.98H1578.06V1200.25C1576.84 1204.34 1574.76 1208.15 1571.82 1211.67C1568.94 1215.19 1565.26 1218.04 1560.78 1220.22C1556.3 1222.39 1551.24 1223.48 1545.61 1223.48C1538.96 1223.48 1533 1222.04 1527.76 1219.16C1522.57 1216.22 1518.51 1212.15 1515.56 1206.97C1512.68 1201.78 1511.24 1195.86 1511.24 1189.21C1511.24 1182.55 1512.68 1176.63 1515.56 1171.45C1518.51 1166.2 1522.57 1162.14 1527.76 1159.26C1532.94 1156.31 1538.86 1154.84 1545.52 1154.84C1553.58 1154.84 1560.36 1156.79 1565.87 1160.7C1571.44 1164.6 1575.12 1170.01 1576.91 1176.92H1558.76ZM1632.37 1168.76V1182.39H1654.35V1195.06H1632.37V1209.85H1657.23V1223H1615.95V1155.61H1657.23V1168.76H1632.37ZM1745.17 1155.61V1168.76H1727.31V1223H1710.9V1168.76H1693.04V1155.61H1745.17ZM1806.59 1223.67C1801.66 1223.67 1797.25 1222.87 1793.34 1221.27C1789.44 1219.67 1786.3 1217.3 1783.94 1214.17C1781.63 1211.03 1780.42 1207.26 1780.29 1202.84H1797.76C1798.02 1205.34 1798.88 1207.26 1800.35 1208.6C1801.82 1209.88 1803.74 1210.52 1806.11 1210.52C1808.54 1210.52 1810.46 1209.98 1811.87 1208.89C1813.28 1207.74 1813.98 1206.17 1813.98 1204.18C1813.98 1202.52 1813.41 1201.14 1812.26 1200.06C1811.17 1198.97 1809.79 1198.07 1808.13 1197.37C1806.53 1196.66 1804.22 1195.86 1801.22 1194.97C1796.86 1193.62 1793.31 1192.28 1790.56 1190.94C1787.81 1189.59 1785.44 1187.61 1783.46 1184.98C1781.47 1182.36 1780.48 1178.94 1780.48 1174.71C1780.48 1168.44 1782.75 1163.54 1787.3 1160.02C1791.84 1156.44 1797.76 1154.65 1805.06 1154.65C1812.48 1154.65 1818.46 1156.44 1823.01 1160.02C1827.55 1163.54 1829.98 1168.47 1830.3 1174.81H1812.54C1812.42 1172.63 1811.62 1170.94 1810.14 1169.72C1808.67 1168.44 1806.78 1167.8 1804.48 1167.8C1802.5 1167.8 1800.9 1168.34 1799.68 1169.43C1798.46 1170.46 1797.86 1171.96 1797.86 1173.94C1797.86 1176.12 1798.88 1177.82 1800.93 1179.03C1802.98 1180.25 1806.18 1181.56 1810.53 1182.97C1814.88 1184.44 1818.4 1185.85 1821.09 1187.19C1823.84 1188.54 1826.21 1190.49 1828.19 1193.05C1830.18 1195.61 1831.17 1198.9 1831.17 1202.94C1831.17 1206.78 1830.18 1210.26 1828.19 1213.4C1826.27 1216.54 1823.46 1219.03 1819.74 1220.89C1816.03 1222.74 1811.65 1223.67 1806.59 1223.67ZM1943.6 1223.67C1938.67 1223.67 1934.25 1222.87 1930.35 1221.27C1926.45 1219.67 1923.31 1217.3 1920.94 1214.17C1918.64 1211.03 1917.42 1207.26 1917.29 1202.84H1934.77C1935.02 1205.34 1935.89 1207.26 1937.36 1208.6C1938.83 1209.88 1940.75 1210.52 1943.12 1210.52C1945.55 1210.52 1947.47 1209.98 1948.88 1208.89C1950.29 1207.74 1950.99 1206.17 1950.99 1204.18C1950.99 1202.52 1950.41 1201.14 1949.26 1200.06C1948.17 1198.97 1946.8 1198.07 1945.13 1197.37C1943.53 1196.66 1941.23 1195.86 1938.22 1194.97C1933.87 1193.62 1930.32 1192.28 1927.57 1190.94C1924.81 1189.59 1922.45 1187.61 1920.46 1184.98C1918.48 1182.36 1917.49 1178.94 1917.49 1174.71C1917.49 1168.44 1919.76 1163.54 1924.3 1160.02C1928.85 1156.44 1934.77 1154.65 1942.06 1154.65C1949.49 1154.65 1955.47 1156.44 1960.01 1160.02C1964.56 1163.54 1966.99 1168.47 1967.31 1174.81H1949.55C1949.42 1172.63 1948.62 1170.94 1947.15 1169.72C1945.68 1168.44 1943.79 1167.8 1941.49 1167.8C1939.5 1167.8 1937.9 1168.34 1936.69 1169.43C1935.47 1170.46 1934.86 1171.96 1934.86 1173.94C1934.86 1176.12 1935.89 1177.82 1937.93 1179.03C1939.98 1180.25 1943.18 1181.56 1947.53 1182.97C1951.89 1184.44 1955.41 1185.85 1958.09 1187.19C1960.85 1188.54 1963.21 1190.49 1965.2 1193.05C1967.18 1195.61 1968.17 1198.9 1968.17 1202.94C1968.17 1206.78 1967.18 1210.26 1965.2 1213.4C1963.28 1216.54 1960.46 1219.03 1956.75 1220.89C1953.04 1222.74 1948.65 1223.67 1943.6 1223.67ZM2023.21 1155.61V1195.93C2023.21 1199.96 2024.2 1203.06 2026.18 1205.24C2028.17 1207.42 2031.08 1208.5 2034.92 1208.5C2038.76 1208.5 2041.7 1207.42 2043.75 1205.24C2045.8 1203.06 2046.82 1199.96 2046.82 1195.93V1155.61H2063.24V1195.83C2063.24 1201.85 2061.96 1206.94 2059.4 1211.1C2056.84 1215.26 2053.38 1218.39 2049.03 1220.5C2044.74 1222.62 2039.94 1223.67 2034.63 1223.67C2029.32 1223.67 2024.55 1222.65 2020.33 1220.6C2016.17 1218.49 2012.87 1215.35 2010.44 1211.19C2008.01 1206.97 2006.79 1201.85 2006.79 1195.83V1155.61H2023.21ZM2163.85 1223H2147.44L2119.98 1181.43V1223H2103.56V1155.61H2119.98L2147.44 1197.37V1155.61H2163.85V1223ZM2220.97 1210.33H2242.47V1223H2204.55V1155.61H2220.97V1210.33ZM2295.52 1155.61V1223H2279.1V1155.61H2295.52ZM2380.95 1176.92C2379.73 1174.68 2377.97 1172.98 2375.67 1171.83C2373.43 1170.62 2370.77 1170.01 2367.7 1170.01C2362.39 1170.01 2358.13 1171.77 2354.93 1175.29C2351.73 1178.74 2350.13 1183.38 2350.13 1189.21C2350.13 1195.42 2351.8 1200.28 2355.13 1203.8C2358.52 1207.26 2363.16 1208.98 2369.05 1208.98C2373.08 1208.98 2376.47 1207.96 2379.22 1205.91C2382.04 1203.86 2384.09 1200.92 2385.37 1197.08H2364.53V1184.98H2400.25V1200.25C2399.03 1204.34 2396.95 1208.15 2394.01 1211.67C2391.13 1215.19 2387.45 1218.04 2382.97 1220.22C2378.49 1222.39 2373.43 1223.48 2367.8 1223.48C2361.14 1223.48 2355.19 1222.04 2349.94 1219.16C2344.76 1216.22 2340.69 1212.15 2337.75 1206.97C2334.87 1201.78 2333.43 1195.86 2333.43 1189.21C2333.43 1182.55 2334.87 1176.63 2337.75 1171.45C2340.69 1166.2 2344.76 1162.14 2349.94 1159.26C2355.13 1156.31 2361.05 1154.84 2367.7 1154.84C2375.77 1154.84 2382.55 1156.79 2388.05 1160.7C2393.62 1164.6 2397.3 1170.01 2399.09 1176.92H2380.95ZM2496.51 1155.61V1223H2480.09V1195.26H2454.56V1223H2438.14V1155.61H2454.56V1182.01H2480.09V1155.61H2496.51ZM2585.64 1155.61V1168.76H2567.78V1223H2551.37V1168.76H2533.51V1155.61H2585.64Z" fill="#589297"/>
</g>
<defs>
<filter id="filter0_d_96_58" x="205" y="1661" width="708" height="714" filterUnits="userSpaceOnUse" color-interpolation-filters="sRGB">
<feFlood flood-opacity="0" result="BackgroundImageFix"/>
<feColorMatrix in="SourceAlpha" type="matrix" values="0 0 0 0 0 0 0 0 0 0 0 0 0 0 0 0 0 0 127 0" result="hardAlpha"/>
<feOffset dy="10"/>
<feGaussianBlur stdDeviation="2"/>
<feComposite in2="hardAlpha" operator="out"/>
<feColorMatrix type="matrix" values="0 0 0 0 0 0 0 0 0 0 0 0 0 0 0 0 0 0 0.25 0"/>
<feBlend mode="normal" in2="BackgroundImageFix" result="effect1_dropShadow_96_58"/>
<feBlend mode="normal" in="SourceGraphic" in2="effect1_dropShadow_96_58" result="shape"/>
</filter>
<filter id="filter1_d_96_58" x="255" y="1711" width="608" height="614" filterUnits="userSpaceOnUse" color-interpolation-filters="sRGB">
<feFlood flood-opacity="0" result="BackgroundImageFix"/>
<feColorMatrix in="SourceAlpha" type="matrix" values="0 0 0 0 0 0 0 0 0 0 0 0 0 0 0 0 0 0 127 0" result="hardAlpha"/>
<feOffset dy="10"/>
<feGaussianBlur stdDeviation="2"/>
<feComposite in2="hardAlpha" operator="out"/>
<feColorMatrix type="matrix" values="0 0 0 0 0 0 0 0 0 0 0 0 0 0 0 0 0 0 0.25 0"/>
<feBlend mode="normal" in2="BackgroundImageFix" result="effect1_dropShadow_96_58"/>
<feBlend mode="normal" in="SourceGraphic" in2="effect1_dropShadow_96_58" result="shape"/>
</filter>
<filter id="filter2_d_96_58" x="355" y="1811" width="408" height="414" filterUnits="userSpaceOnUse" color-interpolation-filters="sRGB">
<feFlood flood-opacity="0" result="BackgroundImageFix"/>
<feColorMatrix in="SourceAlpha" type="matrix" values="0 0 0 0 0 0 0 0 0 0 0 0 0 0 0 0 0 0 127 0" result="hardAlpha"/>
<feOffset dy="10"/>
<feGaussianBlur stdDeviation="2"/>
<feComposite in2="hardAlpha" operator="out"/>
<feColorMatrix type="matrix" values="0 0 0 0 0 0 0 0 0 0 0 0 0 0 0 0 0 0 0.25 0"/>
<feBlend mode="normal" in2="BackgroundImageFix" result="effect1_dropShadow_96_58"/>
<feBlend mode="normal" in="SourceGraphic" in2="effect1_dropShadow_96_58" result="shape"/>
</filter>
<filter id="filter3_d_96_58" x="491.815" y="1514.59" width="149.135" height="972.516" filterUnits="userSpaceOnUse" color-interpolation-filters="sRGB">
<feFlood flood-opacity="0" result="BackgroundImageFix"/>
<feColorMatrix in="SourceAlpha" type="matrix" values="0 0 0 0 0 0 0 0 0 0 0 0 0 0 0 0 0 0 127 0" result="hardAlpha"/>
<feOffset dy="4"/>
<feGaussianBlur stdDeviation="2"/>
<feComposite in2="hardAlpha" operator="out"/>
<feColorMatrix type="matrix" values="0 0 0 0 0 0 0 0 0 0 0 0 0 0 0 0 0 0 0.25 0"/>
<feBlend mode="normal" in2="BackgroundImageFix" result="effect1_dropShadow_96_58"/>
<feBlend mode="normal" in="SourceGraphic" in2="effect1_dropShadow_96_58" result="shape"/>
</filter>
<filter id="filter4_d_96_58" x="458.36" y="1996.52" width="230.59" height="36.7598" filterUnits="userSpaceOnUse" color-interpolation-filters="sRGB">
<feFlood flood-opacity="0" result="BackgroundImageFix"/>
<feColorMatrix in="SourceAlpha" type="matrix" values="0 0 0 0 0 0 0 0 0 0 0 0 0 0 0 0 0 0 127 0" result="hardAlpha"/>
<feOffset dy="4"/>
<feGaussianBlur stdDeviation="2"/>
<feComposite in2="hardAlpha" operator="out"/>
<feColorMatrix type="matrix" values="0 0 0 0 0 0 0 0 0 0 0 0 0 0 0 0 0 0 0.25 0"/>
<feBlend mode="normal" in2="BackgroundImageFix" result="effect1_dropShadow_96_58"/>
<feBlend mode="normal" in="SourceGraphic" in2="effect1_dropShadow_96_58" result="shape"/>
</filter>
<filter id="filter5_d_96_58" x="7.60577" y="2038.52" width="189.011" height="81.7598" filterUnits="userSpaceOnUse" color-interpolation-filters="sRGB">
<feFlood flood-opacity="0" result="BackgroundImageFix"/>
<feColorMatrix in="SourceAlpha" type="matrix" values="0 0 0 0 0 0 0 0 0 0 0 0 0 0 0 0 0 0 127 0" result="hardAlpha"/>
<feOffset dy="4"/>
<feGaussianBlur stdDeviation="2"/>
<feComposite in2="hardAlpha" operator="out"/>
<feColorMatrix type="matrix" values="0 0 0 0 0 0 0 0 0 0 0 0 0 0 0 0 0 0 0.25 0"/>
<feBlend mode="normal" in2="BackgroundImageFix" result="effect1_dropShadow_96_58"/>
<feBlend mode="normal" in="SourceGraphic" in2="effect1_dropShadow_96_58" result="shape"/>
</filter>
<filter id="filter6_d_96_58" x="913.726" y="2046.52" width="191.57" height="81.7598" filterUnits="userSpaceOnUse" color-interpolation-filters="sRGB">
<feFlood flood-opacity="0" result="BackgroundImageFix"/>
<feColorMatrix in="SourceAlpha" type="matrix" values="0 0 0 0 0 0 0 0 0 0 0 0 0 0 0 0 0 0 127 0" result="hardAlpha"/>
<feOffset dy="4"/>
<feGaussianBlur stdDeviation="2"/>
<feComposite in2="hardAlpha" operator="out"/>
<feColorMatrix type="matrix" values="0 0 0 0 0 0 0 0 0 0 0 0 0 0 0 0 0 0 0.25 0"/>
<feBlend mode="normal" in2="BackgroundImageFix" result="effect1_dropShadow_96_58"/>
<feBlend mode="normal" in="SourceGraphic" in2="effect1_dropShadow_96_58" result="shape"/>
</filter>
<filter id="filter7_d_96_58" x="3205" y="1674" width="708" height="714" filterUnits="userSpaceOnUse" color-interpolation-filters="sRGB">
<feFlood flood-opacity="0" result="BackgroundImageFix"/>
<feColorMatrix in="SourceAlpha" type="matrix" values="0 0 0 0 0 0 0 0 0 0 0 0 0 0 0 0 0 0 127 0" result="hardAlpha"/>
<feOffset dy="10"/>
<feGaussianBlur stdDeviation="2"/>
<feComposite in2="hardAlpha" operator="out"/>
<feColorMatrix type="matrix" values="0 0 0 0 0 0 0 0 0 0 0 0 0 0 0 0 0 0 0.25 0"/>
<feBlend mode="normal" in2="BackgroundImageFix" result="effect1_dropShadow_96_58"/>
<feBlend mode="normal" in="SourceGraphic" in2="effect1_dropShadow_96_58" result="shape"/>
</filter>
<filter id="filter8_d_96_58" x="3255" y="1724" width="608" height="614" filterUnits="userSpaceOnUse" color-interpolation-filters="sRGB">
<feFlood flood-opacity="0" result="BackgroundImageFix"/>
<feColorMatrix in="SourceAlpha" type="matrix" values="0 0 0 0 0 0 0 0 0 0 0 0 0 0 0 0 0 0 127 0" result="hardAlpha"/>
<feOffset dy="10"/>
<feGaussianBlur stdDeviation="2"/>
<feComposite in2="hardAlpha" operator="out"/>
<feColorMatrix type="matrix" values="0 0 0 0 0 0 0 0 0 0 0 0 0 0 0 0 0 0 0.25 0"/>
<feBlend mode="normal" in2="BackgroundImageFix" result="effect1_dropShadow_96_58"/>
<feBlend mode="normal" in="SourceGraphic" in2="effect1_dropShadow_96_58" result="shape"/>
</filter>
<filter id="filter9_d_96_58" x="3355" y="1824" width="408" height="414" filterUnits="userSpaceOnUse" color-interpolation-filters="sRGB">
<feFlood flood-opacity="0" result="BackgroundImageFix"/>
<feColorMatrix in="SourceAlpha" type="matrix" values="0 0 0 0 0 0 0 0 0 0 0 0 0 0 0 0 0 0 127 0" result="hardAlpha"/>
<feOffset dy="10"/>
<feGaussianBlur stdDeviation="2"/>
<feComposite in2="hardAlpha" operator="out"/>
<feColorMatrix type="matrix" values="0 0 0 0 0 0 0 0 0 0 0 0 0 0 0 0 0 0 0.25 0"/>
<feBlend mode="normal" in2="BackgroundImageFix" result="effect1_dropShadow_96_58"/>
<feBlend mode="normal" in="SourceGraphic" in2="effect1_dropShadow_96_58" result="shape"/>
</filter>
<filter id="filter10_d_96_58" x="3491.82" y="1527.59" width="149.135" height="972.516" filterUnits="userSpaceOnUse" color-interpolation-filters="sRGB">
<feFlood flood-opacity="0" result="BackgroundImageFix"/>
<feColorMatrix in="SourceAlpha" type="matrix" values="0 0 0 0 0 0 0 0 0 0 0 0 0 0 0 0 0 0 127 0" result="hardAlpha"/>
<feOffset dy="4"/>
<feGaussianBlur stdDeviation="2"/>
<feComposite in2="hardAlpha" operator="out"/>
<feColorMatrix type="matrix" values="0 0 0 0 0 0 0 0 0 0 0 0 0 0 0 0 0 0 0.25 0"/>
<feBlend mode="normal" in2="BackgroundImageFix" result="effect1_dropShadow_96_58"/>
<feBlend mode="normal" in="SourceGraphic" in2="effect1_dropShadow_96_58" result="shape"/>
</filter>
<filter id="filter11_d_96_58" x="3458.36" y="2009.52" width="230.59" height="36.7598" filterUnits="userSpaceOnUse" color-interpolation-filters="sRGB">
<feFlood flood-opacity="0" result="BackgroundImageFix"/>
<feColorMatrix in="SourceAlpha" type="matrix" values="0 0 0 0 0 0 0 0 0 0 0 0 0 0 0 0 0 0 127 0" result="hardAlpha"/>
<feOffset dy="4"/>
<feGaussianBlur stdDeviation="2"/>
<feComposite in2="hardAlpha" operator="out"/>
<feColorMatrix type="matrix" values="0 0 0 0 0 0 0 0 0 0 0 0 0 0 0 0 0 0 0.25 0"/>
<feBlend mode="normal" in2="BackgroundImageFix" result="effect1_dropShadow_96_58"/>
<feBlend mode="normal" in="SourceGraphic" in2="effect1_dropShadow_96_58" result="shape"/>
</filter>
<filter id="filter12_d_96_58" x="3007.61" y="2051.52" width="189.011" height="81.7598" filterUnits="userSpaceOnUse" color-interpolation-filters="sRGB">
<feFlood flood-opacity="0" result="BackgroundImageFix"/>
<feColorMatrix in="SourceAlpha" type="matrix" values="0 0 0 0 0 0 0 0 0 0 0 0 0 0 0 0 0 0 127 0" result="hardAlpha"/>
<feOffset dy="4"/>
<feGaussianBlur stdDeviation="2"/>
<feComposite in2="hardAlpha" operator="out"/>
<feColorMatrix type="matrix" values="0 0 0 0 0 0 0 0 0 0 0 0 0 0 0 0 0 0 0.25 0"/>
<feBlend mode="normal" in2="BackgroundImageFix" result="effect1_dropShadow_96_58"/>
<feBlend mode="normal" in="SourceGraphic" in2="effect1_dropShadow_96_58" result="shape"/>
</filter>
<filter id="filter13_d_96_58" x="3913.73" y="2059.52" width="191.57" height="81.7598" filterUnits="userSpaceOnUse" color-interpolation-filters="sRGB">
<feFlood flood-opacity="0" result="BackgroundImageFix"/>
<feColorMatrix in="SourceAlpha" type="matrix" values="0 0 0 0 0 0 0 0 0 0 0 0 0 0 0 0 0 0 127 0" result="hardAlpha"/>
<feOffset dy="4"/>
<feGaussianBlur stdDeviation="2"/>
<feComposite in2="hardAlpha" operator="out"/>
<feColorMatrix type="matrix" values="0 0 0 0 0 0 0 0 0 0 0 0 0 0 0 0 0 0 0.25 0"/>
<feBlend mode="normal" in2="BackgroundImageFix" result="effect1_dropShadow_96_58"/>
<feBlend mode="normal" in="SourceGraphic" in2="effect1_dropShadow_96_58" result="shape"/>
</filter>
<filter id="filter14_d_96_58" x="1768.3" y="1988.65" width="570.705" height="77.0239" filterUnits="userSpaceOnUse" color-interpolation-filters="sRGB">
<feFlood flood-opacity="0" result="BackgroundImageFix"/>
<feColorMatrix in="SourceAlpha" type="matrix" values="0 0 0 0 0 0 0 0 0 0 0 0 0 0 0 0 0 0 127 0" result="hardAlpha"/>
<feOffset dy="4"/>
<feGaussianBlur stdDeviation="2"/>
<feComposite in2="hardAlpha" operator="out"/>
<feColorMatrix type="matrix" values="0 0 0 0 0 0 0 0 0 0 0 0 0 0 0 0 0 0 0.25 0"/>
<feBlend mode="normal" in2="BackgroundImageFix" result="effect1_dropShadow_96_58"/>
<feBlend mode="normal" in="SourceGraphic" in2="effect1_dropShadow_96_58" result="shape"/>
</filter>
<filter id="filter15_d_96_58" x="1690" y="3275" width="708" height="714" filterUnits="userSpaceOnUse" color-interpolation-filters="sRGB">
<feFlood flood-opacity="0" result="BackgroundImageFix"/>
<feColorMatrix in="SourceAlpha" type="matrix" values="0 0 0 0 0 0 0 0 0 0 0 0 0 0 0 0 0 0 127 0" result="hardAlpha"/>
<feOffset dy="10"/>
<feGaussianBlur stdDeviation="2"/>
<feComposite in2="hardAlpha" operator="out"/>
<feColorMatrix type="matrix" values="0 0 0 0 0 0 0 0 0 0 0 0 0 0 0 0 0 0 0.25 0"/>
<feBlend mode="normal" in2="BackgroundImageFix" result="effect1_dropShadow_96_58"/>
<feBlend mode="normal" in="SourceGraphic" in2="effect1_dropShadow_96_58" result="shape"/>
</filter>
<filter id="filter16_d_96_58" x="1740" y="3325" width="608" height="614" filterUnits="userSpaceOnUse" color-interpolation-filters="sRGB">
<feFlood flood-opacity="0" result="BackgroundImageFix"/>
<feColorMatrix in="SourceAlpha" type="matrix" values="0 0 0 0 0 0 0 0 0 0 0 0 0 0 0 0 0 0 127 0" result="hardAlpha"/>
<feOffset dy="10"/>
<feGaussianBlur stdDeviation="2"/>
<feComposite in2="hardAlpha" operator="out"/>
<feColorMatrix type="matrix" values="0 0 0 0 0 0 0 0 0 0 0 0 0 0 0 0 0 0 0.25 0"/>
<feBlend mode="normal" in2="BackgroundImageFix" result="effect1_dropShadow_96_58"/>
<feBlend mode="normal" in="SourceGraphic" in2="effect1_dropShadow_96_58" result="shape"/>
</filter>
<filter id="filter17_d_96_58" x="1840" y="3425" width="408" height="414" filterUnits="userSpaceOnUse" color-interpolation-filters="sRGB">
<feFlood flood-opacity="0" result="BackgroundImageFix"/>
<feColorMatrix in="SourceAlpha" type="matrix" values="0 0 0 0 0 0 0 0 0 0 0 0 0 0 0 0 0 0 127 0" result="hardAlpha"/>
<feOffset dy="10"/>
<feGaussianBlur stdDeviation="2"/>
<feComposite in2="hardAlpha" operator="out"/>
<feColorMatrix type="matrix" values="0 0 0 0 0 0 0 0 0 0 0 0 0 0 0 0 0 0 0.25 0"/>
<feBlend mode="normal" in2="BackgroundImageFix" result="effect1_dropShadow_96_58"/>
<feBlend mode="normal" in="SourceGraphic" in2="effect1_dropShadow_96_58" result="shape"/>
</filter>
<filter id="filter18_d_96_58" x="1976.82" y="3128.59" width="149.135" height="972.516" filterUnits="userSpaceOnUse" color-interpolation-filters="sRGB">
<feFlood flood-opacity="0" result="BackgroundImageFix"/>
<feColorMatrix in="SourceAlpha" type="matrix" values="0 0 0 0 0 0 0 0 0 0 0 0 0 0 0 0 0 0 127 0" result="hardAlpha"/>
<feOffset dy="4"/>
<feGaussianBlur stdDeviation="2"/>
<feComposite in2="hardAlpha" operator="out"/>
<feColorMatrix type="matrix" values="0 0 0 0 0 0 0 0 0 0 0 0 0 0 0 0 0 0 0.25 0"/>
<feBlend mode="normal" in2="BackgroundImageFix" result="effect1_dropShadow_96_58"/>
<feBlend mode="normal" in="SourceGraphic" in2="effect1_dropShadow_96_58" result="shape"/>
</filter>
<filter id="filter19_d_96_58" x="1943.36" y="3610.52" width="230.59" height="36.7607" filterUnits="userSpaceOnUse" color-interpolation-filters="sRGB">
<feFlood flood-opacity="0" result="BackgroundImageFix"/>
<feColorMatrix in="SourceAlpha" type="matrix" values="0 0 0 0 0 0 0 0 0 0 0 0 0 0 0 0 0 0 127 0" result="hardAlpha"/>
<feOffset dy="4"/>
<feGaussianBlur stdDeviation="2"/>
<feComposite in2="hardAlpha" operator="out"/>
<feColorMatrix type="matrix" values="0 0 0 0 0 0 0 0 0 0 0 0 0 0 0 0 0 0 0.25 0"/>
<feBlend mode="normal" in2="BackgroundImageFix" result="effect1_dropShadow_96_58"/>
<feBlend mode="normal" in="SourceGraphic" in2="effect1_dropShadow_96_58" result="shape"/>
</filter>
<filter id="filter20_d_96_58" x="1492.61" y="3652.52" width="189.011" height="81.7607" filterUnits="userSpaceOnUse" color-interpolation-filters="sRGB">
<feFlood flood-opacity="0" result="BackgroundImageFix"/>
<feColorMatrix in="SourceAlpha" type="matrix" values="0 0 0 0 0 0 0 0 0 0 0 0 0 0 0 0 0 0 127 0" result="hardAlpha"/>
<feOffset dy="4"/>
<feGaussianBlur stdDeviation="2"/>
<feComposite in2="hardAlpha" operator="out"/>
<feColorMatrix type="matrix" values="0 0 0 0 0 0 0 0 0 0 0 0 0 0 0 0 0 0 0.25 0"/>
<feBlend mode="normal" in2="BackgroundImageFix" result="effect1_dropShadow_96_58"/>
<feBlend mode="normal" in="SourceGraphic" in2="effect1_dropShadow_96_58" result="shape"/>
</filter>
<filter id="filter21_d_96_58" x="2398.73" y="3660.52" width="191.57" height="81.7607" filterUnits="userSpaceOnUse" color-interpolation-filters="sRGB">
<feFlood flood-opacity="0" result="BackgroundImageFix"/>
<feColorMatrix in="SourceAlpha" type="matrix" values="0 0 0 0 0 0 0 0 0 0 0 0 0 0 0 0 0 0 127 0" result="hardAlpha"/>
<feOffset dy="4"/>
<feGaussianBlur stdDeviation="2"/>
<feComposite in2="hardAlpha" operator="out"/>
<feColorMatrix type="matrix" values="0 0 0 0 0 0 0 0 0 0 0 0 0 0 0 0 0 0 0.25 0"/>
<feBlend mode="normal" in2="BackgroundImageFix" result="effect1_dropShadow_96_58"/>
<feBlend mode="normal" in="SourceGraphic" in2="effect1_dropShadow_96_58" result="shape"/>
</filter>
<filter id="filter22_d_96_58" x="1705" y="147" width="708" height="714" filterUnits="userSpaceOnUse" color-interpolation-filters="sRGB">
<feFlood flood-opacity="0" result="BackgroundImageFix"/>
<feColorMatrix in="SourceAlpha" type="matrix" values="0 0 0 0 0 0 0 0 0 0 0 0 0 0 0 0 0 0 127 0" result="hardAlpha"/>
<feOffset dy="10"/>
<feGaussianBlur stdDeviation="2"/>
<feComposite in2="hardAlpha" operator="out"/>
<feColorMatrix type="matrix" values="0 0 0 0 0 0 0 0 0 0 0 0 0 0 0 0 0 0 0.25 0"/>
<feBlend mode="normal" in2="BackgroundImageFix" result="effect1_dropShadow_96_58"/>
<feBlend mode="normal" in="SourceGraphic" in2="effect1_dropShadow_96_58" result="shape"/>
</filter>
<filter id="filter23_d_96_58" x="1755" y="197" width="608" height="614" filterUnits="userSpaceOnUse" color-interpolation-filters="sRGB">
<feFlood flood-opacity="0" result="BackgroundImageFix"/>
<feColorMatrix in="SourceAlpha" type="matrix" values="0 0 0 0 0 0 0 0 0 0 0 0 0 0 0 0 0 0 127 0" result="hardAlpha"/>
<feOffset dy="10"/>
<feGaussianBlur stdDeviation="2"/>
<feComposite in2="hardAlpha" operator="out"/>
<feColorMatrix type="matrix" values="0 0 0 0 0 0 0 0 0 0 0 0 0 0 0 0 0 0 0.25 0"/>
<feBlend mode="normal" in2="BackgroundImageFix" result="effect1_dropShadow_96_58"/>
<feBlend mode="normal" in="SourceGraphic" in2="effect1_dropShadow_96_58" result="shape"/>
</filter>
<filter id="filter24_d_96_58" x="1855" y="297" width="408" height="414" filterUnits="userSpaceOnUse" color-interpolation-filters="sRGB">
<feFlood flood-opacity="0" result="BackgroundImageFix"/>
<feColorMatrix in="SourceAlpha" type="matrix" values="0 0 0 0 0 0 0 0 0 0 0 0 0 0 0 0 0 0 127 0" result="hardAlpha"/>
<feOffset dy="10"/>
<feGaussianBlur stdDeviation="2"/>
<feComposite in2="hardAlpha" operator="out"/>
<feColorMatrix type="matrix" values="0 0 0 0 0 0 0 0 0 0 0 0 0 0 0 0 0 0 0.25 0"/>
<feBlend mode="normal" in2="BackgroundImageFix" result="effect1_dropShadow_96_58"/>
<feBlend mode="normal" in="SourceGraphic" in2="effect1_dropShadow_96_58" result="shape"/>
</filter>
<filter id="filter25_d_96_58" x="1991.82" y="0.593262" width="149.135" height="972.516" filterUnits="userSpaceOnUse" color-interpolation-filters="sRGB">
<feFlood flood-opacity="0" result="BackgroundImageFix"/>
<feColorMatrix in="SourceAlpha" type="matrix" values="0 0 0 0 0 0 0 0 0 0 0 0 0 0 0 0 0 0 127 0" result="hardAlpha"/>
<feOffset dy="4"/>
<feGaussianBlur stdDeviation="2"/>
<feComposite in2="hardAlpha" operator="out"/>
<feColorMatrix type="matrix" values="0 0 0 0 0 0 0 0 0 0 0 0 0 0 0 0 0 0 0.25 0"/>
<feBlend mode="normal" in2="BackgroundImageFix" result="effect1_dropShadow_96_58"/>
<feBlend mode="normal" in="SourceGraphic" in2="effect1_dropShadow_96_58" result="shape"/>
</filter>
<filter id="filter26_d_96_58" x="1958.36" y="482.52" width="230.59" height="36.7598" filterUnits="userSpaceOnUse" color-interpolation-filters="sRGB">
<feFlood flood-opacity="0" result="BackgroundImageFix"/>
<feColorMatrix in="SourceAlpha" type="matrix" values="0 0 0 0 0 0 0 0 0 0 0 0 0 0 0 0 0 0 127 0" result="hardAlpha"/>
<feOffset dy="4"/>
<feGaussianBlur stdDeviation="2"/>
<feComposite in2="hardAlpha" operator="out"/>
<feColorMatrix type="matrix" values="0 0 0 0 0 0 0 0 0 0 0 0 0 0 0 0 0 0 0.25 0"/>
<feBlend mode="normal" in2="BackgroundImageFix" result="effect1_dropShadow_96_58"/>
<feBlend mode="normal" in="SourceGraphic" in2="effect1_dropShadow_96_58" result="shape"/>
</filter>
<filter id="filter27_d_96_58" x="1500.61" y="392.52" width="189.011" height="81.7598" filterUnits="userSpaceOnUse" color-interpolation-filters="sRGB">
<feFlood flood-opacity="0" result="BackgroundImageFix"/>
<feColorMatrix in="SourceAlpha" type="matrix" values="0 0 0 0 0 0 0 0 0 0 0 0 0 0 0 0 0 0 127 0" result="hardAlpha"/>
<feOffset dy="4"/>
<feGaussianBlur stdDeviation="2"/>
<feComposite in2="hardAlpha" operator="out"/>
<feColorMatrix type="matrix" values="0 0 0 0 0 0 0 0 0 0 0 0 0 0 0 0 0 0 0.25 0"/>
<feBlend mode="normal" in2="BackgroundImageFix" result="effect1_dropShadow_96_58"/>
<feBlend mode="normal" in="SourceGraphic" in2="effect1_dropShadow_96_58" result="shape"/>
</filter>
<filter id="filter28_d_96_58" x="2411.73" y="392.52" width="191.57" height="81.7598" filterUnits="userSpaceOnUse" color-interpolation-filters="sRGB">
<feFlood flood-opacity="0" result="BackgroundImageFix"/>
<feColorMatrix in="SourceAlpha" type="matrix" values="0 0 0 0 0 0 0 0 0 0 0 0 0 0 0 0 0 0 127 0" result="hardAlpha"/>
<feOffset dy="4"/>
<feGaussianBlur stdDeviation="2"/>
<feComposite in2="hardAlpha" operator="out"/>
<feColorMatrix type="matrix" values="0 0 0 0 0 0 0 0 0 0 0 0 0 0 0 0 0 0 0.25 0"/>
<feBlend mode="normal" in2="BackgroundImageFix" result="effect1_dropShadow_96_58"/>
<feBlend mode="normal" in="SourceGraphic" in2="effect1_dropShadow_96_58" result="shape"/>
</filter>
<filter id="filter29_d_96_58" x="1507.24" y="2776.65" width="1082.4" height="184.023" filterUnits="userSpaceOnUse" color-interpolation-filters="sRGB">
<feFlood flood-opacity="0" result="BackgroundImageFix"/>
<feColorMatrix in="SourceAlpha" type="matrix" values="0 0 0 0 0 0 0 0 0 0 0 0 0 0 0 0 0 0 127 0" result="hardAlpha"/>
<feOffset dy="4"/>
<feGaussianBlur stdDeviation="2"/>
<feComposite in2="hardAlpha" operator="out"/>
<feColorMatrix type="matrix" values="0 0 0 0 0 0 0 0 0 0 0 0 0 0 0 0 0 0 0.25 0"/>
<feBlend mode="normal" in2="BackgroundImageFix" result="effect1_dropShadow_96_58"/>
<feBlend mode="normal" in="SourceGraphic" in2="effect1_dropShadow_96_58" result="shape"/>
</filter>
<filter id="filter30_d_96_58" x="1507.24" y="1047.65" width="1082.4" height="184.024" filterUnits="userSpaceOnUse" color-interpolation-filters="sRGB">
<feFlood flood-opacity="0" result="BackgroundImageFix"/>
<feColorMatrix in="SourceAlpha" type="matrix" values="0 0 0 0 0 0 0 0 0 0 0 0 0 0 0 0 0 0 127 0" result="hardAlpha"/>
<feOffset dy="4"/>
<feGaussianBlur stdDeviation="2"/>
<feComposite in2="hardAlpha" operator="out"/>
<feColorMatrix type="matrix" values="0 0 0 0 0 0 0 0 0 0 0 0 0 0 0 0 0 0 0.25 0"/>
<feBlend mode="normal" in2="BackgroundImageFix" result="effect1_dropShadow_96_58"/>
<feBlend mode="normal" in="SourceGraphic" in2="effect1_dropShadow_96_58" result="shape"/>
</filter>
<clipPath id="clip0_96_58">
<rect x="548" y="3488" width="1500" height="3000" rx="5" transform="rotate(-90 548 3488)" fill="white"/>
</clipPath>
<clipPath id="clip1_96_58">
<rect x="3548" y="501" width="1487" height="3000" rx="5" transform="rotate(90 3548 501)" fill="white"/>
</clipPath>
</defs>
</svg>
