<svg width="866" height="645" viewBox="0 0 866 645" fill="none" xmlns="http://www.w3.org/2000/svg">
<g filter="url(#filter0_d_64_57)">
<circle cx="304" cy="300" r="300" fill="#CB8D2C"/>
</g>
<g filter="url(#filter1_d_64_57)">
<circle cx="304" cy="300" r="250" fill="#E0BB80"/>
</g>
<circle cx="304" cy="300" r="223.5" stroke="#7A551A" stroke-width="3" stroke-dasharray="10 10"/>
<g filter="url(#filter2_d_64_57)">
<path d="M429 300C429 369.036 373.036 425 304 425C234.964 425 179 369.036 179 300C179 230.964 234.964 175 304 175C373.036 175 429 230.964 429 300Z" fill="#EFDDC0"/>
</g>
<rect width="10" height="3" transform="translate(299 530)" fill="#7A551A"/>
<rect width="3" height="65" transform="translate(302.5 533)" fill="#7A551A"/>
<rect width="10" height="3" transform="translate(299 598)" fill="#7A551A"/>
<path d="M638.32 460.92C638.32 458.147 638.92 455.68 640.12 453.52C641.32 451.333 642.987 449.64 645.12 448.44C647.28 447.213 649.72 446.6 652.44 446.6C655.773 446.6 658.627 447.48 661 449.24C663.373 451 664.96 453.4 665.76 456.44H658.24C657.68 455.267 656.88 454.373 655.84 453.76C654.827 453.147 653.667 452.84 652.36 452.84C650.253 452.84 648.547 453.573 647.24 455.04C645.933 456.507 645.28 458.467 645.28 460.92C645.28 463.373 645.933 465.333 647.24 466.8C648.547 468.267 650.253 469 652.36 469C653.667 469 654.827 468.693 655.84 468.08C656.88 467.467 657.68 466.573 658.24 465.4H665.76C664.96 468.44 663.373 470.84 661 472.6C658.627 474.333 655.773 475.2 652.44 475.2C649.72 475.2 647.28 474.6 645.12 473.4C642.987 472.173 641.32 470.48 640.12 468.32C638.92 466.16 638.32 463.693 638.32 460.92ZM696.269 475L690.429 464.4H688.789V475H681.949V446.92H693.429C695.642 446.92 697.522 447.307 699.069 448.08C700.642 448.853 701.815 449.92 702.589 451.28C703.362 452.613 703.749 454.107 703.749 455.76C703.749 457.627 703.215 459.293 702.149 460.76C701.109 462.227 699.562 463.267 697.509 463.88L703.989 475H696.269ZM688.789 459.56H693.029C694.282 459.56 695.215 459.253 695.829 458.64C696.469 458.027 696.789 457.16 696.789 456.04C696.789 454.973 696.469 454.133 695.829 453.52C695.215 452.907 694.282 452.6 693.029 452.6H688.789V459.56ZM726.763 446.92V463.72C726.763 465.4 727.176 466.693 728.003 467.6C728.829 468.507 730.043 468.96 731.643 468.96C733.243 468.96 734.469 468.507 735.323 467.6C736.176 466.693 736.603 465.4 736.603 463.72V446.92H743.443V463.68C743.443 466.187 742.909 468.307 741.843 470.04C740.776 471.773 739.336 473.08 737.523 473.96C735.736 474.84 733.736 475.28 731.523 475.28C729.309 475.28 727.323 474.853 725.563 474C723.829 473.12 722.456 471.813 721.443 470.08C720.429 468.32 719.923 466.187 719.923 463.68V446.92H726.763ZM770.406 475.28C768.352 475.28 766.512 474.947 764.886 474.28C763.259 473.613 761.952 472.627 760.966 471.32C760.006 470.013 759.499 468.44 759.446 466.6H766.726C766.832 467.64 767.192 468.44 767.806 469C768.419 469.533 769.219 469.8 770.206 469.8C771.219 469.8 772.019 469.573 772.606 469.12C773.192 468.64 773.486 467.987 773.486 467.16C773.486 466.467 773.246 465.893 772.766 465.44C772.312 464.987 771.739 464.613 771.046 464.32C770.379 464.027 769.419 463.693 768.166 463.32C766.352 462.76 764.872 462.2 763.726 461.64C762.579 461.08 761.592 460.253 760.766 459.16C759.939 458.067 759.526 456.64 759.526 454.88C759.526 452.267 760.472 450.227 762.366 448.76C764.259 447.267 766.726 446.52 769.766 446.52C772.859 446.52 775.352 447.267 777.246 448.76C779.139 450.227 780.152 452.28 780.286 454.92H772.886C772.832 454.013 772.499 453.307 771.886 452.8C771.272 452.267 770.486 452 769.526 452C768.699 452 768.032 452.227 767.526 452.68C767.019 453.107 766.766 453.733 766.766 454.56C766.766 455.467 767.192 456.173 768.046 456.68C768.899 457.187 770.232 457.733 772.046 458.32C773.859 458.933 775.326 459.52 776.446 460.08C777.592 460.64 778.579 461.453 779.406 462.52C780.232 463.587 780.646 464.96 780.646 466.64C780.646 468.24 780.232 469.693 779.406 471C778.606 472.307 777.432 473.347 775.886 474.12C774.339 474.893 772.512 475.28 770.406 475.28ZM817.055 446.92V452.4H809.615V475H802.775V452.4H795.335V446.92H817.055Z" fill="#CB8D2C"/>
<path d="M323.621 631.72H332.581V637H316.781V608.92H323.621V631.72ZM354.683 608.92V637H347.843V608.92H354.683ZM391.84 608.92V614.4H384.4V637H377.56V614.4H370.12V608.92H391.84ZM431.593 608.92V637H424.753V625.44H414.113V637H407.273V608.92H414.113V619.92H424.753V608.92H431.593ZM461.811 637.28C459.171 637.28 456.744 636.667 454.531 635.44C452.344 634.213 450.597 632.507 449.291 630.32C448.011 628.107 447.371 625.627 447.371 622.88C447.371 620.133 448.011 617.667 449.291 615.48C450.597 613.293 452.344 611.587 454.531 610.36C456.744 609.133 459.171 608.52 461.811 608.52C464.451 608.52 466.864 609.133 469.051 610.36C471.264 611.587 472.997 613.293 474.251 615.48C475.531 617.667 476.171 620.133 476.171 622.88C476.171 625.627 475.531 628.107 474.251 630.32C472.971 632.507 471.237 634.213 469.051 635.44C466.864 636.667 464.451 637.28 461.811 637.28ZM461.811 631.04C464.051 631.04 465.837 630.293 467.171 628.8C468.531 627.307 469.211 625.333 469.211 622.88C469.211 620.4 468.531 618.427 467.171 616.96C465.837 615.467 464.051 614.72 461.811 614.72C459.544 614.72 457.731 615.453 456.371 616.92C455.037 618.387 454.371 620.373 454.371 622.88C454.371 625.36 455.037 627.347 456.371 628.84C457.731 630.307 459.544 631.04 461.811 631.04ZM502.136 637.28C500.083 637.28 498.243 636.947 496.616 636.28C494.989 635.613 493.683 634.627 492.696 633.32C491.736 632.013 491.229 630.44 491.176 628.6H498.456C498.563 629.64 498.923 630.44 499.536 631C500.149 631.533 500.949 631.8 501.936 631.8C502.949 631.8 503.749 631.573 504.336 631.12C504.923 630.64 505.216 629.987 505.216 629.16C505.216 628.467 504.976 627.893 504.496 627.44C504.043 626.987 503.469 626.613 502.776 626.32C502.109 626.027 501.149 625.693 499.896 625.32C498.083 624.76 496.603 624.2 495.456 623.64C494.309 623.08 493.323 622.253 492.496 621.16C491.669 620.067 491.256 618.64 491.256 616.88C491.256 614.267 492.203 612.227 494.096 610.76C495.989 609.267 498.456 608.52 501.496 608.52C504.589 608.52 507.083 609.267 508.976 610.76C510.869 612.227 511.883 614.28 512.016 616.92H504.616C504.563 616.013 504.229 615.307 503.616 614.8C503.003 614.267 502.216 614 501.256 614C500.429 614 499.763 614.227 499.256 614.68C498.749 615.107 498.496 615.733 498.496 616.56C498.496 617.467 498.923 618.173 499.776 618.68C500.629 619.187 501.963 619.733 503.776 620.32C505.589 620.933 507.056 621.52 508.176 622.08C509.323 622.64 510.309 623.453 511.136 624.52C511.963 625.587 512.376 626.96 512.376 628.64C512.376 630.24 511.963 631.693 511.136 633C510.336 634.307 509.163 635.347 507.616 636.12C506.069 636.893 504.243 637.28 502.136 637.28ZM549.985 617.96C549.985 619.587 549.612 621.08 548.865 622.44C548.119 623.773 546.972 624.853 545.425 625.68C543.879 626.507 541.959 626.92 539.665 626.92H535.425V637H528.585V608.92H539.665C541.905 608.92 543.799 609.307 545.345 610.08C546.892 610.853 548.052 611.92 548.825 613.28C549.599 614.64 549.985 616.2 549.985 617.96ZM539.145 621.48C540.452 621.48 541.425 621.173 542.065 620.56C542.705 619.947 543.025 619.08 543.025 617.96C543.025 616.84 542.705 615.973 542.065 615.36C541.425 614.747 540.452 614.44 539.145 614.44H535.425V621.48H539.145ZM589.866 608.92V637H583.026V625.44H572.386V637H565.546V608.92H572.386V619.92H583.026V608.92H589.866ZM613.644 614.4V620.08H622.804V625.36H613.644V631.52H624.004V637H606.804V608.92H624.004V614.4H613.644ZM654.765 637L648.925 626.4H647.285V637H640.445V608.92H651.925C654.138 608.92 656.018 609.307 657.565 610.08C659.138 610.853 660.312 611.92 661.085 613.28C661.858 614.613 662.245 616.107 662.245 617.76C662.245 619.627 661.712 621.293 660.645 622.76C659.605 624.227 658.058 625.267 656.005 625.88L662.485 637H654.765ZM647.285 621.56H651.525C652.778 621.56 653.712 621.253 654.325 620.64C654.965 620.027 655.285 619.16 655.285 618.04C655.285 616.973 654.965 616.133 654.325 615.52C653.712 614.907 652.778 614.6 651.525 614.6H647.285V621.56ZM685.379 614.4V620.08H694.539V625.36H685.379V631.52H695.739V637H678.539V608.92H695.739V614.4H685.379Z" fill="#7A551A"/>
<path d="M611.496 121.92C611.496 119.147 612.096 116.68 613.296 114.52C614.496 112.333 616.162 110.64 618.296 109.44C620.456 108.213 622.896 107.6 625.616 107.6C628.949 107.6 631.802 108.48 634.176 110.24C636.549 112 638.136 114.4 638.936 117.44H631.416C630.856 116.267 630.056 115.373 629.016 114.76C628.002 114.147 626.842 113.84 625.536 113.84C623.429 113.84 621.722 114.573 620.416 116.04C619.109 117.507 618.456 119.467 618.456 121.92C618.456 124.373 619.109 126.333 620.416 127.8C621.722 129.267 623.429 130 625.536 130C626.842 130 628.002 129.693 629.016 129.08C630.056 128.467 630.856 127.573 631.416 126.4H638.936C638.136 129.44 636.549 131.84 634.176 133.6C631.802 135.333 628.949 136.2 625.616 136.2C622.896 136.2 620.456 135.6 618.296 134.4C616.162 133.173 614.496 131.48 613.296 129.32C612.096 127.16 611.496 124.693 611.496 121.92ZM668.405 136.28C665.765 136.28 663.338 135.667 661.125 134.44C658.938 133.213 657.191 131.507 655.885 129.32C654.605 127.107 653.965 124.627 653.965 121.88C653.965 119.133 654.605 116.667 655.885 114.48C657.191 112.293 658.938 110.587 661.125 109.36C663.338 108.133 665.765 107.52 668.405 107.52C671.045 107.52 673.458 108.133 675.645 109.36C677.858 110.587 679.591 112.293 680.845 114.48C682.125 116.667 682.765 119.133 682.765 121.88C682.765 124.627 682.125 127.107 680.845 129.32C679.565 131.507 677.831 133.213 675.645 134.44C673.458 135.667 671.045 136.28 668.405 136.28ZM668.405 130.04C670.645 130.04 672.431 129.293 673.765 127.8C675.125 126.307 675.805 124.333 675.805 121.88C675.805 119.4 675.125 117.427 673.765 115.96C672.431 114.467 670.645 113.72 668.405 113.72C666.138 113.72 664.325 114.453 662.965 115.92C661.631 117.387 660.965 119.373 660.965 121.88C660.965 124.36 661.631 126.347 662.965 127.84C664.325 129.307 666.138 130.04 668.405 130.04ZM712.89 136L707.05 125.4H705.41V136H698.57V107.92H710.05C712.263 107.92 714.143 108.307 715.69 109.08C717.263 109.853 718.437 110.92 719.21 112.28C719.983 113.613 720.37 115.107 720.37 116.76C720.37 118.627 719.837 120.293 718.77 121.76C717.73 123.227 716.183 124.267 714.13 124.88L720.61 136H712.89ZM705.41 120.56H709.65C710.903 120.56 711.837 120.253 712.45 119.64C713.09 119.027 713.41 118.16 713.41 117.04C713.41 115.973 713.09 115.133 712.45 114.52C711.837 113.907 710.903 113.6 709.65 113.6H705.41V120.56ZM743.504 113.4V119.08H752.664V124.36H743.504V130.52H753.864V136H736.664V107.92H753.864V113.4H743.504Z" fill="#EFDDC0"/>
<path d="M679.468 285.92V314H672.628V297.16L666.348 314H660.828L654.508 297.12V314H647.668V285.92H655.747L663.628 305.36L671.428 285.92H679.468ZM713.866 309.04H703.386L701.706 314H694.546L704.706 285.92H712.626L722.786 314H715.546L713.866 309.04ZM712.106 303.76L708.626 293.48L705.186 303.76H712.106ZM762.998 314H756.158L744.718 296.68V314H737.878V285.92H744.718L756.158 303.32V285.92H762.998V314ZM800.157 285.92V291.4H792.717V314H785.877V291.4H778.437V285.92H800.157ZM822.429 291.4V297.08H831.589V302.36H822.429V308.52H832.789V314H815.589V285.92H832.789V291.4H822.429ZM856.07 308.72H865.03V314H849.23V285.92H856.07V308.72Z" fill="#E0BB80"/>
<g filter="url(#filter3_d_64_57)">
<path d="M412.598 201.468C412.304 202.243 412.693 203.109 413.468 203.402L426.09 208.19C426.865 208.484 427.731 208.094 428.025 207.32C428.319 206.545 427.929 205.679 427.154 205.385L415.934 201.129L420.19 189.91C420.484 189.135 420.094 188.269 419.32 187.975C418.545 187.681 417.679 188.071 417.385 188.846L412.598 201.468ZM593.384 119.632L413.384 200.632L414.616 203.368L594.616 122.368L593.384 119.632Z" fill="#EFDDC0"/>
</g>
<g filter="url(#filter4_d_64_57)">
<path d="M563.939 298.939C563.354 299.525 563.354 300.475 563.939 301.061L573.485 310.607C574.071 311.192 575.021 311.192 575.607 310.607C576.192 310.021 576.192 309.071 575.607 308.485L567.121 300L575.607 291.515C576.192 290.929 576.192 289.979 575.607 289.393C575.021 288.808 574.071 288.808 573.485 289.393L563.939 298.939ZM642 298.5H565V301.5H642V298.5Z" fill="#E0BB80"/>
</g>
<g filter="url(#filter5_d_64_57)">
<path d="M577.091 439.806C576.432 440.308 576.305 441.249 576.806 441.909L584.983 452.651C585.485 453.31 586.426 453.437 587.085 452.936C587.744 452.434 587.872 451.493 587.37 450.833L580.102 441.285L589.65 434.017C590.31 433.515 590.437 432.574 589.936 431.915C589.434 431.256 588.493 431.128 587.833 431.63L577.091 439.806ZM637.202 447.514L578.201 439.514L577.798 442.486L636.798 450.486L637.202 447.514Z" fill="#CB8D2C"/>
</g>
<defs>
<filter id="filter0_d_64_57" x="0" y="0" width="608" height="614" filterUnits="userSpaceOnUse" color-interpolation-filters="sRGB">
<feFlood flood-opacity="0" result="BackgroundImageFix"/>
<feColorMatrix in="SourceAlpha" type="matrix" values="0 0 0 0 0 0 0 0 0 0 0 0 0 0 0 0 0 0 127 0" result="hardAlpha"/>
<feOffset dy="10"/>
<feGaussianBlur stdDeviation="2"/>
<feComposite in2="hardAlpha" operator="out"/>
<feColorMatrix type="matrix" values="0 0 0 0 0 0 0 0 0 0 0 0 0 0 0 0 0 0 0.25 0"/>
<feBlend mode="normal" in2="BackgroundImageFix" result="effect1_dropShadow_64_57"/>
<feBlend mode="normal" in="SourceGraphic" in2="effect1_dropShadow_64_57" result="shape"/>
</filter>
<filter id="filter1_d_64_57" x="50" y="50" width="508" height="514" filterUnits="userSpaceOnUse" color-interpolation-filters="sRGB">
<feFlood flood-opacity="0" result="BackgroundImageFix"/>
<feColorMatrix in="SourceAlpha" type="matrix" values="0 0 0 0 0 0 0 0 0 0 0 0 0 0 0 0 0 0 127 0" result="hardAlpha"/>
<feOffset dy="10"/>
<feGaussianBlur stdDeviation="2"/>
<feComposite in2="hardAlpha" operator="out"/>
<feColorMatrix type="matrix" values="0 0 0 0 0 0 0 0 0 0 0 0 0 0 0 0 0 0 0.25 0"/>
<feBlend mode="normal" in2="BackgroundImageFix" result="effect1_dropShadow_64_57"/>
<feBlend mode="normal" in="SourceGraphic" in2="effect1_dropShadow_64_57" result="shape"/>
</filter>
<filter id="filter2_d_64_57" x="175" y="175" width="258" height="264" filterUnits="userSpaceOnUse" color-interpolation-filters="sRGB">
<feFlood flood-opacity="0" result="BackgroundImageFix"/>
<feColorMatrix in="SourceAlpha" type="matrix" values="0 0 0 0 0 0 0 0 0 0 0 0 0 0 0 0 0 0 127 0" result="hardAlpha"/>
<feOffset dy="10"/>
<feGaussianBlur stdDeviation="2"/>
<feComposite in2="hardAlpha" operator="out"/>
<feColorMatrix type="matrix" values="0 0 0 0 0 0 0 0 0 0 0 0 0 0 0 0 0 0 0.25 0"/>
<feBlend mode="normal" in2="BackgroundImageFix" result="effect1_dropShadow_64_57"/>
<feBlend mode="normal" in="SourceGraphic" in2="effect1_dropShadow_64_57" result="shape"/>
</filter>
<filter id="filter3_d_64_57" x="408.5" y="119.632" width="190.116" height="96.6561" filterUnits="userSpaceOnUse" color-interpolation-filters="sRGB">
<feFlood flood-opacity="0" result="BackgroundImageFix"/>
<feColorMatrix in="SourceAlpha" type="matrix" values="0 0 0 0 0 0 0 0 0 0 0 0 0 0 0 0 0 0 127 0" result="hardAlpha"/>
<feOffset dy="4"/>
<feGaussianBlur stdDeviation="2"/>
<feComposite in2="hardAlpha" operator="out"/>
<feColorMatrix type="matrix" values="0 0 0 0 0 0 0 0 0 0 0 0 0 0 0 0 0 0 0.25 0"/>
<feBlend mode="normal" in2="BackgroundImageFix" result="effect1_dropShadow_64_57"/>
<feBlend mode="normal" in="SourceGraphic" in2="effect1_dropShadow_64_57" result="shape"/>
</filter>
<filter id="filter4_d_64_57" x="559.5" y="288.954" width="86.5" height="30.0919" filterUnits="userSpaceOnUse" color-interpolation-filters="sRGB">
<feFlood flood-opacity="0" result="BackgroundImageFix"/>
<feColorMatrix in="SourceAlpha" type="matrix" values="0 0 0 0 0 0 0 0 0 0 0 0 0 0 0 0 0 0 127 0" result="hardAlpha"/>
<feOffset dy="4"/>
<feGaussianBlur stdDeviation="2"/>
<feComposite in2="hardAlpha" operator="out"/>
<feColorMatrix type="matrix" values="0 0 0 0 0 0 0 0 0 0 0 0 0 0 0 0 0 0 0.25 0"/>
<feBlend mode="normal" in2="BackgroundImageFix" result="effect1_dropShadow_64_57"/>
<feBlend mode="normal" in="SourceGraphic" in2="effect1_dropShadow_64_57" result="shape"/>
</filter>
<filter id="filter5_d_64_57" x="572.5" y="431.323" width="68.7017" height="29.9189" filterUnits="userSpaceOnUse" color-interpolation-filters="sRGB">
<feFlood flood-opacity="0" result="BackgroundImageFix"/>
<feColorMatrix in="SourceAlpha" type="matrix" values="0 0 0 0 0 0 0 0 0 0 0 0 0 0 0 0 0 0 127 0" result="hardAlpha"/>
<feOffset dy="4"/>
<feGaussianBlur stdDeviation="2"/>
<feComposite in2="hardAlpha" operator="out"/>
<feColorMatrix type="matrix" values="0 0 0 0 0 0 0 0 0 0 0 0 0 0 0 0 0 0 0.25 0"/>
<feBlend mode="normal" in2="BackgroundImageFix" result="effect1_dropShadow_64_57"/>
<feBlend mode="normal" in="SourceGraphic" in2="effect1_dropShadow_64_57" result="shape"/>
</filter>
</defs>
</svg>
